G75*
%MOIN*%
%OFA0B0*%
%FSLAX24Y24*%
%IPPOS*%
%LPD*%
%AMOC8*
5,1,8,0,0,1.08239X$1,22.5*
%
%ADD10C,0.0000*%
%ADD11C,0.0080*%
%ADD12C,0.0050*%
%ADD13C,0.0040*%
%ADD14C,0.0090*%
%ADD15C,0.0010*%
%ADD16C,0.0060*%
D10*
X000100Y000550D02*
X000100Y019546D01*
X038970Y019546D01*
X038970Y000550D01*
X000100Y000550D01*
X003509Y001500D02*
X003511Y001548D01*
X003517Y001596D01*
X003527Y001643D01*
X003540Y001689D01*
X003558Y001734D01*
X003578Y001778D01*
X003603Y001820D01*
X003631Y001859D01*
X003661Y001896D01*
X003695Y001930D01*
X003732Y001962D01*
X003770Y001991D01*
X003811Y002016D01*
X003854Y002038D01*
X003899Y002056D01*
X003945Y002070D01*
X003992Y002081D01*
X004040Y002088D01*
X004088Y002091D01*
X004136Y002090D01*
X004184Y002085D01*
X004232Y002076D01*
X004278Y002064D01*
X004323Y002047D01*
X004367Y002027D01*
X004409Y002004D01*
X004449Y001977D01*
X004487Y001947D01*
X004522Y001914D01*
X004554Y001878D01*
X004584Y001840D01*
X004610Y001799D01*
X004632Y001756D01*
X004652Y001712D01*
X004667Y001667D01*
X004679Y001620D01*
X004687Y001572D01*
X004691Y001524D01*
X004691Y001476D01*
X004687Y001428D01*
X004679Y001380D01*
X004667Y001333D01*
X004652Y001288D01*
X004632Y001244D01*
X004610Y001201D01*
X004584Y001160D01*
X004554Y001122D01*
X004522Y001086D01*
X004487Y001053D01*
X004449Y001023D01*
X004409Y000996D01*
X004367Y000973D01*
X004323Y000953D01*
X004278Y000936D01*
X004232Y000924D01*
X004184Y000915D01*
X004136Y000910D01*
X004088Y000909D01*
X004040Y000912D01*
X003992Y000919D01*
X003945Y000930D01*
X003899Y000944D01*
X003854Y000962D01*
X003811Y000984D01*
X003770Y001009D01*
X003732Y001038D01*
X003695Y001070D01*
X003661Y001104D01*
X003631Y001141D01*
X003603Y001180D01*
X003578Y001222D01*
X003558Y001266D01*
X003540Y001311D01*
X003527Y001357D01*
X003517Y001404D01*
X003511Y001452D01*
X003509Y001500D01*
X003509Y013700D02*
X003511Y013748D01*
X003517Y013796D01*
X003527Y013843D01*
X003540Y013889D01*
X003558Y013934D01*
X003578Y013978D01*
X003603Y014020D01*
X003631Y014059D01*
X003661Y014096D01*
X003695Y014130D01*
X003732Y014162D01*
X003770Y014191D01*
X003811Y014216D01*
X003854Y014238D01*
X003899Y014256D01*
X003945Y014270D01*
X003992Y014281D01*
X004040Y014288D01*
X004088Y014291D01*
X004136Y014290D01*
X004184Y014285D01*
X004232Y014276D01*
X004278Y014264D01*
X004323Y014247D01*
X004367Y014227D01*
X004409Y014204D01*
X004449Y014177D01*
X004487Y014147D01*
X004522Y014114D01*
X004554Y014078D01*
X004584Y014040D01*
X004610Y013999D01*
X004632Y013956D01*
X004652Y013912D01*
X004667Y013867D01*
X004679Y013820D01*
X004687Y013772D01*
X004691Y013724D01*
X004691Y013676D01*
X004687Y013628D01*
X004679Y013580D01*
X004667Y013533D01*
X004652Y013488D01*
X004632Y013444D01*
X004610Y013401D01*
X004584Y013360D01*
X004554Y013322D01*
X004522Y013286D01*
X004487Y013253D01*
X004449Y013223D01*
X004409Y013196D01*
X004367Y013173D01*
X004323Y013153D01*
X004278Y013136D01*
X004232Y013124D01*
X004184Y013115D01*
X004136Y013110D01*
X004088Y013109D01*
X004040Y013112D01*
X003992Y013119D01*
X003945Y013130D01*
X003899Y013144D01*
X003854Y013162D01*
X003811Y013184D01*
X003770Y013209D01*
X003732Y013238D01*
X003695Y013270D01*
X003661Y013304D01*
X003631Y013341D01*
X003603Y013380D01*
X003578Y013422D01*
X003558Y013466D01*
X003540Y013511D01*
X003527Y013557D01*
X003517Y013604D01*
X003511Y013652D01*
X003509Y013700D01*
X033009Y013700D02*
X033011Y013748D01*
X033017Y013796D01*
X033027Y013843D01*
X033040Y013889D01*
X033058Y013934D01*
X033078Y013978D01*
X033103Y014020D01*
X033131Y014059D01*
X033161Y014096D01*
X033195Y014130D01*
X033232Y014162D01*
X033270Y014191D01*
X033311Y014216D01*
X033354Y014238D01*
X033399Y014256D01*
X033445Y014270D01*
X033492Y014281D01*
X033540Y014288D01*
X033588Y014291D01*
X033636Y014290D01*
X033684Y014285D01*
X033732Y014276D01*
X033778Y014264D01*
X033823Y014247D01*
X033867Y014227D01*
X033909Y014204D01*
X033949Y014177D01*
X033987Y014147D01*
X034022Y014114D01*
X034054Y014078D01*
X034084Y014040D01*
X034110Y013999D01*
X034132Y013956D01*
X034152Y013912D01*
X034167Y013867D01*
X034179Y013820D01*
X034187Y013772D01*
X034191Y013724D01*
X034191Y013676D01*
X034187Y013628D01*
X034179Y013580D01*
X034167Y013533D01*
X034152Y013488D01*
X034132Y013444D01*
X034110Y013401D01*
X034084Y013360D01*
X034054Y013322D01*
X034022Y013286D01*
X033987Y013253D01*
X033949Y013223D01*
X033909Y013196D01*
X033867Y013173D01*
X033823Y013153D01*
X033778Y013136D01*
X033732Y013124D01*
X033684Y013115D01*
X033636Y013110D01*
X033588Y013109D01*
X033540Y013112D01*
X033492Y013119D01*
X033445Y013130D01*
X033399Y013144D01*
X033354Y013162D01*
X033311Y013184D01*
X033270Y013209D01*
X033232Y013238D01*
X033195Y013270D01*
X033161Y013304D01*
X033131Y013341D01*
X033103Y013380D01*
X033078Y013422D01*
X033058Y013466D01*
X033040Y013511D01*
X033027Y013557D01*
X033017Y013604D01*
X033011Y013652D01*
X033009Y013700D01*
X033009Y001500D02*
X033011Y001548D01*
X033017Y001596D01*
X033027Y001643D01*
X033040Y001689D01*
X033058Y001734D01*
X033078Y001778D01*
X033103Y001820D01*
X033131Y001859D01*
X033161Y001896D01*
X033195Y001930D01*
X033232Y001962D01*
X033270Y001991D01*
X033311Y002016D01*
X033354Y002038D01*
X033399Y002056D01*
X033445Y002070D01*
X033492Y002081D01*
X033540Y002088D01*
X033588Y002091D01*
X033636Y002090D01*
X033684Y002085D01*
X033732Y002076D01*
X033778Y002064D01*
X033823Y002047D01*
X033867Y002027D01*
X033909Y002004D01*
X033949Y001977D01*
X033987Y001947D01*
X034022Y001914D01*
X034054Y001878D01*
X034084Y001840D01*
X034110Y001799D01*
X034132Y001756D01*
X034152Y001712D01*
X034167Y001667D01*
X034179Y001620D01*
X034187Y001572D01*
X034191Y001524D01*
X034191Y001476D01*
X034187Y001428D01*
X034179Y001380D01*
X034167Y001333D01*
X034152Y001288D01*
X034132Y001244D01*
X034110Y001201D01*
X034084Y001160D01*
X034054Y001122D01*
X034022Y001086D01*
X033987Y001053D01*
X033949Y001023D01*
X033909Y000996D01*
X033867Y000973D01*
X033823Y000953D01*
X033778Y000936D01*
X033732Y000924D01*
X033684Y000915D01*
X033636Y000910D01*
X033588Y000909D01*
X033540Y000912D01*
X033492Y000919D01*
X033445Y000930D01*
X033399Y000944D01*
X033354Y000962D01*
X033311Y000984D01*
X033270Y001009D01*
X033232Y001038D01*
X033195Y001070D01*
X033161Y001104D01*
X033131Y001141D01*
X033103Y001180D01*
X033078Y001222D01*
X033058Y001266D01*
X033040Y001311D01*
X033027Y001357D01*
X033017Y001404D01*
X033011Y001452D01*
X033009Y001500D01*
D11*
X006560Y002730D02*
X006140Y002730D01*
X006140Y002590D02*
X006140Y002870D01*
X006420Y002590D02*
X006560Y002730D01*
X006350Y003511D02*
X006350Y003791D01*
X006280Y004432D02*
X006140Y004572D01*
X006280Y004712D01*
X006560Y004712D01*
X006490Y004892D02*
X006420Y004892D01*
X006350Y004962D01*
X006350Y005102D01*
X006280Y005172D01*
X006210Y005172D01*
X006140Y005102D01*
X006140Y004962D01*
X006210Y004892D01*
X006490Y004892D02*
X006560Y004962D01*
X006560Y005102D01*
X006490Y005172D01*
X006490Y005352D02*
X006420Y005352D01*
X006350Y005422D01*
X006350Y005563D01*
X006280Y005633D01*
X006210Y005633D01*
X006140Y005563D01*
X006140Y005422D01*
X006210Y005352D01*
X006490Y005352D02*
X006560Y005422D01*
X006560Y005563D01*
X006490Y005633D01*
X006560Y004432D02*
X006280Y004432D01*
X027700Y014850D02*
X028505Y014850D01*
X029300Y015200D02*
X029300Y016900D01*
X028493Y017250D02*
X027700Y017250D01*
X026900Y016900D02*
X026900Y015200D01*
X027400Y016050D02*
X027402Y016102D01*
X027408Y016154D01*
X027418Y016206D01*
X027431Y016256D01*
X027448Y016306D01*
X027469Y016354D01*
X027494Y016400D01*
X027522Y016444D01*
X027553Y016486D01*
X027587Y016526D01*
X027624Y016563D01*
X027664Y016597D01*
X027706Y016628D01*
X027750Y016656D01*
X027796Y016681D01*
X027844Y016702D01*
X027894Y016719D01*
X027944Y016732D01*
X027996Y016742D01*
X028048Y016748D01*
X028100Y016750D01*
X028152Y016748D01*
X028204Y016742D01*
X028256Y016732D01*
X028306Y016719D01*
X028356Y016702D01*
X028404Y016681D01*
X028450Y016656D01*
X028494Y016628D01*
X028536Y016597D01*
X028576Y016563D01*
X028613Y016526D01*
X028647Y016486D01*
X028678Y016444D01*
X028706Y016400D01*
X028731Y016354D01*
X028752Y016306D01*
X028769Y016256D01*
X028782Y016206D01*
X028792Y016154D01*
X028798Y016102D01*
X028800Y016050D01*
X028798Y015998D01*
X028792Y015946D01*
X028782Y015894D01*
X028769Y015844D01*
X028752Y015794D01*
X028731Y015746D01*
X028706Y015700D01*
X028678Y015656D01*
X028647Y015614D01*
X028613Y015574D01*
X028576Y015537D01*
X028536Y015503D01*
X028494Y015472D01*
X028450Y015444D01*
X028404Y015419D01*
X028356Y015398D01*
X028306Y015381D01*
X028256Y015368D01*
X028204Y015358D01*
X028152Y015352D01*
X028100Y015350D01*
X028048Y015352D01*
X027996Y015358D01*
X027944Y015368D01*
X027894Y015381D01*
X027844Y015398D01*
X027796Y015419D01*
X027750Y015444D01*
X027706Y015472D01*
X027664Y015503D01*
X027624Y015537D01*
X027587Y015574D01*
X027553Y015614D01*
X027522Y015656D01*
X027494Y015700D01*
X027469Y015746D01*
X027448Y015794D01*
X027431Y015844D01*
X027418Y015894D01*
X027408Y015946D01*
X027402Y015998D01*
X027400Y016050D01*
X004600Y015800D02*
X004600Y017300D01*
X001100Y017300D02*
X001100Y015800D01*
D12*
X003499Y013700D02*
X003501Y013748D01*
X003507Y013796D01*
X003517Y013843D01*
X003530Y013889D01*
X003548Y013934D01*
X003568Y013978D01*
X003593Y014020D01*
X003621Y014059D01*
X003651Y014096D01*
X003685Y014130D01*
X003722Y014162D01*
X003760Y014191D01*
X003801Y014216D01*
X003844Y014238D01*
X003889Y014256D01*
X003935Y014270D01*
X003982Y014281D01*
X004030Y014288D01*
X004078Y014291D01*
X004126Y014290D01*
X004174Y014285D01*
X004222Y014276D01*
X004268Y014264D01*
X004313Y014247D01*
X004357Y014227D01*
X004399Y014204D01*
X004439Y014177D01*
X004477Y014147D01*
X004512Y014114D01*
X004544Y014078D01*
X004574Y014040D01*
X004600Y013999D01*
X004622Y013956D01*
X004642Y013912D01*
X004657Y013867D01*
X004669Y013820D01*
X004677Y013772D01*
X004681Y013724D01*
X004681Y013676D01*
X004677Y013628D01*
X004669Y013580D01*
X004657Y013533D01*
X004642Y013488D01*
X004622Y013444D01*
X004600Y013401D01*
X004574Y013360D01*
X004544Y013322D01*
X004512Y013286D01*
X004477Y013253D01*
X004439Y013223D01*
X004399Y013196D01*
X004357Y013173D01*
X004313Y013153D01*
X004268Y013136D01*
X004222Y013124D01*
X004174Y013115D01*
X004126Y013110D01*
X004078Y013109D01*
X004030Y013112D01*
X003982Y013119D01*
X003935Y013130D01*
X003889Y013144D01*
X003844Y013162D01*
X003801Y013184D01*
X003760Y013209D01*
X003722Y013238D01*
X003685Y013270D01*
X003651Y013304D01*
X003621Y013341D01*
X003593Y013380D01*
X003568Y013422D01*
X003548Y013466D01*
X003530Y013511D01*
X003517Y013557D01*
X003507Y013604D01*
X003501Y013652D01*
X003499Y013700D01*
X007600Y013550D02*
X007600Y014550D01*
X007600Y013550D02*
X010100Y011050D01*
X013600Y011050D01*
X016100Y013550D01*
X016100Y014550D01*
X016100Y016550D02*
X016100Y019550D01*
X007600Y019550D01*
X007600Y016550D01*
X007867Y018775D02*
X007775Y018866D01*
X007775Y019233D01*
X007867Y019325D01*
X008050Y019325D01*
X008142Y019233D01*
X008327Y019142D02*
X008603Y019142D01*
X008694Y019050D01*
X008694Y018866D01*
X008603Y018775D01*
X008327Y018775D01*
X008327Y019325D01*
X008511Y019142D02*
X008694Y019325D01*
X008880Y019325D02*
X009247Y018958D01*
X009247Y018866D01*
X009155Y018775D01*
X008972Y018775D01*
X008880Y018866D01*
X009432Y018866D02*
X009524Y018775D01*
X009708Y018775D01*
X009799Y018866D01*
X009432Y019233D01*
X009524Y019325D01*
X009708Y019325D01*
X009799Y019233D01*
X009799Y018866D01*
X009985Y018866D02*
X010077Y018775D01*
X010260Y018775D01*
X010352Y018866D01*
X010352Y018958D01*
X009985Y019325D01*
X010352Y019325D01*
X010537Y019233D02*
X010629Y019325D01*
X010813Y019325D01*
X010904Y019233D01*
X010904Y019142D01*
X010813Y019050D01*
X010721Y019050D01*
X010813Y019050D02*
X010904Y018958D01*
X010904Y018866D01*
X010813Y018775D01*
X010629Y018775D01*
X010537Y018866D01*
X009432Y018866D02*
X009432Y019233D01*
X009247Y019325D02*
X008880Y019325D01*
X008142Y018866D02*
X008050Y018775D01*
X007867Y018775D01*
X027564Y014075D02*
X027865Y014075D01*
X027714Y014075D02*
X027714Y014525D01*
X027865Y014375D01*
X028025Y014450D02*
X028100Y014525D01*
X028250Y014525D01*
X028325Y014450D01*
X028325Y014375D01*
X028250Y014300D01*
X028100Y014300D01*
X028025Y014225D01*
X028025Y014150D01*
X028100Y014075D01*
X028250Y014075D01*
X028325Y014150D01*
X033029Y013700D02*
X033031Y013748D01*
X033037Y013796D01*
X033047Y013843D01*
X033060Y013889D01*
X033078Y013934D01*
X033098Y013978D01*
X033123Y014020D01*
X033151Y014059D01*
X033181Y014096D01*
X033215Y014130D01*
X033252Y014162D01*
X033290Y014191D01*
X033331Y014216D01*
X033374Y014238D01*
X033419Y014256D01*
X033465Y014270D01*
X033512Y014281D01*
X033560Y014288D01*
X033608Y014291D01*
X033656Y014290D01*
X033704Y014285D01*
X033752Y014276D01*
X033798Y014264D01*
X033843Y014247D01*
X033887Y014227D01*
X033929Y014204D01*
X033969Y014177D01*
X034007Y014147D01*
X034042Y014114D01*
X034074Y014078D01*
X034104Y014040D01*
X034130Y013999D01*
X034152Y013956D01*
X034172Y013912D01*
X034187Y013867D01*
X034199Y013820D01*
X034207Y013772D01*
X034211Y013724D01*
X034211Y013676D01*
X034207Y013628D01*
X034199Y013580D01*
X034187Y013533D01*
X034172Y013488D01*
X034152Y013444D01*
X034130Y013401D01*
X034104Y013360D01*
X034074Y013322D01*
X034042Y013286D01*
X034007Y013253D01*
X033969Y013223D01*
X033929Y013196D01*
X033887Y013173D01*
X033843Y013153D01*
X033798Y013136D01*
X033752Y013124D01*
X033704Y013115D01*
X033656Y013110D01*
X033608Y013109D01*
X033560Y013112D01*
X033512Y013119D01*
X033465Y013130D01*
X033419Y013144D01*
X033374Y013162D01*
X033331Y013184D01*
X033290Y013209D01*
X033252Y013238D01*
X033215Y013270D01*
X033181Y013304D01*
X033151Y013341D01*
X033123Y013380D01*
X033098Y013422D01*
X033078Y013466D01*
X033060Y013511D01*
X033047Y013557D01*
X033037Y013604D01*
X033031Y013652D01*
X033029Y013700D01*
X033029Y001500D02*
X033031Y001548D01*
X033037Y001596D01*
X033047Y001643D01*
X033060Y001689D01*
X033078Y001734D01*
X033098Y001778D01*
X033123Y001820D01*
X033151Y001859D01*
X033181Y001896D01*
X033215Y001930D01*
X033252Y001962D01*
X033290Y001991D01*
X033331Y002016D01*
X033374Y002038D01*
X033419Y002056D01*
X033465Y002070D01*
X033512Y002081D01*
X033560Y002088D01*
X033608Y002091D01*
X033656Y002090D01*
X033704Y002085D01*
X033752Y002076D01*
X033798Y002064D01*
X033843Y002047D01*
X033887Y002027D01*
X033929Y002004D01*
X033969Y001977D01*
X034007Y001947D01*
X034042Y001914D01*
X034074Y001878D01*
X034104Y001840D01*
X034130Y001799D01*
X034152Y001756D01*
X034172Y001712D01*
X034187Y001667D01*
X034199Y001620D01*
X034207Y001572D01*
X034211Y001524D01*
X034211Y001476D01*
X034207Y001428D01*
X034199Y001380D01*
X034187Y001333D01*
X034172Y001288D01*
X034152Y001244D01*
X034130Y001201D01*
X034104Y001160D01*
X034074Y001122D01*
X034042Y001086D01*
X034007Y001053D01*
X033969Y001023D01*
X033929Y000996D01*
X033887Y000973D01*
X033843Y000953D01*
X033798Y000936D01*
X033752Y000924D01*
X033704Y000915D01*
X033656Y000910D01*
X033608Y000909D01*
X033560Y000912D01*
X033512Y000919D01*
X033465Y000930D01*
X033419Y000944D01*
X033374Y000962D01*
X033331Y000984D01*
X033290Y001009D01*
X033252Y001038D01*
X033215Y001070D01*
X033181Y001104D01*
X033151Y001141D01*
X033123Y001180D01*
X033098Y001222D01*
X033078Y001266D01*
X033060Y001311D01*
X033047Y001357D01*
X033037Y001404D01*
X033031Y001452D01*
X033029Y001500D01*
X003499Y001500D02*
X003501Y001548D01*
X003507Y001596D01*
X003517Y001643D01*
X003530Y001689D01*
X003548Y001734D01*
X003568Y001778D01*
X003593Y001820D01*
X003621Y001859D01*
X003651Y001896D01*
X003685Y001930D01*
X003722Y001962D01*
X003760Y001991D01*
X003801Y002016D01*
X003844Y002038D01*
X003889Y002056D01*
X003935Y002070D01*
X003982Y002081D01*
X004030Y002088D01*
X004078Y002091D01*
X004126Y002090D01*
X004174Y002085D01*
X004222Y002076D01*
X004268Y002064D01*
X004313Y002047D01*
X004357Y002027D01*
X004399Y002004D01*
X004439Y001977D01*
X004477Y001947D01*
X004512Y001914D01*
X004544Y001878D01*
X004574Y001840D01*
X004600Y001799D01*
X004622Y001756D01*
X004642Y001712D01*
X004657Y001667D01*
X004669Y001620D01*
X004677Y001572D01*
X004681Y001524D01*
X004681Y001476D01*
X004677Y001428D01*
X004669Y001380D01*
X004657Y001333D01*
X004642Y001288D01*
X004622Y001244D01*
X004600Y001201D01*
X004574Y001160D01*
X004544Y001122D01*
X004512Y001086D01*
X004477Y001053D01*
X004439Y001023D01*
X004399Y000996D01*
X004357Y000973D01*
X004313Y000953D01*
X004268Y000936D01*
X004222Y000924D01*
X004174Y000915D01*
X004126Y000910D01*
X004078Y000909D01*
X004030Y000912D01*
X003982Y000919D01*
X003935Y000930D01*
X003889Y000944D01*
X003844Y000962D01*
X003801Y000984D01*
X003760Y001009D01*
X003722Y001038D01*
X003685Y001070D01*
X003651Y001104D01*
X003621Y001141D01*
X003593Y001180D01*
X003568Y001222D01*
X003548Y001266D01*
X003530Y001311D01*
X003517Y001357D01*
X003507Y001404D01*
X003501Y001452D01*
X003499Y001500D01*
D13*
X009023Y018300D02*
X009330Y018300D01*
D14*
X010725Y011863D02*
X011060Y011863D01*
X011172Y011751D01*
X011172Y011639D01*
X011060Y011528D01*
X010725Y011528D01*
X011060Y011528D02*
X011172Y011416D01*
X011172Y011304D01*
X011060Y011192D01*
X010725Y011192D01*
X010725Y011863D01*
X011424Y011863D02*
X011424Y011416D01*
X011648Y011192D01*
X011871Y011416D01*
X011871Y011863D01*
X012348Y011863D02*
X012348Y011192D01*
X012571Y011192D02*
X012124Y011192D01*
X011871Y011528D02*
X011424Y011528D01*
X012824Y011416D02*
X013048Y011192D01*
X013048Y011863D01*
X013271Y011863D02*
X012824Y011863D01*
D15*
X004568Y015770D02*
X004640Y015824D01*
X004639Y015823D02*
X004682Y015770D01*
X004727Y015719D01*
X004776Y015671D01*
X004827Y015626D01*
X004881Y015583D01*
X004937Y015544D01*
X004995Y015508D01*
X005055Y015475D01*
X005116Y015446D01*
X005180Y015421D01*
X005244Y015399D01*
X005310Y015380D01*
X005377Y015366D01*
X005444Y015355D01*
X005512Y015348D01*
X005580Y015345D01*
X005649Y015346D01*
X005717Y015351D01*
X005785Y015359D01*
X005852Y015372D01*
X005918Y015388D01*
X005983Y015408D01*
X006048Y015431D01*
X006110Y015458D01*
X006171Y015489D01*
X006230Y015523D01*
X006288Y015560D01*
X006343Y015601D01*
X006395Y015645D01*
X006445Y015691D01*
X006492Y015740D01*
X006537Y015792D01*
X006578Y015846D01*
X006617Y015903D01*
X006652Y015962D01*
X006683Y016022D01*
X006711Y016084D01*
X006736Y016148D01*
X006757Y016213D01*
X006774Y016279D01*
X006788Y016346D01*
X006797Y016414D01*
X006803Y016482D01*
X006805Y016550D01*
X006803Y016618D01*
X006797Y016686D01*
X006788Y016754D01*
X006774Y016821D01*
X006757Y016887D01*
X006736Y016952D01*
X006711Y017016D01*
X006683Y017078D01*
X006652Y017138D01*
X006617Y017197D01*
X006578Y017254D01*
X006537Y017308D01*
X006492Y017360D01*
X006445Y017409D01*
X006395Y017455D01*
X006343Y017499D01*
X006288Y017540D01*
X006230Y017577D01*
X006171Y017611D01*
X006110Y017642D01*
X006048Y017669D01*
X005983Y017692D01*
X005918Y017712D01*
X005852Y017728D01*
X005785Y017741D01*
X005717Y017749D01*
X005649Y017754D01*
X005580Y017755D01*
X005512Y017752D01*
X005444Y017745D01*
X005377Y017734D01*
X005310Y017720D01*
X005244Y017701D01*
X005180Y017679D01*
X005116Y017654D01*
X005055Y017625D01*
X004995Y017592D01*
X004937Y017556D01*
X004881Y017517D01*
X004827Y017474D01*
X004776Y017429D01*
X004727Y017381D01*
X004682Y017330D01*
X004639Y017277D01*
X004568Y017330D01*
X004567Y017331D01*
X004611Y017386D01*
X004659Y017439D01*
X004709Y017490D01*
X004762Y017537D01*
X004817Y017581D01*
X004875Y017623D01*
X004935Y017661D01*
X004996Y017696D01*
X005060Y017727D01*
X005125Y017755D01*
X005192Y017779D01*
X005260Y017800D01*
X005329Y017816D01*
X005399Y017829D01*
X005469Y017838D01*
X005540Y017844D01*
X005611Y017845D01*
X005682Y017842D01*
X005753Y017836D01*
X005823Y017826D01*
X005892Y017812D01*
X005961Y017794D01*
X006029Y017772D01*
X006095Y017747D01*
X006160Y017718D01*
X006223Y017685D01*
X006284Y017649D01*
X006343Y017610D01*
X006400Y017568D01*
X006455Y017523D01*
X006507Y017474D01*
X006556Y017423D01*
X006603Y017370D01*
X006646Y017313D01*
X006686Y017255D01*
X006723Y017194D01*
X006757Y017132D01*
X006787Y017068D01*
X006814Y017002D01*
X006837Y016935D01*
X006856Y016866D01*
X006871Y016797D01*
X006883Y016727D01*
X006891Y016656D01*
X006895Y016585D01*
X006895Y016515D01*
X006891Y016444D01*
X006883Y016373D01*
X006871Y016303D01*
X006856Y016234D01*
X006837Y016165D01*
X006814Y016098D01*
X006787Y016032D01*
X006757Y015968D01*
X006723Y015906D01*
X006686Y015845D01*
X006646Y015787D01*
X006603Y015730D01*
X006556Y015677D01*
X006507Y015626D01*
X006455Y015577D01*
X006400Y015532D01*
X006343Y015490D01*
X006284Y015451D01*
X006223Y015415D01*
X006160Y015382D01*
X006095Y015353D01*
X006029Y015328D01*
X005961Y015306D01*
X005892Y015288D01*
X005823Y015274D01*
X005753Y015264D01*
X005682Y015258D01*
X005611Y015255D01*
X005540Y015256D01*
X005469Y015262D01*
X005399Y015271D01*
X005329Y015284D01*
X005260Y015300D01*
X005192Y015321D01*
X005125Y015345D01*
X005060Y015373D01*
X004996Y015404D01*
X004935Y015439D01*
X004875Y015477D01*
X004817Y015519D01*
X004762Y015563D01*
X004709Y015610D01*
X004659Y015661D01*
X004611Y015714D01*
X004567Y015769D01*
X004574Y015774D01*
X004619Y015719D01*
X004666Y015666D01*
X004717Y015615D01*
X004770Y015568D01*
X004826Y015523D01*
X004884Y015482D01*
X004944Y015444D01*
X005006Y015409D01*
X005070Y015378D01*
X005136Y015351D01*
X005203Y015327D01*
X005272Y015307D01*
X005341Y015290D01*
X005411Y015278D01*
X005482Y015269D01*
X005553Y015265D01*
X005624Y015264D01*
X005695Y015268D01*
X005766Y015275D01*
X005837Y015286D01*
X005906Y015301D01*
X005975Y015320D01*
X006043Y015343D01*
X006109Y015369D01*
X006174Y015399D01*
X006236Y015433D01*
X006297Y015469D01*
X006356Y015510D01*
X006413Y015553D01*
X006467Y015600D01*
X006518Y015649D01*
X006566Y015702D01*
X006612Y015756D01*
X006654Y015814D01*
X006693Y015873D01*
X006729Y015935D01*
X006762Y015998D01*
X006790Y016063D01*
X006816Y016130D01*
X006837Y016198D01*
X006855Y016267D01*
X006868Y016337D01*
X006878Y016408D01*
X006884Y016479D01*
X006886Y016550D01*
X006884Y016621D01*
X006878Y016692D01*
X006868Y016763D01*
X006855Y016833D01*
X006837Y016902D01*
X006816Y016970D01*
X006790Y017037D01*
X006762Y017102D01*
X006729Y017165D01*
X006693Y017227D01*
X006654Y017286D01*
X006612Y017344D01*
X006566Y017398D01*
X006518Y017451D01*
X006467Y017500D01*
X006413Y017547D01*
X006356Y017590D01*
X006297Y017631D01*
X006236Y017667D01*
X006174Y017701D01*
X006109Y017731D01*
X006043Y017757D01*
X005975Y017780D01*
X005906Y017799D01*
X005837Y017814D01*
X005766Y017825D01*
X005695Y017832D01*
X005624Y017836D01*
X005553Y017835D01*
X005482Y017831D01*
X005411Y017822D01*
X005341Y017810D01*
X005272Y017793D01*
X005203Y017773D01*
X005136Y017749D01*
X005070Y017722D01*
X005006Y017691D01*
X004944Y017656D01*
X004884Y017618D01*
X004826Y017577D01*
X004770Y017532D01*
X004717Y017485D01*
X004666Y017434D01*
X004619Y017381D01*
X004574Y017326D01*
X004581Y017320D01*
X004626Y017375D01*
X004673Y017428D01*
X004723Y017478D01*
X004776Y017525D01*
X004831Y017569D01*
X004889Y017611D01*
X004948Y017648D01*
X005010Y017683D01*
X005074Y017714D01*
X005139Y017741D01*
X005206Y017765D01*
X005274Y017785D01*
X005343Y017801D01*
X005412Y017813D01*
X005483Y017822D01*
X005553Y017826D01*
X005624Y017827D01*
X005695Y017823D01*
X005765Y017816D01*
X005835Y017805D01*
X005904Y017790D01*
X005972Y017771D01*
X006040Y017749D01*
X006105Y017723D01*
X006170Y017693D01*
X006232Y017660D01*
X006292Y017623D01*
X006351Y017583D01*
X006407Y017540D01*
X006461Y017494D01*
X006511Y017444D01*
X006560Y017393D01*
X006605Y017338D01*
X006647Y017281D01*
X006686Y017222D01*
X006721Y017161D01*
X006754Y017098D01*
X006782Y017033D01*
X006807Y016967D01*
X006828Y016899D01*
X006846Y016831D01*
X006859Y016761D01*
X006869Y016691D01*
X006875Y016621D01*
X006877Y016550D01*
X006875Y016479D01*
X006869Y016409D01*
X006859Y016339D01*
X006846Y016269D01*
X006828Y016201D01*
X006807Y016133D01*
X006782Y016067D01*
X006754Y016002D01*
X006721Y015939D01*
X006686Y015878D01*
X006647Y015819D01*
X006605Y015762D01*
X006560Y015707D01*
X006511Y015656D01*
X006461Y015606D01*
X006407Y015560D01*
X006351Y015517D01*
X006292Y015477D01*
X006232Y015440D01*
X006170Y015407D01*
X006105Y015377D01*
X006040Y015351D01*
X005972Y015329D01*
X005904Y015310D01*
X005835Y015295D01*
X005765Y015284D01*
X005695Y015277D01*
X005624Y015273D01*
X005553Y015274D01*
X005483Y015278D01*
X005412Y015287D01*
X005343Y015299D01*
X005274Y015315D01*
X005206Y015335D01*
X005139Y015359D01*
X005074Y015386D01*
X005010Y015417D01*
X004948Y015452D01*
X004889Y015489D01*
X004831Y015531D01*
X004776Y015575D01*
X004723Y015622D01*
X004673Y015672D01*
X004626Y015725D01*
X004581Y015780D01*
X004589Y015785D01*
X004633Y015730D01*
X004681Y015677D01*
X004731Y015627D01*
X004784Y015579D01*
X004840Y015535D01*
X004898Y015494D01*
X004958Y015457D01*
X005020Y015422D01*
X005084Y015392D01*
X005150Y015365D01*
X005217Y015341D01*
X005285Y015322D01*
X005355Y015306D01*
X005425Y015294D01*
X005495Y015286D01*
X005566Y015282D01*
X005637Y015283D01*
X005708Y015287D01*
X005779Y015295D01*
X005849Y015307D01*
X005918Y015323D01*
X005986Y015342D01*
X006054Y015366D01*
X006119Y015393D01*
X006183Y015424D01*
X006245Y015458D01*
X006305Y015496D01*
X006363Y015538D01*
X006419Y015582D01*
X006472Y015629D01*
X006522Y015680D01*
X006569Y015733D01*
X006614Y015788D01*
X006655Y015846D01*
X006692Y015906D01*
X006727Y015969D01*
X006758Y016033D01*
X006785Y016098D01*
X006808Y016165D01*
X006828Y016234D01*
X006844Y016303D01*
X006856Y016373D01*
X006864Y016444D01*
X006868Y016514D01*
X006868Y016586D01*
X006864Y016656D01*
X006856Y016727D01*
X006844Y016797D01*
X006828Y016866D01*
X006808Y016935D01*
X006785Y017002D01*
X006758Y017067D01*
X006727Y017131D01*
X006692Y017194D01*
X006655Y017254D01*
X006614Y017312D01*
X006569Y017367D01*
X006522Y017420D01*
X006472Y017471D01*
X006419Y017518D01*
X006363Y017562D01*
X006305Y017604D01*
X006245Y017642D01*
X006183Y017676D01*
X006119Y017707D01*
X006054Y017734D01*
X005986Y017758D01*
X005918Y017777D01*
X005849Y017793D01*
X005779Y017805D01*
X005708Y017813D01*
X005637Y017817D01*
X005566Y017818D01*
X005495Y017814D01*
X005425Y017806D01*
X005355Y017794D01*
X005285Y017778D01*
X005217Y017759D01*
X005150Y017735D01*
X005084Y017708D01*
X005020Y017678D01*
X004958Y017643D01*
X004898Y017606D01*
X004840Y017565D01*
X004784Y017521D01*
X004731Y017473D01*
X004681Y017423D01*
X004633Y017370D01*
X004589Y017315D01*
X004596Y017309D01*
X004640Y017364D01*
X004687Y017417D01*
X004737Y017467D01*
X004790Y017514D01*
X004845Y017558D01*
X004903Y017598D01*
X004962Y017636D01*
X005024Y017670D01*
X005088Y017700D01*
X005153Y017727D01*
X005220Y017750D01*
X005288Y017770D01*
X005356Y017785D01*
X005426Y017797D01*
X005496Y017805D01*
X005567Y017809D01*
X005637Y017808D01*
X005708Y017804D01*
X005778Y017796D01*
X005847Y017784D01*
X005916Y017769D01*
X005984Y017749D01*
X006050Y017726D01*
X006115Y017699D01*
X006179Y017668D01*
X006241Y017634D01*
X006300Y017596D01*
X006358Y017555D01*
X006413Y017511D01*
X006466Y017464D01*
X006515Y017414D01*
X006562Y017362D01*
X006606Y017306D01*
X006647Y017249D01*
X006685Y017189D01*
X006719Y017127D01*
X006749Y017064D01*
X006776Y016999D01*
X006800Y016932D01*
X006819Y016864D01*
X006835Y016795D01*
X006847Y016726D01*
X006855Y016656D01*
X006859Y016585D01*
X006859Y016515D01*
X006855Y016444D01*
X006847Y016374D01*
X006835Y016305D01*
X006819Y016236D01*
X006800Y016168D01*
X006776Y016101D01*
X006749Y016036D01*
X006719Y015973D01*
X006685Y015911D01*
X006647Y015851D01*
X006606Y015794D01*
X006562Y015738D01*
X006515Y015686D01*
X006466Y015636D01*
X006413Y015589D01*
X006358Y015545D01*
X006300Y015504D01*
X006241Y015466D01*
X006179Y015432D01*
X006115Y015401D01*
X006050Y015374D01*
X005984Y015351D01*
X005916Y015331D01*
X005847Y015316D01*
X005778Y015304D01*
X005708Y015296D01*
X005637Y015292D01*
X005567Y015291D01*
X005496Y015295D01*
X005426Y015303D01*
X005356Y015315D01*
X005288Y015330D01*
X005220Y015350D01*
X005153Y015373D01*
X005088Y015400D01*
X005024Y015430D01*
X004962Y015464D01*
X004903Y015502D01*
X004845Y015542D01*
X004790Y015586D01*
X004737Y015633D01*
X004687Y015683D01*
X004640Y015736D01*
X004596Y015791D01*
X004603Y015796D01*
X004647Y015741D01*
X004694Y015689D01*
X004743Y015640D01*
X004796Y015593D01*
X004850Y015550D01*
X004908Y015509D01*
X004967Y015472D01*
X005028Y015438D01*
X005092Y015408D01*
X005156Y015381D01*
X005223Y015358D01*
X005290Y015339D01*
X005358Y015324D01*
X005427Y015312D01*
X005497Y015304D01*
X005567Y015300D01*
X005637Y015301D01*
X005707Y015305D01*
X005776Y015313D01*
X005845Y015324D01*
X005914Y015340D01*
X005981Y015359D01*
X006047Y015383D01*
X006112Y015410D01*
X006175Y015440D01*
X006236Y015474D01*
X006295Y015511D01*
X006353Y015552D01*
X006407Y015596D01*
X006459Y015642D01*
X006509Y015692D01*
X006556Y015744D01*
X006599Y015799D01*
X006640Y015856D01*
X006677Y015915D01*
X006711Y015977D01*
X006741Y016040D01*
X006768Y016105D01*
X006791Y016171D01*
X006810Y016238D01*
X006826Y016306D01*
X006838Y016375D01*
X006846Y016445D01*
X006850Y016515D01*
X006850Y016585D01*
X006846Y016655D01*
X006838Y016725D01*
X006826Y016794D01*
X006810Y016862D01*
X006791Y016929D01*
X006768Y016995D01*
X006741Y017060D01*
X006711Y017123D01*
X006677Y017185D01*
X006640Y017244D01*
X006599Y017301D01*
X006556Y017356D01*
X006509Y017408D01*
X006459Y017458D01*
X006407Y017504D01*
X006353Y017548D01*
X006295Y017589D01*
X006236Y017626D01*
X006175Y017660D01*
X006112Y017690D01*
X006047Y017717D01*
X005981Y017741D01*
X005914Y017760D01*
X005845Y017776D01*
X005776Y017787D01*
X005707Y017795D01*
X005637Y017799D01*
X005567Y017800D01*
X005497Y017796D01*
X005427Y017788D01*
X005358Y017776D01*
X005290Y017761D01*
X005223Y017742D01*
X005156Y017719D01*
X005092Y017692D01*
X005028Y017662D01*
X004967Y017628D01*
X004908Y017591D01*
X004850Y017550D01*
X004796Y017507D01*
X004743Y017460D01*
X004694Y017411D01*
X004647Y017359D01*
X004603Y017304D01*
X004610Y017299D01*
X004654Y017353D01*
X004700Y017405D01*
X004749Y017454D01*
X004801Y017500D01*
X004856Y017543D01*
X004913Y017583D01*
X004972Y017620D01*
X005033Y017654D01*
X005095Y017684D01*
X005160Y017710D01*
X005225Y017733D01*
X005292Y017752D01*
X005360Y017768D01*
X005429Y017779D01*
X005498Y017787D01*
X005567Y017791D01*
X005637Y017790D01*
X005706Y017786D01*
X005775Y017779D01*
X005844Y017767D01*
X005911Y017751D01*
X005978Y017732D01*
X006044Y017709D01*
X006108Y017682D01*
X006171Y017652D01*
X006232Y017618D01*
X006290Y017581D01*
X006347Y017541D01*
X006401Y017498D01*
X006453Y017451D01*
X006502Y017402D01*
X006549Y017350D01*
X006592Y017296D01*
X006632Y017239D01*
X006669Y017180D01*
X006703Y017119D01*
X006733Y017056D01*
X006760Y016992D01*
X006783Y016927D01*
X006802Y016860D01*
X006817Y016792D01*
X006829Y016723D01*
X006837Y016654D01*
X006841Y016585D01*
X006841Y016515D01*
X006837Y016446D01*
X006829Y016377D01*
X006817Y016308D01*
X006802Y016240D01*
X006783Y016173D01*
X006760Y016108D01*
X006733Y016044D01*
X006703Y015981D01*
X006669Y015920D01*
X006632Y015861D01*
X006592Y015804D01*
X006549Y015750D01*
X006502Y015698D01*
X006453Y015649D01*
X006401Y015602D01*
X006347Y015559D01*
X006290Y015519D01*
X006232Y015482D01*
X006171Y015448D01*
X006108Y015418D01*
X006044Y015391D01*
X005978Y015368D01*
X005911Y015349D01*
X005844Y015333D01*
X005775Y015321D01*
X005706Y015314D01*
X005637Y015310D01*
X005567Y015309D01*
X005498Y015313D01*
X005429Y015321D01*
X005360Y015332D01*
X005292Y015348D01*
X005225Y015367D01*
X005160Y015390D01*
X005095Y015416D01*
X005033Y015446D01*
X004972Y015480D01*
X004913Y015517D01*
X004856Y015557D01*
X004801Y015600D01*
X004749Y015646D01*
X004700Y015695D01*
X004654Y015747D01*
X004610Y015801D01*
X004617Y015807D01*
X004661Y015753D01*
X004707Y015702D01*
X004756Y015653D01*
X004807Y015607D01*
X004861Y015564D01*
X004918Y015524D01*
X004976Y015488D01*
X005037Y015454D01*
X005099Y015424D01*
X005163Y015398D01*
X005228Y015376D01*
X005294Y015357D01*
X005362Y015341D01*
X005430Y015330D01*
X005498Y015322D01*
X005567Y015318D01*
X005636Y015319D01*
X005705Y015323D01*
X005774Y015330D01*
X005842Y015342D01*
X005909Y015357D01*
X005976Y015377D01*
X006041Y015400D01*
X006104Y015426D01*
X006167Y015456D01*
X006227Y015489D01*
X006285Y015526D01*
X006342Y015566D01*
X006396Y015609D01*
X006447Y015655D01*
X006496Y015704D01*
X006542Y015756D01*
X006585Y015810D01*
X006625Y015866D01*
X006661Y015925D01*
X006695Y015985D01*
X006725Y016047D01*
X006751Y016111D01*
X006774Y016176D01*
X006793Y016243D01*
X006808Y016310D01*
X006820Y016378D01*
X006828Y016447D01*
X006832Y016515D01*
X006832Y016585D01*
X006828Y016653D01*
X006820Y016722D01*
X006808Y016790D01*
X006793Y016857D01*
X006774Y016924D01*
X006751Y016989D01*
X006725Y017053D01*
X006695Y017115D01*
X006661Y017175D01*
X006625Y017234D01*
X006585Y017290D01*
X006542Y017344D01*
X006496Y017396D01*
X006447Y017445D01*
X006396Y017491D01*
X006342Y017534D01*
X006285Y017574D01*
X006227Y017611D01*
X006167Y017644D01*
X006104Y017674D01*
X006041Y017700D01*
X005976Y017723D01*
X005909Y017743D01*
X005842Y017758D01*
X005774Y017770D01*
X005705Y017777D01*
X005636Y017781D01*
X005567Y017782D01*
X005498Y017778D01*
X005430Y017770D01*
X005362Y017759D01*
X005294Y017743D01*
X005228Y017724D01*
X005163Y017702D01*
X005099Y017676D01*
X005037Y017646D01*
X004976Y017612D01*
X004918Y017576D01*
X004861Y017536D01*
X004807Y017493D01*
X004756Y017447D01*
X004707Y017398D01*
X004661Y017347D01*
X004617Y017293D01*
X004625Y017288D01*
X004668Y017342D01*
X004714Y017393D01*
X004764Y017442D01*
X004815Y017488D01*
X004870Y017531D01*
X004927Y017571D01*
X004985Y017607D01*
X005046Y017641D01*
X005109Y017670D01*
X005173Y017696D01*
X005239Y017718D01*
X005306Y017737D01*
X005373Y017752D01*
X005442Y017763D01*
X005511Y017770D01*
X005580Y017773D01*
X005649Y017772D01*
X005719Y017767D01*
X005787Y017759D01*
X005855Y017746D01*
X005923Y017730D01*
X005989Y017709D01*
X006054Y017686D01*
X006118Y017658D01*
X006180Y017627D01*
X006240Y017592D01*
X006298Y017554D01*
X006354Y017513D01*
X006407Y017469D01*
X006458Y017422D01*
X006506Y017372D01*
X006551Y017319D01*
X006593Y017264D01*
X006632Y017207D01*
X006667Y017147D01*
X006699Y017086D01*
X006728Y017023D01*
X006753Y016958D01*
X006774Y016892D01*
X006792Y016825D01*
X006805Y016757D01*
X006815Y016688D01*
X006821Y016619D01*
X006823Y016550D01*
X006821Y016481D01*
X006815Y016412D01*
X006805Y016343D01*
X006792Y016275D01*
X006774Y016208D01*
X006753Y016142D01*
X006728Y016077D01*
X006699Y016014D01*
X006667Y015953D01*
X006632Y015893D01*
X006593Y015836D01*
X006551Y015781D01*
X006506Y015728D01*
X006458Y015678D01*
X006407Y015631D01*
X006354Y015587D01*
X006298Y015546D01*
X006240Y015508D01*
X006180Y015473D01*
X006118Y015442D01*
X006054Y015414D01*
X005989Y015391D01*
X005923Y015370D01*
X005855Y015354D01*
X005787Y015341D01*
X005719Y015333D01*
X005649Y015328D01*
X005580Y015327D01*
X005511Y015330D01*
X005442Y015337D01*
X005373Y015348D01*
X005306Y015363D01*
X005239Y015382D01*
X005173Y015404D01*
X005109Y015430D01*
X005046Y015459D01*
X004985Y015493D01*
X004927Y015529D01*
X004870Y015569D01*
X004815Y015612D01*
X004764Y015658D01*
X004714Y015707D01*
X004668Y015758D01*
X004625Y015812D01*
X004632Y015818D01*
X004675Y015764D01*
X004721Y015713D01*
X004770Y015664D01*
X004821Y015619D01*
X004875Y015576D01*
X004932Y015537D01*
X004990Y015500D01*
X005050Y015467D01*
X005113Y015438D01*
X005176Y015412D01*
X005242Y015390D01*
X005308Y015372D01*
X005375Y015357D01*
X005443Y015346D01*
X005512Y015339D01*
X005580Y015336D01*
X005649Y015337D01*
X005718Y015342D01*
X005786Y015350D01*
X005854Y015363D01*
X005920Y015379D01*
X005986Y015399D01*
X006051Y015423D01*
X006114Y015450D01*
X006175Y015481D01*
X006235Y015515D01*
X006293Y015553D01*
X006348Y015594D01*
X006401Y015638D01*
X006451Y015685D01*
X006499Y015734D01*
X006544Y015786D01*
X006586Y015841D01*
X006624Y015898D01*
X006659Y015957D01*
X006691Y016018D01*
X006720Y016081D01*
X006744Y016145D01*
X006766Y016211D01*
X006783Y016277D01*
X006796Y016345D01*
X006806Y016413D01*
X006812Y016481D01*
X006814Y016550D01*
X006812Y016619D01*
X006806Y016687D01*
X006796Y016755D01*
X006783Y016823D01*
X006766Y016889D01*
X006744Y016955D01*
X006720Y017019D01*
X006691Y017082D01*
X006659Y017143D01*
X006624Y017202D01*
X006586Y017259D01*
X006544Y017314D01*
X006499Y017366D01*
X006451Y017415D01*
X006401Y017462D01*
X006348Y017506D01*
X006293Y017547D01*
X006235Y017585D01*
X006175Y017619D01*
X006114Y017650D01*
X006051Y017677D01*
X005986Y017701D01*
X005920Y017721D01*
X005854Y017737D01*
X005786Y017750D01*
X005718Y017758D01*
X005649Y017763D01*
X005580Y017764D01*
X005512Y017761D01*
X005443Y017754D01*
X005375Y017743D01*
X005308Y017728D01*
X005242Y017710D01*
X005176Y017688D01*
X005113Y017662D01*
X005050Y017633D01*
X004990Y017600D01*
X004932Y017563D01*
X004875Y017524D01*
X004821Y017481D01*
X004770Y017436D01*
X004721Y017387D01*
X004675Y017336D01*
X004632Y017282D01*
X001068Y015770D02*
X001140Y015824D01*
X001139Y015823D02*
X001182Y015770D01*
X001227Y015719D01*
X001276Y015671D01*
X001327Y015626D01*
X001381Y015583D01*
X001437Y015544D01*
X001495Y015508D01*
X001555Y015475D01*
X001616Y015446D01*
X001680Y015421D01*
X001744Y015399D01*
X001810Y015380D01*
X001877Y015366D01*
X001944Y015355D01*
X002012Y015348D01*
X002080Y015345D01*
X002149Y015346D01*
X002217Y015351D01*
X002285Y015359D01*
X002352Y015372D01*
X002418Y015388D01*
X002483Y015408D01*
X002548Y015431D01*
X002610Y015458D01*
X002671Y015489D01*
X002730Y015523D01*
X002788Y015560D01*
X002843Y015601D01*
X002895Y015645D01*
X002945Y015691D01*
X002992Y015740D01*
X003037Y015792D01*
X003078Y015846D01*
X003117Y015903D01*
X003152Y015962D01*
X003183Y016022D01*
X003211Y016084D01*
X003236Y016148D01*
X003257Y016213D01*
X003274Y016279D01*
X003288Y016346D01*
X003297Y016414D01*
X003303Y016482D01*
X003305Y016550D01*
X003303Y016618D01*
X003297Y016686D01*
X003288Y016754D01*
X003274Y016821D01*
X003257Y016887D01*
X003236Y016952D01*
X003211Y017016D01*
X003183Y017078D01*
X003152Y017138D01*
X003117Y017197D01*
X003078Y017254D01*
X003037Y017308D01*
X002992Y017360D01*
X002945Y017409D01*
X002895Y017455D01*
X002843Y017499D01*
X002788Y017540D01*
X002730Y017577D01*
X002671Y017611D01*
X002610Y017642D01*
X002548Y017669D01*
X002483Y017692D01*
X002418Y017712D01*
X002352Y017728D01*
X002285Y017741D01*
X002217Y017749D01*
X002149Y017754D01*
X002080Y017755D01*
X002012Y017752D01*
X001944Y017745D01*
X001877Y017734D01*
X001810Y017720D01*
X001744Y017701D01*
X001680Y017679D01*
X001616Y017654D01*
X001555Y017625D01*
X001495Y017592D01*
X001437Y017556D01*
X001381Y017517D01*
X001327Y017474D01*
X001276Y017429D01*
X001227Y017381D01*
X001182Y017330D01*
X001139Y017277D01*
X001068Y017330D01*
X001067Y017331D01*
X001111Y017386D01*
X001159Y017439D01*
X001209Y017490D01*
X001262Y017537D01*
X001317Y017581D01*
X001375Y017623D01*
X001435Y017661D01*
X001496Y017696D01*
X001560Y017727D01*
X001625Y017755D01*
X001692Y017779D01*
X001760Y017800D01*
X001829Y017816D01*
X001899Y017829D01*
X001969Y017838D01*
X002040Y017844D01*
X002111Y017845D01*
X002182Y017842D01*
X002253Y017836D01*
X002323Y017826D01*
X002392Y017812D01*
X002461Y017794D01*
X002529Y017772D01*
X002595Y017747D01*
X002660Y017718D01*
X002723Y017685D01*
X002784Y017649D01*
X002843Y017610D01*
X002900Y017568D01*
X002955Y017523D01*
X003007Y017474D01*
X003056Y017423D01*
X003103Y017370D01*
X003146Y017313D01*
X003186Y017255D01*
X003223Y017194D01*
X003257Y017132D01*
X003287Y017068D01*
X003314Y017002D01*
X003337Y016935D01*
X003356Y016866D01*
X003371Y016797D01*
X003383Y016727D01*
X003391Y016656D01*
X003395Y016585D01*
X003395Y016515D01*
X003391Y016444D01*
X003383Y016373D01*
X003371Y016303D01*
X003356Y016234D01*
X003337Y016165D01*
X003314Y016098D01*
X003287Y016032D01*
X003257Y015968D01*
X003223Y015906D01*
X003186Y015845D01*
X003146Y015787D01*
X003103Y015730D01*
X003056Y015677D01*
X003007Y015626D01*
X002955Y015577D01*
X002900Y015532D01*
X002843Y015490D01*
X002784Y015451D01*
X002723Y015415D01*
X002660Y015382D01*
X002595Y015353D01*
X002529Y015328D01*
X002461Y015306D01*
X002392Y015288D01*
X002323Y015274D01*
X002253Y015264D01*
X002182Y015258D01*
X002111Y015255D01*
X002040Y015256D01*
X001969Y015262D01*
X001899Y015271D01*
X001829Y015284D01*
X001760Y015300D01*
X001692Y015321D01*
X001625Y015345D01*
X001560Y015373D01*
X001496Y015404D01*
X001435Y015439D01*
X001375Y015477D01*
X001317Y015519D01*
X001262Y015563D01*
X001209Y015610D01*
X001159Y015661D01*
X001111Y015714D01*
X001067Y015769D01*
X001074Y015774D01*
X001119Y015719D01*
X001166Y015666D01*
X001217Y015615D01*
X001270Y015568D01*
X001326Y015523D01*
X001384Y015482D01*
X001444Y015444D01*
X001506Y015409D01*
X001570Y015378D01*
X001636Y015351D01*
X001703Y015327D01*
X001772Y015307D01*
X001841Y015290D01*
X001911Y015278D01*
X001982Y015269D01*
X002053Y015265D01*
X002124Y015264D01*
X002195Y015268D01*
X002266Y015275D01*
X002337Y015286D01*
X002406Y015301D01*
X002475Y015320D01*
X002543Y015343D01*
X002609Y015369D01*
X002674Y015399D01*
X002736Y015433D01*
X002797Y015469D01*
X002856Y015510D01*
X002913Y015553D01*
X002967Y015600D01*
X003018Y015649D01*
X003066Y015702D01*
X003112Y015756D01*
X003154Y015814D01*
X003193Y015873D01*
X003229Y015935D01*
X003262Y015998D01*
X003290Y016063D01*
X003316Y016130D01*
X003337Y016198D01*
X003355Y016267D01*
X003368Y016337D01*
X003378Y016408D01*
X003384Y016479D01*
X003386Y016550D01*
X003384Y016621D01*
X003378Y016692D01*
X003368Y016763D01*
X003355Y016833D01*
X003337Y016902D01*
X003316Y016970D01*
X003290Y017037D01*
X003262Y017102D01*
X003229Y017165D01*
X003193Y017227D01*
X003154Y017286D01*
X003112Y017344D01*
X003066Y017398D01*
X003018Y017451D01*
X002967Y017500D01*
X002913Y017547D01*
X002856Y017590D01*
X002797Y017631D01*
X002736Y017667D01*
X002674Y017701D01*
X002609Y017731D01*
X002543Y017757D01*
X002475Y017780D01*
X002406Y017799D01*
X002337Y017814D01*
X002266Y017825D01*
X002195Y017832D01*
X002124Y017836D01*
X002053Y017835D01*
X001982Y017831D01*
X001911Y017822D01*
X001841Y017810D01*
X001772Y017793D01*
X001703Y017773D01*
X001636Y017749D01*
X001570Y017722D01*
X001506Y017691D01*
X001444Y017656D01*
X001384Y017618D01*
X001326Y017577D01*
X001270Y017532D01*
X001217Y017485D01*
X001166Y017434D01*
X001119Y017381D01*
X001074Y017326D01*
X001081Y017320D01*
X001126Y017375D01*
X001173Y017428D01*
X001223Y017478D01*
X001276Y017525D01*
X001331Y017569D01*
X001389Y017611D01*
X001448Y017648D01*
X001510Y017683D01*
X001574Y017714D01*
X001639Y017741D01*
X001706Y017765D01*
X001774Y017785D01*
X001843Y017801D01*
X001912Y017813D01*
X001983Y017822D01*
X002053Y017826D01*
X002124Y017827D01*
X002195Y017823D01*
X002265Y017816D01*
X002335Y017805D01*
X002404Y017790D01*
X002472Y017771D01*
X002540Y017749D01*
X002605Y017723D01*
X002670Y017693D01*
X002732Y017660D01*
X002792Y017623D01*
X002851Y017583D01*
X002907Y017540D01*
X002961Y017494D01*
X003011Y017444D01*
X003060Y017393D01*
X003105Y017338D01*
X003147Y017281D01*
X003186Y017222D01*
X003221Y017161D01*
X003254Y017098D01*
X003282Y017033D01*
X003307Y016967D01*
X003328Y016899D01*
X003346Y016831D01*
X003359Y016761D01*
X003369Y016691D01*
X003375Y016621D01*
X003377Y016550D01*
X003375Y016479D01*
X003369Y016409D01*
X003359Y016339D01*
X003346Y016269D01*
X003328Y016201D01*
X003307Y016133D01*
X003282Y016067D01*
X003254Y016002D01*
X003221Y015939D01*
X003186Y015878D01*
X003147Y015819D01*
X003105Y015762D01*
X003060Y015707D01*
X003011Y015656D01*
X002961Y015606D01*
X002907Y015560D01*
X002851Y015517D01*
X002792Y015477D01*
X002732Y015440D01*
X002670Y015407D01*
X002605Y015377D01*
X002540Y015351D01*
X002472Y015329D01*
X002404Y015310D01*
X002335Y015295D01*
X002265Y015284D01*
X002195Y015277D01*
X002124Y015273D01*
X002053Y015274D01*
X001983Y015278D01*
X001912Y015287D01*
X001843Y015299D01*
X001774Y015315D01*
X001706Y015335D01*
X001639Y015359D01*
X001574Y015386D01*
X001510Y015417D01*
X001448Y015452D01*
X001389Y015489D01*
X001331Y015531D01*
X001276Y015575D01*
X001223Y015622D01*
X001173Y015672D01*
X001126Y015725D01*
X001081Y015780D01*
X001089Y015785D01*
X001133Y015730D01*
X001181Y015677D01*
X001231Y015627D01*
X001284Y015579D01*
X001340Y015535D01*
X001398Y015494D01*
X001458Y015457D01*
X001520Y015422D01*
X001584Y015392D01*
X001650Y015365D01*
X001717Y015341D01*
X001785Y015322D01*
X001855Y015306D01*
X001925Y015294D01*
X001995Y015286D01*
X002066Y015282D01*
X002137Y015283D01*
X002208Y015287D01*
X002279Y015295D01*
X002349Y015307D01*
X002418Y015323D01*
X002486Y015342D01*
X002554Y015366D01*
X002619Y015393D01*
X002683Y015424D01*
X002745Y015458D01*
X002805Y015496D01*
X002863Y015538D01*
X002919Y015582D01*
X002972Y015629D01*
X003022Y015680D01*
X003069Y015733D01*
X003114Y015788D01*
X003155Y015846D01*
X003192Y015906D01*
X003227Y015969D01*
X003258Y016033D01*
X003285Y016098D01*
X003308Y016165D01*
X003328Y016234D01*
X003344Y016303D01*
X003356Y016373D01*
X003364Y016444D01*
X003368Y016514D01*
X003368Y016586D01*
X003364Y016656D01*
X003356Y016727D01*
X003344Y016797D01*
X003328Y016866D01*
X003308Y016935D01*
X003285Y017002D01*
X003258Y017067D01*
X003227Y017131D01*
X003192Y017194D01*
X003155Y017254D01*
X003114Y017312D01*
X003069Y017367D01*
X003022Y017420D01*
X002972Y017471D01*
X002919Y017518D01*
X002863Y017562D01*
X002805Y017604D01*
X002745Y017642D01*
X002683Y017676D01*
X002619Y017707D01*
X002554Y017734D01*
X002486Y017758D01*
X002418Y017777D01*
X002349Y017793D01*
X002279Y017805D01*
X002208Y017813D01*
X002137Y017817D01*
X002066Y017818D01*
X001995Y017814D01*
X001925Y017806D01*
X001855Y017794D01*
X001785Y017778D01*
X001717Y017759D01*
X001650Y017735D01*
X001584Y017708D01*
X001520Y017678D01*
X001458Y017643D01*
X001398Y017606D01*
X001340Y017565D01*
X001284Y017521D01*
X001231Y017473D01*
X001181Y017423D01*
X001133Y017370D01*
X001089Y017315D01*
X001096Y017309D01*
X001140Y017364D01*
X001187Y017417D01*
X001237Y017467D01*
X001290Y017514D01*
X001345Y017558D01*
X001403Y017598D01*
X001462Y017636D01*
X001524Y017670D01*
X001588Y017700D01*
X001653Y017727D01*
X001720Y017750D01*
X001788Y017770D01*
X001856Y017785D01*
X001926Y017797D01*
X001996Y017805D01*
X002067Y017809D01*
X002137Y017808D01*
X002208Y017804D01*
X002278Y017796D01*
X002347Y017784D01*
X002416Y017769D01*
X002484Y017749D01*
X002550Y017726D01*
X002615Y017699D01*
X002679Y017668D01*
X002741Y017634D01*
X002800Y017596D01*
X002858Y017555D01*
X002913Y017511D01*
X002966Y017464D01*
X003015Y017414D01*
X003062Y017362D01*
X003106Y017306D01*
X003147Y017249D01*
X003185Y017189D01*
X003219Y017127D01*
X003249Y017064D01*
X003276Y016999D01*
X003300Y016932D01*
X003319Y016864D01*
X003335Y016795D01*
X003347Y016726D01*
X003355Y016656D01*
X003359Y016585D01*
X003359Y016515D01*
X003355Y016444D01*
X003347Y016374D01*
X003335Y016305D01*
X003319Y016236D01*
X003300Y016168D01*
X003276Y016101D01*
X003249Y016036D01*
X003219Y015973D01*
X003185Y015911D01*
X003147Y015851D01*
X003106Y015794D01*
X003062Y015738D01*
X003015Y015686D01*
X002966Y015636D01*
X002913Y015589D01*
X002858Y015545D01*
X002800Y015504D01*
X002741Y015466D01*
X002679Y015432D01*
X002615Y015401D01*
X002550Y015374D01*
X002484Y015351D01*
X002416Y015331D01*
X002347Y015316D01*
X002278Y015304D01*
X002208Y015296D01*
X002137Y015292D01*
X002067Y015291D01*
X001996Y015295D01*
X001926Y015303D01*
X001856Y015315D01*
X001788Y015330D01*
X001720Y015350D01*
X001653Y015373D01*
X001588Y015400D01*
X001524Y015430D01*
X001462Y015464D01*
X001403Y015502D01*
X001345Y015542D01*
X001290Y015586D01*
X001237Y015633D01*
X001187Y015683D01*
X001140Y015736D01*
X001096Y015791D01*
X001103Y015796D01*
X001147Y015741D01*
X001194Y015689D01*
X001243Y015640D01*
X001296Y015593D01*
X001350Y015550D01*
X001408Y015509D01*
X001467Y015472D01*
X001528Y015438D01*
X001592Y015408D01*
X001656Y015381D01*
X001723Y015358D01*
X001790Y015339D01*
X001858Y015324D01*
X001927Y015312D01*
X001997Y015304D01*
X002067Y015300D01*
X002137Y015301D01*
X002207Y015305D01*
X002276Y015313D01*
X002345Y015324D01*
X002414Y015340D01*
X002481Y015359D01*
X002547Y015383D01*
X002612Y015410D01*
X002675Y015440D01*
X002736Y015474D01*
X002795Y015511D01*
X002853Y015552D01*
X002907Y015596D01*
X002959Y015642D01*
X003009Y015692D01*
X003056Y015744D01*
X003099Y015799D01*
X003140Y015856D01*
X003177Y015915D01*
X003211Y015977D01*
X003241Y016040D01*
X003268Y016105D01*
X003291Y016171D01*
X003310Y016238D01*
X003326Y016306D01*
X003338Y016375D01*
X003346Y016445D01*
X003350Y016515D01*
X003350Y016585D01*
X003346Y016655D01*
X003338Y016725D01*
X003326Y016794D01*
X003310Y016862D01*
X003291Y016929D01*
X003268Y016995D01*
X003241Y017060D01*
X003211Y017123D01*
X003177Y017185D01*
X003140Y017244D01*
X003099Y017301D01*
X003056Y017356D01*
X003009Y017408D01*
X002959Y017458D01*
X002907Y017504D01*
X002853Y017548D01*
X002795Y017589D01*
X002736Y017626D01*
X002675Y017660D01*
X002612Y017690D01*
X002547Y017717D01*
X002481Y017741D01*
X002414Y017760D01*
X002345Y017776D01*
X002276Y017787D01*
X002207Y017795D01*
X002137Y017799D01*
X002067Y017800D01*
X001997Y017796D01*
X001927Y017788D01*
X001858Y017776D01*
X001790Y017761D01*
X001723Y017742D01*
X001656Y017719D01*
X001592Y017692D01*
X001528Y017662D01*
X001467Y017628D01*
X001408Y017591D01*
X001350Y017550D01*
X001296Y017507D01*
X001243Y017460D01*
X001194Y017411D01*
X001147Y017359D01*
X001103Y017304D01*
X001110Y017299D01*
X001154Y017353D01*
X001200Y017405D01*
X001249Y017454D01*
X001301Y017500D01*
X001356Y017543D01*
X001413Y017583D01*
X001472Y017620D01*
X001533Y017654D01*
X001595Y017684D01*
X001660Y017710D01*
X001725Y017733D01*
X001792Y017752D01*
X001860Y017768D01*
X001929Y017779D01*
X001998Y017787D01*
X002067Y017791D01*
X002137Y017790D01*
X002206Y017786D01*
X002275Y017779D01*
X002344Y017767D01*
X002411Y017751D01*
X002478Y017732D01*
X002544Y017709D01*
X002608Y017682D01*
X002671Y017652D01*
X002732Y017618D01*
X002790Y017581D01*
X002847Y017541D01*
X002901Y017498D01*
X002953Y017451D01*
X003002Y017402D01*
X003049Y017350D01*
X003092Y017296D01*
X003132Y017239D01*
X003169Y017180D01*
X003203Y017119D01*
X003233Y017056D01*
X003260Y016992D01*
X003283Y016927D01*
X003302Y016860D01*
X003317Y016792D01*
X003329Y016723D01*
X003337Y016654D01*
X003341Y016585D01*
X003341Y016515D01*
X003337Y016446D01*
X003329Y016377D01*
X003317Y016308D01*
X003302Y016240D01*
X003283Y016173D01*
X003260Y016108D01*
X003233Y016044D01*
X003203Y015981D01*
X003169Y015920D01*
X003132Y015861D01*
X003092Y015804D01*
X003049Y015750D01*
X003002Y015698D01*
X002953Y015649D01*
X002901Y015602D01*
X002847Y015559D01*
X002790Y015519D01*
X002732Y015482D01*
X002671Y015448D01*
X002608Y015418D01*
X002544Y015391D01*
X002478Y015368D01*
X002411Y015349D01*
X002344Y015333D01*
X002275Y015321D01*
X002206Y015314D01*
X002137Y015310D01*
X002067Y015309D01*
X001998Y015313D01*
X001929Y015321D01*
X001860Y015332D01*
X001792Y015348D01*
X001725Y015367D01*
X001660Y015390D01*
X001595Y015416D01*
X001533Y015446D01*
X001472Y015480D01*
X001413Y015517D01*
X001356Y015557D01*
X001301Y015600D01*
X001249Y015646D01*
X001200Y015695D01*
X001154Y015747D01*
X001110Y015801D01*
X001117Y015807D01*
X001161Y015753D01*
X001207Y015702D01*
X001256Y015653D01*
X001307Y015607D01*
X001361Y015564D01*
X001418Y015524D01*
X001476Y015488D01*
X001537Y015454D01*
X001599Y015424D01*
X001663Y015398D01*
X001728Y015376D01*
X001794Y015357D01*
X001862Y015341D01*
X001930Y015330D01*
X001998Y015322D01*
X002067Y015318D01*
X002136Y015319D01*
X002205Y015323D01*
X002274Y015330D01*
X002342Y015342D01*
X002409Y015357D01*
X002476Y015377D01*
X002541Y015400D01*
X002604Y015426D01*
X002667Y015456D01*
X002727Y015489D01*
X002785Y015526D01*
X002842Y015566D01*
X002896Y015609D01*
X002947Y015655D01*
X002996Y015704D01*
X003042Y015756D01*
X003085Y015810D01*
X003125Y015866D01*
X003161Y015925D01*
X003195Y015985D01*
X003225Y016047D01*
X003251Y016111D01*
X003274Y016176D01*
X003293Y016243D01*
X003308Y016310D01*
X003320Y016378D01*
X003328Y016447D01*
X003332Y016515D01*
X003332Y016585D01*
X003328Y016653D01*
X003320Y016722D01*
X003308Y016790D01*
X003293Y016857D01*
X003274Y016924D01*
X003251Y016989D01*
X003225Y017053D01*
X003195Y017115D01*
X003161Y017175D01*
X003125Y017234D01*
X003085Y017290D01*
X003042Y017344D01*
X002996Y017396D01*
X002947Y017445D01*
X002896Y017491D01*
X002842Y017534D01*
X002785Y017574D01*
X002727Y017611D01*
X002667Y017644D01*
X002604Y017674D01*
X002541Y017700D01*
X002476Y017723D01*
X002409Y017743D01*
X002342Y017758D01*
X002274Y017770D01*
X002205Y017777D01*
X002136Y017781D01*
X002067Y017782D01*
X001998Y017778D01*
X001930Y017770D01*
X001862Y017759D01*
X001794Y017743D01*
X001728Y017724D01*
X001663Y017702D01*
X001599Y017676D01*
X001537Y017646D01*
X001476Y017612D01*
X001418Y017576D01*
X001361Y017536D01*
X001307Y017493D01*
X001256Y017447D01*
X001207Y017398D01*
X001161Y017347D01*
X001117Y017293D01*
X001125Y017288D01*
X001168Y017342D01*
X001214Y017393D01*
X001264Y017442D01*
X001315Y017488D01*
X001370Y017531D01*
X001427Y017571D01*
X001485Y017607D01*
X001546Y017641D01*
X001609Y017670D01*
X001673Y017696D01*
X001739Y017718D01*
X001806Y017737D01*
X001873Y017752D01*
X001942Y017763D01*
X002011Y017770D01*
X002080Y017773D01*
X002149Y017772D01*
X002219Y017767D01*
X002287Y017759D01*
X002355Y017746D01*
X002423Y017730D01*
X002489Y017709D01*
X002554Y017686D01*
X002618Y017658D01*
X002680Y017627D01*
X002740Y017592D01*
X002798Y017554D01*
X002854Y017513D01*
X002907Y017469D01*
X002958Y017422D01*
X003006Y017372D01*
X003051Y017319D01*
X003093Y017264D01*
X003132Y017207D01*
X003167Y017147D01*
X003199Y017086D01*
X003228Y017023D01*
X003253Y016958D01*
X003274Y016892D01*
X003292Y016825D01*
X003305Y016757D01*
X003315Y016688D01*
X003321Y016619D01*
X003323Y016550D01*
X003321Y016481D01*
X003315Y016412D01*
X003305Y016343D01*
X003292Y016275D01*
X003274Y016208D01*
X003253Y016142D01*
X003228Y016077D01*
X003199Y016014D01*
X003167Y015953D01*
X003132Y015893D01*
X003093Y015836D01*
X003051Y015781D01*
X003006Y015728D01*
X002958Y015678D01*
X002907Y015631D01*
X002854Y015587D01*
X002798Y015546D01*
X002740Y015508D01*
X002680Y015473D01*
X002618Y015442D01*
X002554Y015414D01*
X002489Y015391D01*
X002423Y015370D01*
X002355Y015354D01*
X002287Y015341D01*
X002219Y015333D01*
X002149Y015328D01*
X002080Y015327D01*
X002011Y015330D01*
X001942Y015337D01*
X001873Y015348D01*
X001806Y015363D01*
X001739Y015382D01*
X001673Y015404D01*
X001609Y015430D01*
X001546Y015459D01*
X001485Y015493D01*
X001427Y015529D01*
X001370Y015569D01*
X001315Y015612D01*
X001264Y015658D01*
X001214Y015707D01*
X001168Y015758D01*
X001125Y015812D01*
X001132Y015818D01*
X001175Y015764D01*
X001221Y015713D01*
X001270Y015664D01*
X001321Y015619D01*
X001375Y015576D01*
X001432Y015537D01*
X001490Y015500D01*
X001550Y015467D01*
X001613Y015438D01*
X001676Y015412D01*
X001742Y015390D01*
X001808Y015372D01*
X001875Y015357D01*
X001943Y015346D01*
X002012Y015339D01*
X002080Y015336D01*
X002149Y015337D01*
X002218Y015342D01*
X002286Y015350D01*
X002354Y015363D01*
X002420Y015379D01*
X002486Y015399D01*
X002551Y015423D01*
X002614Y015450D01*
X002675Y015481D01*
X002735Y015515D01*
X002793Y015553D01*
X002848Y015594D01*
X002901Y015638D01*
X002951Y015685D01*
X002999Y015734D01*
X003044Y015786D01*
X003086Y015841D01*
X003124Y015898D01*
X003159Y015957D01*
X003191Y016018D01*
X003220Y016081D01*
X003244Y016145D01*
X003266Y016211D01*
X003283Y016277D01*
X003296Y016345D01*
X003306Y016413D01*
X003312Y016481D01*
X003314Y016550D01*
X003312Y016619D01*
X003306Y016687D01*
X003296Y016755D01*
X003283Y016823D01*
X003266Y016889D01*
X003244Y016955D01*
X003220Y017019D01*
X003191Y017082D01*
X003159Y017143D01*
X003124Y017202D01*
X003086Y017259D01*
X003044Y017314D01*
X002999Y017366D01*
X002951Y017415D01*
X002901Y017462D01*
X002848Y017506D01*
X002793Y017547D01*
X002735Y017585D01*
X002675Y017619D01*
X002614Y017650D01*
X002551Y017677D01*
X002486Y017701D01*
X002420Y017721D01*
X002354Y017737D01*
X002286Y017750D01*
X002218Y017758D01*
X002149Y017763D01*
X002080Y017764D01*
X002012Y017761D01*
X001943Y017754D01*
X001875Y017743D01*
X001808Y017728D01*
X001742Y017710D01*
X001676Y017688D01*
X001613Y017662D01*
X001550Y017633D01*
X001490Y017600D01*
X001432Y017563D01*
X001375Y017524D01*
X001321Y017481D01*
X001270Y017436D01*
X001221Y017387D01*
X001175Y017336D01*
X001132Y017282D01*
D16*
X001100Y016550D02*
X001102Y016613D01*
X001108Y016675D01*
X001118Y016737D01*
X001131Y016799D01*
X001149Y016859D01*
X001170Y016918D01*
X001195Y016976D01*
X001224Y017032D01*
X001256Y017086D01*
X001291Y017138D01*
X001329Y017187D01*
X001371Y017235D01*
X001415Y017279D01*
X001463Y017321D01*
X001512Y017359D01*
X001564Y017394D01*
X001618Y017426D01*
X001674Y017455D01*
X001732Y017480D01*
X001791Y017501D01*
X001851Y017519D01*
X001913Y017532D01*
X001975Y017542D01*
X002037Y017548D01*
X002100Y017550D01*
X002163Y017548D01*
X002225Y017542D01*
X002287Y017532D01*
X002349Y017519D01*
X002409Y017501D01*
X002468Y017480D01*
X002526Y017455D01*
X002582Y017426D01*
X002636Y017394D01*
X002688Y017359D01*
X002737Y017321D01*
X002785Y017279D01*
X002829Y017235D01*
X002871Y017187D01*
X002909Y017138D01*
X002944Y017086D01*
X002976Y017032D01*
X003005Y016976D01*
X003030Y016918D01*
X003051Y016859D01*
X003069Y016799D01*
X003082Y016737D01*
X003092Y016675D01*
X003098Y016613D01*
X003100Y016550D01*
X003098Y016487D01*
X003092Y016425D01*
X003082Y016363D01*
X003069Y016301D01*
X003051Y016241D01*
X003030Y016182D01*
X003005Y016124D01*
X002976Y016068D01*
X002944Y016014D01*
X002909Y015962D01*
X002871Y015913D01*
X002829Y015865D01*
X002785Y015821D01*
X002737Y015779D01*
X002688Y015741D01*
X002636Y015706D01*
X002582Y015674D01*
X002526Y015645D01*
X002468Y015620D01*
X002409Y015599D01*
X002349Y015581D01*
X002287Y015568D01*
X002225Y015558D01*
X002163Y015552D01*
X002100Y015550D01*
X002037Y015552D01*
X001975Y015558D01*
X001913Y015568D01*
X001851Y015581D01*
X001791Y015599D01*
X001732Y015620D01*
X001674Y015645D01*
X001618Y015674D01*
X001564Y015706D01*
X001512Y015741D01*
X001463Y015779D01*
X001415Y015821D01*
X001371Y015865D01*
X001329Y015913D01*
X001291Y015962D01*
X001256Y016014D01*
X001224Y016068D01*
X001195Y016124D01*
X001170Y016182D01*
X001149Y016241D01*
X001131Y016301D01*
X001118Y016363D01*
X001108Y016425D01*
X001102Y016487D01*
X001100Y016550D01*
X004600Y016550D02*
X004602Y016613D01*
X004608Y016675D01*
X004618Y016737D01*
X004631Y016799D01*
X004649Y016859D01*
X004670Y016918D01*
X004695Y016976D01*
X004724Y017032D01*
X004756Y017086D01*
X004791Y017138D01*
X004829Y017187D01*
X004871Y017235D01*
X004915Y017279D01*
X004963Y017321D01*
X005012Y017359D01*
X005064Y017394D01*
X005118Y017426D01*
X005174Y017455D01*
X005232Y017480D01*
X005291Y017501D01*
X005351Y017519D01*
X005413Y017532D01*
X005475Y017542D01*
X005537Y017548D01*
X005600Y017550D01*
X005663Y017548D01*
X005725Y017542D01*
X005787Y017532D01*
X005849Y017519D01*
X005909Y017501D01*
X005968Y017480D01*
X006026Y017455D01*
X006082Y017426D01*
X006136Y017394D01*
X006188Y017359D01*
X006237Y017321D01*
X006285Y017279D01*
X006329Y017235D01*
X006371Y017187D01*
X006409Y017138D01*
X006444Y017086D01*
X006476Y017032D01*
X006505Y016976D01*
X006530Y016918D01*
X006551Y016859D01*
X006569Y016799D01*
X006582Y016737D01*
X006592Y016675D01*
X006598Y016613D01*
X006600Y016550D01*
X006598Y016487D01*
X006592Y016425D01*
X006582Y016363D01*
X006569Y016301D01*
X006551Y016241D01*
X006530Y016182D01*
X006505Y016124D01*
X006476Y016068D01*
X006444Y016014D01*
X006409Y015962D01*
X006371Y015913D01*
X006329Y015865D01*
X006285Y015821D01*
X006237Y015779D01*
X006188Y015741D01*
X006136Y015706D01*
X006082Y015674D01*
X006026Y015645D01*
X005968Y015620D01*
X005909Y015599D01*
X005849Y015581D01*
X005787Y015568D01*
X005725Y015558D01*
X005663Y015552D01*
X005600Y015550D01*
X005537Y015552D01*
X005475Y015558D01*
X005413Y015568D01*
X005351Y015581D01*
X005291Y015599D01*
X005232Y015620D01*
X005174Y015645D01*
X005118Y015674D01*
X005064Y015706D01*
X005012Y015741D01*
X004963Y015779D01*
X004915Y015821D01*
X004871Y015865D01*
X004829Y015913D01*
X004791Y015962D01*
X004756Y016014D01*
X004724Y016068D01*
X004695Y016124D01*
X004670Y016182D01*
X004649Y016241D01*
X004631Y016301D01*
X004618Y016363D01*
X004608Y016425D01*
X004602Y016487D01*
X004600Y016550D01*
M02*
