G75*
%MOIN*%
%OFA0B0*%
%FSLAX24Y24*%
%IPPOS*%
%LPD*%
%AMOC8*
5,1,8,0,0,1.08239X$1,22.5*
%
%ADD10C,0.0000*%
D10*
X035391Y013038D02*
X035391Y013904D01*
X035588Y014180D02*
X035616Y014173D01*
X035644Y014163D01*
X035669Y014150D01*
X035693Y014134D01*
X035715Y014116D01*
X035735Y014094D01*
X035752Y014071D01*
X035765Y014046D01*
X035776Y014019D01*
X035783Y013991D01*
X035787Y013962D01*
X035788Y013933D01*
X035785Y013905D01*
X035785Y013904D02*
X035785Y013038D01*
X035589Y012763D02*
X035561Y012770D01*
X035533Y012780D01*
X035508Y012793D01*
X035484Y012809D01*
X035462Y012827D01*
X035442Y012849D01*
X035425Y012872D01*
X035412Y012897D01*
X035401Y012924D01*
X035394Y012952D01*
X035390Y012981D01*
X035389Y013010D01*
X035392Y013038D01*
X035588Y012763D02*
X035616Y012770D01*
X035644Y012780D01*
X035669Y012793D01*
X035693Y012809D01*
X035715Y012827D01*
X035735Y012849D01*
X035752Y012872D01*
X035765Y012897D01*
X035776Y012924D01*
X035783Y012952D01*
X035787Y012981D01*
X035788Y013010D01*
X035785Y013038D01*
X035392Y013905D02*
X035389Y013933D01*
X035390Y013962D01*
X035394Y013991D01*
X035401Y014019D01*
X035412Y014046D01*
X035425Y014071D01*
X035442Y014094D01*
X035462Y014116D01*
X035484Y014134D01*
X035508Y014150D01*
X035533Y014163D01*
X035561Y014173D01*
X035589Y014180D01*
X037754Y013904D02*
X037754Y013038D01*
X037950Y012763D02*
X037978Y012770D01*
X038006Y012780D01*
X038031Y012793D01*
X038055Y012809D01*
X038077Y012827D01*
X038097Y012849D01*
X038114Y012872D01*
X038127Y012897D01*
X038138Y012924D01*
X038145Y012952D01*
X038149Y012981D01*
X038150Y013010D01*
X038147Y013038D01*
X038147Y013904D01*
X037951Y014180D02*
X037923Y014173D01*
X037895Y014163D01*
X037870Y014150D01*
X037846Y014134D01*
X037824Y014116D01*
X037804Y014094D01*
X037787Y014071D01*
X037774Y014046D01*
X037763Y014019D01*
X037756Y013991D01*
X037752Y013962D01*
X037751Y013933D01*
X037754Y013905D01*
X037950Y014180D02*
X037978Y014173D01*
X038006Y014163D01*
X038031Y014150D01*
X038055Y014134D01*
X038077Y014116D01*
X038097Y014094D01*
X038114Y014071D01*
X038127Y014046D01*
X038138Y014019D01*
X038145Y013991D01*
X038149Y013962D01*
X038150Y013933D01*
X038147Y013905D01*
X037754Y013038D02*
X037751Y013010D01*
X037752Y012981D01*
X037756Y012952D01*
X037763Y012924D01*
X037774Y012897D01*
X037787Y012872D01*
X037804Y012849D01*
X037824Y012827D01*
X037846Y012809D01*
X037870Y012793D01*
X037895Y012780D01*
X037923Y012770D01*
X037951Y012763D01*
X037202Y011739D02*
X036336Y011739D01*
X036101Y011542D02*
X036105Y011514D01*
X036113Y011487D01*
X036125Y011461D01*
X036140Y011437D01*
X036158Y011415D01*
X036178Y011395D01*
X036201Y011379D01*
X036226Y011365D01*
X036252Y011355D01*
X036280Y011348D01*
X036308Y011345D01*
X036337Y011346D01*
X036336Y011345D02*
X037202Y011345D01*
X037438Y011542D02*
X037434Y011570D01*
X037426Y011597D01*
X037414Y011623D01*
X037399Y011647D01*
X037381Y011669D01*
X037361Y011689D01*
X037338Y011705D01*
X037313Y011719D01*
X037287Y011729D01*
X037259Y011736D01*
X037231Y011739D01*
X037202Y011738D01*
X037438Y011542D02*
X037434Y011514D01*
X037426Y011487D01*
X037414Y011461D01*
X037399Y011437D01*
X037381Y011415D01*
X037361Y011395D01*
X037338Y011379D01*
X037313Y011365D01*
X037287Y011355D01*
X037259Y011348D01*
X037231Y011345D01*
X037202Y011346D01*
X036337Y011738D02*
X036308Y011739D01*
X036280Y011736D01*
X036252Y011729D01*
X036226Y011719D01*
X036201Y011705D01*
X036178Y011689D01*
X036158Y011669D01*
X036140Y011647D01*
X036125Y011623D01*
X036113Y011597D01*
X036105Y011570D01*
X036101Y011542D01*
M02*
