G75*
%MOIN*%
%OFA0B0*%
%FSLAX24Y24*%
%IPPOS*%
%LPD*%
%AMOC8*
5,1,8,0,0,1.08239X$1,22.5*
%
%ADD10C,0.0000*%
%ADD11C,0.1540*%
%ADD12C,0.6240*%
%ADD13C,0.0560*%
%ADD14OC8,0.0670*%
%ADD15C,0.0600*%
%ADD16OC8,0.0700*%
%ADD17OC8,0.0640*%
%ADD18R,0.0640X0.0640*%
%ADD19C,0.0670*%
%ADD20C,0.0700*%
%ADD21C,0.0780*%
%ADD22C,0.0820*%
%ADD23C,0.1040*%
%ADD24R,0.0780X0.0780*%
%ADD25C,0.0640*%
%ADD26C,0.0740*%
%ADD27C,0.0630*%
%ADD28R,0.0630X0.0630*%
%ADD29OC8,0.1040*%
%ADD30C,0.1221*%
%ADD31C,0.0480*%
%ADD32C,0.0940*%
D10*
X000100Y000550D02*
X000100Y019546D01*
X038970Y019546D01*
X038970Y000550D01*
X000100Y000550D01*
X003509Y001500D02*
X003511Y001548D01*
X003517Y001596D01*
X003527Y001643D01*
X003540Y001689D01*
X003558Y001734D01*
X003578Y001778D01*
X003603Y001820D01*
X003631Y001859D01*
X003661Y001896D01*
X003695Y001930D01*
X003732Y001962D01*
X003770Y001991D01*
X003811Y002016D01*
X003854Y002038D01*
X003899Y002056D01*
X003945Y002070D01*
X003992Y002081D01*
X004040Y002088D01*
X004088Y002091D01*
X004136Y002090D01*
X004184Y002085D01*
X004232Y002076D01*
X004278Y002064D01*
X004323Y002047D01*
X004367Y002027D01*
X004409Y002004D01*
X004449Y001977D01*
X004487Y001947D01*
X004522Y001914D01*
X004554Y001878D01*
X004584Y001840D01*
X004610Y001799D01*
X004632Y001756D01*
X004652Y001712D01*
X004667Y001667D01*
X004679Y001620D01*
X004687Y001572D01*
X004691Y001524D01*
X004691Y001476D01*
X004687Y001428D01*
X004679Y001380D01*
X004667Y001333D01*
X004652Y001288D01*
X004632Y001244D01*
X004610Y001201D01*
X004584Y001160D01*
X004554Y001122D01*
X004522Y001086D01*
X004487Y001053D01*
X004449Y001023D01*
X004409Y000996D01*
X004367Y000973D01*
X004323Y000953D01*
X004278Y000936D01*
X004232Y000924D01*
X004184Y000915D01*
X004136Y000910D01*
X004088Y000909D01*
X004040Y000912D01*
X003992Y000919D01*
X003945Y000930D01*
X003899Y000944D01*
X003854Y000962D01*
X003811Y000984D01*
X003770Y001009D01*
X003732Y001038D01*
X003695Y001070D01*
X003661Y001104D01*
X003631Y001141D01*
X003603Y001180D01*
X003578Y001222D01*
X003558Y001266D01*
X003540Y001311D01*
X003527Y001357D01*
X003517Y001404D01*
X003511Y001452D01*
X003509Y001500D01*
X003509Y013700D02*
X003511Y013748D01*
X003517Y013796D01*
X003527Y013843D01*
X003540Y013889D01*
X003558Y013934D01*
X003578Y013978D01*
X003603Y014020D01*
X003631Y014059D01*
X003661Y014096D01*
X003695Y014130D01*
X003732Y014162D01*
X003770Y014191D01*
X003811Y014216D01*
X003854Y014238D01*
X003899Y014256D01*
X003945Y014270D01*
X003992Y014281D01*
X004040Y014288D01*
X004088Y014291D01*
X004136Y014290D01*
X004184Y014285D01*
X004232Y014276D01*
X004278Y014264D01*
X004323Y014247D01*
X004367Y014227D01*
X004409Y014204D01*
X004449Y014177D01*
X004487Y014147D01*
X004522Y014114D01*
X004554Y014078D01*
X004584Y014040D01*
X004610Y013999D01*
X004632Y013956D01*
X004652Y013912D01*
X004667Y013867D01*
X004679Y013820D01*
X004687Y013772D01*
X004691Y013724D01*
X004691Y013676D01*
X004687Y013628D01*
X004679Y013580D01*
X004667Y013533D01*
X004652Y013488D01*
X004632Y013444D01*
X004610Y013401D01*
X004584Y013360D01*
X004554Y013322D01*
X004522Y013286D01*
X004487Y013253D01*
X004449Y013223D01*
X004409Y013196D01*
X004367Y013173D01*
X004323Y013153D01*
X004278Y013136D01*
X004232Y013124D01*
X004184Y013115D01*
X004136Y013110D01*
X004088Y013109D01*
X004040Y013112D01*
X003992Y013119D01*
X003945Y013130D01*
X003899Y013144D01*
X003854Y013162D01*
X003811Y013184D01*
X003770Y013209D01*
X003732Y013238D01*
X003695Y013270D01*
X003661Y013304D01*
X003631Y013341D01*
X003603Y013380D01*
X003578Y013422D01*
X003558Y013466D01*
X003540Y013511D01*
X003527Y013557D01*
X003517Y013604D01*
X003511Y013652D01*
X003509Y013700D01*
X033009Y013700D02*
X033011Y013748D01*
X033017Y013796D01*
X033027Y013843D01*
X033040Y013889D01*
X033058Y013934D01*
X033078Y013978D01*
X033103Y014020D01*
X033131Y014059D01*
X033161Y014096D01*
X033195Y014130D01*
X033232Y014162D01*
X033270Y014191D01*
X033311Y014216D01*
X033354Y014238D01*
X033399Y014256D01*
X033445Y014270D01*
X033492Y014281D01*
X033540Y014288D01*
X033588Y014291D01*
X033636Y014290D01*
X033684Y014285D01*
X033732Y014276D01*
X033778Y014264D01*
X033823Y014247D01*
X033867Y014227D01*
X033909Y014204D01*
X033949Y014177D01*
X033987Y014147D01*
X034022Y014114D01*
X034054Y014078D01*
X034084Y014040D01*
X034110Y013999D01*
X034132Y013956D01*
X034152Y013912D01*
X034167Y013867D01*
X034179Y013820D01*
X034187Y013772D01*
X034191Y013724D01*
X034191Y013676D01*
X034187Y013628D01*
X034179Y013580D01*
X034167Y013533D01*
X034152Y013488D01*
X034132Y013444D01*
X034110Y013401D01*
X034084Y013360D01*
X034054Y013322D01*
X034022Y013286D01*
X033987Y013253D01*
X033949Y013223D01*
X033909Y013196D01*
X033867Y013173D01*
X033823Y013153D01*
X033778Y013136D01*
X033732Y013124D01*
X033684Y013115D01*
X033636Y013110D01*
X033588Y013109D01*
X033540Y013112D01*
X033492Y013119D01*
X033445Y013130D01*
X033399Y013144D01*
X033354Y013162D01*
X033311Y013184D01*
X033270Y013209D01*
X033232Y013238D01*
X033195Y013270D01*
X033161Y013304D01*
X033131Y013341D01*
X033103Y013380D01*
X033078Y013422D01*
X033058Y013466D01*
X033040Y013511D01*
X033027Y013557D01*
X033017Y013604D01*
X033011Y013652D01*
X033009Y013700D01*
X033009Y001500D02*
X033011Y001548D01*
X033017Y001596D01*
X033027Y001643D01*
X033040Y001689D01*
X033058Y001734D01*
X033078Y001778D01*
X033103Y001820D01*
X033131Y001859D01*
X033161Y001896D01*
X033195Y001930D01*
X033232Y001962D01*
X033270Y001991D01*
X033311Y002016D01*
X033354Y002038D01*
X033399Y002056D01*
X033445Y002070D01*
X033492Y002081D01*
X033540Y002088D01*
X033588Y002091D01*
X033636Y002090D01*
X033684Y002085D01*
X033732Y002076D01*
X033778Y002064D01*
X033823Y002047D01*
X033867Y002027D01*
X033909Y002004D01*
X033949Y001977D01*
X033987Y001947D01*
X034022Y001914D01*
X034054Y001878D01*
X034084Y001840D01*
X034110Y001799D01*
X034132Y001756D01*
X034152Y001712D01*
X034167Y001667D01*
X034179Y001620D01*
X034187Y001572D01*
X034191Y001524D01*
X034191Y001476D01*
X034187Y001428D01*
X034179Y001380D01*
X034167Y001333D01*
X034152Y001288D01*
X034132Y001244D01*
X034110Y001201D01*
X034084Y001160D01*
X034054Y001122D01*
X034022Y001086D01*
X033987Y001053D01*
X033949Y001023D01*
X033909Y000996D01*
X033867Y000973D01*
X033823Y000953D01*
X033778Y000936D01*
X033732Y000924D01*
X033684Y000915D01*
X033636Y000910D01*
X033588Y000909D01*
X033540Y000912D01*
X033492Y000919D01*
X033445Y000930D01*
X033399Y000944D01*
X033354Y000962D01*
X033311Y000984D01*
X033270Y001009D01*
X033232Y001038D01*
X033195Y001070D01*
X033161Y001104D01*
X033131Y001141D01*
X033103Y001180D01*
X033078Y001222D01*
X033058Y001266D01*
X033040Y001311D01*
X033027Y001357D01*
X033017Y001404D01*
X033011Y001452D01*
X033009Y001500D01*
D11*
X016100Y015550D03*
X007600Y015550D03*
D12*
X011850Y015550D03*
D13*
X017050Y014810D02*
X017050Y014290D01*
X017050Y011810D02*
X017050Y011290D01*
X018100Y010810D02*
X018100Y010290D01*
X019100Y010290D02*
X019100Y010810D01*
X020100Y010810D02*
X020100Y010290D01*
X021100Y010290D02*
X021100Y010810D01*
X022100Y010810D02*
X022100Y010290D01*
X023100Y010290D02*
X023100Y010810D01*
X024100Y010810D02*
X024100Y010290D01*
X025100Y010290D02*
X025100Y010810D01*
X026100Y010810D02*
X026100Y010290D01*
X027100Y010290D02*
X027100Y010810D01*
X028100Y010810D02*
X028100Y010290D01*
X029100Y010290D02*
X029100Y010810D01*
X030100Y010810D02*
X030100Y010290D01*
X031100Y010290D02*
X031100Y010810D01*
X031100Y007810D02*
X031100Y007290D01*
X030100Y007290D02*
X030100Y007810D01*
X029100Y007810D02*
X029100Y007290D01*
X028100Y007290D02*
X028100Y007810D01*
X027100Y007810D02*
X027100Y007290D01*
X026100Y007290D02*
X026100Y007810D01*
X025100Y007810D02*
X025100Y007290D01*
X024100Y007290D02*
X024100Y007810D01*
X023100Y007810D02*
X023100Y007290D01*
X022100Y007290D02*
X022100Y007810D01*
X021100Y007810D02*
X021100Y007290D01*
X020100Y007290D02*
X020100Y007810D01*
X019100Y007810D02*
X019100Y007290D01*
X018100Y007290D02*
X018100Y007810D01*
D14*
X013600Y007050D03*
X012600Y007050D03*
X011600Y007050D03*
X010600Y007050D03*
X010600Y010050D03*
X011600Y010050D03*
X012600Y010050D03*
X013600Y010050D03*
X032400Y018250D03*
X035600Y018050D03*
D15*
X011600Y006050D03*
X010600Y006050D03*
D16*
X016300Y007800D03*
X019100Y006050D03*
X018600Y005050D03*
X018100Y004050D03*
X017600Y003050D03*
X020600Y003050D03*
X021100Y004050D03*
X021600Y005050D03*
X022100Y006050D03*
X027600Y005800D03*
X030600Y005800D03*
X031600Y004300D03*
X028600Y004300D03*
X016300Y010800D03*
X018600Y012050D03*
X018600Y015050D03*
X028100Y012050D03*
X031100Y012050D03*
X007100Y012550D03*
X006100Y012550D03*
X006100Y009550D03*
X007100Y009550D03*
D17*
X009100Y009050D03*
X009100Y008050D03*
X014850Y007800D03*
X014850Y006800D03*
X012100Y005050D03*
X012100Y004050D03*
X010100Y004050D03*
X010100Y005050D03*
X023450Y006350D03*
X024450Y006350D03*
X024100Y005300D03*
X025100Y005300D03*
X024600Y002550D03*
X023600Y002550D03*
X023600Y001550D03*
X024600Y001550D03*
X025600Y001550D03*
X030100Y013050D03*
X031100Y013050D03*
X024100Y014200D03*
X023100Y014200D03*
X022150Y014200D03*
X021150Y014200D03*
D18*
X025600Y002550D03*
D19*
X035600Y017050D03*
X031400Y018250D03*
D20*
X023550Y012550D03*
X021650Y012550D03*
D21*
X027210Y014770D03*
X028990Y014770D03*
X025100Y016050D03*
X024100Y016050D03*
X023100Y016050D03*
X022100Y016050D03*
X021100Y016050D03*
X020100Y016050D03*
X020100Y018300D03*
X021100Y018300D03*
X022100Y018300D03*
X023100Y018300D03*
X024100Y018300D03*
X025100Y018300D03*
X027210Y017330D03*
X028990Y017330D03*
X006100Y016550D03*
X005100Y016550D03*
X002600Y016550D03*
X001600Y016550D03*
X001600Y018550D03*
X002600Y018550D03*
X005100Y018550D03*
X006100Y018550D03*
X007252Y001498D03*
X008252Y001498D03*
X009252Y001498D03*
X010252Y001498D03*
X011252Y001498D03*
X012252Y001498D03*
X013252Y001498D03*
X014252Y001498D03*
X015252Y001498D03*
X016252Y001498D03*
X017252Y001498D03*
X018252Y001498D03*
X019252Y001498D03*
X020252Y001498D03*
X021252Y001498D03*
D22*
X034350Y010050D03*
X037850Y010050D03*
D23*
X037269Y011542D02*
X036269Y011542D01*
X035588Y012971D02*
X035588Y013971D01*
X037950Y013971D02*
X037950Y012971D01*
D24*
X006252Y001498D03*
D25*
X001900Y005050D02*
X001300Y005050D01*
X001300Y006050D02*
X001900Y006050D01*
X001900Y007050D02*
X001300Y007050D01*
X028100Y001850D02*
X028100Y001250D01*
X029100Y001250D02*
X029100Y001850D01*
X030100Y001850D02*
X030100Y001250D01*
X031100Y001250D02*
X031100Y001850D01*
D26*
X001600Y002050D03*
X001600Y003050D03*
X001600Y012550D03*
X001600Y013550D03*
X027600Y018550D03*
X028600Y018550D03*
D27*
X032350Y015550D03*
D28*
X031350Y016050D03*
X032350Y016550D03*
D29*
X037600Y016550D03*
X037600Y018050D03*
D30*
X033600Y013700D03*
X033600Y001500D03*
X004100Y001500D03*
X004100Y013700D03*
D31*
X035850Y002300D03*
X037850Y002300D03*
X036850Y001300D03*
D32*
X001600Y009050D03*
X001606Y010550D03*
M02*
