G75*
%MOIN*%
%OFA0B0*%
%FSLAX24Y24*%
%IPPOS*%
%LPD*%
%AMOC8*
5,1,8,0,0,1.08239X$1,22.5*
%
%ADD10C,0.0000*%
%ADD11C,0.1500*%
%ADD12C,0.6200*%
%ADD13C,0.0520*%
%ADD14OC8,0.0630*%
%ADD15C,0.0560*%
%ADD16OC8,0.0660*%
%ADD17OC8,0.0600*%
%ADD18R,0.0600X0.0600*%
%ADD19C,0.0630*%
%ADD20C,0.0660*%
%ADD21C,0.0740*%
%ADD22C,0.0780*%
%ADD23C,0.1000*%
%ADD24R,0.0740X0.0740*%
%ADD25C,0.0600*%
%ADD26C,0.0700*%
%ADD27C,0.0590*%
%ADD28R,0.0590X0.0590*%
%ADD29OC8,0.1000*%
%ADD30C,0.0440*%
%ADD31C,0.0900*%
%ADD32C,0.0150*%
%ADD33C,0.0240*%
%ADD34C,0.0160*%
D10*
X000100Y000550D02*
X000100Y019546D01*
X038970Y019546D01*
X038970Y000550D01*
X000100Y000550D01*
X003509Y001500D02*
X003511Y001548D01*
X003517Y001596D01*
X003527Y001643D01*
X003540Y001689D01*
X003558Y001734D01*
X003578Y001778D01*
X003603Y001820D01*
X003631Y001859D01*
X003661Y001896D01*
X003695Y001930D01*
X003732Y001962D01*
X003770Y001991D01*
X003811Y002016D01*
X003854Y002038D01*
X003899Y002056D01*
X003945Y002070D01*
X003992Y002081D01*
X004040Y002088D01*
X004088Y002091D01*
X004136Y002090D01*
X004184Y002085D01*
X004232Y002076D01*
X004278Y002064D01*
X004323Y002047D01*
X004367Y002027D01*
X004409Y002004D01*
X004449Y001977D01*
X004487Y001947D01*
X004522Y001914D01*
X004554Y001878D01*
X004584Y001840D01*
X004610Y001799D01*
X004632Y001756D01*
X004652Y001712D01*
X004667Y001667D01*
X004679Y001620D01*
X004687Y001572D01*
X004691Y001524D01*
X004691Y001476D01*
X004687Y001428D01*
X004679Y001380D01*
X004667Y001333D01*
X004652Y001288D01*
X004632Y001244D01*
X004610Y001201D01*
X004584Y001160D01*
X004554Y001122D01*
X004522Y001086D01*
X004487Y001053D01*
X004449Y001023D01*
X004409Y000996D01*
X004367Y000973D01*
X004323Y000953D01*
X004278Y000936D01*
X004232Y000924D01*
X004184Y000915D01*
X004136Y000910D01*
X004088Y000909D01*
X004040Y000912D01*
X003992Y000919D01*
X003945Y000930D01*
X003899Y000944D01*
X003854Y000962D01*
X003811Y000984D01*
X003770Y001009D01*
X003732Y001038D01*
X003695Y001070D01*
X003661Y001104D01*
X003631Y001141D01*
X003603Y001180D01*
X003578Y001222D01*
X003558Y001266D01*
X003540Y001311D01*
X003527Y001357D01*
X003517Y001404D01*
X003511Y001452D01*
X003509Y001500D01*
X003509Y013700D02*
X003511Y013748D01*
X003517Y013796D01*
X003527Y013843D01*
X003540Y013889D01*
X003558Y013934D01*
X003578Y013978D01*
X003603Y014020D01*
X003631Y014059D01*
X003661Y014096D01*
X003695Y014130D01*
X003732Y014162D01*
X003770Y014191D01*
X003811Y014216D01*
X003854Y014238D01*
X003899Y014256D01*
X003945Y014270D01*
X003992Y014281D01*
X004040Y014288D01*
X004088Y014291D01*
X004136Y014290D01*
X004184Y014285D01*
X004232Y014276D01*
X004278Y014264D01*
X004323Y014247D01*
X004367Y014227D01*
X004409Y014204D01*
X004449Y014177D01*
X004487Y014147D01*
X004522Y014114D01*
X004554Y014078D01*
X004584Y014040D01*
X004610Y013999D01*
X004632Y013956D01*
X004652Y013912D01*
X004667Y013867D01*
X004679Y013820D01*
X004687Y013772D01*
X004691Y013724D01*
X004691Y013676D01*
X004687Y013628D01*
X004679Y013580D01*
X004667Y013533D01*
X004652Y013488D01*
X004632Y013444D01*
X004610Y013401D01*
X004584Y013360D01*
X004554Y013322D01*
X004522Y013286D01*
X004487Y013253D01*
X004449Y013223D01*
X004409Y013196D01*
X004367Y013173D01*
X004323Y013153D01*
X004278Y013136D01*
X004232Y013124D01*
X004184Y013115D01*
X004136Y013110D01*
X004088Y013109D01*
X004040Y013112D01*
X003992Y013119D01*
X003945Y013130D01*
X003899Y013144D01*
X003854Y013162D01*
X003811Y013184D01*
X003770Y013209D01*
X003732Y013238D01*
X003695Y013270D01*
X003661Y013304D01*
X003631Y013341D01*
X003603Y013380D01*
X003578Y013422D01*
X003558Y013466D01*
X003540Y013511D01*
X003527Y013557D01*
X003517Y013604D01*
X003511Y013652D01*
X003509Y013700D01*
X033009Y013700D02*
X033011Y013748D01*
X033017Y013796D01*
X033027Y013843D01*
X033040Y013889D01*
X033058Y013934D01*
X033078Y013978D01*
X033103Y014020D01*
X033131Y014059D01*
X033161Y014096D01*
X033195Y014130D01*
X033232Y014162D01*
X033270Y014191D01*
X033311Y014216D01*
X033354Y014238D01*
X033399Y014256D01*
X033445Y014270D01*
X033492Y014281D01*
X033540Y014288D01*
X033588Y014291D01*
X033636Y014290D01*
X033684Y014285D01*
X033732Y014276D01*
X033778Y014264D01*
X033823Y014247D01*
X033867Y014227D01*
X033909Y014204D01*
X033949Y014177D01*
X033987Y014147D01*
X034022Y014114D01*
X034054Y014078D01*
X034084Y014040D01*
X034110Y013999D01*
X034132Y013956D01*
X034152Y013912D01*
X034167Y013867D01*
X034179Y013820D01*
X034187Y013772D01*
X034191Y013724D01*
X034191Y013676D01*
X034187Y013628D01*
X034179Y013580D01*
X034167Y013533D01*
X034152Y013488D01*
X034132Y013444D01*
X034110Y013401D01*
X034084Y013360D01*
X034054Y013322D01*
X034022Y013286D01*
X033987Y013253D01*
X033949Y013223D01*
X033909Y013196D01*
X033867Y013173D01*
X033823Y013153D01*
X033778Y013136D01*
X033732Y013124D01*
X033684Y013115D01*
X033636Y013110D01*
X033588Y013109D01*
X033540Y013112D01*
X033492Y013119D01*
X033445Y013130D01*
X033399Y013144D01*
X033354Y013162D01*
X033311Y013184D01*
X033270Y013209D01*
X033232Y013238D01*
X033195Y013270D01*
X033161Y013304D01*
X033131Y013341D01*
X033103Y013380D01*
X033078Y013422D01*
X033058Y013466D01*
X033040Y013511D01*
X033027Y013557D01*
X033017Y013604D01*
X033011Y013652D01*
X033009Y013700D01*
X033009Y001500D02*
X033011Y001548D01*
X033017Y001596D01*
X033027Y001643D01*
X033040Y001689D01*
X033058Y001734D01*
X033078Y001778D01*
X033103Y001820D01*
X033131Y001859D01*
X033161Y001896D01*
X033195Y001930D01*
X033232Y001962D01*
X033270Y001991D01*
X033311Y002016D01*
X033354Y002038D01*
X033399Y002056D01*
X033445Y002070D01*
X033492Y002081D01*
X033540Y002088D01*
X033588Y002091D01*
X033636Y002090D01*
X033684Y002085D01*
X033732Y002076D01*
X033778Y002064D01*
X033823Y002047D01*
X033867Y002027D01*
X033909Y002004D01*
X033949Y001977D01*
X033987Y001947D01*
X034022Y001914D01*
X034054Y001878D01*
X034084Y001840D01*
X034110Y001799D01*
X034132Y001756D01*
X034152Y001712D01*
X034167Y001667D01*
X034179Y001620D01*
X034187Y001572D01*
X034191Y001524D01*
X034191Y001476D01*
X034187Y001428D01*
X034179Y001380D01*
X034167Y001333D01*
X034152Y001288D01*
X034132Y001244D01*
X034110Y001201D01*
X034084Y001160D01*
X034054Y001122D01*
X034022Y001086D01*
X033987Y001053D01*
X033949Y001023D01*
X033909Y000996D01*
X033867Y000973D01*
X033823Y000953D01*
X033778Y000936D01*
X033732Y000924D01*
X033684Y000915D01*
X033636Y000910D01*
X033588Y000909D01*
X033540Y000912D01*
X033492Y000919D01*
X033445Y000930D01*
X033399Y000944D01*
X033354Y000962D01*
X033311Y000984D01*
X033270Y001009D01*
X033232Y001038D01*
X033195Y001070D01*
X033161Y001104D01*
X033131Y001141D01*
X033103Y001180D01*
X033078Y001222D01*
X033058Y001266D01*
X033040Y001311D01*
X033027Y001357D01*
X033017Y001404D01*
X033011Y001452D01*
X033009Y001500D01*
D11*
X016100Y015550D03*
X007600Y015550D03*
D12*
X011850Y015550D03*
D13*
X017050Y014810D02*
X017050Y014290D01*
X017050Y011810D02*
X017050Y011290D01*
X018100Y010810D02*
X018100Y010290D01*
X019100Y010290D02*
X019100Y010810D01*
X020100Y010810D02*
X020100Y010290D01*
X021100Y010290D02*
X021100Y010810D01*
X022100Y010810D02*
X022100Y010290D01*
X023100Y010290D02*
X023100Y010810D01*
X024100Y010810D02*
X024100Y010290D01*
X025100Y010290D02*
X025100Y010810D01*
X026100Y010810D02*
X026100Y010290D01*
X027100Y010290D02*
X027100Y010810D01*
X028100Y010810D02*
X028100Y010290D01*
X029100Y010290D02*
X029100Y010810D01*
X030100Y010810D02*
X030100Y010290D01*
X031100Y010290D02*
X031100Y010810D01*
X031100Y007810D02*
X031100Y007290D01*
X030100Y007290D02*
X030100Y007810D01*
X029100Y007810D02*
X029100Y007290D01*
X028100Y007290D02*
X028100Y007810D01*
X027100Y007810D02*
X027100Y007290D01*
X026100Y007290D02*
X026100Y007810D01*
X025100Y007810D02*
X025100Y007290D01*
X024100Y007290D02*
X024100Y007810D01*
X023100Y007810D02*
X023100Y007290D01*
X022100Y007290D02*
X022100Y007810D01*
X021100Y007810D02*
X021100Y007290D01*
X020100Y007290D02*
X020100Y007810D01*
X019100Y007810D02*
X019100Y007290D01*
X018100Y007290D02*
X018100Y007810D01*
D14*
X013600Y007050D03*
X012600Y007050D03*
X011600Y007050D03*
X010600Y007050D03*
X010600Y010050D03*
X011600Y010050D03*
X012600Y010050D03*
X013600Y010050D03*
X032400Y018250D03*
X035600Y018050D03*
D15*
X011600Y006050D03*
X010600Y006050D03*
D16*
X016300Y007800D03*
X019100Y006050D03*
X018600Y005050D03*
X018100Y004050D03*
X017600Y003050D03*
X020600Y003050D03*
X021100Y004050D03*
X021600Y005050D03*
X022100Y006050D03*
X027600Y005800D03*
X030600Y005800D03*
X031600Y004300D03*
X028600Y004300D03*
X016300Y010800D03*
X018600Y012050D03*
X018600Y015050D03*
X028100Y012050D03*
X031100Y012050D03*
X007100Y012550D03*
X006100Y012550D03*
X006100Y009550D03*
X007100Y009550D03*
D17*
X009100Y009050D03*
X009100Y008050D03*
X014850Y007800D03*
X014850Y006800D03*
X012100Y005050D03*
X012100Y004050D03*
X010100Y004050D03*
X010100Y005050D03*
X023450Y006350D03*
X024450Y006350D03*
X024100Y005300D03*
X025100Y005300D03*
X024600Y002550D03*
X023600Y002550D03*
X023600Y001550D03*
X024600Y001550D03*
X025600Y001550D03*
X030100Y013050D03*
X031100Y013050D03*
X024100Y014200D03*
X023100Y014200D03*
X022150Y014200D03*
X021150Y014200D03*
D18*
X025600Y002550D03*
D19*
X035600Y017050D03*
X031400Y018250D03*
D20*
X023550Y012550D03*
X021650Y012550D03*
D21*
X027210Y014770D03*
X028990Y014770D03*
X025100Y016050D03*
X024100Y016050D03*
X023100Y016050D03*
X022100Y016050D03*
X021100Y016050D03*
X020100Y016050D03*
X020100Y018300D03*
X021100Y018300D03*
X022100Y018300D03*
X023100Y018300D03*
X024100Y018300D03*
X025100Y018300D03*
X027210Y017330D03*
X028990Y017330D03*
X006100Y016550D03*
X005100Y016550D03*
X002600Y016550D03*
X001600Y016550D03*
X001600Y018550D03*
X002600Y018550D03*
X005100Y018550D03*
X006100Y018550D03*
X007252Y001498D03*
X008252Y001498D03*
X009252Y001498D03*
X010252Y001498D03*
X011252Y001498D03*
X012252Y001498D03*
X013252Y001498D03*
X014252Y001498D03*
X015252Y001498D03*
X016252Y001498D03*
X017252Y001498D03*
X018252Y001498D03*
X019252Y001498D03*
X020252Y001498D03*
X021252Y001498D03*
D22*
X034350Y010050D03*
X037850Y010050D03*
D23*
X037269Y011542D02*
X036269Y011542D01*
X035588Y012971D02*
X035588Y013971D01*
X037950Y013971D02*
X037950Y012971D01*
D24*
X006252Y001498D03*
D25*
X001900Y005050D02*
X001300Y005050D01*
X001300Y006050D02*
X001900Y006050D01*
X001900Y007050D02*
X001300Y007050D01*
X028100Y001850D02*
X028100Y001250D01*
X029100Y001250D02*
X029100Y001850D01*
X030100Y001850D02*
X030100Y001250D01*
X031100Y001250D02*
X031100Y001850D01*
D26*
X001600Y002050D03*
X001600Y003050D03*
X001600Y012550D03*
X001600Y013550D03*
X027600Y018550D03*
X028600Y018550D03*
D27*
X032350Y015550D03*
D28*
X031350Y016050D03*
X032350Y016550D03*
D29*
X037600Y016550D03*
X037600Y018050D03*
D30*
X037850Y002300D03*
X035850Y002300D03*
X036850Y001300D03*
D31*
X001600Y009050D03*
X001606Y010550D03*
D32*
X005100Y010550D01*
X006100Y009550D01*
X007100Y009550D02*
X007300Y009450D01*
X012600Y014750D01*
X011850Y015550D01*
X011900Y015550D01*
X013600Y013850D01*
X017500Y013850D01*
X020000Y011350D01*
X023300Y011350D01*
X024100Y010550D01*
X024500Y009650D02*
X024400Y009550D01*
X023300Y009550D01*
X023000Y009250D01*
X017100Y009250D01*
X016300Y009550D02*
X014200Y011650D01*
X012700Y011350D02*
X011600Y010250D01*
X011600Y010050D01*
X012600Y010050D02*
X013700Y008950D01*
X030100Y008950D01*
X031100Y007950D01*
X031100Y007550D01*
X030100Y007550D02*
X030100Y007950D01*
X029400Y008650D01*
X016800Y008650D01*
X016700Y008550D01*
X017700Y008050D02*
X016900Y007250D01*
X016700Y007250D01*
X016700Y006950D02*
X017500Y006950D01*
X018100Y007550D01*
X016300Y007800D02*
X016300Y007850D01*
X014900Y007850D01*
X014850Y007800D01*
X015400Y006550D02*
X019300Y006550D01*
X021700Y004150D01*
X026800Y004150D01*
X027200Y003750D01*
X026600Y003450D02*
X026400Y003650D01*
X021900Y003650D01*
X021400Y003150D01*
X020700Y003150D01*
X020600Y003050D01*
X020700Y002050D02*
X010200Y002050D01*
X010200Y001550D01*
X010252Y001498D01*
X010200Y002050D02*
X010200Y004050D01*
X010100Y004050D01*
X008800Y004050D01*
X006300Y001550D01*
X006252Y001498D01*
X017000Y000850D02*
X017100Y000750D01*
X019800Y000750D01*
X020200Y001150D01*
X020200Y001450D01*
X020252Y001498D01*
X020700Y002050D02*
X021200Y001550D01*
X021252Y001498D01*
X021300Y001450D01*
X023600Y001450D01*
X023600Y001550D01*
X024400Y000750D01*
X028300Y000750D01*
X029100Y001550D01*
X029900Y002350D01*
X032300Y002350D01*
X033000Y003050D01*
X034700Y003050D01*
X037200Y005550D01*
X037200Y010850D01*
X037600Y010850D01*
X038000Y011250D01*
X038000Y013450D01*
X037950Y013471D01*
X037900Y013550D01*
X035600Y013550D01*
X035588Y013471D01*
X031600Y013150D02*
X031600Y015250D01*
X029800Y015250D01*
X028600Y016450D01*
X025900Y016450D01*
X025400Y016950D01*
X019200Y016950D01*
X019200Y017350D02*
X022300Y017350D01*
X022400Y017250D01*
X021100Y016050D02*
X021100Y015750D01*
X021700Y015150D01*
X024300Y015150D01*
X025500Y013950D01*
X028500Y013950D01*
X028600Y014050D01*
X029500Y013650D02*
X024700Y013650D01*
X024400Y013350D01*
X020800Y013350D01*
X020300Y013850D01*
X020300Y016050D01*
X020100Y016050D01*
X017400Y015550D02*
X017400Y016850D01*
X017400Y015550D02*
X021300Y011650D01*
X026100Y011650D01*
X026100Y010550D01*
X028100Y010550D02*
X028100Y010150D01*
X028800Y009450D01*
X030100Y009450D01*
X030500Y009050D01*
X030100Y010550D02*
X030100Y011650D01*
X029400Y011650D01*
X028000Y013050D01*
X026800Y013050D01*
X027800Y013350D02*
X028100Y013350D01*
X029200Y012250D01*
X030200Y012250D01*
X030900Y011550D01*
X031400Y011550D01*
X032400Y010550D01*
X027100Y009250D02*
X023900Y009250D01*
X020100Y009550D02*
X016300Y009550D01*
X019100Y010550D02*
X019100Y011550D01*
X018400Y011550D01*
X016500Y013450D01*
X016400Y013450D01*
X017600Y012950D02*
X018500Y012050D01*
X018600Y012050D01*
X020100Y010550D02*
X020100Y009550D01*
X023450Y006350D02*
X023500Y006350D01*
X024000Y005850D01*
X027600Y005850D01*
X027600Y005800D01*
X028200Y005150D02*
X027500Y004450D01*
X026300Y004450D01*
X028200Y005150D02*
X029000Y005150D01*
X029200Y004950D01*
X031000Y004950D01*
X031200Y005150D01*
X035600Y005150D01*
X036400Y005950D01*
X036000Y006450D02*
X026600Y006450D01*
X026600Y003450D02*
X031300Y003450D01*
X031400Y003350D01*
X031800Y003350D02*
X031100Y002650D01*
X025700Y002650D01*
X025600Y002550D01*
X026000Y002050D02*
X024400Y002050D01*
X024100Y001750D01*
X024100Y001550D01*
X025600Y001550D02*
X025700Y001650D01*
X028000Y001650D01*
X028100Y001550D01*
X028400Y002350D02*
X026300Y002350D01*
X026000Y002050D01*
X026500Y003150D02*
X029400Y003150D01*
X026500Y003150D02*
X026300Y003350D01*
X024400Y003350D01*
X023600Y002550D01*
X034700Y003050D02*
X035100Y003050D01*
X035850Y002300D01*
X036000Y006450D02*
X036400Y006850D01*
X030100Y013050D02*
X029500Y013650D01*
X027210Y014770D02*
X027200Y014850D01*
X026700Y014850D01*
X026650Y014804D01*
X026640Y014815D01*
X026600Y014850D01*
X026500Y014850D01*
X025300Y016050D01*
X025100Y016050D01*
X026650Y014804D02*
X026700Y014750D01*
X026700Y014650D01*
X026659Y014628D01*
X026654Y014637D01*
X026659Y014628D02*
X026700Y014550D01*
X032350Y015550D02*
X032400Y015550D01*
X034900Y018050D01*
X032600Y018050D01*
X032400Y018250D01*
X031500Y019150D01*
X028200Y019150D01*
X027600Y018550D01*
X031400Y018250D02*
X031400Y018050D01*
X032000Y017450D01*
X032300Y017450D01*
X032300Y016550D01*
X032350Y016550D01*
X034900Y018050D02*
X035600Y018050D01*
X009100Y008050D02*
X008600Y008050D01*
X007100Y009550D01*
X005100Y018550D02*
X004500Y019150D01*
X002200Y019150D01*
X001600Y018550D01*
D33*
X014200Y011650D03*
X012700Y011350D03*
X016400Y013450D03*
X017600Y012950D03*
X024500Y009650D03*
X023900Y009250D03*
X027100Y009250D03*
X030500Y009050D03*
X032400Y010550D03*
X031600Y013150D03*
X028600Y014050D03*
X027800Y013350D03*
X026800Y013050D03*
X019200Y016950D03*
X019200Y017350D03*
X017400Y016850D03*
X022400Y017250D03*
X017100Y009250D03*
X016700Y008550D03*
X017700Y008050D03*
X016700Y007250D03*
X016700Y006950D03*
X015400Y006550D03*
X024100Y001550D03*
X028400Y002350D03*
X029400Y003150D03*
X031400Y003350D03*
X031800Y003350D03*
X027200Y003750D03*
X026300Y004450D03*
X026600Y006450D03*
X036400Y006850D03*
X036400Y005950D03*
X037200Y005550D03*
X017000Y000850D03*
D34*
X016680Y000867D02*
X005551Y000867D01*
X005519Y000800D02*
X005629Y001028D01*
X005629Y001028D01*
X005700Y001500D01*
X005629Y001972D01*
X005422Y002401D01*
X005422Y002401D01*
X005098Y002751D01*
X005098Y002751D01*
X004685Y002989D01*
X004220Y003096D01*
X004220Y003096D01*
X003744Y003060D01*
X003744Y003060D01*
X003300Y002886D01*
X002927Y002588D01*
X002658Y002194D01*
X002518Y001738D01*
X002518Y001262D01*
X002658Y000806D01*
X002662Y000800D01*
X000600Y000800D01*
X000600Y019050D01*
X001370Y019050D01*
X001312Y019020D01*
X001242Y018970D01*
X001180Y018908D01*
X001130Y018838D01*
X001090Y018761D01*
X001064Y018679D01*
X001050Y018593D01*
X001050Y018570D01*
X001580Y018570D01*
X001580Y018530D01*
X001620Y018530D01*
X001620Y018000D01*
X001643Y018000D01*
X001729Y018014D01*
X001811Y018040D01*
X001888Y018080D01*
X001958Y018130D01*
X002020Y018192D01*
X002070Y018262D01*
X002088Y018296D01*
X002117Y018227D01*
X002277Y018067D01*
X002487Y017980D01*
X002713Y017980D01*
X002923Y018067D01*
X003083Y018227D01*
X003170Y018437D01*
X003170Y018663D01*
X003083Y018873D01*
X002923Y019033D01*
X002882Y019050D01*
X004870Y019050D01*
X004812Y019020D01*
X004742Y018970D01*
X004680Y018908D01*
X004630Y018838D01*
X004590Y018761D01*
X004564Y018679D01*
X004550Y018593D01*
X004550Y018570D01*
X005080Y018570D01*
X005080Y018530D01*
X005120Y018530D01*
X005120Y018000D01*
X005143Y018000D01*
X005229Y018014D01*
X005311Y018040D01*
X005388Y018080D01*
X005458Y018130D01*
X005520Y018192D01*
X005570Y018262D01*
X005588Y018296D01*
X005617Y018227D01*
X005777Y018067D01*
X005987Y017980D01*
X006213Y017980D01*
X006423Y018067D01*
X006583Y018227D01*
X006670Y018437D01*
X006670Y018663D01*
X006583Y018873D01*
X006423Y019033D01*
X006382Y019050D01*
X027424Y019050D01*
X027397Y019041D01*
X027322Y019003D01*
X027255Y018954D01*
X027196Y018895D01*
X027147Y018828D01*
X027109Y018753D01*
X027083Y018674D01*
X027070Y018592D01*
X027070Y018568D01*
X027582Y018568D01*
X027582Y018532D01*
X027618Y018532D01*
X027618Y018020D01*
X027642Y018020D01*
X027724Y018033D01*
X027803Y018059D01*
X027878Y018097D01*
X027945Y018146D01*
X028004Y018205D01*
X028053Y018272D01*
X028090Y018344D01*
X028134Y018238D01*
X028288Y018084D01*
X028491Y018000D01*
X028709Y018000D01*
X028912Y018084D01*
X029066Y018238D01*
X029150Y018441D01*
X029150Y018659D01*
X029066Y018862D01*
X028912Y019016D01*
X028830Y019050D01*
X038475Y019050D01*
X038600Y018925D01*
X038600Y014174D01*
X038596Y014190D01*
X038562Y014273D01*
X038517Y014350D01*
X038463Y014421D01*
X038400Y014484D01*
X038329Y014538D01*
X038252Y014582D01*
X038169Y014617D01*
X038083Y014640D01*
X037995Y014651D01*
X037969Y014651D01*
X037969Y013490D01*
X037932Y013490D01*
X037932Y014651D01*
X037906Y014651D01*
X037817Y014640D01*
X037731Y014617D01*
X037649Y014582D01*
X037572Y014538D01*
X037501Y014484D01*
X037438Y014421D01*
X037384Y014350D01*
X037339Y014273D01*
X037305Y014190D01*
X037282Y014104D01*
X037270Y014016D01*
X037270Y013490D01*
X037932Y013490D01*
X037932Y013453D01*
X037270Y013453D01*
X037270Y012927D01*
X037282Y012838D01*
X037305Y012752D01*
X037339Y012670D01*
X037384Y012593D01*
X037438Y012522D01*
X037501Y012459D01*
X037572Y012405D01*
X037649Y012360D01*
X037731Y012326D01*
X037817Y012303D01*
X037906Y012291D01*
X037932Y012291D01*
X037932Y013453D01*
X037969Y013453D01*
X037969Y012291D01*
X037995Y012291D01*
X038083Y012303D01*
X038169Y012326D01*
X038252Y012360D01*
X038329Y012405D01*
X038400Y012459D01*
X038463Y012522D01*
X038517Y012593D01*
X038562Y012670D01*
X038596Y012752D01*
X038600Y012768D01*
X038600Y000925D01*
X038475Y000800D01*
X035019Y000800D01*
X035129Y001028D01*
X035129Y001028D01*
X035200Y001500D01*
X035129Y001972D01*
X034922Y002401D01*
X034922Y002401D01*
X034598Y002751D01*
X034185Y002989D01*
X033720Y003096D01*
X033244Y003060D01*
X032800Y002886D01*
X032427Y002588D01*
X032158Y002194D01*
X032018Y001738D01*
X032018Y001262D01*
X032158Y000806D01*
X032162Y000800D01*
X031320Y000800D01*
X031383Y000826D01*
X031524Y000967D01*
X031600Y001151D01*
X031600Y001949D01*
X031524Y002133D01*
X031383Y002274D01*
X031199Y002350D01*
X031001Y002350D01*
X030817Y002274D01*
X030676Y002133D01*
X030600Y001949D01*
X030524Y002133D01*
X030383Y002274D01*
X030199Y002350D01*
X030001Y002350D01*
X029817Y002274D01*
X029676Y002133D01*
X029600Y001949D01*
X029600Y001151D01*
X029676Y000967D01*
X029817Y000826D01*
X029880Y000800D01*
X029268Y000800D01*
X029284Y000805D01*
X029352Y000839D01*
X029413Y000884D01*
X029466Y000937D01*
X029511Y000998D01*
X029545Y001066D01*
X029568Y001138D01*
X029580Y001212D01*
X029580Y001530D01*
X029120Y001530D01*
X029120Y001570D01*
X029080Y001570D01*
X029080Y002330D01*
X029062Y002330D01*
X028988Y002318D01*
X028916Y002295D01*
X028848Y002261D01*
X028787Y002216D01*
X028734Y002163D01*
X028689Y002102D01*
X028655Y002034D01*
X028632Y001962D01*
X028620Y001888D01*
X028620Y001570D01*
X029080Y001570D01*
X029080Y001530D01*
X028620Y001530D01*
X028620Y001212D01*
X028632Y001138D01*
X028655Y001066D01*
X028689Y000998D01*
X028734Y000937D01*
X028787Y000884D01*
X028848Y000839D01*
X028916Y000805D01*
X028932Y000800D01*
X028320Y000800D01*
X028383Y000826D01*
X028524Y000967D01*
X028600Y001151D01*
X028600Y001949D01*
X028552Y002066D01*
X028581Y002079D01*
X028671Y002169D01*
X028720Y002286D01*
X028720Y002375D01*
X031155Y002375D01*
X031256Y002417D01*
X031333Y002494D01*
X031873Y003034D01*
X031981Y003079D01*
X032071Y003169D01*
X032120Y003286D01*
X032120Y003414D01*
X032071Y003531D01*
X031981Y003621D01*
X031864Y003670D01*
X031736Y003670D01*
X031619Y003621D01*
X031600Y003603D01*
X031581Y003621D01*
X031473Y003666D01*
X031456Y003683D01*
X031355Y003725D01*
X027520Y003725D01*
X027520Y003814D01*
X027471Y003931D01*
X027381Y004021D01*
X027273Y004066D01*
X027164Y004175D01*
X027555Y004175D01*
X027656Y004217D01*
X027733Y004294D01*
X028314Y004875D01*
X028886Y004875D01*
X029044Y004717D01*
X029145Y004675D01*
X031055Y004675D01*
X031156Y004717D01*
X031233Y004794D01*
X031314Y004875D01*
X035655Y004875D01*
X035756Y004917D01*
X035833Y004994D01*
X036473Y005634D01*
X036581Y005679D01*
X036671Y005769D01*
X036720Y005886D01*
X036720Y006014D01*
X036671Y006131D01*
X036581Y006221D01*
X036464Y006270D01*
X036336Y006270D01*
X036219Y006221D01*
X036129Y006131D01*
X036084Y006023D01*
X035486Y005425D01*
X031145Y005425D01*
X031044Y005383D01*
X030886Y005225D01*
X029314Y005225D01*
X029233Y005306D01*
X029156Y005383D01*
X029055Y005425D01*
X028145Y005425D01*
X028044Y005383D01*
X027386Y004725D01*
X026472Y004725D01*
X026364Y004770D01*
X026236Y004770D01*
X026119Y004721D01*
X026029Y004631D01*
X025980Y004514D01*
X025980Y004425D01*
X021814Y004425D01*
X021719Y004520D01*
X021820Y004520D01*
X022130Y004830D01*
X022130Y005270D01*
X021820Y005580D01*
X021380Y005580D01*
X021070Y005270D01*
X021070Y005169D01*
X019533Y006706D01*
X019456Y006783D01*
X019355Y006825D01*
X017764Y006825D01*
X017839Y006900D01*
X017839Y006900D01*
X018008Y006830D01*
X018191Y006830D01*
X018361Y006900D01*
X018490Y007029D01*
X018560Y007198D01*
X018560Y007901D01*
X018490Y008071D01*
X018361Y008200D01*
X018191Y008270D01*
X018008Y008270D01*
X017955Y008248D01*
X017881Y008321D01*
X017764Y008370D01*
X017636Y008370D01*
X017519Y008321D01*
X017429Y008231D01*
X017384Y008123D01*
X016811Y007550D01*
X016803Y007554D01*
X016830Y007580D01*
X016830Y008020D01*
X016608Y008242D01*
X016636Y008230D01*
X016764Y008230D01*
X016881Y008279D01*
X016971Y008369D01*
X016974Y008375D01*
X029286Y008375D01*
X029675Y007986D01*
X029640Y007901D01*
X029640Y007198D01*
X029710Y007029D01*
X029839Y006900D01*
X030008Y006830D01*
X030191Y006830D01*
X030361Y006900D01*
X030490Y007029D01*
X030560Y007198D01*
X030560Y007901D01*
X030490Y008071D01*
X030361Y008200D01*
X030191Y008270D01*
X030169Y008270D01*
X029764Y008675D01*
X029986Y008675D01*
X030675Y007986D01*
X030640Y007901D01*
X030640Y007198D01*
X030710Y007029D01*
X030839Y006900D01*
X031008Y006830D01*
X031191Y006830D01*
X031361Y006900D01*
X031490Y007029D01*
X031560Y007198D01*
X031560Y007901D01*
X031490Y008071D01*
X031361Y008200D01*
X031191Y008270D01*
X031169Y008270D01*
X030666Y008773D01*
X030681Y008779D01*
X030771Y008869D01*
X030820Y008986D01*
X030820Y009114D01*
X030771Y009231D01*
X030681Y009321D01*
X030573Y009366D01*
X030333Y009606D01*
X030256Y009683D01*
X030155Y009725D01*
X028914Y009725D01*
X028525Y010114D01*
X028560Y010198D01*
X028560Y010901D01*
X028490Y011071D01*
X028361Y011200D01*
X028191Y011270D01*
X028008Y011270D01*
X027839Y011200D01*
X027710Y011071D01*
X027640Y010901D01*
X027640Y010198D01*
X027710Y010029D01*
X027839Y009900D01*
X028008Y009830D01*
X028031Y009830D01*
X028636Y009225D01*
X027420Y009225D01*
X027420Y009314D01*
X027371Y009431D01*
X027281Y009521D01*
X027164Y009570D01*
X027036Y009570D01*
X026928Y009525D01*
X024795Y009525D01*
X024820Y009586D01*
X024820Y009714D01*
X024771Y009831D01*
X024681Y009921D01*
X024564Y009970D01*
X024436Y009970D01*
X024371Y009943D01*
X024387Y009954D01*
X024436Y010003D01*
X024476Y010059D01*
X024508Y010121D01*
X024529Y010187D01*
X024540Y010255D01*
X024540Y010550D01*
X024540Y010845D01*
X024529Y010913D01*
X024508Y010979D01*
X024476Y011041D01*
X024436Y011097D01*
X024387Y011146D01*
X024331Y011186D01*
X024269Y011218D01*
X024203Y011239D01*
X024135Y011250D01*
X024100Y011250D01*
X024100Y010550D01*
X024100Y010550D01*
X024540Y010550D01*
X024100Y010550D01*
X024100Y010550D01*
X024100Y009850D01*
X024135Y009850D01*
X024203Y009861D01*
X024269Y009882D01*
X024291Y009893D01*
X024229Y009831D01*
X024226Y009825D01*
X023245Y009825D01*
X023144Y009783D01*
X022886Y009525D01*
X020375Y009525D01*
X020375Y009914D01*
X020490Y010029D01*
X020560Y010198D01*
X020560Y010901D01*
X020490Y011071D01*
X020361Y011200D01*
X020191Y011270D01*
X020008Y011270D01*
X019839Y011200D01*
X019710Y011071D01*
X019640Y010901D01*
X019640Y010198D01*
X019710Y010029D01*
X019825Y009914D01*
X019825Y009825D01*
X016414Y009825D01*
X014516Y011723D01*
X014471Y011831D01*
X014381Y011921D01*
X014264Y011970D01*
X014136Y011970D01*
X014019Y011921D01*
X013929Y011831D01*
X013880Y011714D01*
X013880Y011586D01*
X013929Y011469D01*
X014019Y011379D01*
X014127Y011334D01*
X016144Y009317D01*
X016245Y009275D01*
X016780Y009275D01*
X016780Y009225D01*
X013814Y009225D01*
X013504Y009535D01*
X013813Y009535D01*
X014115Y009837D01*
X014115Y010263D01*
X013813Y010565D01*
X013387Y010565D01*
X013100Y010278D01*
X012813Y010565D01*
X012387Y010565D01*
X012100Y010278D01*
X012059Y010320D01*
X012773Y011034D01*
X012881Y011079D01*
X012971Y011169D01*
X013020Y011286D01*
X013020Y011414D01*
X012971Y011531D01*
X012881Y011621D01*
X012764Y011670D01*
X012636Y011670D01*
X012519Y011621D01*
X012429Y011531D01*
X012384Y011423D01*
X011526Y010565D01*
X011387Y010565D01*
X011100Y010278D01*
X010813Y010565D01*
X010387Y010565D01*
X010085Y010263D01*
X010085Y009837D01*
X010387Y009535D01*
X010813Y009535D01*
X011100Y009822D01*
X011387Y009535D01*
X011813Y009535D01*
X012100Y009822D01*
X012387Y009535D01*
X012726Y009535D01*
X013467Y008794D01*
X013544Y008717D01*
X013645Y008675D01*
X016405Y008675D01*
X016380Y008614D01*
X016380Y008486D01*
X016429Y008369D01*
X016467Y008330D01*
X016080Y008330D01*
X015875Y008125D01*
X015232Y008125D01*
X015057Y008300D01*
X014643Y008300D01*
X014350Y008007D01*
X014350Y007593D01*
X014643Y007300D01*
X015057Y007300D01*
X015332Y007575D01*
X015775Y007575D01*
X016080Y007270D01*
X016380Y007270D01*
X016380Y007186D01*
X016416Y007100D01*
X016380Y007014D01*
X016380Y006886D01*
X016405Y006825D01*
X015572Y006825D01*
X015464Y006870D01*
X015336Y006870D01*
X015330Y006867D01*
X015330Y006999D01*
X015049Y007280D01*
X014850Y007280D01*
X014850Y006800D01*
X014850Y006800D01*
X014850Y006320D01*
X015049Y006320D01*
X015120Y006391D01*
X015129Y006369D01*
X015219Y006279D01*
X015336Y006230D01*
X015464Y006230D01*
X015572Y006275D01*
X018575Y006275D01*
X018570Y006270D01*
X018570Y005830D01*
X018880Y005520D01*
X019320Y005520D01*
X019630Y005830D01*
X019630Y005831D01*
X020881Y004580D01*
X020880Y004580D01*
X020570Y004270D01*
X020570Y003830D01*
X020880Y003520D01*
X021320Y003520D01*
X021630Y003830D01*
X021630Y003881D01*
X021645Y003875D01*
X021736Y003875D01*
X021286Y003425D01*
X020975Y003425D01*
X020820Y003580D01*
X020380Y003580D01*
X020070Y003270D01*
X020070Y002830D01*
X020380Y002520D01*
X020820Y002520D01*
X021130Y002830D01*
X021130Y002875D01*
X021455Y002875D01*
X021556Y002917D01*
X021633Y002994D01*
X022014Y003375D01*
X024036Y003375D01*
X023711Y003050D01*
X023393Y003050D01*
X023100Y002757D01*
X023100Y002343D01*
X023393Y002050D01*
X023807Y002050D01*
X024100Y002343D01*
X024202Y002241D01*
X023944Y001983D01*
X023895Y001934D01*
X023799Y002030D01*
X023620Y002030D01*
X023620Y001570D01*
X023580Y001570D01*
X023580Y002030D01*
X023401Y002030D01*
X023120Y001749D01*
X023120Y001570D01*
X023580Y001570D01*
X023580Y001530D01*
X023620Y001530D01*
X023620Y001070D01*
X023799Y001070D01*
X023982Y001253D01*
X024036Y001230D01*
X024164Y001230D01*
X024198Y001244D01*
X024393Y001050D01*
X024807Y001050D01*
X025100Y001343D01*
X025393Y001050D01*
X025807Y001050D01*
X026100Y001343D01*
X026100Y001375D01*
X027600Y001375D01*
X027600Y001151D01*
X027676Y000967D01*
X027817Y000826D01*
X027880Y000800D01*
X020239Y000800D01*
X020356Y000917D01*
X020368Y000929D01*
X020574Y001014D01*
X020735Y001175D01*
X020764Y001244D01*
X020781Y001209D01*
X020832Y001139D01*
X020893Y001078D01*
X020963Y001027D01*
X021040Y000988D01*
X021123Y000961D01*
X021208Y000948D01*
X021232Y000948D01*
X021232Y001478D01*
X021272Y001478D01*
X021272Y001518D01*
X021802Y001518D01*
X021802Y001541D01*
X021788Y001626D01*
X021761Y001709D01*
X021722Y001786D01*
X021671Y001856D01*
X021610Y001917D01*
X021540Y001968D01*
X021463Y002007D01*
X021380Y002034D01*
X021295Y002048D01*
X021272Y002048D01*
X021272Y001518D01*
X021232Y001518D01*
X021232Y002048D01*
X021208Y002048D01*
X021123Y002034D01*
X021040Y002007D01*
X020963Y001968D01*
X020893Y001917D01*
X020832Y001856D01*
X020781Y001786D01*
X020764Y001751D01*
X020735Y001821D01*
X020574Y001981D01*
X020365Y002068D01*
X020138Y002068D01*
X019929Y001981D01*
X019768Y001821D01*
X019752Y001780D01*
X019735Y001821D01*
X019574Y001981D01*
X019365Y002068D01*
X019138Y002068D01*
X018929Y001981D01*
X018768Y001821D01*
X018752Y001780D01*
X018735Y001821D01*
X018574Y001981D01*
X018365Y002068D01*
X018138Y002068D01*
X017929Y001981D01*
X017768Y001821D01*
X017752Y001780D01*
X017735Y001821D01*
X017574Y001981D01*
X017365Y002068D01*
X017138Y002068D01*
X016929Y001981D01*
X016768Y001821D01*
X016752Y001780D01*
X016735Y001821D01*
X016574Y001981D01*
X016365Y002068D01*
X016138Y002068D01*
X015929Y001981D01*
X015768Y001821D01*
X015752Y001780D01*
X015735Y001821D01*
X015574Y001981D01*
X015365Y002068D01*
X015138Y002068D01*
X014929Y001981D01*
X014768Y001821D01*
X014752Y001780D01*
X014735Y001821D01*
X014574Y001981D01*
X014365Y002068D01*
X014138Y002068D01*
X013929Y001981D01*
X013768Y001821D01*
X013752Y001780D01*
X013735Y001821D01*
X013574Y001981D01*
X013365Y002068D01*
X013138Y002068D01*
X012929Y001981D01*
X012768Y001821D01*
X012752Y001780D01*
X012735Y001821D01*
X012574Y001981D01*
X012365Y002068D01*
X012138Y002068D01*
X011929Y001981D01*
X011768Y001821D01*
X011752Y001780D01*
X011735Y001821D01*
X011574Y001981D01*
X011365Y002068D01*
X011138Y002068D01*
X010929Y001981D01*
X010768Y001821D01*
X010740Y001751D01*
X010722Y001786D01*
X010671Y001856D01*
X010610Y001917D01*
X010540Y001968D01*
X010463Y002007D01*
X010380Y002034D01*
X010295Y002048D01*
X010272Y002048D01*
X010272Y001518D01*
X010232Y001518D01*
X010232Y002048D01*
X010208Y002048D01*
X010123Y002034D01*
X010040Y002007D01*
X009963Y001968D01*
X009893Y001917D01*
X009832Y001856D01*
X009781Y001786D01*
X009764Y001751D01*
X009735Y001821D01*
X009574Y001981D01*
X009365Y002068D01*
X009138Y002068D01*
X008929Y001981D01*
X008768Y001821D01*
X008752Y001780D01*
X008735Y001821D01*
X008574Y001981D01*
X008365Y002068D01*
X008138Y002068D01*
X007929Y001981D01*
X007768Y001821D01*
X007752Y001780D01*
X007735Y001821D01*
X007574Y001981D01*
X007365Y002068D01*
X007138Y002068D01*
X006929Y001981D01*
X006802Y001854D01*
X006802Y001891D01*
X006789Y001937D01*
X006766Y001978D01*
X006732Y002012D01*
X006691Y002035D01*
X006645Y002048D01*
X006272Y002048D01*
X006272Y001518D01*
X006232Y001518D01*
X006232Y002048D01*
X005858Y002048D01*
X005812Y002035D01*
X005771Y002012D01*
X005738Y001978D01*
X005714Y001937D01*
X005702Y001891D01*
X005702Y001518D01*
X006232Y001518D01*
X006232Y001478D01*
X006272Y001478D01*
X006272Y000948D01*
X006645Y000948D01*
X006691Y000960D01*
X006732Y000984D01*
X006766Y001017D01*
X006789Y001058D01*
X006802Y001104D01*
X006802Y001142D01*
X006929Y001014D01*
X007138Y000928D01*
X007365Y000928D01*
X007574Y001014D01*
X007735Y001175D01*
X007752Y001215D01*
X007768Y001175D01*
X007929Y001014D01*
X008138Y000928D01*
X008365Y000928D01*
X008574Y001014D01*
X008735Y001175D01*
X008752Y001215D01*
X008768Y001175D01*
X008929Y001014D01*
X009138Y000928D01*
X009365Y000928D01*
X009574Y001014D01*
X009735Y001175D01*
X009764Y001244D01*
X009781Y001209D01*
X009832Y001139D01*
X009893Y001078D01*
X009963Y001027D01*
X010040Y000988D01*
X010123Y000961D01*
X010208Y000948D01*
X010232Y000948D01*
X010232Y001478D01*
X010272Y001478D01*
X010272Y000948D01*
X010295Y000948D01*
X010380Y000961D01*
X010463Y000988D01*
X010540Y001027D01*
X010610Y001078D01*
X010671Y001139D01*
X010722Y001209D01*
X010740Y001244D01*
X010768Y001175D01*
X010929Y001014D01*
X011138Y000928D01*
X011365Y000928D01*
X011574Y001014D01*
X011735Y001175D01*
X011752Y001215D01*
X011768Y001175D01*
X011929Y001014D01*
X012138Y000928D01*
X012365Y000928D01*
X012574Y001014D01*
X012735Y001175D01*
X012752Y001215D01*
X012768Y001175D01*
X012929Y001014D01*
X013138Y000928D01*
X013365Y000928D01*
X013574Y001014D01*
X013735Y001175D01*
X013752Y001215D01*
X013768Y001175D01*
X013929Y001014D01*
X014138Y000928D01*
X014365Y000928D01*
X014574Y001014D01*
X014735Y001175D01*
X014752Y001215D01*
X014768Y001175D01*
X014929Y001014D01*
X015138Y000928D01*
X015365Y000928D01*
X015574Y001014D01*
X015735Y001175D01*
X015752Y001215D01*
X015768Y001175D01*
X015929Y001014D01*
X016138Y000928D01*
X016365Y000928D01*
X016574Y001014D01*
X016735Y001175D01*
X016752Y001215D01*
X016768Y001175D01*
X016821Y001122D01*
X016819Y001121D01*
X016729Y001031D01*
X016680Y000914D01*
X016680Y000800D01*
X005519Y000800D01*
X005628Y001026D02*
X005733Y001026D01*
X005738Y001017D02*
X005771Y000984D01*
X005812Y000960D01*
X005858Y000948D01*
X006232Y000948D01*
X006232Y001478D01*
X005702Y001478D01*
X005702Y001104D01*
X005714Y001058D01*
X005738Y001017D01*
X005702Y001184D02*
X005652Y001184D01*
X005676Y001343D02*
X005702Y001343D01*
X005700Y001501D02*
X006232Y001501D01*
X006232Y001343D02*
X006272Y001343D01*
X006272Y001184D02*
X006232Y001184D01*
X006232Y001026D02*
X006272Y001026D01*
X006770Y001026D02*
X006918Y001026D01*
X007586Y001026D02*
X007918Y001026D01*
X007765Y001184D02*
X007739Y001184D01*
X008586Y001026D02*
X008918Y001026D01*
X008765Y001184D02*
X008739Y001184D01*
X009586Y001026D02*
X009967Y001026D01*
X009800Y001184D02*
X009739Y001184D01*
X010232Y001184D02*
X010272Y001184D01*
X010272Y001026D02*
X010232Y001026D01*
X010536Y001026D02*
X010918Y001026D01*
X010765Y001184D02*
X010704Y001184D01*
X010272Y001343D02*
X010232Y001343D01*
X010232Y001660D02*
X010272Y001660D01*
X010272Y001818D02*
X010232Y001818D01*
X010232Y001977D02*
X010272Y001977D01*
X010523Y001977D02*
X010924Y001977D01*
X010767Y001818D02*
X010699Y001818D01*
X009980Y001977D02*
X009579Y001977D01*
X009736Y001818D02*
X009804Y001818D01*
X008924Y001977D02*
X008579Y001977D01*
X008736Y001818D02*
X008767Y001818D01*
X007924Y001977D02*
X007579Y001977D01*
X007736Y001818D02*
X007767Y001818D01*
X006924Y001977D02*
X006767Y001977D01*
X006272Y001977D02*
X006232Y001977D01*
X006232Y001818D02*
X006272Y001818D01*
X006272Y001660D02*
X006232Y001660D01*
X005702Y001660D02*
X005676Y001660D01*
X005652Y001818D02*
X005702Y001818D01*
X005737Y001977D02*
X005627Y001977D01*
X005629Y001972D02*
X005629Y001972D01*
X005550Y002135D02*
X023308Y002135D01*
X023348Y001977D02*
X021523Y001977D01*
X021699Y001818D02*
X023189Y001818D01*
X023120Y001660D02*
X021777Y001660D01*
X021802Y001478D02*
X021272Y001478D01*
X021272Y000948D01*
X021295Y000948D01*
X021380Y000961D01*
X021463Y000988D01*
X021540Y001027D01*
X021610Y001078D01*
X021671Y001139D01*
X021722Y001209D01*
X021761Y001287D01*
X021788Y001369D01*
X021802Y001454D01*
X021802Y001478D01*
X021779Y001343D02*
X023129Y001343D01*
X023120Y001351D02*
X023401Y001070D01*
X023580Y001070D01*
X023580Y001530D01*
X023120Y001530D01*
X023120Y001351D01*
X023120Y001501D02*
X021272Y001501D01*
X021272Y001343D02*
X021232Y001343D01*
X021232Y001184D02*
X021272Y001184D01*
X021272Y001026D02*
X021232Y001026D01*
X020967Y001026D02*
X020586Y001026D01*
X020739Y001184D02*
X020800Y001184D01*
X021536Y001026D02*
X027652Y001026D01*
X027600Y001184D02*
X025941Y001184D01*
X026100Y001343D02*
X027600Y001343D01*
X027776Y000867D02*
X020306Y000867D01*
X021232Y001660D02*
X021272Y001660D01*
X021272Y001818D02*
X021232Y001818D01*
X021232Y001977D02*
X021272Y001977D01*
X020980Y001977D02*
X020579Y001977D01*
X020736Y001818D02*
X020804Y001818D01*
X019924Y001977D02*
X019579Y001977D01*
X019736Y001818D02*
X019767Y001818D01*
X018924Y001977D02*
X018579Y001977D01*
X018736Y001818D02*
X018767Y001818D01*
X017924Y001977D02*
X017579Y001977D01*
X017736Y001818D02*
X017767Y001818D01*
X016924Y001977D02*
X016579Y001977D01*
X016736Y001818D02*
X016767Y001818D01*
X015924Y001977D02*
X015579Y001977D01*
X015736Y001818D02*
X015767Y001818D01*
X014924Y001977D02*
X014579Y001977D01*
X014736Y001818D02*
X014767Y001818D01*
X013924Y001977D02*
X013579Y001977D01*
X013736Y001818D02*
X013767Y001818D01*
X012924Y001977D02*
X012579Y001977D01*
X012736Y001818D02*
X012767Y001818D01*
X011924Y001977D02*
X011579Y001977D01*
X011736Y001818D02*
X011767Y001818D01*
X011739Y001184D02*
X011765Y001184D01*
X011918Y001026D02*
X011586Y001026D01*
X012586Y001026D02*
X012918Y001026D01*
X012765Y001184D02*
X012739Y001184D01*
X013586Y001026D02*
X013918Y001026D01*
X013765Y001184D02*
X013739Y001184D01*
X014586Y001026D02*
X014918Y001026D01*
X014765Y001184D02*
X014739Y001184D01*
X015586Y001026D02*
X015918Y001026D01*
X015765Y001184D02*
X015739Y001184D01*
X016586Y001026D02*
X016726Y001026D01*
X016739Y001184D02*
X016765Y001184D01*
X017380Y002520D02*
X017820Y002520D01*
X018130Y002830D01*
X018130Y003270D01*
X017820Y003580D01*
X017380Y003580D01*
X017070Y003270D01*
X017070Y002830D01*
X017380Y002520D01*
X017290Y002611D02*
X005228Y002611D01*
X005375Y002452D02*
X023100Y002452D01*
X023100Y002611D02*
X020910Y002611D01*
X021069Y002769D02*
X023112Y002769D01*
X023270Y002928D02*
X021566Y002928D01*
X021725Y003086D02*
X023747Y003086D01*
X023906Y003245D02*
X021883Y003245D01*
X021423Y003562D02*
X021361Y003562D01*
X021520Y003720D02*
X021581Y003720D01*
X021630Y003879D02*
X021637Y003879D01*
X020839Y003562D02*
X020838Y003562D01*
X020680Y003720D02*
X018520Y003720D01*
X018630Y003830D02*
X018320Y003520D01*
X017880Y003520D01*
X017570Y003830D01*
X017570Y004270D01*
X017880Y004580D01*
X018320Y004580D01*
X018630Y004270D01*
X018630Y003830D01*
X018630Y003879D02*
X020570Y003879D01*
X020570Y004037D02*
X018630Y004037D01*
X018630Y004196D02*
X020570Y004196D01*
X020654Y004354D02*
X018546Y004354D01*
X018387Y004513D02*
X020813Y004513D01*
X020790Y004671D02*
X018971Y004671D01*
X018820Y004520D02*
X018380Y004520D01*
X018070Y004830D01*
X018070Y005270D01*
X018380Y005580D01*
X018820Y005580D01*
X019130Y005270D01*
X019130Y004830D01*
X018820Y004520D01*
X019129Y004830D02*
X020632Y004830D01*
X020473Y004988D02*
X019130Y004988D01*
X019130Y005147D02*
X020315Y005147D01*
X020156Y005305D02*
X019095Y005305D01*
X018936Y005464D02*
X019998Y005464D01*
X019839Y005622D02*
X019422Y005622D01*
X019580Y005781D02*
X019681Y005781D01*
X020141Y006098D02*
X021570Y006098D01*
X021570Y006256D02*
X019983Y006256D01*
X019824Y006415D02*
X021715Y006415D01*
X021570Y006270D02*
X021570Y005830D01*
X021880Y005520D01*
X022320Y005520D01*
X022630Y005830D01*
X022630Y006270D01*
X022320Y006580D01*
X021880Y006580D01*
X021570Y006270D01*
X021570Y005939D02*
X020300Y005939D01*
X020458Y005781D02*
X021620Y005781D01*
X021778Y005622D02*
X020617Y005622D01*
X020775Y005464D02*
X021264Y005464D01*
X021105Y005305D02*
X020934Y005305D01*
X021936Y005464D02*
X023600Y005464D01*
X023600Y005507D02*
X023600Y005093D01*
X023893Y004800D01*
X024307Y004800D01*
X024600Y005093D01*
X024600Y005507D01*
X024532Y005575D01*
X024696Y005575D01*
X024620Y005499D01*
X024620Y005300D01*
X025100Y005300D01*
X025580Y005300D01*
X025580Y005499D01*
X025504Y005575D01*
X027075Y005575D01*
X027380Y005270D01*
X027820Y005270D01*
X028130Y005580D01*
X028130Y006020D01*
X027975Y006175D01*
X030225Y006175D01*
X030070Y006020D01*
X030070Y005580D01*
X030380Y005270D01*
X030820Y005270D01*
X031130Y005580D01*
X031130Y006020D01*
X030975Y006175D01*
X036055Y006175D01*
X036156Y006217D01*
X036233Y006294D01*
X036473Y006534D01*
X036581Y006579D01*
X036671Y006669D01*
X036720Y006786D01*
X036720Y006914D01*
X036671Y007031D01*
X036581Y007121D01*
X036464Y007170D01*
X036336Y007170D01*
X036219Y007121D01*
X036129Y007031D01*
X036084Y006923D01*
X035886Y006725D01*
X026772Y006725D01*
X026664Y006770D01*
X026536Y006770D01*
X026419Y006721D01*
X026329Y006631D01*
X026280Y006514D01*
X026280Y006386D01*
X026329Y006269D01*
X026419Y006179D01*
X026536Y006130D01*
X026664Y006130D01*
X026772Y006175D01*
X027225Y006175D01*
X027175Y006125D01*
X024904Y006125D01*
X024930Y006151D01*
X024930Y006350D01*
X024930Y006549D01*
X024649Y006830D01*
X024450Y006830D01*
X024450Y006350D01*
X024450Y006350D01*
X024930Y006350D01*
X024450Y006350D01*
X024450Y006350D01*
X024450Y006350D01*
X023970Y006350D01*
X023970Y006549D01*
X024251Y006830D01*
X024450Y006830D01*
X024450Y006350D01*
X023970Y006350D01*
X023970Y006269D01*
X023950Y006289D01*
X023950Y006557D01*
X023657Y006850D01*
X023243Y006850D01*
X022950Y006557D01*
X022950Y006143D01*
X023243Y005850D01*
X023611Y005850D01*
X023767Y005694D01*
X023777Y005684D01*
X023600Y005507D01*
X023715Y005622D02*
X022422Y005622D01*
X022580Y005781D02*
X023681Y005781D01*
X023154Y005939D02*
X022630Y005939D01*
X022630Y006098D02*
X022995Y006098D01*
X022950Y006256D02*
X022630Y006256D01*
X022485Y006415D02*
X022950Y006415D01*
X022966Y006573D02*
X022327Y006573D01*
X022191Y006830D02*
X022008Y006830D01*
X021839Y006900D01*
X021710Y007029D01*
X021640Y007198D01*
X021640Y007901D01*
X021710Y008071D01*
X021839Y008200D01*
X022008Y008270D01*
X022191Y008270D01*
X022361Y008200D01*
X022490Y008071D01*
X022560Y007901D01*
X022560Y007198D01*
X022490Y007029D01*
X022361Y006900D01*
X022191Y006830D01*
X022336Y006890D02*
X022864Y006890D01*
X022839Y006900D02*
X023008Y006830D01*
X023191Y006830D01*
X023361Y006900D01*
X023490Y007029D01*
X023560Y007198D01*
X023560Y007901D01*
X023490Y008071D01*
X023361Y008200D01*
X023191Y008270D01*
X023008Y008270D01*
X022839Y008200D01*
X022710Y008071D01*
X022640Y007901D01*
X022640Y007198D01*
X022710Y007029D01*
X022839Y006900D01*
X022702Y007049D02*
X022498Y007049D01*
X022560Y007207D02*
X022640Y007207D01*
X022640Y007366D02*
X022560Y007366D01*
X022560Y007524D02*
X022640Y007524D01*
X022640Y007683D02*
X022560Y007683D01*
X022560Y007841D02*
X022640Y007841D01*
X022681Y008000D02*
X022519Y008000D01*
X022403Y008158D02*
X022797Y008158D01*
X023403Y008158D02*
X023797Y008158D01*
X023839Y008200D02*
X023710Y008071D01*
X023640Y007901D01*
X023640Y007198D01*
X023710Y007029D01*
X023839Y006900D01*
X024008Y006830D01*
X024191Y006830D01*
X024361Y006900D01*
X024490Y007029D01*
X024560Y007198D01*
X024560Y007901D01*
X024490Y008071D01*
X024361Y008200D01*
X024191Y008270D01*
X024008Y008270D01*
X023839Y008200D01*
X023681Y008000D02*
X023519Y008000D01*
X023560Y007841D02*
X023640Y007841D01*
X023640Y007683D02*
X023560Y007683D01*
X023560Y007524D02*
X023640Y007524D01*
X023640Y007366D02*
X023560Y007366D01*
X023560Y007207D02*
X023640Y007207D01*
X023702Y007049D02*
X023498Y007049D01*
X023336Y006890D02*
X023864Y006890D01*
X023776Y006732D02*
X024153Y006732D01*
X023994Y006573D02*
X023934Y006573D01*
X023950Y006415D02*
X023970Y006415D01*
X024450Y006415D02*
X024450Y006415D01*
X024450Y006573D02*
X024450Y006573D01*
X024450Y006732D02*
X024450Y006732D01*
X024336Y006890D02*
X024916Y006890D01*
X024931Y006882D02*
X024869Y006914D01*
X024813Y006954D01*
X024764Y007003D01*
X024724Y007059D01*
X024692Y007121D01*
X024671Y007187D01*
X024660Y007255D01*
X024660Y007550D01*
X025100Y007550D01*
X025100Y007550D01*
X025100Y008250D01*
X025135Y008250D01*
X025203Y008239D01*
X025269Y008218D01*
X025331Y008186D01*
X025387Y008146D01*
X025436Y008097D01*
X025476Y008041D01*
X025508Y007979D01*
X025529Y007913D01*
X025540Y007845D01*
X025540Y007550D01*
X025100Y007550D01*
X025100Y007550D01*
X025100Y007550D01*
X025100Y008250D01*
X025065Y008250D01*
X024997Y008239D01*
X024931Y008218D01*
X024869Y008186D01*
X024813Y008146D01*
X024764Y008097D01*
X024724Y008041D01*
X024692Y007979D01*
X024671Y007913D01*
X024660Y007845D01*
X024660Y007550D01*
X025100Y007550D01*
X025540Y007550D01*
X025540Y007255D01*
X025529Y007187D01*
X025508Y007121D01*
X025476Y007059D01*
X025436Y007003D01*
X025387Y006954D01*
X025331Y006914D01*
X025269Y006882D01*
X025203Y006861D01*
X025135Y006850D01*
X025100Y006850D01*
X025100Y007550D01*
X025100Y007550D01*
X025100Y006850D01*
X025065Y006850D01*
X024997Y006861D01*
X024931Y006882D01*
X025100Y006890D02*
X025100Y006890D01*
X025100Y007049D02*
X025100Y007049D01*
X025100Y007207D02*
X025100Y007207D01*
X025100Y007366D02*
X025100Y007366D01*
X025100Y007524D02*
X025100Y007524D01*
X025100Y007683D02*
X025100Y007683D01*
X025100Y007841D02*
X025100Y007841D01*
X025100Y008000D02*
X025100Y008000D01*
X025100Y008158D02*
X025100Y008158D01*
X025370Y008158D02*
X025797Y008158D01*
X025839Y008200D02*
X025710Y008071D01*
X025640Y007901D01*
X025640Y007198D01*
X025710Y007029D01*
X025839Y006900D01*
X026008Y006830D01*
X026191Y006830D01*
X026361Y006900D01*
X026490Y007029D01*
X026560Y007198D01*
X026560Y007901D01*
X026490Y008071D01*
X026361Y008200D01*
X026191Y008270D01*
X026008Y008270D01*
X025839Y008200D01*
X025681Y008000D02*
X025497Y008000D01*
X025540Y007841D02*
X025640Y007841D01*
X025640Y007683D02*
X025540Y007683D01*
X025540Y007524D02*
X025640Y007524D01*
X025640Y007366D02*
X025540Y007366D01*
X025532Y007207D02*
X025640Y007207D01*
X025702Y007049D02*
X025468Y007049D01*
X025284Y006890D02*
X025864Y006890D01*
X026336Y006890D02*
X026864Y006890D01*
X026839Y006900D02*
X027008Y006830D01*
X027191Y006830D01*
X027361Y006900D01*
X027490Y007029D01*
X027560Y007198D01*
X027560Y007901D01*
X027490Y008071D01*
X027361Y008200D01*
X027191Y008270D01*
X027008Y008270D01*
X026839Y008200D01*
X026710Y008071D01*
X026640Y007901D01*
X026640Y007198D01*
X026710Y007029D01*
X026839Y006900D01*
X026757Y006732D02*
X035893Y006732D01*
X036051Y006890D02*
X031336Y006890D01*
X031498Y007049D02*
X036146Y007049D01*
X036654Y007049D02*
X038600Y007049D01*
X038600Y007207D02*
X031560Y007207D01*
X031560Y007366D02*
X038600Y007366D01*
X038600Y007524D02*
X031560Y007524D01*
X031560Y007683D02*
X038600Y007683D01*
X038600Y007841D02*
X031560Y007841D01*
X031519Y008000D02*
X038600Y008000D01*
X038600Y008158D02*
X031403Y008158D01*
X031122Y008317D02*
X038600Y008317D01*
X038600Y008475D02*
X030964Y008475D01*
X030805Y008634D02*
X038600Y008634D01*
X038600Y008792D02*
X030695Y008792D01*
X030805Y008951D02*
X038600Y008951D01*
X038600Y009109D02*
X030820Y009109D01*
X030735Y009268D02*
X038600Y009268D01*
X038600Y009426D02*
X030513Y009426D01*
X030354Y009585D02*
X033981Y009585D01*
X034016Y009550D02*
X034233Y009460D01*
X034467Y009460D01*
X034684Y009550D01*
X034850Y009716D01*
X034940Y009933D01*
X034940Y010167D01*
X034850Y010384D01*
X034684Y010550D01*
X034467Y010640D01*
X034233Y010640D01*
X034016Y010550D01*
X033850Y010384D01*
X033760Y010167D01*
X033760Y009933D01*
X033850Y009716D01*
X034016Y009550D01*
X033839Y009743D02*
X028896Y009743D01*
X029008Y009830D02*
X029191Y009830D01*
X029361Y009900D01*
X029490Y010029D01*
X029560Y010198D01*
X029560Y010901D01*
X029490Y011071D01*
X029361Y011200D01*
X029191Y011270D01*
X029008Y011270D01*
X028839Y011200D01*
X028710Y011071D01*
X028640Y010901D01*
X028640Y010198D01*
X028710Y010029D01*
X028839Y009900D01*
X029008Y009830D01*
X028838Y009902D02*
X028737Y009902D01*
X028697Y010060D02*
X028579Y010060D01*
X028560Y010219D02*
X028640Y010219D01*
X028640Y010377D02*
X028560Y010377D01*
X028560Y010536D02*
X028640Y010536D01*
X028640Y010694D02*
X028560Y010694D01*
X028560Y010853D02*
X028640Y010853D01*
X028685Y011011D02*
X028515Y011011D01*
X028391Y011170D02*
X028809Y011170D01*
X029244Y011417D02*
X029345Y011375D01*
X029825Y011375D01*
X029825Y011186D01*
X029710Y011071D01*
X029640Y010901D01*
X029640Y010198D01*
X029710Y010029D01*
X029839Y009900D01*
X030008Y009830D01*
X030191Y009830D01*
X030361Y009900D01*
X030490Y010029D01*
X030560Y010198D01*
X030560Y010901D01*
X030490Y011071D01*
X030375Y011186D01*
X030375Y011686D01*
X030744Y011317D01*
X030845Y011275D01*
X031286Y011275D01*
X032084Y010477D01*
X032129Y010369D01*
X032219Y010279D01*
X032336Y010230D01*
X032464Y010230D01*
X032581Y010279D01*
X032671Y010369D01*
X032720Y010486D01*
X032720Y010614D01*
X032671Y010731D01*
X032581Y010821D01*
X032473Y010866D01*
X031633Y011706D01*
X031569Y011770D01*
X031630Y011830D01*
X031630Y012270D01*
X031328Y012571D01*
X031587Y012830D01*
X031664Y012830D01*
X031781Y012879D01*
X031871Y012969D01*
X031920Y013086D01*
X031920Y013214D01*
X031875Y013322D01*
X031875Y015305D01*
X031833Y015406D01*
X031756Y015483D01*
X031655Y015525D01*
X029914Y015525D01*
X028833Y016606D01*
X028756Y016683D01*
X028655Y016725D01*
X026014Y016725D01*
X025633Y017106D01*
X025556Y017183D01*
X025455Y017225D01*
X022720Y017225D01*
X022720Y017314D01*
X022671Y017431D01*
X022581Y017521D01*
X022473Y017566D01*
X022456Y017583D01*
X022355Y017625D01*
X019372Y017625D01*
X019264Y017670D01*
X019136Y017670D01*
X019019Y017621D01*
X018929Y017531D01*
X018880Y017414D01*
X018880Y017286D01*
X018929Y017169D01*
X018947Y017150D01*
X018929Y017131D01*
X018880Y017014D01*
X018880Y016886D01*
X018929Y016769D01*
X019019Y016679D01*
X019136Y016630D01*
X019264Y016630D01*
X019372Y016675D01*
X025286Y016675D01*
X025744Y016217D01*
X025845Y016175D01*
X028486Y016175D01*
X029644Y015017D01*
X029745Y014975D01*
X031325Y014975D01*
X031325Y013532D01*
X031307Y013550D01*
X030893Y013550D01*
X030600Y013257D01*
X030307Y013550D01*
X029989Y013550D01*
X029733Y013806D01*
X029656Y013883D01*
X029555Y013925D01*
X028895Y013925D01*
X028920Y013986D01*
X028920Y014114D01*
X028884Y014200D01*
X029103Y014200D01*
X029313Y014287D01*
X029473Y014447D01*
X029560Y014657D01*
X029560Y014883D01*
X029473Y015093D01*
X029313Y015253D01*
X029103Y015340D01*
X028877Y015340D01*
X028667Y015253D01*
X028507Y015093D01*
X028420Y014883D01*
X028420Y014657D01*
X028507Y014447D01*
X028584Y014370D01*
X028536Y014370D01*
X028419Y014321D01*
X028329Y014231D01*
X028326Y014225D01*
X027285Y014225D01*
X027339Y014234D01*
X027421Y014260D01*
X027498Y014300D01*
X027568Y014350D01*
X027630Y014412D01*
X027680Y014482D01*
X027720Y014559D01*
X027746Y014641D01*
X027760Y014727D01*
X027760Y014750D01*
X027230Y014750D01*
X027230Y014790D01*
X027190Y014790D01*
X027190Y015320D01*
X027167Y015320D01*
X027081Y015306D01*
X026999Y015280D01*
X026922Y015240D01*
X026852Y015190D01*
X026790Y015128D01*
X026740Y015058D01*
X026700Y014981D01*
X026674Y014899D01*
X026660Y014813D01*
X026660Y014790D01*
X027190Y014790D01*
X027190Y014750D01*
X026660Y014750D01*
X026660Y014727D01*
X026674Y014641D01*
X026700Y014559D01*
X026740Y014482D01*
X026790Y014412D01*
X026852Y014350D01*
X026922Y014300D01*
X026999Y014260D01*
X027081Y014234D01*
X027135Y014225D01*
X025614Y014225D01*
X024533Y015306D01*
X024456Y015383D01*
X024355Y015425D01*
X021814Y015425D01*
X021548Y015691D01*
X021583Y015727D01*
X021600Y015768D01*
X021617Y015727D01*
X021777Y015567D01*
X021987Y015480D01*
X022213Y015480D01*
X022423Y015567D01*
X022583Y015727D01*
X022600Y015768D01*
X022617Y015727D01*
X022777Y015567D01*
X022987Y015480D01*
X023213Y015480D01*
X023423Y015567D01*
X023583Y015727D01*
X023600Y015768D01*
X023617Y015727D01*
X023777Y015567D01*
X023987Y015480D01*
X024213Y015480D01*
X024423Y015567D01*
X024583Y015727D01*
X024612Y015796D01*
X024630Y015762D01*
X024680Y015692D01*
X024742Y015630D01*
X024812Y015580D01*
X024889Y015540D01*
X024971Y015514D01*
X025057Y015500D01*
X025080Y015500D01*
X025080Y016030D01*
X025120Y016030D01*
X025120Y016070D01*
X025080Y016070D01*
X025080Y016600D01*
X025057Y016600D01*
X024971Y016586D01*
X024889Y016560D01*
X024812Y016520D01*
X024742Y016470D01*
X024680Y016408D01*
X024630Y016338D01*
X024612Y016304D01*
X024583Y016373D01*
X024423Y016533D01*
X024213Y016620D01*
X023987Y016620D01*
X023777Y016533D01*
X023617Y016373D01*
X023600Y016332D01*
X023583Y016373D01*
X023423Y016533D01*
X023213Y016620D01*
X022987Y016620D01*
X022777Y016533D01*
X022617Y016373D01*
X022600Y016332D01*
X022583Y016373D01*
X022423Y016533D01*
X022213Y016620D01*
X021987Y016620D01*
X021777Y016533D01*
X021617Y016373D01*
X021600Y016332D01*
X021583Y016373D01*
X021423Y016533D01*
X021213Y016620D01*
X020987Y016620D01*
X020777Y016533D01*
X020617Y016373D01*
X020600Y016332D01*
X020583Y016373D01*
X020423Y016533D01*
X020213Y016620D01*
X019987Y016620D01*
X019777Y016533D01*
X019617Y016373D01*
X019530Y016163D01*
X019530Y015937D01*
X019617Y015727D01*
X019777Y015567D01*
X019987Y015480D01*
X020025Y015480D01*
X020025Y013795D01*
X020067Y013694D01*
X020144Y013617D01*
X020644Y013117D01*
X020745Y013075D01*
X021533Y013075D01*
X021350Y012999D01*
X021201Y012850D01*
X021120Y012655D01*
X021120Y012445D01*
X021201Y012250D01*
X021350Y012101D01*
X021545Y012020D01*
X021755Y012020D01*
X021950Y012101D01*
X022099Y012250D01*
X022180Y012445D01*
X022180Y012655D01*
X022099Y012850D01*
X021950Y012999D01*
X021767Y013075D01*
X023433Y013075D01*
X023250Y012999D01*
X023101Y012850D01*
X023020Y012655D01*
X023020Y012445D01*
X023101Y012250D01*
X023250Y012101D01*
X023445Y012020D01*
X023655Y012020D01*
X023850Y012101D01*
X023999Y012250D01*
X024080Y012445D01*
X024080Y012655D01*
X023999Y012850D01*
X023850Y012999D01*
X023667Y013075D01*
X024455Y013075D01*
X024556Y013117D01*
X024633Y013194D01*
X024814Y013375D01*
X027480Y013375D01*
X027480Y013325D01*
X026972Y013325D01*
X026864Y013370D01*
X026736Y013370D01*
X026619Y013321D01*
X026529Y013231D01*
X026480Y013114D01*
X026480Y012986D01*
X026529Y012869D01*
X026619Y012779D01*
X026736Y012730D01*
X026864Y012730D01*
X026972Y012775D01*
X027886Y012775D01*
X028081Y012580D01*
X027880Y012580D01*
X027570Y012270D01*
X027570Y011830D01*
X027880Y011520D01*
X028320Y011520D01*
X028630Y011830D01*
X028630Y012031D01*
X029244Y011417D01*
X029175Y011487D02*
X026375Y011487D01*
X026375Y011645D02*
X027755Y011645D01*
X027597Y011804D02*
X026334Y011804D01*
X026333Y011806D02*
X026375Y011705D01*
X026375Y011186D01*
X026490Y011071D01*
X026560Y010901D01*
X026560Y010198D01*
X026490Y010029D01*
X026361Y009900D01*
X026191Y009830D01*
X026008Y009830D01*
X025839Y009900D01*
X025710Y010029D01*
X025640Y010198D01*
X025640Y010901D01*
X025710Y011071D01*
X025825Y011186D01*
X025825Y011375D01*
X021245Y011375D01*
X021144Y011417D01*
X017244Y015317D01*
X017244Y015317D01*
X017167Y015394D01*
X017125Y015495D01*
X017125Y016678D01*
X017080Y016786D01*
X017080Y016914D01*
X017129Y017031D01*
X017219Y017121D01*
X017336Y017170D01*
X017464Y017170D01*
X017581Y017121D01*
X017671Y017031D01*
X017720Y016914D01*
X017720Y016786D01*
X017675Y016678D01*
X017675Y015664D01*
X018070Y015269D01*
X018070Y015270D01*
X018380Y015580D01*
X018820Y015580D01*
X019130Y015270D01*
X019130Y014830D01*
X018820Y014520D01*
X018819Y014520D01*
X021414Y011925D01*
X026155Y011925D01*
X026256Y011883D01*
X026333Y011806D01*
X026375Y011328D02*
X029825Y011328D01*
X029809Y011170D02*
X029391Y011170D01*
X029515Y011011D02*
X029685Y011011D01*
X029640Y010853D02*
X029560Y010853D01*
X029560Y010694D02*
X029640Y010694D01*
X029640Y010536D02*
X029560Y010536D01*
X029560Y010377D02*
X029640Y010377D01*
X029640Y010219D02*
X029560Y010219D01*
X029503Y010060D02*
X029697Y010060D01*
X029838Y009902D02*
X029362Y009902D01*
X030362Y009902D02*
X030838Y009902D01*
X030839Y009900D02*
X031008Y009830D01*
X031191Y009830D01*
X031361Y009900D01*
X031490Y010029D01*
X031560Y010198D01*
X031560Y010901D01*
X031490Y011071D01*
X031361Y011200D01*
X031191Y011270D01*
X031008Y011270D01*
X030839Y011200D01*
X030710Y011071D01*
X030640Y010901D01*
X030640Y010198D01*
X030710Y010029D01*
X030839Y009900D01*
X030697Y010060D02*
X030503Y010060D01*
X030560Y010219D02*
X030640Y010219D01*
X030640Y010377D02*
X030560Y010377D01*
X030560Y010536D02*
X030640Y010536D01*
X030640Y010694D02*
X030560Y010694D01*
X030560Y010853D02*
X030640Y010853D01*
X030685Y011011D02*
X030515Y011011D01*
X030391Y011170D02*
X030809Y011170D01*
X030733Y011328D02*
X030375Y011328D01*
X030375Y011487D02*
X030575Y011487D01*
X030416Y011645D02*
X030375Y011645D01*
X031603Y011804D02*
X035620Y011804D01*
X035569Y011681D02*
X035569Y011403D01*
X035676Y011146D01*
X035873Y010949D01*
X036130Y010842D01*
X037409Y010842D01*
X037666Y010949D01*
X037863Y011146D01*
X037969Y011403D01*
X037969Y011681D01*
X037863Y011939D01*
X037666Y012136D01*
X037409Y012242D01*
X036130Y012242D01*
X035873Y012136D01*
X035676Y011939D01*
X035569Y011681D01*
X035569Y011645D02*
X031694Y011645D01*
X031852Y011487D02*
X035569Y011487D01*
X035600Y011328D02*
X032011Y011328D01*
X032169Y011170D02*
X035666Y011170D01*
X035810Y011011D02*
X032328Y011011D01*
X032506Y010853D02*
X036105Y010853D01*
X037434Y010853D02*
X038600Y010853D01*
X038600Y011011D02*
X037728Y011011D01*
X037873Y011170D02*
X038600Y011170D01*
X038600Y011328D02*
X037938Y011328D01*
X037969Y011487D02*
X038600Y011487D01*
X038600Y011645D02*
X037969Y011645D01*
X037919Y011804D02*
X038600Y011804D01*
X038600Y011962D02*
X037839Y011962D01*
X037681Y012121D02*
X038600Y012121D01*
X038600Y012279D02*
X034303Y012279D01*
X034185Y012211D02*
X034598Y012449D01*
X034922Y012799D01*
X034927Y012810D01*
X034943Y012752D01*
X034977Y012670D01*
X035022Y012593D01*
X035076Y012522D01*
X035139Y012459D01*
X035210Y012405D01*
X035287Y012360D01*
X035369Y012326D01*
X035455Y012303D01*
X035544Y012291D01*
X035570Y012291D01*
X035570Y013453D01*
X035607Y013453D01*
X035607Y013490D01*
X036268Y013490D01*
X036268Y014016D01*
X036257Y014104D01*
X036233Y014190D01*
X036199Y014273D01*
X036155Y014350D01*
X036101Y014421D01*
X036038Y014484D01*
X035967Y014538D01*
X035890Y014582D01*
X035807Y014617D01*
X035721Y014640D01*
X035633Y014651D01*
X035607Y014651D01*
X035607Y013490D01*
X035570Y013490D01*
X035570Y014651D01*
X035544Y014651D01*
X035455Y014640D01*
X035369Y014617D01*
X035287Y014582D01*
X035210Y014538D01*
X035139Y014484D01*
X035076Y014421D01*
X035035Y014367D01*
X034922Y014601D01*
X034922Y014601D01*
X034598Y014951D01*
X034598Y014951D01*
X034185Y015189D01*
X033720Y015296D01*
X033720Y015296D01*
X033244Y015260D01*
X033244Y015260D01*
X032800Y015086D01*
X032427Y014788D01*
X032158Y014394D01*
X032018Y013938D01*
X032018Y013462D01*
X032158Y013006D01*
X032427Y012612D01*
X032427Y012612D01*
X032427Y012612D01*
X032800Y012314D01*
X033244Y012140D01*
X033720Y012104D01*
X034185Y012211D01*
X034185Y012211D01*
X033790Y012121D02*
X035858Y012121D01*
X035807Y012326D02*
X035721Y012303D01*
X035633Y012291D01*
X035607Y012291D01*
X035607Y013453D01*
X036268Y013453D01*
X036268Y012927D01*
X036257Y012838D01*
X036233Y012752D01*
X036199Y012670D01*
X036155Y012593D01*
X036101Y012522D01*
X036038Y012459D01*
X035967Y012405D01*
X035890Y012360D01*
X035807Y012326D01*
X035607Y012438D02*
X035570Y012438D01*
X035570Y012596D02*
X035607Y012596D01*
X035607Y012755D02*
X035570Y012755D01*
X035570Y012913D02*
X035607Y012913D01*
X035607Y013072D02*
X035570Y013072D01*
X035570Y013230D02*
X035607Y013230D01*
X035607Y013389D02*
X035570Y013389D01*
X035570Y013547D02*
X035607Y013547D01*
X035607Y013706D02*
X035570Y013706D01*
X035570Y013864D02*
X035607Y013864D01*
X035607Y014023D02*
X035570Y014023D01*
X035570Y014181D02*
X035607Y014181D01*
X035607Y014340D02*
X035570Y014340D01*
X035570Y014498D02*
X035607Y014498D01*
X036019Y014498D02*
X037520Y014498D01*
X037378Y014340D02*
X036161Y014340D01*
X036236Y014181D02*
X037303Y014181D01*
X037271Y014023D02*
X036267Y014023D01*
X036268Y013864D02*
X037270Y013864D01*
X037270Y013706D02*
X036268Y013706D01*
X036268Y013547D02*
X037270Y013547D01*
X037270Y013389D02*
X036268Y013389D01*
X036268Y013230D02*
X037270Y013230D01*
X037270Y013072D02*
X036268Y013072D01*
X036266Y012913D02*
X037272Y012913D01*
X037304Y012755D02*
X036234Y012755D01*
X036157Y012596D02*
X037382Y012596D01*
X037529Y012438D02*
X036010Y012438D01*
X035167Y012438D02*
X034578Y012438D01*
X034598Y012449D02*
X034598Y012449D01*
X034734Y012596D02*
X035020Y012596D01*
X034942Y012755D02*
X034881Y012755D01*
X034922Y012799D02*
X034922Y012799D01*
X033720Y012104D02*
X033720Y012104D01*
X033505Y012121D02*
X031630Y012121D01*
X031621Y012279D02*
X032890Y012279D01*
X032800Y012314D02*
X032800Y012314D01*
X032646Y012438D02*
X031462Y012438D01*
X031353Y012596D02*
X032447Y012596D01*
X032330Y012755D02*
X031512Y012755D01*
X031816Y012913D02*
X032222Y012913D01*
X032158Y013006D02*
X032158Y013006D01*
X032138Y013072D02*
X031914Y013072D01*
X031913Y013230D02*
X032089Y013230D01*
X032040Y013389D02*
X031875Y013389D01*
X031875Y013547D02*
X032018Y013547D01*
X032018Y013706D02*
X031875Y013706D01*
X031875Y013864D02*
X032018Y013864D01*
X032044Y014023D02*
X031875Y014023D01*
X031875Y014181D02*
X032093Y014181D01*
X032142Y014340D02*
X031875Y014340D01*
X031875Y014498D02*
X032229Y014498D01*
X032158Y014394D02*
X032158Y014394D01*
X032337Y014657D02*
X031875Y014657D01*
X031875Y014815D02*
X032461Y014815D01*
X032427Y014788D02*
X032427Y014788D01*
X032427Y014788D01*
X032387Y015075D02*
X032461Y015087D01*
X032532Y015110D01*
X032599Y015144D01*
X032659Y015188D01*
X032712Y015241D01*
X032756Y015301D01*
X032790Y015368D01*
X032813Y015439D01*
X032825Y015513D01*
X032825Y015532D01*
X032368Y015532D01*
X032368Y015568D01*
X032332Y015568D01*
X032332Y016025D01*
X032313Y016025D01*
X032239Y016013D01*
X032168Y015990D01*
X032101Y015956D01*
X032041Y015912D01*
X031988Y015859D01*
X031944Y015799D01*
X031910Y015732D01*
X031887Y015661D01*
X031875Y015587D01*
X031875Y015568D01*
X032332Y015568D01*
X032332Y015532D01*
X031875Y015532D01*
X031875Y015513D01*
X031887Y015439D01*
X031910Y015368D01*
X031944Y015301D01*
X031988Y015241D01*
X032041Y015188D01*
X032101Y015144D01*
X032168Y015110D01*
X032239Y015087D01*
X032313Y015075D01*
X032332Y015075D01*
X032332Y015532D01*
X032368Y015532D01*
X032368Y015075D01*
X032387Y015075D01*
X032368Y015132D02*
X032332Y015132D01*
X032332Y015291D02*
X032368Y015291D01*
X032368Y015449D02*
X032332Y015449D01*
X032368Y015568D02*
X032825Y015568D01*
X032825Y015587D01*
X032813Y015661D01*
X032790Y015732D01*
X032756Y015799D01*
X032712Y015859D01*
X032659Y015912D01*
X032599Y015956D01*
X032532Y015990D01*
X032461Y016013D01*
X032387Y016025D01*
X032368Y016025D01*
X032368Y015568D01*
X032368Y015608D02*
X032332Y015608D01*
X032332Y015766D02*
X032368Y015766D01*
X032368Y015925D02*
X032332Y015925D01*
X032057Y015925D02*
X031845Y015925D01*
X031845Y016083D02*
X031944Y016083D01*
X031972Y016055D02*
X032728Y016055D01*
X032845Y016172D01*
X032845Y016928D01*
X032728Y017045D01*
X032575Y017045D01*
X032575Y017505D01*
X032533Y017606D01*
X032456Y017683D01*
X032355Y017725D01*
X032114Y017725D01*
X031849Y017989D01*
X031905Y018123D01*
X031905Y018045D01*
X032195Y017755D01*
X032400Y017755D01*
X032605Y017755D01*
X032895Y018045D01*
X032895Y018250D01*
X032895Y018455D01*
X032605Y018745D01*
X032400Y018745D01*
X032400Y018250D01*
X032400Y018250D01*
X032895Y018250D01*
X032400Y018250D01*
X032400Y018250D01*
X032400Y018745D01*
X032195Y018745D01*
X031905Y018455D01*
X031905Y018377D01*
X031837Y018542D01*
X031692Y018687D01*
X031502Y018765D01*
X031298Y018765D01*
X031108Y018687D01*
X030963Y018542D01*
X030885Y018352D01*
X030885Y018148D01*
X030963Y017958D01*
X031108Y017813D01*
X031298Y017735D01*
X031326Y017735D01*
X031844Y017217D01*
X031945Y017175D01*
X032025Y017175D01*
X032025Y017045D01*
X031972Y017045D01*
X031855Y016928D01*
X031855Y016172D01*
X031972Y016055D01*
X031855Y016242D02*
X031845Y016242D01*
X031845Y016400D02*
X031855Y016400D01*
X031845Y016428D02*
X031728Y016545D01*
X030972Y016545D01*
X030855Y016428D01*
X030855Y015672D01*
X030972Y015555D01*
X031728Y015555D01*
X031845Y015672D01*
X031845Y016428D01*
X031855Y016559D02*
X028880Y016559D01*
X028877Y016760D02*
X028667Y016847D01*
X028507Y017007D01*
X028420Y017217D01*
X028420Y017443D01*
X028507Y017653D01*
X028667Y017813D01*
X028877Y017900D01*
X029103Y017900D01*
X029313Y017813D01*
X029473Y017653D01*
X029560Y017443D01*
X029560Y017217D01*
X029473Y017007D01*
X029313Y016847D01*
X029103Y016760D01*
X028877Y016760D01*
X028674Y016717D02*
X031855Y016717D01*
X031855Y016876D02*
X029342Y016876D01*
X029484Y017034D02*
X031961Y017034D01*
X031903Y017193D02*
X029550Y017193D01*
X029560Y017351D02*
X031710Y017351D01*
X031552Y017510D02*
X029533Y017510D01*
X029458Y017668D02*
X031393Y017668D01*
X031095Y017827D02*
X029281Y017827D01*
X028971Y018144D02*
X030887Y018144D01*
X030885Y018302D02*
X029093Y018302D01*
X029150Y018461D02*
X030930Y018461D01*
X031041Y018619D02*
X029150Y018619D01*
X029101Y018778D02*
X038600Y018778D01*
X038589Y018936D02*
X028992Y018936D01*
X028107Y018302D02*
X028068Y018302D01*
X027942Y018144D02*
X028229Y018144D01*
X027618Y018144D02*
X027582Y018144D01*
X027582Y018020D02*
X027582Y018532D01*
X027070Y018532D01*
X027070Y018508D01*
X027083Y018426D01*
X027109Y018347D01*
X027147Y018272D01*
X027196Y018205D01*
X027255Y018146D01*
X027322Y018097D01*
X027397Y018059D01*
X027476Y018033D01*
X027558Y018020D01*
X027582Y018020D01*
X027501Y017827D02*
X028699Y017827D01*
X028522Y017668D02*
X027678Y017668D01*
X027693Y017653D02*
X027533Y017813D01*
X027323Y017900D01*
X027097Y017900D01*
X026887Y017813D01*
X026727Y017653D01*
X026640Y017443D01*
X026640Y017217D01*
X026727Y017007D01*
X026887Y016847D01*
X027097Y016760D01*
X027323Y016760D01*
X027533Y016847D01*
X027693Y017007D01*
X027780Y017217D01*
X027780Y017443D01*
X027693Y017653D01*
X027753Y017510D02*
X028447Y017510D01*
X028420Y017351D02*
X027780Y017351D01*
X027770Y017193D02*
X028430Y017193D01*
X028496Y017034D02*
X027704Y017034D01*
X027562Y016876D02*
X028638Y016876D01*
X029039Y016400D02*
X030855Y016400D01*
X030855Y016242D02*
X029197Y016242D01*
X029356Y016083D02*
X030855Y016083D01*
X030855Y015925D02*
X029514Y015925D01*
X029673Y015766D02*
X030855Y015766D01*
X030920Y015608D02*
X029831Y015608D01*
X029212Y015449D02*
X021790Y015449D01*
X021736Y015608D02*
X021631Y015608D01*
X021601Y015766D02*
X021599Y015766D01*
X021012Y015449D02*
X020575Y015449D01*
X020575Y015291D02*
X021171Y015291D01*
X021329Y015132D02*
X020575Y015132D01*
X020575Y014974D02*
X021488Y014974D01*
X021544Y014917D02*
X021645Y014875D01*
X024186Y014875D01*
X025136Y013925D01*
X024645Y013925D01*
X024544Y013883D01*
X024286Y013625D01*
X020914Y013625D01*
X020575Y013964D01*
X020575Y015719D01*
X020583Y015727D01*
X020600Y015768D01*
X020617Y015727D01*
X020777Y015567D01*
X020977Y015484D01*
X021544Y014917D01*
X021357Y014700D02*
X020943Y014700D01*
X020650Y014407D01*
X020650Y013993D01*
X020943Y013700D01*
X021357Y013700D01*
X021650Y013993D01*
X021650Y014407D01*
X021357Y014700D01*
X021401Y014657D02*
X021928Y014657D01*
X021951Y014680D02*
X021670Y014399D01*
X021670Y014200D01*
X022150Y014200D01*
X022150Y014200D01*
X022150Y014680D01*
X022349Y014680D01*
X022625Y014404D01*
X022901Y014680D01*
X023100Y014680D01*
X023100Y014200D01*
X023100Y014200D01*
X023580Y014200D01*
X023580Y014399D01*
X023299Y014680D01*
X023100Y014680D01*
X023100Y014200D01*
X023100Y014200D01*
X023580Y014200D01*
X023580Y014001D01*
X023299Y013720D01*
X023100Y013720D01*
X023100Y014200D01*
X023100Y014200D01*
X023100Y014200D01*
X022620Y014200D01*
X022150Y014200D01*
X022150Y014200D01*
X022150Y014680D01*
X021951Y014680D01*
X022150Y014657D02*
X022150Y014657D01*
X022150Y014498D02*
X022150Y014498D01*
X022150Y014340D02*
X022150Y014340D01*
X022150Y014200D02*
X022150Y014200D01*
X022150Y013720D01*
X022349Y013720D01*
X022625Y013996D01*
X022901Y013720D01*
X023100Y013720D01*
X023100Y014200D01*
X022150Y014200D01*
X022150Y014200D01*
X022150Y013720D01*
X021951Y013720D01*
X021670Y014001D01*
X021670Y014200D01*
X022150Y014200D01*
X022150Y014181D02*
X022150Y014181D01*
X022150Y014023D02*
X022150Y014023D01*
X022150Y013864D02*
X022150Y013864D01*
X022493Y013864D02*
X022757Y013864D01*
X023100Y013864D02*
X023100Y013864D01*
X023100Y014023D02*
X023100Y014023D01*
X023100Y014181D02*
X023100Y014181D01*
X023100Y014340D02*
X023100Y014340D01*
X023100Y014498D02*
X023100Y014498D01*
X023100Y014657D02*
X023100Y014657D01*
X023322Y014657D02*
X023849Y014657D01*
X023893Y014700D02*
X023600Y014407D01*
X023600Y013993D01*
X023893Y013700D01*
X024307Y013700D01*
X024600Y013993D01*
X024600Y014407D01*
X024307Y014700D01*
X023893Y014700D01*
X023691Y014498D02*
X023481Y014498D01*
X023580Y014340D02*
X023600Y014340D01*
X023600Y014181D02*
X023580Y014181D01*
X023580Y014023D02*
X023600Y014023D01*
X023729Y013864D02*
X023443Y013864D01*
X023887Y013706D02*
X021363Y013706D01*
X021521Y013864D02*
X021807Y013864D01*
X021670Y014023D02*
X021650Y014023D01*
X021650Y014181D02*
X021670Y014181D01*
X021670Y014340D02*
X021650Y014340D01*
X021559Y014498D02*
X021769Y014498D01*
X022372Y014657D02*
X022878Y014657D01*
X022719Y014498D02*
X022531Y014498D01*
X020899Y014657D02*
X020575Y014657D01*
X020575Y014815D02*
X024246Y014815D01*
X024351Y014657D02*
X024405Y014657D01*
X024509Y014498D02*
X024563Y014498D01*
X024600Y014340D02*
X024722Y014340D01*
X024600Y014181D02*
X024880Y014181D01*
X025039Y014023D02*
X024600Y014023D01*
X024525Y013864D02*
X024471Y013864D01*
X024367Y013706D02*
X024313Y013706D01*
X024669Y013230D02*
X026528Y013230D01*
X026480Y013072D02*
X023676Y013072D01*
X023424Y013072D02*
X021776Y013072D01*
X021524Y013072D02*
X020267Y013072D01*
X020109Y013230D02*
X020531Y013230D01*
X020373Y013389D02*
X019950Y013389D01*
X019792Y013547D02*
X020214Y013547D01*
X020062Y013706D02*
X019633Y013706D01*
X019475Y013864D02*
X020025Y013864D01*
X020025Y014023D02*
X019316Y014023D01*
X019158Y014181D02*
X020025Y014181D01*
X020025Y014340D02*
X018999Y014340D01*
X018841Y014498D02*
X020025Y014498D01*
X020025Y014657D02*
X018956Y014657D01*
X019115Y014815D02*
X020025Y014815D01*
X020025Y014974D02*
X019130Y014974D01*
X019130Y015132D02*
X020025Y015132D01*
X020025Y015291D02*
X019109Y015291D01*
X018951Y015449D02*
X020025Y015449D01*
X019736Y015608D02*
X017731Y015608D01*
X017675Y015766D02*
X019601Y015766D01*
X019535Y015925D02*
X017675Y015925D01*
X017675Y016083D02*
X019530Y016083D01*
X019562Y016242D02*
X017675Y016242D01*
X017675Y016400D02*
X019644Y016400D01*
X019838Y016559D02*
X017675Y016559D01*
X017691Y016717D02*
X018980Y016717D01*
X018884Y016876D02*
X017720Y016876D01*
X017669Y017034D02*
X018888Y017034D01*
X018919Y017193D02*
X014689Y017193D01*
X014637Y017283D02*
X014518Y017462D01*
X014387Y017632D01*
X014245Y017793D01*
X014093Y017945D01*
X013932Y018087D01*
X013762Y018218D01*
X013583Y018337D01*
X013397Y018444D01*
X013204Y018539D01*
X013006Y018621D01*
X012803Y018690D01*
X012595Y018746D01*
X012385Y018788D01*
X012172Y018816D01*
X011957Y018830D01*
X011930Y018830D01*
X011930Y015630D01*
X011770Y015630D01*
X011770Y018830D01*
X011743Y018830D01*
X011528Y018816D01*
X011315Y018788D01*
X011105Y018746D01*
X010897Y018690D01*
X010694Y018621D01*
X010496Y018539D01*
X010303Y018444D01*
X010117Y018337D01*
X009938Y018218D01*
X009768Y018087D01*
X009607Y017945D01*
X009455Y017793D01*
X009313Y017632D01*
X009182Y017462D01*
X009063Y017283D01*
X008956Y017097D01*
X008861Y016904D01*
X008779Y016706D01*
X008710Y016503D01*
X008654Y016295D01*
X008612Y016085D01*
X008584Y015872D01*
X008570Y015657D01*
X008570Y015630D01*
X011770Y015630D01*
X011770Y015470D01*
X011930Y015470D01*
X011930Y015630D01*
X015130Y015630D01*
X015130Y015657D01*
X015116Y015872D01*
X015088Y016085D01*
X015046Y016295D01*
X014990Y016503D01*
X014921Y016706D01*
X014839Y016904D01*
X014744Y017097D01*
X014637Y017283D01*
X014591Y017351D02*
X018880Y017351D01*
X018920Y017510D02*
X014481Y017510D01*
X014355Y017668D02*
X019132Y017668D01*
X019268Y017668D02*
X026742Y017668D01*
X026667Y017510D02*
X022593Y017510D01*
X022705Y017351D02*
X026640Y017351D01*
X026650Y017193D02*
X025533Y017193D01*
X025705Y017034D02*
X026716Y017034D01*
X026858Y016876D02*
X025863Y016876D01*
X025403Y016559D02*
X025313Y016559D01*
X025311Y016560D02*
X025229Y016586D01*
X025143Y016600D01*
X025120Y016600D01*
X025120Y016070D01*
X025650Y016070D01*
X025650Y016093D01*
X025636Y016179D01*
X025610Y016261D01*
X025570Y016338D01*
X025520Y016408D01*
X025458Y016470D01*
X025388Y016520D01*
X025311Y016560D01*
X025120Y016559D02*
X025080Y016559D01*
X025080Y016400D02*
X025120Y016400D01*
X025120Y016242D02*
X025080Y016242D01*
X025080Y016083D02*
X025120Y016083D01*
X025120Y016030D02*
X025650Y016030D01*
X025650Y016007D01*
X025636Y015921D01*
X025610Y015839D01*
X025570Y015762D01*
X025520Y015692D01*
X025458Y015630D01*
X025388Y015580D01*
X025311Y015540D01*
X025229Y015514D01*
X025143Y015500D01*
X025120Y015500D01*
X025120Y016030D01*
X025120Y015925D02*
X025080Y015925D01*
X025080Y015766D02*
X025120Y015766D01*
X025120Y015608D02*
X025080Y015608D01*
X024773Y015608D02*
X024464Y015608D01*
X024599Y015766D02*
X024627Y015766D01*
X025427Y015608D02*
X029054Y015608D01*
X028895Y015766D02*
X025573Y015766D01*
X025637Y015925D02*
X028737Y015925D01*
X028578Y016083D02*
X025650Y016083D01*
X025616Y016242D02*
X025720Y016242D01*
X025561Y016400D02*
X025526Y016400D01*
X024887Y016559D02*
X024362Y016559D01*
X024556Y016400D02*
X024674Y016400D01*
X023838Y016559D02*
X023362Y016559D01*
X023556Y016400D02*
X023644Y016400D01*
X022838Y016559D02*
X022362Y016559D01*
X022556Y016400D02*
X022644Y016400D01*
X021838Y016559D02*
X021362Y016559D01*
X021556Y016400D02*
X021644Y016400D01*
X020838Y016559D02*
X020362Y016559D01*
X020556Y016400D02*
X020644Y016400D01*
X020599Y015766D02*
X020601Y015766D01*
X020575Y015608D02*
X020736Y015608D01*
X022464Y015608D02*
X022736Y015608D01*
X022601Y015766D02*
X022599Y015766D01*
X023464Y015608D02*
X023736Y015608D01*
X023601Y015766D02*
X023599Y015766D01*
X024548Y015291D02*
X027032Y015291D01*
X027190Y015291D02*
X027230Y015291D01*
X027230Y015320D02*
X027230Y014790D01*
X027760Y014790D01*
X027760Y014813D01*
X027746Y014899D01*
X027720Y014981D01*
X027680Y015058D01*
X027630Y015128D01*
X027568Y015190D01*
X027498Y015240D01*
X027421Y015280D01*
X027339Y015306D01*
X027253Y015320D01*
X027230Y015320D01*
X027388Y015291D02*
X028757Y015291D01*
X028546Y015132D02*
X027626Y015132D01*
X027722Y014974D02*
X028457Y014974D01*
X028420Y014815D02*
X027760Y014815D01*
X027749Y014657D02*
X028420Y014657D01*
X028486Y014498D02*
X027689Y014498D01*
X027553Y014340D02*
X028463Y014340D01*
X028892Y014181D02*
X031325Y014181D01*
X031325Y014023D02*
X028920Y014023D01*
X029366Y014340D02*
X031325Y014340D01*
X031325Y014498D02*
X029494Y014498D01*
X029560Y014657D02*
X031325Y014657D01*
X031325Y014815D02*
X029560Y014815D01*
X029523Y014974D02*
X031325Y014974D01*
X031875Y014974D02*
X032659Y014974D01*
X032576Y015132D02*
X032918Y015132D01*
X032800Y015086D02*
X032800Y015086D01*
X032749Y015291D02*
X033653Y015291D01*
X033741Y015291D02*
X038600Y015291D01*
X038600Y015449D02*
X032815Y015449D01*
X032822Y015608D02*
X038600Y015608D01*
X038600Y015766D02*
X032773Y015766D01*
X032643Y015925D02*
X037236Y015925D01*
X037310Y015850D02*
X037890Y015850D01*
X038300Y016260D01*
X038300Y016840D01*
X037890Y017250D01*
X037310Y017250D01*
X036900Y016840D01*
X036900Y016260D01*
X037310Y015850D01*
X037077Y016083D02*
X032756Y016083D01*
X032845Y016242D02*
X036919Y016242D01*
X036900Y016400D02*
X032845Y016400D01*
X032845Y016559D02*
X035441Y016559D01*
X035498Y016535D02*
X035702Y016535D01*
X035892Y016613D01*
X036037Y016758D01*
X036115Y016948D01*
X036115Y017152D01*
X036037Y017342D01*
X035892Y017487D01*
X035727Y017555D01*
X035805Y017555D01*
X036095Y017845D01*
X036095Y018050D01*
X036095Y018255D01*
X035805Y018545D01*
X035600Y018545D01*
X035600Y018050D01*
X035600Y018050D01*
X036095Y018050D01*
X035600Y018050D01*
X035600Y018050D01*
X035600Y018050D01*
X035105Y018050D01*
X035105Y018255D01*
X035395Y018545D01*
X035600Y018545D01*
X035600Y018050D01*
X035105Y018050D01*
X035105Y017845D01*
X035395Y017555D01*
X035473Y017555D01*
X035308Y017487D01*
X035163Y017342D01*
X035085Y017152D01*
X035085Y016948D01*
X035163Y016758D01*
X035308Y016613D01*
X035498Y016535D01*
X035759Y016559D02*
X036900Y016559D01*
X036900Y016717D02*
X035995Y016717D01*
X036085Y016876D02*
X036936Y016876D01*
X037094Y017034D02*
X036115Y017034D01*
X036098Y017193D02*
X037253Y017193D01*
X037318Y017370D02*
X036920Y017768D01*
X036920Y018020D01*
X037570Y018020D01*
X037570Y018080D01*
X037570Y018730D01*
X037318Y018730D01*
X036920Y018332D01*
X036920Y018080D01*
X037570Y018080D01*
X037630Y018080D01*
X037630Y018730D01*
X037882Y018730D01*
X038280Y018332D01*
X038280Y018080D01*
X037630Y018080D01*
X037630Y018020D01*
X038280Y018020D01*
X038280Y017768D01*
X037882Y017370D01*
X037630Y017370D01*
X037630Y018020D01*
X037570Y018020D01*
X037570Y017370D01*
X037318Y017370D01*
X037179Y017510D02*
X035836Y017510D01*
X035918Y017668D02*
X037020Y017668D01*
X036920Y017827D02*
X036077Y017827D01*
X036095Y017985D02*
X036920Y017985D01*
X036920Y018144D02*
X036095Y018144D01*
X036048Y018302D02*
X036920Y018302D01*
X037049Y018461D02*
X035890Y018461D01*
X035600Y018461D02*
X035600Y018461D01*
X035600Y018302D02*
X035600Y018302D01*
X035600Y018144D02*
X035600Y018144D01*
X035310Y018461D02*
X032890Y018461D01*
X032895Y018302D02*
X035152Y018302D01*
X035105Y018144D02*
X032895Y018144D01*
X032835Y017985D02*
X035105Y017985D01*
X035123Y017827D02*
X032677Y017827D01*
X032471Y017668D02*
X035282Y017668D01*
X035364Y017510D02*
X032573Y017510D01*
X032575Y017351D02*
X035173Y017351D01*
X035102Y017193D02*
X032575Y017193D01*
X032739Y017034D02*
X035085Y017034D01*
X035115Y016876D02*
X032845Y016876D01*
X032845Y016717D02*
X035205Y016717D01*
X036027Y017351D02*
X038600Y017351D01*
X038600Y017193D02*
X037947Y017193D01*
X038106Y017034D02*
X038600Y017034D01*
X038600Y016876D02*
X038264Y016876D01*
X038300Y016717D02*
X038600Y016717D01*
X038600Y016559D02*
X038300Y016559D01*
X038300Y016400D02*
X038600Y016400D01*
X038600Y016242D02*
X038281Y016242D01*
X038123Y016083D02*
X038600Y016083D01*
X038600Y015925D02*
X037964Y015925D01*
X038600Y015132D02*
X034284Y015132D01*
X034185Y015189D02*
X034185Y015189D01*
X034558Y014974D02*
X038600Y014974D01*
X038600Y014815D02*
X034724Y014815D01*
X034871Y014657D02*
X038600Y014657D01*
X038600Y014498D02*
X038381Y014498D01*
X038523Y014340D02*
X038600Y014340D01*
X038598Y014181D02*
X038600Y014181D01*
X037969Y014181D02*
X037932Y014181D01*
X037932Y014023D02*
X037969Y014023D01*
X037969Y013864D02*
X037932Y013864D01*
X037932Y013706D02*
X037969Y013706D01*
X037969Y013547D02*
X037932Y013547D01*
X037932Y013389D02*
X037969Y013389D01*
X037969Y013230D02*
X037932Y013230D01*
X037932Y013072D02*
X037969Y013072D01*
X037969Y012913D02*
X037932Y012913D01*
X037932Y012755D02*
X037969Y012755D01*
X037969Y012596D02*
X037932Y012596D01*
X037932Y012438D02*
X037969Y012438D01*
X038372Y012438D02*
X038600Y012438D01*
X038600Y012596D02*
X038519Y012596D01*
X038596Y012755D02*
X038600Y012755D01*
X035699Y011962D02*
X031630Y011962D01*
X030872Y012571D02*
X030570Y012270D01*
X030570Y012269D01*
X030433Y012406D01*
X030356Y012483D01*
X030255Y012525D01*
X029314Y012525D01*
X028464Y013375D01*
X029386Y013375D01*
X029600Y013161D01*
X029600Y012843D01*
X029893Y012550D01*
X030307Y012550D01*
X030600Y012843D01*
X030600Y013257D01*
X030600Y012843D01*
X030872Y012571D01*
X030847Y012596D02*
X030353Y012596D01*
X030401Y012438D02*
X030738Y012438D01*
X030579Y012279D02*
X030560Y012279D01*
X030512Y012755D02*
X030688Y012755D01*
X030600Y012913D02*
X030600Y012913D01*
X030600Y013072D02*
X030600Y013072D01*
X030600Y013230D02*
X030600Y013230D01*
X030469Y013389D02*
X030731Y013389D01*
X030890Y013547D02*
X030310Y013547D01*
X029833Y013706D02*
X031325Y013706D01*
X031325Y013864D02*
X029675Y013864D01*
X029733Y013806D02*
X029733Y013806D01*
X029531Y013230D02*
X028609Y013230D01*
X028767Y013072D02*
X029600Y013072D01*
X029600Y012913D02*
X028926Y012913D01*
X029084Y012755D02*
X029688Y012755D01*
X029847Y012596D02*
X029243Y012596D01*
X028065Y012596D02*
X024080Y012596D01*
X024077Y012438D02*
X027738Y012438D01*
X027579Y012279D02*
X024011Y012279D01*
X023870Y012121D02*
X027570Y012121D01*
X027570Y011962D02*
X021377Y011962D01*
X021330Y012121D02*
X021218Y012121D01*
X021189Y012279D02*
X021060Y012279D01*
X021123Y012438D02*
X020901Y012438D01*
X020743Y012596D02*
X021120Y012596D01*
X021161Y012755D02*
X020584Y012755D01*
X020426Y012913D02*
X021263Y012913D01*
X022037Y012913D02*
X023163Y012913D01*
X023061Y012755D02*
X022139Y012755D01*
X022180Y012596D02*
X023020Y012596D01*
X023023Y012438D02*
X022177Y012438D01*
X022111Y012279D02*
X023089Y012279D01*
X023230Y012121D02*
X021970Y012121D01*
X020916Y011645D02*
X019358Y011645D01*
X019375Y011605D02*
X019333Y011706D01*
X019256Y011783D01*
X019155Y011825D01*
X019125Y011825D01*
X019130Y011830D01*
X019130Y012270D01*
X018820Y012580D01*
X018380Y012580D01*
X018370Y012569D01*
X017916Y013023D01*
X017871Y013131D01*
X017781Y013221D01*
X017664Y013270D01*
X017536Y013270D01*
X017419Y013221D01*
X017329Y013131D01*
X017293Y013046D01*
X016733Y013606D01*
X016656Y013683D01*
X016594Y013709D01*
X016581Y013721D01*
X016464Y013770D01*
X016336Y013770D01*
X016219Y013721D01*
X016129Y013631D01*
X016080Y013514D01*
X016080Y013386D01*
X016129Y013269D01*
X016219Y013179D01*
X016336Y013130D01*
X016431Y013130D01*
X018244Y011317D01*
X018345Y011275D01*
X018825Y011275D01*
X018825Y011186D01*
X018710Y011071D01*
X018640Y010901D01*
X018640Y010198D01*
X018710Y010029D01*
X018839Y009900D01*
X019008Y009830D01*
X019191Y009830D01*
X019361Y009900D01*
X019490Y010029D01*
X019560Y010198D01*
X019560Y010901D01*
X019490Y011071D01*
X019375Y011186D01*
X019375Y011605D01*
X019375Y011487D02*
X021075Y011487D01*
X021008Y011270D02*
X020839Y011200D01*
X020710Y011071D01*
X020640Y010901D01*
X020640Y010198D01*
X020710Y010029D01*
X020839Y009900D01*
X021008Y009830D01*
X021191Y009830D01*
X021361Y009900D01*
X021490Y010029D01*
X021560Y010198D01*
X021560Y010901D01*
X021490Y011071D01*
X021361Y011200D01*
X021191Y011270D01*
X021008Y011270D01*
X020809Y011170D02*
X020391Y011170D01*
X020515Y011011D02*
X020685Y011011D01*
X020640Y010853D02*
X020560Y010853D01*
X020560Y010694D02*
X020640Y010694D01*
X020640Y010536D02*
X020560Y010536D01*
X020560Y010377D02*
X020640Y010377D01*
X020640Y010219D02*
X020560Y010219D01*
X020503Y010060D02*
X020697Y010060D01*
X020838Y009902D02*
X020375Y009902D01*
X020375Y009743D02*
X023104Y009743D01*
X023191Y009830D02*
X023361Y009900D01*
X023490Y010029D01*
X023560Y010198D01*
X023560Y010901D01*
X023490Y011071D01*
X023361Y011200D01*
X023191Y011270D01*
X023008Y011270D01*
X022839Y011200D01*
X022710Y011071D01*
X022640Y010901D01*
X022640Y010198D01*
X022710Y010029D01*
X022839Y009900D01*
X023008Y009830D01*
X023191Y009830D01*
X023362Y009902D02*
X023893Y009902D01*
X023869Y009914D02*
X023931Y009882D01*
X023997Y009861D01*
X024065Y009850D01*
X024100Y009850D01*
X024100Y010550D01*
X024100Y010550D01*
X024100Y010550D01*
X023660Y010550D01*
X023660Y010845D01*
X023671Y010913D01*
X023692Y010979D01*
X023724Y011041D01*
X023764Y011097D01*
X023813Y011146D01*
X023869Y011186D01*
X023931Y011218D01*
X023997Y011239D01*
X024065Y011250D01*
X024100Y011250D01*
X024100Y010550D01*
X023660Y010550D01*
X023660Y010255D01*
X023671Y010187D01*
X023692Y010121D01*
X023724Y010059D01*
X023764Y010003D01*
X023813Y009954D01*
X023869Y009914D01*
X023723Y010060D02*
X023503Y010060D01*
X023560Y010219D02*
X023666Y010219D01*
X023660Y010377D02*
X023560Y010377D01*
X023560Y010536D02*
X023660Y010536D01*
X023660Y010694D02*
X023560Y010694D01*
X023560Y010853D02*
X023661Y010853D01*
X023709Y011011D02*
X023515Y011011D01*
X023391Y011170D02*
X023846Y011170D01*
X024100Y011170D02*
X024100Y011170D01*
X024100Y011011D02*
X024100Y011011D01*
X024100Y010853D02*
X024100Y010853D01*
X024100Y010694D02*
X024100Y010694D01*
X024100Y010536D02*
X024100Y010536D01*
X024100Y010377D02*
X024100Y010377D01*
X024100Y010219D02*
X024100Y010219D01*
X024100Y010060D02*
X024100Y010060D01*
X024100Y009902D02*
X024100Y009902D01*
X024477Y010060D02*
X024697Y010060D01*
X024710Y010029D02*
X024640Y010198D01*
X024640Y010901D01*
X024710Y011071D01*
X024839Y011200D01*
X025008Y011270D01*
X025191Y011270D01*
X025361Y011200D01*
X025490Y011071D01*
X025560Y010901D01*
X025560Y010198D01*
X025490Y010029D01*
X025361Y009900D01*
X025191Y009830D01*
X025008Y009830D01*
X024839Y009900D01*
X024710Y010029D01*
X024701Y009902D02*
X024838Y009902D01*
X024808Y009743D02*
X028118Y009743D01*
X028277Y009585D02*
X024819Y009585D01*
X025362Y009902D02*
X025838Y009902D01*
X025697Y010060D02*
X025503Y010060D01*
X025560Y010219D02*
X025640Y010219D01*
X025640Y010377D02*
X025560Y010377D01*
X025560Y010536D02*
X025640Y010536D01*
X025640Y010694D02*
X025560Y010694D01*
X025560Y010853D02*
X025640Y010853D01*
X025685Y011011D02*
X025515Y011011D01*
X025391Y011170D02*
X025809Y011170D01*
X025825Y011328D02*
X019375Y011328D01*
X019391Y011170D02*
X019809Y011170D01*
X019685Y011011D02*
X019515Y011011D01*
X019560Y010853D02*
X019640Y010853D01*
X019640Y010694D02*
X019560Y010694D01*
X019560Y010536D02*
X019640Y010536D01*
X019640Y010377D02*
X019560Y010377D01*
X019560Y010219D02*
X019640Y010219D01*
X019697Y010060D02*
X019503Y010060D01*
X019362Y009902D02*
X019825Y009902D01*
X020375Y009585D02*
X022946Y009585D01*
X022838Y009902D02*
X022362Y009902D01*
X022361Y009900D02*
X022490Y010029D01*
X022560Y010198D01*
X022560Y010901D01*
X022490Y011071D01*
X022361Y011200D01*
X022191Y011270D01*
X022008Y011270D01*
X021839Y011200D01*
X021710Y011071D01*
X021640Y010901D01*
X021640Y010198D01*
X021710Y010029D01*
X021839Y009900D01*
X022008Y009830D01*
X022191Y009830D01*
X022361Y009900D01*
X022503Y010060D02*
X022697Y010060D01*
X022640Y010219D02*
X022560Y010219D01*
X022560Y010377D02*
X022640Y010377D01*
X022640Y010536D02*
X022560Y010536D01*
X022560Y010694D02*
X022640Y010694D01*
X022640Y010853D02*
X022560Y010853D01*
X022515Y011011D02*
X022685Y011011D01*
X022809Y011170D02*
X022391Y011170D01*
X021809Y011170D02*
X021391Y011170D01*
X021515Y011011D02*
X021685Y011011D01*
X021640Y010853D02*
X021560Y010853D01*
X021560Y010694D02*
X021640Y010694D01*
X021640Y010536D02*
X021560Y010536D01*
X021560Y010377D02*
X021640Y010377D01*
X021640Y010219D02*
X021560Y010219D01*
X021503Y010060D02*
X021697Y010060D01*
X021838Y009902D02*
X021362Y009902D01*
X018838Y009902D02*
X018362Y009902D01*
X018361Y009900D02*
X018490Y010029D01*
X018560Y010198D01*
X018560Y010901D01*
X018490Y011071D01*
X018361Y011200D01*
X018191Y011270D01*
X018008Y011270D01*
X017839Y011200D01*
X017710Y011071D01*
X017640Y010901D01*
X017640Y010198D01*
X017710Y010029D01*
X017839Y009900D01*
X018008Y009830D01*
X018191Y009830D01*
X018361Y009900D01*
X018503Y010060D02*
X018697Y010060D01*
X018640Y010219D02*
X018560Y010219D01*
X018560Y010377D02*
X018640Y010377D01*
X018640Y010536D02*
X018560Y010536D01*
X018560Y010694D02*
X018640Y010694D01*
X018640Y010853D02*
X018560Y010853D01*
X018515Y011011D02*
X018685Y011011D01*
X018809Y011170D02*
X018391Y011170D01*
X018233Y011328D02*
X017510Y011328D01*
X017510Y011198D02*
X017440Y011029D01*
X017311Y010900D01*
X017141Y010830D01*
X016958Y010830D01*
X016830Y010883D01*
X016830Y010580D01*
X016520Y010270D01*
X016080Y010270D01*
X015770Y010580D01*
X015770Y011020D01*
X016080Y011330D01*
X016520Y011330D01*
X016590Y011260D01*
X016590Y011901D01*
X016660Y012071D01*
X016789Y012200D01*
X016958Y012270D01*
X017141Y012270D01*
X017311Y012200D01*
X017440Y012071D01*
X017510Y011901D01*
X017510Y011198D01*
X017498Y011170D02*
X017809Y011170D01*
X017685Y011011D02*
X017422Y011011D01*
X017640Y010853D02*
X017196Y010853D01*
X016904Y010853D02*
X016830Y010853D01*
X016830Y010694D02*
X017640Y010694D01*
X017640Y010536D02*
X016785Y010536D01*
X016627Y010377D02*
X017640Y010377D01*
X017640Y010219D02*
X016020Y010219D01*
X015973Y010377D02*
X015862Y010377D01*
X015815Y010536D02*
X015703Y010536D01*
X015770Y010694D02*
X015545Y010694D01*
X015386Y010853D02*
X015770Y010853D01*
X015770Y011011D02*
X015228Y011011D01*
X015069Y011170D02*
X015920Y011170D01*
X016078Y011328D02*
X014911Y011328D01*
X014752Y011487D02*
X016590Y011487D01*
X016590Y011645D02*
X014594Y011645D01*
X014483Y011804D02*
X016590Y011804D01*
X016615Y011962D02*
X014283Y011962D01*
X014117Y011962D02*
X000600Y011962D01*
X000600Y011804D02*
X013917Y011804D01*
X013880Y011645D02*
X012824Y011645D01*
X012990Y011487D02*
X013921Y011487D01*
X014133Y011328D02*
X013020Y011328D01*
X012972Y011170D02*
X014292Y011170D01*
X014450Y011011D02*
X012750Y011011D01*
X012591Y010853D02*
X014609Y010853D01*
X014767Y010694D02*
X012433Y010694D01*
X012357Y010536D02*
X012274Y010536D01*
X012199Y010377D02*
X012116Y010377D01*
X012843Y010536D02*
X013357Y010536D01*
X013199Y010377D02*
X013001Y010377D01*
X013843Y010536D02*
X014926Y010536D01*
X015084Y010377D02*
X014001Y010377D01*
X014115Y010219D02*
X015243Y010219D01*
X015401Y010060D02*
X014115Y010060D01*
X014115Y009902D02*
X015560Y009902D01*
X015718Y009743D02*
X014021Y009743D01*
X013863Y009585D02*
X015877Y009585D01*
X016035Y009426D02*
X013613Y009426D01*
X013771Y009268D02*
X016780Y009268D01*
X016337Y009902D02*
X017838Y009902D01*
X017697Y010060D02*
X016179Y010060D01*
X016522Y011328D02*
X016590Y011328D01*
X017510Y011487D02*
X018075Y011487D01*
X017916Y011645D02*
X017510Y011645D01*
X017510Y011804D02*
X017758Y011804D01*
X017599Y011962D02*
X017485Y011962D01*
X017441Y012121D02*
X017390Y012121D01*
X017282Y012279D02*
X012095Y012279D01*
X012172Y012284D02*
X012385Y012312D01*
X012595Y012354D01*
X012803Y012410D01*
X013006Y012479D01*
X013204Y012561D01*
X013397Y012656D01*
X013583Y012763D01*
X013762Y012882D01*
X013932Y013013D01*
X014093Y013155D01*
X014245Y013307D01*
X014387Y013468D01*
X014518Y013638D01*
X014637Y013817D01*
X014744Y014003D01*
X014839Y014196D01*
X014921Y014394D01*
X014990Y014597D01*
X015046Y014805D01*
X015088Y015015D01*
X015116Y015228D01*
X015130Y015443D01*
X015130Y015470D01*
X011930Y015470D01*
X011930Y012270D01*
X011957Y012270D01*
X012172Y012284D01*
X011930Y012279D02*
X011770Y012279D01*
X011770Y012270D02*
X011770Y015470D01*
X008570Y015470D01*
X008570Y015443D01*
X008584Y015228D01*
X008612Y015015D01*
X008654Y014805D01*
X008710Y014597D01*
X008779Y014394D01*
X008861Y014196D01*
X008956Y014003D01*
X009063Y013817D01*
X009182Y013638D01*
X009313Y013468D01*
X009455Y013307D01*
X009607Y013155D01*
X009768Y013013D01*
X009938Y012882D01*
X010117Y012763D01*
X010303Y012656D01*
X010496Y012561D01*
X010694Y012479D01*
X010897Y012410D01*
X011105Y012354D01*
X011315Y012312D01*
X011528Y012284D01*
X011743Y012270D01*
X011770Y012270D01*
X011605Y012279D02*
X007579Y012279D01*
X007630Y012330D02*
X007320Y012020D01*
X006880Y012020D01*
X006600Y012300D01*
X006320Y012020D01*
X005880Y012020D01*
X005570Y012330D01*
X005570Y012770D01*
X005880Y013080D01*
X006320Y013080D01*
X006600Y012800D01*
X006880Y013080D01*
X007320Y013080D01*
X007630Y012770D01*
X007630Y012330D01*
X007630Y012438D02*
X010815Y012438D01*
X010424Y012596D02*
X007630Y012596D01*
X007630Y012755D02*
X010132Y012755D01*
X009899Y012913D02*
X007487Y012913D01*
X007328Y013072D02*
X009702Y013072D01*
X009531Y013230D02*
X005629Y013230D01*
X005629Y013228D02*
X005700Y013700D01*
X005629Y014172D01*
X005422Y014601D01*
X005422Y014601D01*
X005098Y014951D01*
X005098Y014951D01*
X004685Y015189D01*
X004220Y015296D01*
X004220Y015296D01*
X003744Y015260D01*
X003744Y015260D01*
X003300Y015086D01*
X002927Y014788D01*
X002658Y014394D01*
X002518Y013938D01*
X002518Y013462D01*
X002658Y013006D01*
X002927Y012612D01*
X002927Y012612D01*
X002927Y012612D01*
X003300Y012314D01*
X003744Y012140D01*
X004220Y012104D01*
X004685Y012211D01*
X005098Y012449D01*
X005422Y012799D01*
X005629Y013228D01*
X005629Y013228D01*
X005653Y013389D02*
X009383Y013389D01*
X009253Y013547D02*
X005677Y013547D01*
X005699Y013706D02*
X009138Y013706D01*
X009036Y013864D02*
X005675Y013864D01*
X005651Y014023D02*
X008946Y014023D01*
X008868Y014181D02*
X005624Y014181D01*
X005629Y014172D02*
X005629Y014172D01*
X005548Y014340D02*
X008801Y014340D01*
X008743Y014498D02*
X005472Y014498D01*
X005371Y014657D02*
X007275Y014657D01*
X007411Y014600D02*
X007789Y014600D01*
X008138Y014745D01*
X008405Y015012D01*
X008550Y015361D01*
X008550Y015739D01*
X008405Y016088D01*
X008138Y016355D01*
X007789Y016500D01*
X007411Y016500D01*
X007062Y016355D01*
X006795Y016088D01*
X006650Y015739D01*
X006650Y015361D01*
X006795Y015012D01*
X007062Y014745D01*
X007411Y014600D01*
X006991Y014815D02*
X005224Y014815D01*
X005058Y014974D02*
X006833Y014974D01*
X006745Y015132D02*
X004784Y015132D01*
X004685Y015189D02*
X004685Y015189D01*
X004241Y015291D02*
X006679Y015291D01*
X006650Y015449D02*
X000600Y015449D01*
X000600Y015291D02*
X004153Y015291D01*
X003418Y015132D02*
X000600Y015132D01*
X000600Y014974D02*
X003159Y014974D01*
X003300Y015086D02*
X003300Y015086D01*
X002961Y014815D02*
X000600Y014815D01*
X000600Y014657D02*
X002837Y014657D01*
X002927Y014788D02*
X002927Y014788D01*
X002729Y014498D02*
X000600Y014498D01*
X000600Y014340D02*
X002642Y014340D01*
X002658Y014394D02*
X002658Y014394D01*
X002593Y014181D02*
X000600Y014181D01*
X000600Y014023D02*
X001360Y014023D01*
X001397Y014041D02*
X001322Y014003D01*
X001255Y013954D01*
X001196Y013895D01*
X001147Y013828D01*
X001109Y013753D01*
X001083Y013674D01*
X001070Y013592D01*
X001070Y013568D01*
X001582Y013568D01*
X001582Y013532D01*
X001070Y013532D01*
X001070Y013508D01*
X001083Y013426D01*
X001109Y013347D01*
X001147Y013272D01*
X001196Y013205D01*
X001255Y013146D01*
X001322Y013097D01*
X001394Y013060D01*
X001288Y013016D01*
X001134Y012862D01*
X001050Y012659D01*
X001050Y012441D01*
X001134Y012238D01*
X001288Y012084D01*
X001491Y012000D01*
X001709Y012000D01*
X001912Y012084D01*
X002066Y012238D01*
X002150Y012441D01*
X002150Y012659D01*
X002066Y012862D01*
X001912Y013016D01*
X001806Y013060D01*
X001878Y013097D01*
X001945Y013146D01*
X002004Y013205D01*
X002053Y013272D01*
X002091Y013347D01*
X002117Y013426D01*
X002130Y013508D01*
X002130Y013532D01*
X001618Y013532D01*
X001618Y013568D01*
X002130Y013568D01*
X002130Y013592D01*
X002117Y013674D01*
X002091Y013753D01*
X002053Y013828D01*
X002004Y013895D01*
X001945Y013954D01*
X001878Y014003D01*
X001803Y014041D01*
X001724Y014067D01*
X001642Y014080D01*
X001618Y014080D01*
X001618Y013568D01*
X001582Y013568D01*
X001582Y014080D01*
X001558Y014080D01*
X001476Y014067D01*
X001397Y014041D01*
X001582Y014023D02*
X001618Y014023D01*
X001618Y013864D02*
X001582Y013864D01*
X001582Y013706D02*
X001618Y013706D01*
X001618Y013547D02*
X002518Y013547D01*
X002518Y013706D02*
X002107Y013706D01*
X002027Y013864D02*
X002518Y013864D01*
X002544Y014023D02*
X001840Y014023D01*
X001173Y013864D02*
X000600Y013864D01*
X000600Y013706D02*
X001093Y013706D01*
X001095Y013389D02*
X000600Y013389D01*
X000600Y013547D02*
X001582Y013547D01*
X001177Y013230D02*
X000600Y013230D01*
X000600Y013072D02*
X001372Y013072D01*
X001185Y012913D02*
X000600Y012913D01*
X000600Y012755D02*
X001089Y012755D01*
X001050Y012596D02*
X000600Y012596D01*
X000600Y012438D02*
X001051Y012438D01*
X001117Y012279D02*
X000600Y012279D01*
X000600Y012121D02*
X001252Y012121D01*
X001948Y012121D02*
X004005Y012121D01*
X004220Y012104D02*
X004220Y012104D01*
X004290Y012121D02*
X005780Y012121D01*
X005621Y012279D02*
X004803Y012279D01*
X005078Y012438D02*
X005570Y012438D01*
X005570Y012596D02*
X005234Y012596D01*
X005098Y012449D02*
X005098Y012449D01*
X005381Y012755D02*
X005570Y012755D01*
X005477Y012913D02*
X005713Y012913D01*
X005872Y013072D02*
X005553Y013072D01*
X006328Y013072D02*
X006872Y013072D01*
X006713Y012913D02*
X006487Y012913D01*
X006579Y012279D02*
X006621Y012279D01*
X006780Y012121D02*
X006420Y012121D01*
X007420Y012121D02*
X016710Y012121D01*
X017124Y012438D02*
X012885Y012438D01*
X013276Y012596D02*
X016965Y012596D01*
X016807Y012755D02*
X013568Y012755D01*
X013801Y012913D02*
X016648Y012913D01*
X016490Y013072D02*
X013998Y013072D01*
X014169Y013230D02*
X016167Y013230D01*
X016080Y013389D02*
X014317Y013389D01*
X014447Y013547D02*
X016094Y013547D01*
X016203Y013706D02*
X014562Y013706D01*
X014664Y013864D02*
X016876Y013864D01*
X016958Y013830D02*
X017141Y013830D01*
X017311Y013900D01*
X017440Y014029D01*
X017510Y014198D01*
X017510Y014901D01*
X017440Y015071D01*
X017311Y015200D01*
X017141Y015270D01*
X017012Y015270D01*
X017050Y015361D01*
X017050Y015739D01*
X016905Y016088D01*
X016638Y016355D01*
X016289Y016500D01*
X015911Y016500D01*
X015562Y016355D01*
X015295Y016088D01*
X015150Y015739D01*
X015150Y015361D01*
X015295Y015012D01*
X015562Y014745D01*
X015911Y014600D01*
X016289Y014600D01*
X016590Y014725D01*
X016590Y014198D01*
X016660Y014029D01*
X016789Y013900D01*
X016958Y013830D01*
X017224Y013864D02*
X018697Y013864D01*
X018539Y014023D02*
X017433Y014023D01*
X017503Y014181D02*
X018380Y014181D01*
X018222Y014340D02*
X017510Y014340D01*
X017510Y014498D02*
X018063Y014498D01*
X017905Y014657D02*
X017510Y014657D01*
X017510Y014815D02*
X017746Y014815D01*
X017588Y014974D02*
X017480Y014974D01*
X017429Y015132D02*
X017379Y015132D01*
X017271Y015291D02*
X017021Y015291D01*
X017050Y015449D02*
X017144Y015449D01*
X017125Y015608D02*
X017050Y015608D01*
X017039Y015766D02*
X017125Y015766D01*
X017125Y015925D02*
X016973Y015925D01*
X016907Y016083D02*
X017125Y016083D01*
X017125Y016242D02*
X016752Y016242D01*
X016530Y016400D02*
X017125Y016400D01*
X017125Y016559D02*
X014971Y016559D01*
X015018Y016400D02*
X015670Y016400D01*
X015448Y016242D02*
X015057Y016242D01*
X015088Y016083D02*
X015293Y016083D01*
X015227Y015925D02*
X015109Y015925D01*
X015123Y015766D02*
X015161Y015766D01*
X015150Y015608D02*
X011930Y015608D01*
X011930Y015766D02*
X011770Y015766D01*
X011770Y015608D02*
X008550Y015608D01*
X008539Y015766D02*
X008577Y015766D01*
X008591Y015925D02*
X008473Y015925D01*
X008407Y016083D02*
X008612Y016083D01*
X008643Y016242D02*
X008252Y016242D01*
X008030Y016400D02*
X008682Y016400D01*
X008729Y016559D02*
X006670Y016559D01*
X006670Y016663D02*
X006583Y016873D01*
X006423Y017033D01*
X006213Y017120D01*
X005987Y017120D01*
X005777Y017033D01*
X005617Y016873D01*
X005600Y016832D01*
X005583Y016873D01*
X005423Y017033D01*
X005213Y017120D01*
X004987Y017120D01*
X004777Y017033D01*
X004617Y016873D01*
X004530Y016663D01*
X004530Y016437D01*
X004617Y016227D01*
X004777Y016067D01*
X004987Y015980D01*
X005213Y015980D01*
X005423Y016067D01*
X005583Y016227D01*
X005600Y016268D01*
X005617Y016227D01*
X005777Y016067D01*
X005987Y015980D01*
X006213Y015980D01*
X006423Y016067D01*
X006583Y016227D01*
X006670Y016437D01*
X006670Y016663D01*
X006648Y016717D02*
X008783Y016717D01*
X008849Y016876D02*
X006581Y016876D01*
X006421Y017034D02*
X008925Y017034D01*
X009011Y017193D02*
X000600Y017193D01*
X000600Y017351D02*
X009109Y017351D01*
X009219Y017510D02*
X000600Y017510D01*
X000600Y017668D02*
X009345Y017668D01*
X009488Y017827D02*
X000600Y017827D01*
X000600Y017985D02*
X002474Y017985D01*
X002726Y017985D02*
X005974Y017985D01*
X006226Y017985D02*
X009652Y017985D01*
X009842Y018144D02*
X006500Y018144D01*
X006614Y018302D02*
X010065Y018302D01*
X010336Y018461D02*
X006670Y018461D01*
X006670Y018619D02*
X010688Y018619D01*
X011263Y018778D02*
X006623Y018778D01*
X006520Y018936D02*
X027236Y018936D01*
X027121Y018778D02*
X025429Y018778D01*
X025423Y018783D02*
X025213Y018870D01*
X024987Y018870D01*
X024777Y018783D01*
X024617Y018623D01*
X024600Y018582D01*
X024583Y018623D01*
X024423Y018783D01*
X024213Y018870D01*
X023987Y018870D01*
X023777Y018783D01*
X023617Y018623D01*
X023588Y018554D01*
X023570Y018588D01*
X023520Y018658D01*
X023458Y018720D01*
X023388Y018770D01*
X023311Y018810D01*
X023229Y018836D01*
X023143Y018850D01*
X023120Y018850D01*
X023120Y018320D01*
X023080Y018320D01*
X023080Y018850D01*
X023057Y018850D01*
X022971Y018836D01*
X022889Y018810D01*
X022812Y018770D01*
X022742Y018720D01*
X022680Y018658D01*
X022630Y018588D01*
X022612Y018554D01*
X022583Y018623D01*
X022423Y018783D01*
X022213Y018870D01*
X021987Y018870D01*
X021777Y018783D01*
X021617Y018623D01*
X021600Y018582D01*
X021583Y018623D01*
X021423Y018783D01*
X021213Y018870D01*
X020987Y018870D01*
X020777Y018783D01*
X020617Y018623D01*
X020600Y018582D01*
X020583Y018623D01*
X020423Y018783D01*
X020213Y018870D01*
X019987Y018870D01*
X019777Y018783D01*
X019617Y018623D01*
X019530Y018413D01*
X019530Y018187D01*
X019617Y017977D01*
X019777Y017817D01*
X019987Y017730D01*
X020213Y017730D01*
X020423Y017817D01*
X020583Y017977D01*
X020600Y018018D01*
X020617Y017977D01*
X020777Y017817D01*
X020987Y017730D01*
X021213Y017730D01*
X021423Y017817D01*
X021583Y017977D01*
X021600Y018018D01*
X021617Y017977D01*
X021777Y017817D01*
X021987Y017730D01*
X022213Y017730D01*
X022423Y017817D01*
X022583Y017977D01*
X022612Y018046D01*
X022630Y018012D01*
X022680Y017942D01*
X022742Y017880D01*
X022812Y017830D01*
X022889Y017790D01*
X022971Y017764D01*
X023057Y017750D01*
X023080Y017750D01*
X023080Y018280D01*
X023120Y018280D01*
X023120Y017750D01*
X023143Y017750D01*
X023229Y017764D01*
X023311Y017790D01*
X023388Y017830D01*
X023458Y017880D01*
X023520Y017942D01*
X023570Y018012D01*
X023588Y018046D01*
X023617Y017977D01*
X023777Y017817D01*
X023987Y017730D01*
X024213Y017730D01*
X024423Y017817D01*
X024583Y017977D01*
X024600Y018018D01*
X024617Y017977D01*
X024777Y017817D01*
X024987Y017730D01*
X025213Y017730D01*
X025423Y017817D01*
X025583Y017977D01*
X025670Y018187D01*
X025670Y018413D01*
X025583Y018623D01*
X025423Y018783D01*
X025585Y018619D02*
X027074Y018619D01*
X027078Y018461D02*
X025650Y018461D01*
X025670Y018302D02*
X027132Y018302D01*
X027258Y018144D02*
X025652Y018144D01*
X025586Y017985D02*
X030952Y017985D01*
X031854Y017985D02*
X031965Y017985D01*
X032012Y017827D02*
X032123Y017827D01*
X032400Y017827D02*
X032400Y017827D01*
X032400Y017755D02*
X032400Y018250D01*
X032400Y018250D01*
X032400Y017755D01*
X032400Y017985D02*
X032400Y017985D01*
X032400Y018144D02*
X032400Y018144D01*
X032400Y018302D02*
X032400Y018302D01*
X032400Y018461D02*
X032400Y018461D01*
X032400Y018619D02*
X032400Y018619D01*
X032731Y018619D02*
X037207Y018619D01*
X037570Y018619D02*
X037630Y018619D01*
X037630Y018461D02*
X037570Y018461D01*
X037570Y018302D02*
X037630Y018302D01*
X037630Y018144D02*
X037570Y018144D01*
X037570Y017985D02*
X037630Y017985D01*
X037630Y017827D02*
X037570Y017827D01*
X037570Y017668D02*
X037630Y017668D01*
X037630Y017510D02*
X037570Y017510D01*
X038021Y017510D02*
X038600Y017510D01*
X038600Y017668D02*
X038180Y017668D01*
X038280Y017827D02*
X038600Y017827D01*
X038600Y017985D02*
X038280Y017985D01*
X038280Y018144D02*
X038600Y018144D01*
X038600Y018302D02*
X038280Y018302D01*
X038151Y018461D02*
X038600Y018461D01*
X038600Y018619D02*
X037993Y018619D01*
X032069Y018619D02*
X031759Y018619D01*
X031870Y018461D02*
X031910Y018461D01*
X027618Y018461D02*
X027582Y018461D01*
X027582Y018302D02*
X027618Y018302D01*
X026919Y017827D02*
X025433Y017827D01*
X024767Y017827D02*
X024433Y017827D01*
X024586Y017985D02*
X024614Y017985D01*
X023767Y017827D02*
X023382Y017827D01*
X023551Y017985D02*
X023614Y017985D01*
X023120Y017985D02*
X023080Y017985D01*
X023080Y017827D02*
X023120Y017827D01*
X022818Y017827D02*
X022433Y017827D01*
X022586Y017985D02*
X022649Y017985D01*
X023080Y018144D02*
X023120Y018144D01*
X023120Y018461D02*
X023080Y018461D01*
X023080Y018619D02*
X023120Y018619D01*
X023120Y018778D02*
X023080Y018778D01*
X022826Y018778D02*
X022429Y018778D01*
X022585Y018619D02*
X022652Y018619D01*
X023374Y018778D02*
X023771Y018778D01*
X023615Y018619D02*
X023548Y018619D01*
X024429Y018778D02*
X024771Y018778D01*
X024615Y018619D02*
X024585Y018619D01*
X021771Y018778D02*
X021429Y018778D01*
X021585Y018619D02*
X021615Y018619D01*
X020771Y018778D02*
X020429Y018778D01*
X020585Y018619D02*
X020615Y018619D01*
X019771Y018778D02*
X012437Y018778D01*
X011930Y018778D02*
X011770Y018778D01*
X011770Y018619D02*
X011930Y018619D01*
X011930Y018461D02*
X011770Y018461D01*
X011770Y018302D02*
X011930Y018302D01*
X011930Y018144D02*
X011770Y018144D01*
X011770Y017985D02*
X011930Y017985D01*
X011930Y017827D02*
X011770Y017827D01*
X011770Y017668D02*
X011930Y017668D01*
X011930Y017510D02*
X011770Y017510D01*
X011770Y017351D02*
X011930Y017351D01*
X011930Y017193D02*
X011770Y017193D01*
X011770Y017034D02*
X011930Y017034D01*
X011930Y016876D02*
X011770Y016876D01*
X011770Y016717D02*
X011930Y016717D01*
X011930Y016559D02*
X011770Y016559D01*
X011770Y016400D02*
X011930Y016400D01*
X011930Y016242D02*
X011770Y016242D01*
X011770Y016083D02*
X011930Y016083D01*
X011930Y015925D02*
X011770Y015925D01*
X011770Y015449D02*
X011930Y015449D01*
X011930Y015291D02*
X011770Y015291D01*
X011770Y015132D02*
X011930Y015132D01*
X011930Y014974D02*
X011770Y014974D01*
X011770Y014815D02*
X011930Y014815D01*
X011930Y014657D02*
X011770Y014657D01*
X011770Y014498D02*
X011930Y014498D01*
X011930Y014340D02*
X011770Y014340D01*
X011770Y014181D02*
X011930Y014181D01*
X011930Y014023D02*
X011770Y014023D01*
X011770Y013864D02*
X011930Y013864D01*
X011930Y013706D02*
X011770Y013706D01*
X011770Y013547D02*
X011930Y013547D01*
X011930Y013389D02*
X011770Y013389D01*
X011770Y013230D02*
X011930Y013230D01*
X011930Y013072D02*
X011770Y013072D01*
X011770Y012913D02*
X011930Y012913D01*
X011930Y012755D02*
X011770Y012755D01*
X011770Y012596D02*
X011930Y012596D01*
X011930Y012438D02*
X011770Y012438D01*
X012576Y011645D02*
X000600Y011645D01*
X000600Y011487D02*
X012410Y011487D01*
X012289Y011328D02*
X000600Y011328D01*
X000600Y011170D02*
X001490Y011170D01*
X001458Y011164D02*
X001364Y011134D01*
X001276Y011089D01*
X001195Y011031D01*
X001125Y010960D01*
X001067Y010880D01*
X001022Y010792D01*
X000991Y010698D01*
X000977Y010608D01*
X001548Y010608D01*
X001548Y011179D01*
X001458Y011164D01*
X001548Y011170D02*
X001664Y011170D01*
X001664Y011179D02*
X001753Y011164D01*
X001848Y011134D01*
X001936Y011089D01*
X002016Y011031D01*
X002086Y010960D01*
X002145Y010880D01*
X002190Y010792D01*
X002220Y010698D01*
X002235Y010608D01*
X001664Y010608D01*
X001664Y010492D01*
X002235Y010492D01*
X002220Y010402D01*
X002190Y010308D01*
X002145Y010220D01*
X002086Y010140D01*
X002016Y010069D01*
X001936Y010011D01*
X001848Y009966D01*
X001753Y009936D01*
X001664Y009921D01*
X001664Y010492D01*
X001548Y010492D01*
X001548Y009921D01*
X001458Y009936D01*
X001364Y009966D01*
X001276Y010011D01*
X001195Y010069D01*
X001125Y010140D01*
X001067Y010220D01*
X001022Y010308D01*
X000991Y010402D01*
X000977Y010492D01*
X001548Y010492D01*
X001548Y010608D01*
X001664Y010608D01*
X001664Y011179D01*
X001722Y011170D02*
X012131Y011170D01*
X011972Y011011D02*
X002036Y011011D01*
X002159Y010853D02*
X011814Y010853D01*
X011655Y010694D02*
X002221Y010694D01*
X002212Y010377D02*
X010199Y010377D01*
X010085Y010219D02*
X002144Y010219D01*
X002003Y010060D02*
X010085Y010060D01*
X010085Y009902D02*
X007470Y009902D01*
X007610Y009761D02*
X007311Y010060D01*
X007100Y010060D01*
X007100Y009550D01*
X007100Y009550D01*
X007610Y009550D01*
X007610Y009761D01*
X007610Y009743D02*
X010179Y009743D01*
X010337Y009585D02*
X007610Y009585D01*
X007610Y009550D02*
X007100Y009550D01*
X007100Y009550D01*
X007100Y010060D01*
X006889Y010060D01*
X006600Y009771D01*
X006311Y010060D01*
X006100Y010060D01*
X006100Y009550D01*
X006100Y009550D01*
X006590Y009550D01*
X007100Y009550D01*
X007100Y009040D01*
X007311Y009040D01*
X007610Y009339D01*
X007610Y009550D01*
X007610Y009426D02*
X008769Y009426D01*
X008893Y009550D02*
X008600Y009257D01*
X008600Y008843D01*
X008893Y008550D01*
X009307Y008550D01*
X009600Y008843D01*
X009600Y009257D01*
X009307Y009550D01*
X008893Y009550D01*
X008610Y009268D02*
X007539Y009268D01*
X007380Y009109D02*
X008600Y009109D01*
X008600Y008951D02*
X002250Y008951D01*
X002250Y008921D02*
X002151Y008682D01*
X001968Y008499D01*
X001729Y008400D01*
X001471Y008400D01*
X001232Y008499D01*
X001049Y008682D01*
X000950Y008921D01*
X000950Y009179D01*
X001049Y009418D01*
X001232Y009601D01*
X001471Y009700D01*
X001729Y009700D01*
X001968Y009601D01*
X002151Y009418D01*
X002250Y009179D01*
X002250Y008921D01*
X002197Y008792D02*
X008651Y008792D01*
X008809Y008634D02*
X002103Y008634D01*
X001910Y008475D02*
X008846Y008475D01*
X008901Y008530D02*
X008620Y008249D01*
X008620Y008050D01*
X009100Y008050D01*
X009100Y008050D01*
X009100Y008530D01*
X009299Y008530D01*
X009580Y008249D01*
X009580Y008050D01*
X009100Y008050D01*
X009100Y008050D01*
X009100Y008050D01*
X009100Y008530D01*
X008901Y008530D01*
X009100Y008475D02*
X009100Y008475D01*
X009100Y008317D02*
X009100Y008317D01*
X009100Y008158D02*
X009100Y008158D01*
X009100Y008050D02*
X008620Y008050D01*
X008620Y007851D01*
X008901Y007570D01*
X009100Y007570D01*
X009299Y007570D01*
X009580Y007851D01*
X009580Y008050D01*
X009100Y008050D01*
X009100Y007570D01*
X009100Y008050D01*
X009100Y008050D01*
X009100Y008000D02*
X009100Y008000D01*
X009100Y007841D02*
X009100Y007841D01*
X009100Y007683D02*
X009100Y007683D01*
X009411Y007683D02*
X014350Y007683D01*
X014350Y007841D02*
X009570Y007841D01*
X009580Y008000D02*
X014350Y008000D01*
X014501Y008158D02*
X009580Y008158D01*
X009512Y008317D02*
X016067Y008317D01*
X015908Y008158D02*
X015199Y008158D01*
X015281Y007524D02*
X015826Y007524D01*
X015985Y007366D02*
X015123Y007366D01*
X015122Y007207D02*
X016380Y007207D01*
X016394Y007049D02*
X015280Y007049D01*
X015330Y006890D02*
X016380Y006890D01*
X017829Y006890D02*
X017864Y006890D01*
X018336Y006890D02*
X018864Y006890D01*
X018839Y006900D02*
X019008Y006830D01*
X019191Y006830D01*
X019361Y006900D01*
X019490Y007029D01*
X019560Y007198D01*
X019560Y007901D01*
X019490Y008071D01*
X019361Y008200D01*
X019191Y008270D01*
X019008Y008270D01*
X018839Y008200D01*
X018710Y008071D01*
X018640Y007901D01*
X018640Y007198D01*
X018710Y007029D01*
X018839Y006900D01*
X018702Y007049D02*
X018498Y007049D01*
X018560Y007207D02*
X018640Y007207D01*
X018640Y007366D02*
X018560Y007366D01*
X018560Y007524D02*
X018640Y007524D01*
X018640Y007683D02*
X018560Y007683D01*
X018560Y007841D02*
X018640Y007841D01*
X018681Y008000D02*
X018519Y008000D01*
X018403Y008158D02*
X018797Y008158D01*
X019403Y008158D02*
X019797Y008158D01*
X019839Y008200D02*
X019710Y008071D01*
X019640Y007901D01*
X019640Y007198D01*
X019710Y007029D01*
X019839Y006900D01*
X020008Y006830D01*
X020191Y006830D01*
X020361Y006900D01*
X020490Y007029D01*
X020560Y007198D01*
X020560Y007901D01*
X020490Y008071D01*
X020361Y008200D01*
X020191Y008270D01*
X020008Y008270D01*
X019839Y008200D01*
X019681Y008000D02*
X019519Y008000D01*
X019560Y007841D02*
X019640Y007841D01*
X019640Y007683D02*
X019560Y007683D01*
X019560Y007524D02*
X019640Y007524D01*
X019640Y007366D02*
X019560Y007366D01*
X019560Y007207D02*
X019640Y007207D01*
X019702Y007049D02*
X019498Y007049D01*
X019336Y006890D02*
X019864Y006890D01*
X019507Y006732D02*
X023124Y006732D01*
X021873Y006573D02*
X019666Y006573D01*
X020336Y006890D02*
X020864Y006890D01*
X020839Y006900D02*
X021008Y006830D01*
X021191Y006830D01*
X021361Y006900D01*
X021490Y007029D01*
X021560Y007198D01*
X021560Y007901D01*
X021490Y008071D01*
X021361Y008200D01*
X021191Y008270D01*
X021008Y008270D01*
X020839Y008200D01*
X020710Y008071D01*
X020640Y007901D01*
X020640Y007198D01*
X020710Y007029D01*
X020839Y006900D01*
X020702Y007049D02*
X020498Y007049D01*
X020560Y007207D02*
X020640Y007207D01*
X020640Y007366D02*
X020560Y007366D01*
X020560Y007524D02*
X020640Y007524D01*
X020640Y007683D02*
X020560Y007683D01*
X020560Y007841D02*
X020640Y007841D01*
X020681Y008000D02*
X020519Y008000D01*
X020403Y008158D02*
X020797Y008158D01*
X021403Y008158D02*
X021797Y008158D01*
X021681Y008000D02*
X021519Y008000D01*
X021560Y007841D02*
X021640Y007841D01*
X021640Y007683D02*
X021560Y007683D01*
X021560Y007524D02*
X021640Y007524D01*
X021640Y007366D02*
X021560Y007366D01*
X021560Y007207D02*
X021640Y007207D01*
X021702Y007049D02*
X021498Y007049D01*
X021336Y006890D02*
X021864Y006890D01*
X024498Y007049D02*
X024732Y007049D01*
X024668Y007207D02*
X024560Y007207D01*
X024560Y007366D02*
X024660Y007366D01*
X024660Y007524D02*
X024560Y007524D01*
X024560Y007683D02*
X024660Y007683D01*
X024660Y007841D02*
X024560Y007841D01*
X024519Y008000D02*
X024703Y008000D01*
X024830Y008158D02*
X024403Y008158D01*
X026403Y008158D02*
X026797Y008158D01*
X026681Y008000D02*
X026519Y008000D01*
X026560Y007841D02*
X026640Y007841D01*
X026640Y007683D02*
X026560Y007683D01*
X026560Y007524D02*
X026640Y007524D01*
X026640Y007366D02*
X026560Y007366D01*
X026560Y007207D02*
X026640Y007207D01*
X026702Y007049D02*
X026498Y007049D01*
X026443Y006732D02*
X024747Y006732D01*
X024906Y006573D02*
X026305Y006573D01*
X026280Y006415D02*
X024930Y006415D01*
X024930Y006256D02*
X026341Y006256D01*
X025580Y005464D02*
X027187Y005464D01*
X027345Y005305D02*
X025580Y005305D01*
X025580Y005300D02*
X025100Y005300D01*
X025100Y005300D01*
X025100Y004820D01*
X025299Y004820D01*
X025580Y005101D01*
X025580Y005300D01*
X025580Y005147D02*
X027808Y005147D01*
X027855Y005305D02*
X027966Y005305D01*
X028013Y005464D02*
X030187Y005464D01*
X030070Y005622D02*
X028130Y005622D01*
X028130Y005781D02*
X030070Y005781D01*
X030070Y005939D02*
X028130Y005939D01*
X028052Y006098D02*
X030148Y006098D01*
X031052Y006098D02*
X036115Y006098D01*
X036195Y006256D02*
X036303Y006256D01*
X036353Y006415D02*
X038600Y006415D01*
X038600Y006573D02*
X036567Y006573D01*
X036697Y006732D02*
X038600Y006732D01*
X038600Y006890D02*
X036720Y006890D01*
X036497Y006256D02*
X038600Y006256D01*
X038600Y006098D02*
X036685Y006098D01*
X036720Y005939D02*
X038600Y005939D01*
X038600Y005781D02*
X036676Y005781D01*
X036461Y005622D02*
X038600Y005622D01*
X038600Y005464D02*
X036302Y005464D01*
X036144Y005305D02*
X038600Y005305D01*
X038600Y005147D02*
X035985Y005147D01*
X035827Y004988D02*
X038600Y004988D01*
X038600Y004830D02*
X031820Y004830D01*
X031380Y004830D01*
X031070Y004520D01*
X031070Y004080D01*
X031380Y003770D01*
X031820Y003770D01*
X032130Y004080D01*
X032130Y004520D01*
X031820Y004830D01*
X031979Y004671D02*
X038600Y004671D01*
X038600Y004513D02*
X032130Y004513D01*
X032130Y004354D02*
X038600Y004354D01*
X038600Y004196D02*
X032130Y004196D01*
X032087Y004037D02*
X038600Y004037D01*
X038600Y003879D02*
X031928Y003879D01*
X032041Y003562D02*
X038600Y003562D01*
X038600Y003720D02*
X031367Y003720D01*
X031272Y003879D02*
X028928Y003879D01*
X028820Y003770D02*
X029130Y004080D01*
X029130Y004520D01*
X028820Y004830D01*
X028380Y004830D01*
X028070Y004520D01*
X028070Y004080D01*
X028380Y003770D01*
X028820Y003770D01*
X029087Y004037D02*
X031113Y004037D01*
X031070Y004196D02*
X029130Y004196D01*
X029130Y004354D02*
X031070Y004354D01*
X031070Y004513D02*
X029130Y004513D01*
X028979Y004671D02*
X031221Y004671D01*
X031268Y004830D02*
X031380Y004830D01*
X030966Y005305D02*
X030855Y005305D01*
X031013Y005464D02*
X035525Y005464D01*
X035683Y005622D02*
X031130Y005622D01*
X031130Y005781D02*
X035842Y005781D01*
X036000Y005939D02*
X031130Y005939D01*
X030345Y005305D02*
X029234Y005305D01*
X028932Y004830D02*
X028820Y004830D01*
X028380Y004830D02*
X028268Y004830D01*
X028221Y004671D02*
X028110Y004671D01*
X028070Y004513D02*
X027951Y004513D01*
X028070Y004354D02*
X027793Y004354D01*
X027604Y004196D02*
X028070Y004196D01*
X028113Y004037D02*
X027343Y004037D01*
X027493Y003879D02*
X028272Y003879D01*
X027491Y004830D02*
X025308Y004830D01*
X025100Y004830D02*
X025100Y004830D01*
X025100Y004820D02*
X025100Y005300D01*
X025100Y005300D01*
X025100Y005300D01*
X024620Y005300D01*
X024620Y005101D01*
X024901Y004820D01*
X025100Y004820D01*
X025100Y004988D02*
X025100Y004988D01*
X025100Y005147D02*
X025100Y005147D01*
X025467Y004988D02*
X027649Y004988D01*
X026068Y004671D02*
X021971Y004671D01*
X022129Y004830D02*
X023863Y004830D01*
X023705Y004988D02*
X022130Y004988D01*
X022130Y005147D02*
X023600Y005147D01*
X023600Y005305D02*
X022095Y005305D01*
X021726Y004513D02*
X025980Y004513D01*
X024892Y004830D02*
X024337Y004830D01*
X024495Y004988D02*
X024733Y004988D01*
X024620Y005147D02*
X024600Y005147D01*
X024600Y005305D02*
X024620Y005305D01*
X024620Y005464D02*
X024600Y005464D01*
X027336Y006890D02*
X027864Y006890D01*
X027839Y006900D02*
X028008Y006830D01*
X028191Y006830D01*
X028361Y006900D01*
X028490Y007029D01*
X028560Y007198D01*
X028560Y007901D01*
X028490Y008071D01*
X028361Y008200D01*
X028191Y008270D01*
X028008Y008270D01*
X027839Y008200D01*
X027710Y008071D01*
X027640Y007901D01*
X027640Y007198D01*
X027710Y007029D01*
X027839Y006900D01*
X027702Y007049D02*
X027498Y007049D01*
X027560Y007207D02*
X027640Y007207D01*
X027640Y007366D02*
X027560Y007366D01*
X027560Y007524D02*
X027640Y007524D01*
X027640Y007683D02*
X027560Y007683D01*
X027560Y007841D02*
X027640Y007841D01*
X027681Y008000D02*
X027519Y008000D01*
X027403Y008158D02*
X027797Y008158D01*
X028403Y008158D02*
X028797Y008158D01*
X028839Y008200D02*
X028710Y008071D01*
X028640Y007901D01*
X028640Y007198D01*
X028710Y007029D01*
X028839Y006900D01*
X029008Y006830D01*
X029191Y006830D01*
X029361Y006900D01*
X029490Y007029D01*
X029560Y007198D01*
X029560Y007901D01*
X029490Y008071D01*
X029361Y008200D01*
X029191Y008270D01*
X029008Y008270D01*
X028839Y008200D01*
X028681Y008000D02*
X028519Y008000D01*
X028560Y007841D02*
X028640Y007841D01*
X028640Y007683D02*
X028560Y007683D01*
X028560Y007524D02*
X028640Y007524D01*
X028640Y007366D02*
X028560Y007366D01*
X028560Y007207D02*
X028640Y007207D01*
X028702Y007049D02*
X028498Y007049D01*
X028336Y006890D02*
X028864Y006890D01*
X029336Y006890D02*
X029864Y006890D01*
X029702Y007049D02*
X029498Y007049D01*
X029560Y007207D02*
X029640Y007207D01*
X029640Y007366D02*
X029560Y007366D01*
X029560Y007524D02*
X029640Y007524D01*
X029640Y007683D02*
X029560Y007683D01*
X029560Y007841D02*
X029640Y007841D01*
X029662Y008000D02*
X029519Y008000D01*
X029503Y008158D02*
X029403Y008158D01*
X029345Y008317D02*
X017886Y008317D01*
X017514Y008317D02*
X016919Y008317D01*
X016692Y008158D02*
X017398Y008158D01*
X017261Y008000D02*
X016830Y008000D01*
X016830Y007841D02*
X017102Y007841D01*
X016944Y007683D02*
X016830Y007683D01*
X016385Y008475D02*
X009354Y008475D01*
X009391Y008634D02*
X016388Y008634D01*
X014419Y007524D02*
X013826Y007524D01*
X013805Y007545D02*
X013600Y007545D01*
X013600Y007050D01*
X014095Y007050D01*
X014095Y007255D01*
X013805Y007545D01*
X013600Y007545D02*
X013395Y007545D01*
X013114Y007264D01*
X012813Y007565D01*
X012387Y007565D01*
X012100Y007278D01*
X011813Y007565D01*
X011387Y007565D01*
X011100Y007278D01*
X010813Y007565D01*
X010387Y007565D01*
X010085Y007263D01*
X010085Y006837D01*
X010387Y006535D01*
X010813Y006535D01*
X011100Y006822D01*
X011387Y006535D01*
X011813Y006535D01*
X012100Y006822D01*
X012387Y006535D01*
X012813Y006535D01*
X013114Y006836D01*
X013395Y006555D01*
X013600Y006555D01*
X013805Y006555D01*
X014095Y006845D01*
X014095Y007050D01*
X013600Y007050D01*
X013600Y007050D01*
X013600Y007050D01*
X013600Y006555D01*
X013600Y007050D01*
X013600Y007050D01*
X013600Y007545D01*
X013600Y007524D02*
X013600Y007524D01*
X013600Y007366D02*
X013600Y007366D01*
X013600Y007207D02*
X013600Y007207D01*
X013600Y007049D02*
X013600Y007049D01*
X013600Y006890D02*
X013600Y006890D01*
X013600Y006732D02*
X013600Y006732D01*
X013600Y006573D02*
X013600Y006573D01*
X013823Y006573D02*
X014398Y006573D01*
X014370Y006601D02*
X014651Y006320D01*
X014850Y006320D01*
X014850Y006800D01*
X014850Y006800D01*
X014850Y006800D01*
X014370Y006800D01*
X014370Y006999D01*
X014651Y007280D01*
X014850Y007280D01*
X014850Y006800D01*
X014370Y006800D01*
X014370Y006601D01*
X014370Y006732D02*
X013982Y006732D01*
X014095Y006890D02*
X014370Y006890D01*
X014420Y007049D02*
X014095Y007049D01*
X014095Y007207D02*
X014578Y007207D01*
X014577Y007366D02*
X013985Y007366D01*
X013374Y007524D02*
X012854Y007524D01*
X013013Y007366D02*
X013215Y007366D01*
X012346Y007524D02*
X011854Y007524D01*
X012013Y007366D02*
X012187Y007366D01*
X011346Y007524D02*
X010854Y007524D01*
X011013Y007366D02*
X011187Y007366D01*
X010346Y007524D02*
X001976Y007524D01*
X002012Y007518D02*
X001938Y007530D01*
X001620Y007530D01*
X001620Y007070D01*
X001580Y007070D01*
X001580Y007530D01*
X001262Y007530D01*
X001188Y007518D01*
X001116Y007495D01*
X001048Y007461D01*
X000987Y007416D01*
X000934Y007363D01*
X000889Y007302D01*
X000855Y007234D01*
X000832Y007162D01*
X000820Y007088D01*
X000820Y007070D01*
X001580Y007070D01*
X001580Y007030D01*
X001620Y007030D01*
X001620Y007070D01*
X002380Y007070D01*
X002380Y007088D01*
X002368Y007162D01*
X002345Y007234D01*
X002311Y007302D01*
X002266Y007363D01*
X002213Y007416D01*
X002152Y007461D01*
X002084Y007495D01*
X002012Y007518D01*
X002263Y007366D02*
X010187Y007366D01*
X010085Y007207D02*
X002354Y007207D01*
X002380Y007030D02*
X001620Y007030D01*
X001620Y006570D01*
X001938Y006570D01*
X002012Y006582D01*
X002084Y006605D01*
X002152Y006639D01*
X002213Y006684D01*
X002266Y006737D01*
X002311Y006798D01*
X002345Y006866D01*
X002368Y006938D01*
X002380Y007012D01*
X002380Y007030D01*
X002353Y006890D02*
X010085Y006890D01*
X010085Y007049D02*
X001620Y007049D01*
X001580Y007049D02*
X000600Y007049D01*
X000600Y007207D02*
X000846Y007207D01*
X000820Y007030D02*
X000820Y007012D01*
X000832Y006938D01*
X000855Y006866D01*
X000889Y006798D01*
X000934Y006737D01*
X000987Y006684D01*
X001048Y006639D01*
X001116Y006605D01*
X001188Y006582D01*
X001262Y006570D01*
X001580Y006570D01*
X001580Y007030D01*
X000820Y007030D01*
X000847Y006890D02*
X000600Y006890D01*
X000600Y006732D02*
X000940Y006732D01*
X001017Y006474D02*
X001201Y006550D01*
X001999Y006550D01*
X002183Y006474D01*
X002324Y006333D01*
X002400Y006149D01*
X002400Y005951D01*
X002324Y005767D01*
X002183Y005626D01*
X001999Y005550D01*
X002183Y005474D01*
X002324Y005333D01*
X002400Y005149D01*
X002400Y004951D01*
X002324Y004767D01*
X002183Y004626D01*
X001999Y004550D01*
X001201Y004550D01*
X001017Y004626D01*
X000876Y004767D01*
X000800Y004951D01*
X000800Y005149D01*
X000876Y005333D01*
X001017Y005474D01*
X001201Y005550D01*
X001999Y005550D01*
X001201Y005550D01*
X001017Y005626D01*
X000876Y005767D01*
X000800Y005951D01*
X000800Y006149D01*
X000876Y006333D01*
X001017Y006474D01*
X000957Y006415D02*
X000600Y006415D01*
X000600Y006573D02*
X001243Y006573D01*
X001580Y006573D02*
X001620Y006573D01*
X001620Y006732D02*
X001580Y006732D01*
X001580Y006890D02*
X001620Y006890D01*
X001620Y007207D02*
X001580Y007207D01*
X001580Y007366D02*
X001620Y007366D01*
X001620Y007524D02*
X001580Y007524D01*
X001224Y007524D02*
X000600Y007524D01*
X000600Y007366D02*
X000937Y007366D01*
X000600Y007683D02*
X008789Y007683D01*
X008630Y007841D02*
X000600Y007841D01*
X000600Y008000D02*
X008620Y008000D01*
X008620Y008158D02*
X000600Y008158D01*
X000600Y008317D02*
X008688Y008317D01*
X009549Y008792D02*
X013469Y008792D01*
X013311Y008951D02*
X009600Y008951D01*
X009600Y009109D02*
X013152Y009109D01*
X012994Y009268D02*
X009590Y009268D01*
X009431Y009426D02*
X012835Y009426D01*
X012337Y009585D02*
X011863Y009585D01*
X012021Y009743D02*
X012179Y009743D01*
X011337Y009585D02*
X010863Y009585D01*
X011021Y009743D02*
X011179Y009743D01*
X011199Y010377D02*
X011001Y010377D01*
X010843Y010536D02*
X011357Y010536D01*
X010357Y010536D02*
X001664Y010536D01*
X001548Y010536D02*
X000600Y010536D01*
X000600Y010694D02*
X000991Y010694D01*
X001053Y010853D02*
X000600Y010853D01*
X000600Y011011D02*
X001176Y011011D01*
X001548Y011011D02*
X001664Y011011D01*
X001664Y010853D02*
X001548Y010853D01*
X001548Y010694D02*
X001664Y010694D01*
X001664Y010377D02*
X001548Y010377D01*
X001548Y010219D02*
X001664Y010219D01*
X001664Y010060D02*
X001548Y010060D01*
X001208Y010060D02*
X000600Y010060D01*
X000600Y009902D02*
X005730Y009902D01*
X005590Y009761D02*
X005590Y009550D01*
X006100Y009550D01*
X006100Y009550D01*
X006100Y009550D01*
X006100Y010060D01*
X005889Y010060D01*
X005590Y009761D01*
X005590Y009743D02*
X000600Y009743D01*
X000600Y009585D02*
X001215Y009585D01*
X001057Y009426D02*
X000600Y009426D01*
X000600Y009268D02*
X000987Y009268D01*
X000950Y009109D02*
X000600Y009109D01*
X000600Y008951D02*
X000950Y008951D01*
X001003Y008792D02*
X000600Y008792D01*
X000600Y008634D02*
X001097Y008634D01*
X001290Y008475D02*
X000600Y008475D01*
X002250Y009109D02*
X005820Y009109D01*
X005889Y009040D02*
X005590Y009339D01*
X005590Y009550D01*
X006100Y009550D01*
X006100Y009040D01*
X006311Y009040D01*
X006600Y009329D01*
X006889Y009040D01*
X007100Y009040D01*
X007100Y009550D01*
X007100Y009550D01*
X007100Y009550D01*
X006100Y009550D01*
X006100Y009550D01*
X006100Y009040D01*
X005889Y009040D01*
X006100Y009109D02*
X006100Y009109D01*
X006100Y009268D02*
X006100Y009268D01*
X006100Y009426D02*
X006100Y009426D01*
X006100Y009585D02*
X006100Y009585D01*
X006100Y009743D02*
X006100Y009743D01*
X006100Y009902D02*
X006100Y009902D01*
X006470Y009902D02*
X006730Y009902D01*
X007100Y009902D02*
X007100Y009902D01*
X007100Y009743D02*
X007100Y009743D01*
X007100Y009585D02*
X007100Y009585D01*
X007100Y009426D02*
X007100Y009426D01*
X007100Y009268D02*
X007100Y009268D01*
X007100Y009109D02*
X007100Y009109D01*
X006820Y009109D02*
X006380Y009109D01*
X006539Y009268D02*
X006661Y009268D01*
X005661Y009268D02*
X002213Y009268D01*
X002143Y009426D02*
X005590Y009426D01*
X005590Y009585D02*
X001985Y009585D01*
X001068Y010219D02*
X000600Y010219D01*
X000600Y010377D02*
X001000Y010377D01*
X003744Y012140D02*
X003744Y012140D01*
X003390Y012279D02*
X002083Y012279D01*
X002149Y012438D02*
X003146Y012438D01*
X003300Y012314D02*
X003300Y012314D01*
X002947Y012596D02*
X002150Y012596D01*
X002111Y012755D02*
X002830Y012755D01*
X002722Y012913D02*
X002015Y012913D01*
X001828Y013072D02*
X002638Y013072D01*
X002658Y013006D02*
X002658Y013006D01*
X002589Y013230D02*
X002023Y013230D01*
X002105Y013389D02*
X002540Y013389D01*
X000600Y015608D02*
X006650Y015608D01*
X006661Y015766D02*
X000600Y015766D01*
X000600Y015925D02*
X006727Y015925D01*
X006793Y016083D02*
X006439Y016083D01*
X006589Y016242D02*
X006948Y016242D01*
X007170Y016400D02*
X006655Y016400D01*
X005761Y016083D02*
X005439Y016083D01*
X005589Y016242D02*
X005611Y016242D01*
X004761Y016083D02*
X002939Y016083D01*
X002923Y016067D02*
X003083Y016227D01*
X003170Y016437D01*
X003170Y016663D01*
X003083Y016873D01*
X002923Y017033D01*
X002713Y017120D01*
X002487Y017120D01*
X002277Y017033D01*
X002117Y016873D01*
X002100Y016832D01*
X002083Y016873D01*
X001923Y017033D01*
X001713Y017120D01*
X001487Y017120D01*
X001277Y017033D01*
X001117Y016873D01*
X001030Y016663D01*
X001030Y016437D01*
X001117Y016227D01*
X001277Y016067D01*
X001487Y015980D01*
X001713Y015980D01*
X001923Y016067D01*
X002083Y016227D01*
X002100Y016268D01*
X002117Y016227D01*
X002277Y016067D01*
X002487Y015980D01*
X002713Y015980D01*
X002923Y016067D01*
X003089Y016242D02*
X004611Y016242D01*
X004545Y016400D02*
X003155Y016400D01*
X003170Y016559D02*
X004530Y016559D01*
X004552Y016717D02*
X003148Y016717D01*
X003081Y016876D02*
X004619Y016876D01*
X004779Y017034D02*
X002921Y017034D01*
X002279Y017034D02*
X001921Y017034D01*
X002081Y016876D02*
X002119Y016876D01*
X001279Y017034D02*
X000600Y017034D01*
X000600Y016876D02*
X001119Y016876D01*
X001052Y016717D02*
X000600Y016717D01*
X000600Y016559D02*
X001030Y016559D01*
X001045Y016400D02*
X000600Y016400D01*
X000600Y016242D02*
X001111Y016242D01*
X001261Y016083D02*
X000600Y016083D01*
X001939Y016083D02*
X002261Y016083D01*
X002111Y016242D02*
X002089Y016242D01*
X005421Y017034D02*
X005779Y017034D01*
X005619Y016876D02*
X005581Y016876D01*
X005080Y018000D02*
X005080Y018530D01*
X004550Y018530D01*
X004550Y018507D01*
X004564Y018421D01*
X004590Y018339D01*
X004630Y018262D01*
X004680Y018192D01*
X004742Y018130D01*
X004812Y018080D01*
X004889Y018040D01*
X004971Y018014D01*
X005057Y018000D01*
X005080Y018000D01*
X005080Y018144D02*
X005120Y018144D01*
X005120Y018302D02*
X005080Y018302D01*
X005080Y018461D02*
X005120Y018461D01*
X005471Y018144D02*
X005700Y018144D01*
X004729Y018144D02*
X003000Y018144D01*
X003114Y018302D02*
X004609Y018302D01*
X004557Y018461D02*
X003170Y018461D01*
X003170Y018619D02*
X004554Y018619D01*
X004599Y018778D02*
X003123Y018778D01*
X003020Y018936D02*
X004708Y018936D01*
X002200Y018144D02*
X001971Y018144D01*
X001620Y018144D02*
X001580Y018144D01*
X001580Y018000D02*
X001580Y018530D01*
X001050Y018530D01*
X001050Y018507D01*
X001064Y018421D01*
X001090Y018339D01*
X001130Y018262D01*
X001180Y018192D01*
X001242Y018130D01*
X001312Y018080D01*
X001389Y018040D01*
X001471Y018014D01*
X001557Y018000D01*
X001580Y018000D01*
X001229Y018144D02*
X000600Y018144D01*
X000600Y018302D02*
X001109Y018302D01*
X001057Y018461D02*
X000600Y018461D01*
X000600Y018619D02*
X001054Y018619D01*
X001099Y018778D02*
X000600Y018778D01*
X000600Y018936D02*
X001208Y018936D01*
X001580Y018461D02*
X001620Y018461D01*
X001620Y018302D02*
X001580Y018302D01*
X008550Y015449D02*
X008570Y015449D01*
X008580Y015291D02*
X008521Y015291D01*
X008455Y015132D02*
X008597Y015132D01*
X008620Y014974D02*
X008367Y014974D01*
X008209Y014815D02*
X008652Y014815D01*
X008694Y014657D02*
X007925Y014657D01*
X014754Y014023D02*
X016667Y014023D01*
X016597Y014181D02*
X014832Y014181D01*
X014899Y014340D02*
X016590Y014340D01*
X016590Y014498D02*
X014957Y014498D01*
X015006Y014657D02*
X015775Y014657D01*
X015491Y014815D02*
X015048Y014815D01*
X015080Y014974D02*
X015333Y014974D01*
X015245Y015132D02*
X015103Y015132D01*
X015120Y015291D02*
X015179Y015291D01*
X015150Y015449D02*
X015130Y015449D01*
X016425Y014657D02*
X016590Y014657D01*
X017890Y015449D02*
X018249Y015449D01*
X018091Y015291D02*
X018048Y015291D01*
X020575Y014498D02*
X020741Y014498D01*
X020650Y014340D02*
X020575Y014340D01*
X020575Y014181D02*
X020650Y014181D01*
X020650Y014023D02*
X020575Y014023D01*
X020675Y013864D02*
X020779Y013864D01*
X020833Y013706D02*
X020937Y013706D01*
X019648Y012913D02*
X018026Y012913D01*
X017896Y013072D02*
X019490Y013072D01*
X019331Y013230D02*
X017760Y013230D01*
X017440Y013230D02*
X017109Y013230D01*
X017267Y013072D02*
X017304Y013072D01*
X016950Y013389D02*
X019173Y013389D01*
X019014Y013547D02*
X016792Y013547D01*
X016602Y013706D02*
X018856Y013706D01*
X018184Y012755D02*
X019807Y012755D01*
X019965Y012596D02*
X018343Y012596D01*
X018962Y012438D02*
X020124Y012438D01*
X020282Y012279D02*
X019121Y012279D01*
X019130Y012121D02*
X020441Y012121D01*
X020599Y011962D02*
X019130Y011962D01*
X019207Y011804D02*
X020758Y011804D01*
X023937Y012913D02*
X026510Y012913D01*
X026677Y012755D02*
X024039Y012755D01*
X026923Y012755D02*
X027907Y012755D01*
X028630Y011962D02*
X028699Y011962D01*
X028603Y011804D02*
X028858Y011804D01*
X029016Y011645D02*
X028445Y011645D01*
X027809Y011170D02*
X027391Y011170D01*
X027361Y011200D02*
X027191Y011270D01*
X027008Y011270D01*
X026839Y011200D01*
X026710Y011071D01*
X026640Y010901D01*
X026640Y010198D01*
X026710Y010029D01*
X026839Y009900D01*
X027008Y009830D01*
X027191Y009830D01*
X027361Y009900D01*
X027490Y010029D01*
X027560Y010198D01*
X027560Y010901D01*
X027490Y011071D01*
X027361Y011200D01*
X027515Y011011D02*
X027685Y011011D01*
X027640Y010853D02*
X027560Y010853D01*
X027560Y010694D02*
X027640Y010694D01*
X027640Y010536D02*
X027560Y010536D01*
X027560Y010377D02*
X027640Y010377D01*
X027640Y010219D02*
X027560Y010219D01*
X027503Y010060D02*
X027697Y010060D01*
X027838Y009902D02*
X027362Y009902D01*
X026838Y009902D02*
X026362Y009902D01*
X026503Y010060D02*
X026697Y010060D01*
X026640Y010219D02*
X026560Y010219D01*
X026560Y010377D02*
X026640Y010377D01*
X026640Y010536D02*
X026560Y010536D01*
X026560Y010694D02*
X026640Y010694D01*
X026640Y010853D02*
X026560Y010853D01*
X026515Y011011D02*
X026685Y011011D01*
X026809Y011170D02*
X026391Y011170D01*
X024809Y011170D02*
X024354Y011170D01*
X024491Y011011D02*
X024685Y011011D01*
X024640Y010853D02*
X024539Y010853D01*
X024540Y010694D02*
X024640Y010694D01*
X024640Y010536D02*
X024540Y010536D01*
X024540Y010377D02*
X024640Y010377D01*
X024640Y010219D02*
X024534Y010219D01*
X027373Y009426D02*
X028435Y009426D01*
X028594Y009268D02*
X027420Y009268D01*
X029805Y008634D02*
X030028Y008634D01*
X029964Y008475D02*
X030186Y008475D01*
X030122Y008317D02*
X030345Y008317D01*
X030403Y008158D02*
X030503Y008158D01*
X030519Y008000D02*
X030662Y008000D01*
X030640Y007841D02*
X030560Y007841D01*
X030560Y007683D02*
X030640Y007683D01*
X030640Y007524D02*
X030560Y007524D01*
X030560Y007366D02*
X030640Y007366D01*
X030640Y007207D02*
X030560Y007207D01*
X030498Y007049D02*
X030702Y007049D01*
X030864Y006890D02*
X030336Y006890D01*
X034719Y009585D02*
X037481Y009585D01*
X037516Y009550D02*
X037733Y009460D01*
X037967Y009460D01*
X038184Y009550D01*
X038350Y009716D01*
X038440Y009933D01*
X038440Y010167D01*
X038350Y010384D01*
X038184Y010550D01*
X037967Y010640D01*
X037733Y010640D01*
X037516Y010550D01*
X037350Y010384D01*
X037260Y010167D01*
X037260Y009933D01*
X037350Y009716D01*
X037516Y009550D01*
X037339Y009743D02*
X034861Y009743D01*
X034927Y009902D02*
X037273Y009902D01*
X037260Y010060D02*
X034940Y010060D01*
X034919Y010219D02*
X037281Y010219D01*
X037347Y010377D02*
X034853Y010377D01*
X034699Y010536D02*
X037501Y010536D01*
X038199Y010536D02*
X038600Y010536D01*
X038600Y010694D02*
X032687Y010694D01*
X032720Y010536D02*
X034001Y010536D01*
X033847Y010377D02*
X032675Y010377D01*
X032125Y010377D02*
X031560Y010377D01*
X031560Y010219D02*
X033781Y010219D01*
X033760Y010060D02*
X031503Y010060D01*
X031362Y009902D02*
X033773Y009902D01*
X032026Y010536D02*
X031560Y010536D01*
X031560Y010694D02*
X031867Y010694D01*
X031709Y010853D02*
X031560Y010853D01*
X031550Y011011D02*
X031515Y011011D01*
X031391Y011170D02*
X031392Y011170D01*
X033244Y012140D02*
X033244Y012140D01*
X031325Y013547D02*
X031310Y013547D01*
X031875Y015132D02*
X032124Y015132D01*
X031951Y015291D02*
X031875Y015291D01*
X031885Y015449D02*
X031790Y015449D01*
X031780Y015608D02*
X031878Y015608D01*
X031845Y015766D02*
X031927Y015766D01*
X029529Y015132D02*
X029434Y015132D01*
X029371Y015291D02*
X029223Y015291D01*
X027230Y015132D02*
X027190Y015132D01*
X027190Y014974D02*
X027230Y014974D01*
X027230Y014815D02*
X027190Y014815D01*
X026794Y015132D02*
X024707Y015132D01*
X024865Y014974D02*
X026698Y014974D01*
X026660Y014815D02*
X025024Y014815D01*
X025182Y014657D02*
X026671Y014657D01*
X026731Y014498D02*
X025341Y014498D01*
X025499Y014340D02*
X026867Y014340D01*
X021767Y017827D02*
X021433Y017827D01*
X021586Y017985D02*
X021614Y017985D01*
X020767Y017827D02*
X020433Y017827D01*
X020586Y017985D02*
X020614Y017985D01*
X019767Y017827D02*
X014212Y017827D01*
X014048Y017985D02*
X019614Y017985D01*
X019548Y018144D02*
X013858Y018144D01*
X013635Y018302D02*
X019530Y018302D01*
X019550Y018461D02*
X013364Y018461D01*
X013012Y018619D02*
X019615Y018619D01*
X017131Y017034D02*
X014775Y017034D01*
X014851Y016876D02*
X017080Y016876D01*
X017109Y016717D02*
X014917Y016717D01*
X014850Y007207D02*
X014850Y007207D01*
X014850Y007049D02*
X014850Y007049D01*
X014850Y006890D02*
X014850Y006890D01*
X014850Y006732D02*
X014850Y006732D01*
X014850Y006573D02*
X014850Y006573D01*
X014850Y006415D02*
X014850Y006415D01*
X014557Y006415D02*
X011914Y006415D01*
X011872Y006457D02*
X011695Y006530D01*
X011505Y006530D01*
X011328Y006457D01*
X011193Y006322D01*
X011120Y006145D01*
X011120Y005955D01*
X011193Y005778D01*
X011328Y005643D01*
X011505Y005570D01*
X011695Y005570D01*
X011872Y005643D01*
X012007Y005778D01*
X012080Y005955D01*
X012080Y006145D01*
X012007Y006322D01*
X011872Y006457D01*
X011851Y006573D02*
X012349Y006573D01*
X012190Y006732D02*
X012010Y006732D01*
X011349Y006573D02*
X010851Y006573D01*
X010872Y006457D02*
X010695Y006530D01*
X010505Y006530D01*
X010328Y006457D01*
X010193Y006322D01*
X010120Y006145D01*
X010120Y005955D01*
X010193Y005778D01*
X010328Y005643D01*
X010505Y005570D01*
X010695Y005570D01*
X010872Y005643D01*
X011007Y005778D01*
X011080Y005955D01*
X011080Y006145D01*
X011007Y006322D01*
X010872Y006457D01*
X010914Y006415D02*
X011286Y006415D01*
X011166Y006256D02*
X011034Y006256D01*
X011080Y006098D02*
X011120Y006098D01*
X011126Y005939D02*
X011074Y005939D01*
X011008Y005781D02*
X011192Y005781D01*
X011379Y005622D02*
X010821Y005622D01*
X010552Y005305D02*
X011648Y005305D01*
X011600Y005257D02*
X011600Y004843D01*
X011893Y004550D01*
X012307Y004550D01*
X012600Y004843D01*
X012600Y005257D01*
X012307Y005550D01*
X011893Y005550D01*
X011600Y005257D01*
X011600Y005147D02*
X010600Y005147D01*
X010600Y005257D02*
X010307Y005550D01*
X009893Y005550D01*
X009600Y005257D01*
X009600Y004843D01*
X009893Y004550D01*
X010307Y004550D01*
X010600Y004843D01*
X010600Y005257D01*
X010600Y004988D02*
X011600Y004988D01*
X011613Y004830D02*
X010587Y004830D01*
X010428Y004671D02*
X011772Y004671D01*
X011901Y004530D02*
X011620Y004249D01*
X011620Y004050D01*
X012100Y004050D01*
X012100Y004050D01*
X012100Y004530D01*
X012299Y004530D01*
X012580Y004249D01*
X012580Y004050D01*
X012100Y004050D01*
X012100Y004050D01*
X012100Y004050D01*
X012100Y004530D01*
X011901Y004530D01*
X011884Y004513D02*
X010316Y004513D01*
X010299Y004530D02*
X010100Y004530D01*
X010100Y004050D01*
X010100Y004050D01*
X010580Y004050D01*
X010580Y004249D01*
X010299Y004530D01*
X010100Y004530D02*
X009901Y004530D01*
X009620Y004249D01*
X009620Y004050D01*
X010100Y004050D01*
X010100Y004050D01*
X010100Y004050D01*
X010100Y004530D01*
X010100Y004513D02*
X010100Y004513D01*
X010100Y004354D02*
X010100Y004354D01*
X010100Y004196D02*
X010100Y004196D01*
X010100Y004050D02*
X009620Y004050D01*
X009620Y003851D01*
X009901Y003570D01*
X010100Y003570D01*
X010299Y003570D01*
X010580Y003851D01*
X010580Y004050D01*
X010100Y004050D01*
X010100Y003570D01*
X010100Y004050D01*
X010100Y004050D01*
X010100Y004037D02*
X010100Y004037D01*
X010100Y003879D02*
X010100Y003879D01*
X010100Y003720D02*
X010100Y003720D01*
X010449Y003720D02*
X011751Y003720D01*
X011620Y003851D02*
X011901Y003570D01*
X012100Y003570D01*
X012299Y003570D01*
X012580Y003851D01*
X012580Y004050D01*
X012100Y004050D01*
X012100Y003570D01*
X012100Y004050D01*
X012100Y004050D01*
X011620Y004050D01*
X011620Y003851D01*
X011620Y003879D02*
X010580Y003879D01*
X010580Y004037D02*
X011620Y004037D01*
X011620Y004196D02*
X010580Y004196D01*
X010475Y004354D02*
X011725Y004354D01*
X012100Y004354D02*
X012100Y004354D01*
X012100Y004196D02*
X012100Y004196D01*
X012100Y004037D02*
X012100Y004037D01*
X012100Y003879D02*
X012100Y003879D01*
X012100Y003720D02*
X012100Y003720D01*
X012449Y003720D02*
X017680Y003720D01*
X017570Y003879D02*
X012580Y003879D01*
X012580Y004037D02*
X017570Y004037D01*
X017570Y004196D02*
X012580Y004196D01*
X012475Y004354D02*
X017654Y004354D01*
X017813Y004513D02*
X012316Y004513D01*
X012428Y004671D02*
X018229Y004671D01*
X018071Y004830D02*
X012587Y004830D01*
X012600Y004988D02*
X018070Y004988D01*
X018070Y005147D02*
X012600Y005147D01*
X012552Y005305D02*
X018105Y005305D01*
X018264Y005464D02*
X012394Y005464D01*
X011806Y005464D02*
X010394Y005464D01*
X010379Y005622D02*
X002173Y005622D01*
X002194Y005464D02*
X009806Y005464D01*
X009648Y005305D02*
X002336Y005305D01*
X002400Y005147D02*
X009600Y005147D01*
X009600Y004988D02*
X002400Y004988D01*
X002350Y004830D02*
X009613Y004830D01*
X009772Y004671D02*
X002228Y004671D01*
X000972Y004671D02*
X000600Y004671D01*
X000600Y004513D02*
X009884Y004513D01*
X009725Y004354D02*
X000600Y004354D01*
X000600Y004196D02*
X009620Y004196D01*
X009620Y004037D02*
X000600Y004037D01*
X000600Y003879D02*
X009620Y003879D01*
X009751Y003720D02*
X000600Y003720D01*
X000600Y003562D02*
X001398Y003562D01*
X001491Y003600D02*
X001288Y003516D01*
X001134Y003362D01*
X001050Y003159D01*
X001050Y002941D01*
X001134Y002738D01*
X001288Y002584D01*
X001370Y002550D01*
X001288Y002516D01*
X001134Y002362D01*
X001050Y002159D01*
X001050Y001941D01*
X001134Y001738D01*
X001288Y001584D01*
X001491Y001500D01*
X001709Y001500D01*
X001912Y001584D01*
X002066Y001738D01*
X002150Y001941D01*
X002150Y002159D01*
X002066Y002362D01*
X001912Y002516D01*
X001830Y002550D01*
X001912Y002584D01*
X002066Y002738D01*
X002150Y002941D01*
X002150Y003159D01*
X002066Y003362D01*
X001912Y003516D01*
X001709Y003600D01*
X001491Y003600D01*
X001802Y003562D02*
X017362Y003562D01*
X017203Y003403D02*
X002025Y003403D01*
X002115Y003245D02*
X017070Y003245D01*
X017070Y003086D02*
X004261Y003086D01*
X004093Y003086D02*
X002150Y003086D01*
X002145Y002928D02*
X003407Y002928D01*
X003300Y002886D02*
X003300Y002886D01*
X003154Y002769D02*
X002079Y002769D01*
X001938Y002611D02*
X002955Y002611D01*
X002927Y002588D02*
X002927Y002588D01*
X002834Y002452D02*
X001976Y002452D01*
X002094Y002294D02*
X002726Y002294D01*
X002640Y002135D02*
X002150Y002135D01*
X002150Y001977D02*
X002591Y001977D01*
X002542Y001818D02*
X002099Y001818D01*
X001987Y001660D02*
X002518Y001660D01*
X002518Y001501D02*
X001712Y001501D01*
X001488Y001501D02*
X000600Y001501D01*
X000600Y001343D02*
X002518Y001343D01*
X002542Y001184D02*
X000600Y001184D01*
X000600Y001026D02*
X002591Y001026D01*
X002640Y000867D02*
X000600Y000867D01*
X000600Y001660D02*
X001213Y001660D01*
X001101Y001818D02*
X000600Y001818D01*
X000600Y001977D02*
X001050Y001977D01*
X001050Y002135D02*
X000600Y002135D01*
X000600Y002294D02*
X001106Y002294D01*
X001224Y002452D02*
X000600Y002452D01*
X000600Y002611D02*
X001262Y002611D01*
X001121Y002769D02*
X000600Y002769D01*
X000600Y002928D02*
X001055Y002928D01*
X001050Y003086D02*
X000600Y003086D01*
X000600Y003245D02*
X001085Y003245D01*
X001175Y003403D02*
X000600Y003403D01*
X000600Y004830D02*
X000850Y004830D01*
X000800Y004988D02*
X000600Y004988D01*
X000600Y005147D02*
X000800Y005147D01*
X000864Y005305D02*
X000600Y005305D01*
X000600Y005464D02*
X001006Y005464D01*
X001027Y005622D02*
X000600Y005622D01*
X000600Y005781D02*
X000870Y005781D01*
X000805Y005939D02*
X000600Y005939D01*
X000600Y006098D02*
X000800Y006098D01*
X000844Y006256D02*
X000600Y006256D01*
X001957Y006573D02*
X010349Y006573D01*
X010286Y006415D02*
X002243Y006415D01*
X002356Y006256D02*
X010166Y006256D01*
X010120Y006098D02*
X002400Y006098D01*
X002395Y005939D02*
X010126Y005939D01*
X010192Y005781D02*
X002330Y005781D01*
X002260Y006732D02*
X010190Y006732D01*
X011010Y006732D02*
X011190Y006732D01*
X012034Y006256D02*
X015274Y006256D01*
X015526Y006256D02*
X018570Y006256D01*
X018570Y006098D02*
X012080Y006098D01*
X012074Y005939D02*
X018570Y005939D01*
X018620Y005781D02*
X012008Y005781D01*
X011821Y005622D02*
X018778Y005622D01*
X018361Y003562D02*
X020362Y003562D01*
X020203Y003403D02*
X017997Y003403D01*
X018130Y003245D02*
X020070Y003245D01*
X020070Y003086D02*
X018130Y003086D01*
X018130Y002928D02*
X020070Y002928D01*
X020131Y002769D02*
X018069Y002769D01*
X017910Y002611D02*
X020290Y002611D01*
X017838Y003562D02*
X017839Y003562D01*
X017070Y002928D02*
X004792Y002928D01*
X004685Y002989D02*
X004685Y002989D01*
X005066Y002769D02*
X017131Y002769D01*
X021704Y001184D02*
X023287Y001184D01*
X023580Y001184D02*
X023620Y001184D01*
X023620Y001343D02*
X023580Y001343D01*
X023580Y001501D02*
X023620Y001501D01*
X023620Y001660D02*
X023580Y001660D01*
X023580Y001818D02*
X023620Y001818D01*
X023620Y001977D02*
X023580Y001977D01*
X023852Y001977D02*
X023938Y001977D01*
X023892Y002135D02*
X024096Y002135D01*
X024051Y002294D02*
X024149Y002294D01*
X024100Y002343D02*
X024100Y002661D01*
X024100Y002661D01*
X024100Y002343D01*
X024100Y002452D02*
X024100Y002452D01*
X024100Y002611D02*
X024100Y002611D01*
X023149Y002294D02*
X005474Y002294D01*
X012100Y004513D02*
X012100Y004513D01*
X012851Y006573D02*
X013377Y006573D01*
X013218Y006732D02*
X013010Y006732D01*
X023913Y001184D02*
X024259Y001184D01*
X024941Y001184D02*
X025259Y001184D01*
X025100Y001343D02*
X025100Y001343D01*
X025100Y001757D01*
X025118Y001775D01*
X025082Y001775D01*
X025100Y001757D01*
X025100Y001343D01*
X025100Y001501D02*
X025100Y001501D01*
X025100Y001660D02*
X025100Y001660D01*
X028424Y000867D02*
X028811Y000867D01*
X028676Y001026D02*
X028548Y001026D01*
X028600Y001184D02*
X028624Y001184D01*
X028620Y001343D02*
X028600Y001343D01*
X028600Y001501D02*
X028620Y001501D01*
X028620Y001660D02*
X028600Y001660D01*
X028600Y001818D02*
X028620Y001818D01*
X028636Y001977D02*
X028589Y001977D01*
X028638Y002135D02*
X028714Y002135D01*
X028720Y002294D02*
X028913Y002294D01*
X029080Y002294D02*
X029120Y002294D01*
X029120Y002330D02*
X029120Y001570D01*
X029580Y001570D01*
X029580Y001888D01*
X029568Y001962D01*
X029545Y002034D01*
X029511Y002102D01*
X029466Y002163D01*
X029413Y002216D01*
X029352Y002261D01*
X029284Y002295D01*
X029212Y002318D01*
X029138Y002330D01*
X029120Y002330D01*
X029287Y002294D02*
X029864Y002294D01*
X029678Y002135D02*
X029486Y002135D01*
X029564Y001977D02*
X029611Y001977D01*
X029600Y001818D02*
X029580Y001818D01*
X029580Y001660D02*
X029600Y001660D01*
X029600Y001501D02*
X029580Y001501D01*
X029580Y001343D02*
X029600Y001343D01*
X029600Y001184D02*
X029576Y001184D01*
X029524Y001026D02*
X029652Y001026D01*
X029776Y000867D02*
X029389Y000867D01*
X030320Y000800D02*
X030383Y000826D01*
X030524Y000967D01*
X030600Y001151D01*
X030600Y001949D01*
X030600Y001151D01*
X030676Y000967D01*
X030817Y000826D01*
X030880Y000800D01*
X030320Y000800D01*
X030424Y000867D02*
X030776Y000867D01*
X030652Y001026D02*
X030548Y001026D01*
X030600Y001184D02*
X030600Y001184D01*
X030600Y001343D02*
X030600Y001343D01*
X030600Y001501D02*
X030600Y001501D01*
X030600Y001660D02*
X030600Y001660D01*
X030600Y001818D02*
X030600Y001818D01*
X030589Y001977D02*
X030611Y001977D01*
X030678Y002135D02*
X030522Y002135D01*
X030336Y002294D02*
X030864Y002294D01*
X031291Y002452D02*
X032334Y002452D01*
X032427Y002588D02*
X032427Y002588D01*
X032427Y002588D01*
X032455Y002611D02*
X031449Y002611D01*
X031608Y002769D02*
X032654Y002769D01*
X032800Y002886D02*
X032800Y002886D01*
X032907Y002928D02*
X031766Y002928D01*
X031989Y003086D02*
X033593Y003086D01*
X033761Y003086D02*
X038600Y003086D01*
X038600Y002928D02*
X034292Y002928D01*
X034566Y002769D02*
X038600Y002769D01*
X038600Y002611D02*
X038133Y002611D01*
X038088Y002656D02*
X037934Y002720D01*
X037766Y002720D01*
X037612Y002656D01*
X037494Y002538D01*
X037430Y002384D01*
X037430Y002216D01*
X037494Y002062D01*
X037612Y001944D01*
X037766Y001880D01*
X037934Y001880D01*
X038088Y001944D01*
X038206Y002062D01*
X038270Y002216D01*
X038270Y002384D01*
X038206Y002538D01*
X038088Y002656D01*
X038242Y002452D02*
X038600Y002452D01*
X038600Y002294D02*
X038270Y002294D01*
X038236Y002135D02*
X038600Y002135D01*
X038600Y001977D02*
X038120Y001977D01*
X038600Y001818D02*
X035152Y001818D01*
X035129Y001972D02*
X035129Y001972D01*
X035127Y001977D02*
X035614Y001977D01*
X035595Y001989D02*
X035661Y001946D01*
X035733Y001915D01*
X035811Y001900D01*
X035850Y001900D01*
X035889Y001900D01*
X035967Y001915D01*
X036039Y001946D01*
X036105Y001989D01*
X036161Y002045D01*
X036204Y002111D01*
X036235Y002183D01*
X036250Y002261D01*
X036250Y002300D01*
X036250Y002339D01*
X036235Y002417D01*
X036204Y002489D01*
X036161Y002555D01*
X036105Y002611D01*
X036039Y002654D01*
X035967Y002685D01*
X035889Y002700D01*
X035850Y002700D01*
X035850Y002300D01*
X035850Y002300D01*
X036250Y002300D01*
X035850Y002300D01*
X035850Y002300D01*
X035850Y002300D01*
X035450Y002300D01*
X035450Y002339D01*
X035465Y002417D01*
X035496Y002489D01*
X035539Y002555D01*
X035595Y002611D01*
X035661Y002654D01*
X035733Y002685D01*
X035811Y002700D01*
X035850Y002700D01*
X035850Y002300D01*
X035850Y001900D01*
X035850Y002300D01*
X035850Y002300D01*
X035450Y002300D01*
X035450Y002261D01*
X035465Y002183D01*
X035496Y002111D01*
X035539Y002045D01*
X035595Y001989D01*
X035485Y002135D02*
X035050Y002135D01*
X034974Y002294D02*
X035450Y002294D01*
X035480Y002452D02*
X034875Y002452D01*
X034922Y002401D02*
X034922Y002401D01*
X034728Y002611D02*
X035595Y002611D01*
X035850Y002611D02*
X035850Y002611D01*
X035850Y002452D02*
X035850Y002452D01*
X035850Y002294D02*
X035850Y002294D01*
X035850Y002135D02*
X035850Y002135D01*
X035850Y001977D02*
X035850Y001977D01*
X036086Y001977D02*
X037580Y001977D01*
X037464Y002135D02*
X036215Y002135D01*
X036250Y002294D02*
X037430Y002294D01*
X037458Y002452D02*
X036220Y002452D01*
X036105Y002611D02*
X037567Y002611D01*
X038600Y003245D02*
X032103Y003245D01*
X032120Y003403D02*
X038600Y003403D01*
X038600Y001660D02*
X037080Y001660D01*
X037088Y001656D02*
X036934Y001720D01*
X036766Y001720D01*
X036612Y001656D01*
X036494Y001538D01*
X036430Y001384D01*
X036430Y001216D01*
X036494Y001062D01*
X036612Y000944D01*
X036766Y000880D01*
X036934Y000880D01*
X037088Y000944D01*
X037206Y001062D01*
X037270Y001216D01*
X037270Y001384D01*
X037206Y001538D01*
X037088Y001656D01*
X037221Y001501D02*
X038600Y001501D01*
X038600Y001343D02*
X037270Y001343D01*
X037257Y001184D02*
X038600Y001184D01*
X038600Y001026D02*
X037169Y001026D01*
X036531Y001026D02*
X035128Y001026D01*
X035152Y001184D02*
X036443Y001184D01*
X036430Y001343D02*
X035176Y001343D01*
X035200Y001501D02*
X036479Y001501D01*
X036620Y001660D02*
X035176Y001660D01*
X035051Y000867D02*
X038542Y000867D01*
X032158Y000806D02*
X032158Y000806D01*
X032140Y000867D02*
X031424Y000867D01*
X031548Y001026D02*
X032091Y001026D01*
X032042Y001184D02*
X031600Y001184D01*
X031600Y001343D02*
X032018Y001343D01*
X032018Y001501D02*
X031600Y001501D01*
X031600Y001660D02*
X032018Y001660D01*
X032042Y001818D02*
X031600Y001818D01*
X031589Y001977D02*
X032091Y001977D01*
X032140Y002135D02*
X031522Y002135D01*
X031336Y002294D02*
X032226Y002294D01*
X032158Y002194D02*
X032158Y002194D01*
X029120Y002135D02*
X029080Y002135D01*
X029080Y001977D02*
X029120Y001977D01*
X029120Y001818D02*
X029080Y001818D01*
X029080Y001660D02*
X029120Y001660D01*
X038219Y009585D02*
X038600Y009585D01*
X038600Y009743D02*
X038361Y009743D01*
X038427Y009902D02*
X038600Y009902D01*
X038600Y010060D02*
X038440Y010060D01*
X038419Y010219D02*
X038600Y010219D01*
X038600Y010377D02*
X038353Y010377D01*
X037969Y014340D02*
X037932Y014340D01*
X037932Y014498D02*
X037969Y014498D01*
X035158Y014498D02*
X034972Y014498D01*
M02*
