G75*
%MOIN*%
%OFA0B0*%
%FSLAX24Y24*%
%IPPOS*%
%LPD*%
%AMOC8*
5,1,8,0,0,1.08239X$1,22.5*
%
%ADD10C,0.0000*%
%ADD11C,0.1500*%
%ADD12C,0.0520*%
%ADD13OC8,0.0630*%
%ADD14C,0.0560*%
%ADD15OC8,0.0660*%
%ADD16OC8,0.0600*%
%ADD17R,0.0600X0.0600*%
%ADD18C,0.0630*%
%ADD19C,0.0660*%
%ADD20C,0.0740*%
%ADD21R,0.0472X0.0217*%
%ADD22C,0.0780*%
%ADD23C,0.1000*%
%ADD24R,0.0250X0.0500*%
%ADD25R,0.0591X0.0551*%
%ADD26R,0.0591X0.0512*%
%ADD27R,0.0689X0.0276*%
%ADD28R,0.0800X0.0276*%
%ADD29R,0.0591X0.0315*%
%ADD30R,0.0394X0.0551*%
%ADD31R,0.0551X0.0315*%
%ADD32R,0.0610X0.0394*%
%ADD33R,0.0740X0.0740*%
%ADD34C,0.0600*%
%ADD35C,0.0700*%
%ADD36C,0.0590*%
%ADD37R,0.0590X0.0590*%
%ADD38OC8,0.1000*%
%ADD39R,0.0500X0.0250*%
%ADD40C,0.0440*%
%ADD41C,0.0900*%
%ADD42C,0.0320*%
%ADD43C,0.0150*%
%ADD44C,0.0240*%
%ADD45C,0.0240*%
D10*
X000100Y000550D02*
X000100Y019546D01*
X038970Y019546D01*
X038970Y000550D01*
X000100Y000550D01*
X003509Y001500D02*
X003511Y001548D01*
X003517Y001596D01*
X003527Y001643D01*
X003540Y001689D01*
X003558Y001734D01*
X003578Y001778D01*
X003603Y001820D01*
X003631Y001859D01*
X003661Y001896D01*
X003695Y001930D01*
X003732Y001962D01*
X003770Y001991D01*
X003811Y002016D01*
X003854Y002038D01*
X003899Y002056D01*
X003945Y002070D01*
X003992Y002081D01*
X004040Y002088D01*
X004088Y002091D01*
X004136Y002090D01*
X004184Y002085D01*
X004232Y002076D01*
X004278Y002064D01*
X004323Y002047D01*
X004367Y002027D01*
X004409Y002004D01*
X004449Y001977D01*
X004487Y001947D01*
X004522Y001914D01*
X004554Y001878D01*
X004584Y001840D01*
X004610Y001799D01*
X004632Y001756D01*
X004652Y001712D01*
X004667Y001667D01*
X004679Y001620D01*
X004687Y001572D01*
X004691Y001524D01*
X004691Y001476D01*
X004687Y001428D01*
X004679Y001380D01*
X004667Y001333D01*
X004652Y001288D01*
X004632Y001244D01*
X004610Y001201D01*
X004584Y001160D01*
X004554Y001122D01*
X004522Y001086D01*
X004487Y001053D01*
X004449Y001023D01*
X004409Y000996D01*
X004367Y000973D01*
X004323Y000953D01*
X004278Y000936D01*
X004232Y000924D01*
X004184Y000915D01*
X004136Y000910D01*
X004088Y000909D01*
X004040Y000912D01*
X003992Y000919D01*
X003945Y000930D01*
X003899Y000944D01*
X003854Y000962D01*
X003811Y000984D01*
X003770Y001009D01*
X003732Y001038D01*
X003695Y001070D01*
X003661Y001104D01*
X003631Y001141D01*
X003603Y001180D01*
X003578Y001222D01*
X003558Y001266D01*
X003540Y001311D01*
X003527Y001357D01*
X003517Y001404D01*
X003511Y001452D01*
X003509Y001500D01*
X003509Y013700D02*
X003511Y013748D01*
X003517Y013796D01*
X003527Y013843D01*
X003540Y013889D01*
X003558Y013934D01*
X003578Y013978D01*
X003603Y014020D01*
X003631Y014059D01*
X003661Y014096D01*
X003695Y014130D01*
X003732Y014162D01*
X003770Y014191D01*
X003811Y014216D01*
X003854Y014238D01*
X003899Y014256D01*
X003945Y014270D01*
X003992Y014281D01*
X004040Y014288D01*
X004088Y014291D01*
X004136Y014290D01*
X004184Y014285D01*
X004232Y014276D01*
X004278Y014264D01*
X004323Y014247D01*
X004367Y014227D01*
X004409Y014204D01*
X004449Y014177D01*
X004487Y014147D01*
X004522Y014114D01*
X004554Y014078D01*
X004584Y014040D01*
X004610Y013999D01*
X004632Y013956D01*
X004652Y013912D01*
X004667Y013867D01*
X004679Y013820D01*
X004687Y013772D01*
X004691Y013724D01*
X004691Y013676D01*
X004687Y013628D01*
X004679Y013580D01*
X004667Y013533D01*
X004652Y013488D01*
X004632Y013444D01*
X004610Y013401D01*
X004584Y013360D01*
X004554Y013322D01*
X004522Y013286D01*
X004487Y013253D01*
X004449Y013223D01*
X004409Y013196D01*
X004367Y013173D01*
X004323Y013153D01*
X004278Y013136D01*
X004232Y013124D01*
X004184Y013115D01*
X004136Y013110D01*
X004088Y013109D01*
X004040Y013112D01*
X003992Y013119D01*
X003945Y013130D01*
X003899Y013144D01*
X003854Y013162D01*
X003811Y013184D01*
X003770Y013209D01*
X003732Y013238D01*
X003695Y013270D01*
X003661Y013304D01*
X003631Y013341D01*
X003603Y013380D01*
X003578Y013422D01*
X003558Y013466D01*
X003540Y013511D01*
X003527Y013557D01*
X003517Y013604D01*
X003511Y013652D01*
X003509Y013700D01*
X033009Y013700D02*
X033011Y013748D01*
X033017Y013796D01*
X033027Y013843D01*
X033040Y013889D01*
X033058Y013934D01*
X033078Y013978D01*
X033103Y014020D01*
X033131Y014059D01*
X033161Y014096D01*
X033195Y014130D01*
X033232Y014162D01*
X033270Y014191D01*
X033311Y014216D01*
X033354Y014238D01*
X033399Y014256D01*
X033445Y014270D01*
X033492Y014281D01*
X033540Y014288D01*
X033588Y014291D01*
X033636Y014290D01*
X033684Y014285D01*
X033732Y014276D01*
X033778Y014264D01*
X033823Y014247D01*
X033867Y014227D01*
X033909Y014204D01*
X033949Y014177D01*
X033987Y014147D01*
X034022Y014114D01*
X034054Y014078D01*
X034084Y014040D01*
X034110Y013999D01*
X034132Y013956D01*
X034152Y013912D01*
X034167Y013867D01*
X034179Y013820D01*
X034187Y013772D01*
X034191Y013724D01*
X034191Y013676D01*
X034187Y013628D01*
X034179Y013580D01*
X034167Y013533D01*
X034152Y013488D01*
X034132Y013444D01*
X034110Y013401D01*
X034084Y013360D01*
X034054Y013322D01*
X034022Y013286D01*
X033987Y013253D01*
X033949Y013223D01*
X033909Y013196D01*
X033867Y013173D01*
X033823Y013153D01*
X033778Y013136D01*
X033732Y013124D01*
X033684Y013115D01*
X033636Y013110D01*
X033588Y013109D01*
X033540Y013112D01*
X033492Y013119D01*
X033445Y013130D01*
X033399Y013144D01*
X033354Y013162D01*
X033311Y013184D01*
X033270Y013209D01*
X033232Y013238D01*
X033195Y013270D01*
X033161Y013304D01*
X033131Y013341D01*
X033103Y013380D01*
X033078Y013422D01*
X033058Y013466D01*
X033040Y013511D01*
X033027Y013557D01*
X033017Y013604D01*
X033011Y013652D01*
X033009Y013700D01*
X033009Y001500D02*
X033011Y001548D01*
X033017Y001596D01*
X033027Y001643D01*
X033040Y001689D01*
X033058Y001734D01*
X033078Y001778D01*
X033103Y001820D01*
X033131Y001859D01*
X033161Y001896D01*
X033195Y001930D01*
X033232Y001962D01*
X033270Y001991D01*
X033311Y002016D01*
X033354Y002038D01*
X033399Y002056D01*
X033445Y002070D01*
X033492Y002081D01*
X033540Y002088D01*
X033588Y002091D01*
X033636Y002090D01*
X033684Y002085D01*
X033732Y002076D01*
X033778Y002064D01*
X033823Y002047D01*
X033867Y002027D01*
X033909Y002004D01*
X033949Y001977D01*
X033987Y001947D01*
X034022Y001914D01*
X034054Y001878D01*
X034084Y001840D01*
X034110Y001799D01*
X034132Y001756D01*
X034152Y001712D01*
X034167Y001667D01*
X034179Y001620D01*
X034187Y001572D01*
X034191Y001524D01*
X034191Y001476D01*
X034187Y001428D01*
X034179Y001380D01*
X034167Y001333D01*
X034152Y001288D01*
X034132Y001244D01*
X034110Y001201D01*
X034084Y001160D01*
X034054Y001122D01*
X034022Y001086D01*
X033987Y001053D01*
X033949Y001023D01*
X033909Y000996D01*
X033867Y000973D01*
X033823Y000953D01*
X033778Y000936D01*
X033732Y000924D01*
X033684Y000915D01*
X033636Y000910D01*
X033588Y000909D01*
X033540Y000912D01*
X033492Y000919D01*
X033445Y000930D01*
X033399Y000944D01*
X033354Y000962D01*
X033311Y000984D01*
X033270Y001009D01*
X033232Y001038D01*
X033195Y001070D01*
X033161Y001104D01*
X033131Y001141D01*
X033103Y001180D01*
X033078Y001222D01*
X033058Y001266D01*
X033040Y001311D01*
X033027Y001357D01*
X033017Y001404D01*
X033011Y001452D01*
X033009Y001500D01*
D11*
X016100Y015550D03*
X007600Y015550D03*
D12*
X017050Y014810D02*
X017050Y014290D01*
X017050Y011810D02*
X017050Y011290D01*
X018100Y010810D02*
X018100Y010290D01*
X019100Y010290D02*
X019100Y010810D01*
X020100Y010810D02*
X020100Y010290D01*
X021100Y010290D02*
X021100Y010810D01*
X022100Y010810D02*
X022100Y010290D01*
X023100Y010290D02*
X023100Y010810D01*
X024100Y010810D02*
X024100Y010290D01*
X025100Y010290D02*
X025100Y010810D01*
X026100Y010810D02*
X026100Y010290D01*
X027100Y010290D02*
X027100Y010810D01*
X028100Y010810D02*
X028100Y010290D01*
X029100Y010290D02*
X029100Y010810D01*
X030100Y010810D02*
X030100Y010290D01*
X031100Y010290D02*
X031100Y010810D01*
X031100Y007810D02*
X031100Y007290D01*
X030100Y007290D02*
X030100Y007810D01*
X029100Y007810D02*
X029100Y007290D01*
X028100Y007290D02*
X028100Y007810D01*
X027100Y007810D02*
X027100Y007290D01*
X026100Y007290D02*
X026100Y007810D01*
X025100Y007810D02*
X025100Y007290D01*
X024100Y007290D02*
X024100Y007810D01*
X023100Y007810D02*
X023100Y007290D01*
X022100Y007290D02*
X022100Y007810D01*
X021100Y007810D02*
X021100Y007290D01*
X020100Y007290D02*
X020100Y007810D01*
X019100Y007810D02*
X019100Y007290D01*
X018100Y007290D02*
X018100Y007810D01*
D13*
X013600Y007050D03*
X012600Y007050D03*
X011600Y007050D03*
X010600Y007050D03*
X010600Y010050D03*
X011600Y010050D03*
X012600Y010050D03*
X013600Y010050D03*
X032400Y018250D03*
X035600Y018050D03*
D14*
X011600Y006050D03*
X010600Y006050D03*
D15*
X016300Y007800D03*
X019100Y006050D03*
X018600Y005050D03*
X018100Y004050D03*
X017600Y003050D03*
X020600Y003050D03*
X021100Y004050D03*
X021600Y005050D03*
X022100Y006050D03*
X027600Y005800D03*
X030600Y005800D03*
X031600Y004300D03*
X028600Y004300D03*
X016300Y010800D03*
X018600Y012050D03*
X018600Y015050D03*
X028100Y012050D03*
X031100Y012050D03*
X007100Y012550D03*
X006100Y012550D03*
X006100Y009550D03*
X007100Y009550D03*
D16*
X009100Y009050D03*
X009100Y008050D03*
X014850Y007800D03*
X014850Y006800D03*
X012100Y005050D03*
X012100Y004050D03*
X010100Y004050D03*
X010100Y005050D03*
X023450Y006350D03*
X024450Y006350D03*
X024100Y005300D03*
X025100Y005300D03*
X024600Y002550D03*
X023600Y002550D03*
X023600Y001550D03*
X024600Y001550D03*
X025600Y001550D03*
X030100Y013050D03*
X031100Y013050D03*
X024100Y014200D03*
X023100Y014200D03*
X022150Y014200D03*
X021150Y014200D03*
D17*
X025600Y002550D03*
D18*
X035600Y017050D03*
X031400Y018250D03*
D19*
X023550Y012550D03*
X021650Y012550D03*
D20*
X027210Y014770D03*
X028990Y014770D03*
X025100Y016050D03*
X024100Y016050D03*
X023100Y016050D03*
X022100Y016050D03*
X021100Y016050D03*
X020100Y016050D03*
X020100Y018300D03*
X021100Y018300D03*
X022100Y018300D03*
X023100Y018300D03*
X024100Y018300D03*
X025100Y018300D03*
X027210Y017330D03*
X028990Y017330D03*
X006100Y016550D03*
X005100Y016550D03*
X002600Y016550D03*
X001600Y016550D03*
X001600Y018550D03*
X002600Y018550D03*
X005100Y018550D03*
X006100Y018550D03*
X007252Y001498D03*
X008252Y001498D03*
X009252Y001498D03*
X010252Y001498D03*
X011252Y001498D03*
X012252Y001498D03*
X013252Y001498D03*
X014252Y001498D03*
X015252Y001498D03*
X016252Y001498D03*
X017252Y001498D03*
X018252Y001498D03*
X019252Y001498D03*
X020252Y001498D03*
X021252Y001498D03*
D21*
X033088Y016176D03*
X034112Y016176D03*
X034112Y016550D03*
X034112Y016924D03*
X033088Y016924D03*
D22*
X034350Y010050D03*
X037850Y010050D03*
D23*
X037269Y011542D02*
X036269Y011542D01*
X035588Y012971D02*
X035588Y013971D01*
X037950Y013971D02*
X037950Y012971D01*
D24*
X034027Y018300D03*
X033673Y018300D03*
D25*
X038083Y008687D03*
D26*
X038083Y004238D03*
D27*
X038123Y004730D03*
X038123Y005143D03*
X038123Y006009D03*
X038123Y006876D03*
X038123Y007309D03*
X038123Y007742D03*
D28*
X038123Y006443D03*
X038123Y005576D03*
D29*
X035091Y004120D03*
D30*
X034501Y004238D03*
D31*
X034835Y008805D03*
D32*
X033871Y008667D03*
D33*
X006252Y001498D03*
D34*
X001900Y005050D02*
X001300Y005050D01*
X001300Y006050D02*
X001900Y006050D01*
X001900Y007050D02*
X001300Y007050D01*
X028100Y001850D02*
X028100Y001250D01*
X029100Y001250D02*
X029100Y001850D01*
X030100Y001850D02*
X030100Y001250D01*
X031100Y001250D02*
X031100Y001850D01*
D35*
X001600Y002050D03*
X001600Y003050D03*
X001600Y012550D03*
X001600Y013550D03*
X027600Y018550D03*
X028600Y018550D03*
D36*
X032350Y015550D03*
D37*
X031350Y016050D03*
X032350Y016550D03*
D38*
X037600Y016550D03*
X037600Y018050D03*
D39*
X032850Y011150D03*
X032850Y010800D03*
X032850Y010450D03*
X032600Y008227D03*
X032600Y007873D03*
D40*
X035850Y002300D03*
X037850Y002300D03*
X036850Y001300D03*
D41*
X001600Y009050D03*
X001606Y010550D03*
D42*
X009100Y009550D02*
X009100Y009050D01*
X009100Y009550D02*
X009600Y010050D01*
X010600Y010050D01*
X012600Y008550D02*
X015350Y008550D01*
X015600Y008300D01*
X015600Y007300D01*
X015100Y006800D01*
X014850Y006800D01*
X014600Y006550D01*
X014100Y006550D01*
X013600Y007050D01*
X013350Y006800D01*
X013350Y006550D01*
X012850Y006050D01*
X012850Y004800D01*
X012100Y004050D01*
X010100Y004050D01*
X009850Y004050D01*
X009100Y004800D01*
X009100Y008050D01*
X012100Y008050D01*
X012600Y008550D01*
X012850Y007800D02*
X012600Y007550D01*
X012600Y007050D01*
X011600Y007050D02*
X011600Y006050D01*
X012100Y005550D01*
X012100Y005050D01*
X010600Y006050D02*
X010100Y005550D01*
X010100Y005050D01*
X010600Y006050D02*
X010600Y007050D01*
X012850Y007800D02*
X014850Y007800D01*
X022100Y010550D02*
X022100Y012050D01*
X021650Y012500D01*
X021650Y012550D01*
X021600Y012550D01*
X021100Y013050D01*
X021100Y014150D01*
X021150Y014200D01*
X022150Y014200D02*
X023100Y014200D01*
X023100Y014550D01*
X023600Y015050D01*
X024600Y015050D01*
X024850Y014800D01*
X024850Y012800D01*
X024100Y012050D01*
X024100Y010550D01*
X024100Y009550D01*
X025100Y008550D01*
X025100Y007550D01*
X025100Y006800D01*
X024900Y006800D01*
X024450Y006350D01*
X024550Y006350D01*
X025100Y005800D01*
X025100Y005300D01*
X023450Y006350D02*
X023100Y006700D01*
X023100Y007550D01*
X023100Y010550D02*
X023100Y012100D01*
X023550Y012550D01*
X023600Y012550D01*
X024100Y013050D01*
X024100Y014200D01*
X031350Y015300D02*
X031350Y016050D01*
X031350Y015300D02*
X031475Y015175D01*
X031475Y015050D01*
X031600Y014925D01*
X031600Y014175D01*
X031725Y014050D01*
X031725Y013925D01*
X031850Y013800D01*
X031850Y013425D01*
X031975Y013300D01*
X031975Y012925D01*
X032100Y012800D01*
X032100Y012550D01*
X032850Y011800D01*
X033850Y011800D01*
X034300Y011350D01*
X034300Y010050D01*
X036800Y011550D02*
X036800Y015750D01*
X037600Y016550D01*
X037100Y011550D02*
X036800Y011550D01*
X037100Y011550D02*
X037850Y010800D01*
X037850Y010050D01*
D43*
X038000Y008750D02*
X038083Y008687D01*
X036300Y007750D02*
X036200Y007850D01*
X034100Y007850D01*
X034100Y007150D01*
X032100Y005150D01*
X032100Y004050D01*
X031400Y003350D01*
X031800Y003350D02*
X035600Y003350D01*
X036600Y004350D01*
X036600Y005050D01*
X038100Y005050D01*
X038123Y005143D01*
X038100Y005550D02*
X037200Y005550D01*
X036300Y005550D01*
X036300Y004450D01*
X036000Y004150D01*
X035100Y004150D01*
X035091Y004120D01*
X035000Y004150D01*
X034600Y004150D01*
X034501Y004238D01*
X035700Y003050D02*
X031600Y003050D01*
X031600Y001050D01*
X031300Y000750D01*
X027200Y000750D01*
X027200Y003750D01*
X026300Y004450D02*
X024950Y003100D01*
X024900Y003150D01*
X024900Y003250D01*
X022100Y006050D01*
X022100Y007550D01*
X021600Y007050D02*
X021600Y005050D01*
X023600Y003050D01*
X024100Y003050D01*
X024100Y002350D01*
X024400Y002050D01*
X025600Y002050D01*
X025600Y002550D01*
X024950Y003100D02*
X024600Y002750D01*
X024600Y002550D01*
X024000Y002050D02*
X024600Y001450D01*
X024600Y001550D01*
X024600Y001450D02*
X024600Y001050D01*
X025800Y001050D01*
X026600Y001850D01*
X026600Y006450D01*
X027600Y005800D02*
X027600Y005350D01*
X028150Y004800D01*
X028100Y004750D01*
X028100Y001550D01*
X026900Y001750D02*
X025900Y000750D01*
X017300Y000750D01*
X017300Y001450D01*
X017252Y001498D01*
X017000Y002250D02*
X016300Y001550D01*
X016252Y001498D01*
X017000Y000850D02*
X005900Y000850D01*
X005700Y001050D01*
X005700Y003050D01*
X001600Y003050D01*
X001000Y002650D02*
X001600Y002050D01*
X001000Y002650D02*
X001000Y004450D01*
X001600Y005050D01*
X008000Y005050D01*
X008000Y002250D01*
X007300Y001550D01*
X007252Y001498D01*
X008252Y001498D02*
X008300Y001550D01*
X008300Y002350D01*
X011200Y002350D01*
X015400Y006550D01*
X016000Y006750D02*
X011300Y002050D01*
X009300Y002050D01*
X009300Y001550D01*
X009252Y001498D01*
X011252Y001498D02*
X011300Y001550D01*
X016700Y006950D01*
X016700Y007250D02*
X016000Y007250D01*
X016000Y006750D01*
X017400Y007250D02*
X017400Y010250D01*
X016100Y010250D01*
X015800Y010550D01*
X011100Y010550D01*
X010600Y010050D01*
X009100Y009050D02*
X008000Y007950D01*
X008000Y005050D01*
X006600Y011050D02*
X001600Y006050D01*
X001600Y007050D02*
X000900Y007750D01*
X000900Y009850D01*
X001050Y010000D01*
X001000Y010050D01*
X001000Y012950D01*
X001050Y013000D01*
X001000Y013050D01*
X001000Y017950D01*
X001600Y018550D01*
X002600Y018550D02*
X002600Y016550D01*
X001600Y016550D02*
X001600Y015950D01*
X004000Y015950D01*
X005600Y014350D01*
X005600Y013050D01*
X006100Y012550D01*
X007100Y012550D02*
X005900Y013750D01*
X005900Y015750D01*
X005100Y016550D01*
X006100Y016550D02*
X006100Y018550D01*
X002600Y018550D02*
X002600Y019350D01*
X014900Y019350D01*
X017400Y016850D01*
X017500Y016550D02*
X006100Y016550D01*
X007600Y015550D02*
X016100Y015550D01*
X016100Y015450D01*
X017000Y014550D01*
X017050Y014550D01*
X017500Y014150D02*
X014700Y011350D01*
X012700Y011350D01*
X014200Y011650D02*
X002300Y011650D01*
X002300Y009750D01*
X001600Y009050D01*
X001050Y010000D02*
X001600Y010550D01*
X001606Y010550D01*
X001600Y012050D02*
X001600Y012550D01*
X001600Y012050D02*
X007300Y012050D01*
X007600Y012350D01*
X007600Y013450D01*
X016400Y013450D01*
X017600Y012950D02*
X015800Y011150D01*
X015800Y011050D01*
X006600Y011050D01*
X007100Y009550D02*
X006100Y009550D01*
X001600Y013550D02*
X001050Y013000D01*
X013600Y010050D02*
X015900Y010050D01*
X015900Y009350D01*
X016700Y008550D01*
X017000Y009150D02*
X017000Y002250D01*
X017600Y003050D02*
X018100Y003550D01*
X018100Y004050D01*
X018100Y004550D01*
X018600Y005050D01*
X018600Y005550D01*
X018850Y005800D01*
X017400Y007250D01*
X018600Y007150D02*
X019200Y006550D01*
X019500Y006550D01*
X019500Y006350D01*
X019600Y006250D01*
X019600Y002850D01*
X018300Y001550D01*
X018252Y001498D01*
X019252Y001498D02*
X019300Y001550D01*
X019300Y002050D01*
X021500Y002050D01*
X021800Y001750D01*
X021800Y001050D01*
X023800Y001050D01*
X024100Y001350D01*
X024100Y001550D01*
X024000Y002050D02*
X023100Y002050D01*
X021100Y004050D01*
X021100Y006550D01*
X020100Y007550D01*
X021100Y007550D02*
X021600Y007050D01*
X022600Y006550D02*
X023800Y005350D01*
X024100Y005350D01*
X024100Y005300D01*
X023600Y006350D02*
X023450Y006350D01*
X022600Y006550D02*
X022600Y008250D01*
X023400Y008250D01*
X024100Y007550D01*
X025500Y008150D02*
X025500Y008650D01*
X024500Y009650D01*
X023900Y009250D02*
X018600Y009250D01*
X018600Y007150D01*
X019100Y007550D02*
X020600Y006050D01*
X020600Y003050D01*
X018850Y005800D02*
X019100Y006050D01*
X017700Y008050D02*
X017700Y010150D01*
X018100Y010550D01*
X017400Y010250D02*
X017400Y011050D01*
X018100Y011750D01*
X018100Y014550D01*
X018600Y015050D01*
X019500Y015950D01*
X019500Y018450D01*
X019900Y018850D01*
X024100Y018850D01*
X024100Y018800D02*
X024100Y018300D01*
X023700Y017650D02*
X023100Y018250D01*
X023100Y018300D01*
X022100Y018300D02*
X022100Y016050D01*
X022100Y015450D01*
X024700Y015450D01*
X025200Y014950D01*
X025200Y014650D01*
X026800Y013050D01*
X027800Y013350D02*
X027800Y017750D01*
X028600Y018550D01*
X027600Y018550D02*
X026650Y017600D01*
X026600Y017650D01*
X023700Y017650D01*
X024700Y017250D02*
X022400Y017250D01*
X021100Y018300D02*
X021100Y016050D01*
X019200Y016950D02*
X017500Y015250D01*
X017500Y014150D01*
X018600Y012050D02*
X019600Y012050D01*
X021100Y010550D01*
X017100Y009250D02*
X017000Y009150D01*
X016300Y010800D02*
X016300Y010850D01*
X017000Y011550D01*
X017050Y011550D01*
X025500Y008150D02*
X026100Y007550D01*
X026900Y007350D02*
X026900Y001750D01*
X028400Y002350D02*
X029100Y003050D01*
X029100Y007550D01*
X028100Y007550D02*
X027900Y007750D01*
X027900Y008450D01*
X027100Y009250D01*
X027100Y010550D02*
X027100Y014050D01*
X025700Y015450D01*
X025700Y016250D01*
X024700Y017250D01*
X026600Y017550D02*
X026600Y015450D01*
X027200Y014850D01*
X027210Y014770D01*
X028600Y014050D02*
X028600Y011050D01*
X029100Y010550D01*
X029600Y009050D02*
X031100Y010550D01*
X031100Y012050D01*
X031100Y013050D01*
X031100Y014750D01*
X029000Y014750D01*
X028990Y014770D01*
X031350Y016050D02*
X031500Y016050D01*
X031400Y016050D02*
X031350Y016050D01*
X032350Y016550D02*
X032400Y016550D01*
X033000Y016250D02*
X033088Y016176D01*
X033600Y015800D02*
X033700Y015750D01*
X035500Y013950D01*
X035500Y013550D01*
X035588Y013471D01*
X035600Y013450D01*
X036769Y011542D02*
X036800Y011550D01*
X034350Y010050D02*
X034300Y010050D01*
X032850Y010450D02*
X032800Y010450D01*
X032400Y010450D01*
X032400Y010550D01*
X032800Y010450D02*
X032800Y008450D01*
X032600Y008250D01*
X032600Y008227D01*
X032600Y007873D02*
X032600Y007850D01*
X033800Y007850D01*
X033800Y008650D01*
X033871Y008667D01*
X034835Y008805D02*
X034900Y008750D01*
X036300Y007750D02*
X036300Y007350D01*
X038100Y007350D01*
X038123Y007309D01*
X038123Y006876D02*
X038100Y006850D01*
X036400Y006850D01*
X036400Y005950D02*
X038100Y005950D01*
X038123Y006009D01*
X038200Y006350D02*
X038123Y006443D01*
X038200Y006450D01*
X038400Y006450D01*
X038475Y006425D01*
X038123Y005576D02*
X038100Y005550D01*
X038083Y004238D02*
X038000Y004150D01*
X037300Y003450D01*
X037300Y001150D01*
X037000Y000850D01*
X035900Y000850D01*
X035900Y002250D01*
X035850Y002300D01*
X036300Y002450D02*
X035700Y003050D01*
X036300Y002450D02*
X036300Y001850D01*
X036850Y001300D01*
X037850Y002300D02*
X038700Y003150D01*
X031600Y004250D02*
X031600Y004300D01*
X031600Y007050D01*
X031100Y007550D01*
X030600Y007050D02*
X030100Y007550D01*
X030600Y007050D02*
X030600Y005800D01*
X030600Y002050D01*
X030100Y001550D01*
X031100Y001550D02*
X031100Y003750D01*
X031600Y004250D01*
X029600Y003350D02*
X029600Y009050D01*
X030500Y009050D02*
X031600Y010150D01*
X031600Y010850D01*
X032800Y010850D01*
X032850Y010800D01*
X032850Y011150D02*
X032800Y011150D01*
X031600Y012350D01*
X031600Y013150D01*
X028300Y012250D02*
X028100Y012050D01*
X027100Y007550D02*
X026900Y007350D01*
X028150Y004800D02*
X028600Y004350D01*
X028600Y004300D01*
X029600Y003350D02*
X029400Y003150D01*
X017500Y016550D02*
X017700Y016750D01*
X017700Y017350D01*
X019200Y017350D01*
X026600Y017550D02*
X026650Y017600D01*
X031400Y017950D02*
X031400Y018250D01*
X033600Y018250D02*
X033673Y018300D01*
X033700Y018350D01*
X033700Y018550D01*
X034027Y018300D02*
X034100Y018250D01*
X035600Y018050D02*
X037600Y018050D01*
X034112Y016924D02*
X034100Y016950D01*
D44*
X034112Y016924D02*
X034225Y017037D01*
X034225Y017425D01*
X032475Y017425D01*
X032350Y017300D01*
X032100Y017300D01*
X031850Y017050D01*
X031725Y017050D01*
X031500Y016825D01*
X031500Y016050D01*
X032350Y015550D02*
X033350Y015550D01*
X033600Y015800D01*
X033600Y016550D01*
X034112Y016550D01*
X034112Y016176D02*
X034601Y016176D01*
X034725Y016300D01*
X034725Y016924D01*
X034974Y016924D01*
X035100Y017050D01*
X035600Y017050D01*
X034725Y016924D02*
X034112Y016924D01*
X034225Y017425D02*
X034225Y018050D01*
X034100Y018175D01*
X034100Y018250D01*
X033700Y018550D02*
X033700Y018775D01*
X033850Y018925D01*
X037850Y018925D01*
X038600Y018175D01*
X038600Y014925D01*
X038725Y014800D01*
X038725Y006425D01*
X038725Y003175D01*
X038700Y003150D01*
X038725Y006425D02*
X038475Y006425D01*
X038000Y008750D02*
X034890Y008750D01*
X034835Y008805D01*
X035100Y009069D01*
X035100Y012175D01*
X035600Y012675D01*
X035600Y013450D01*
X033087Y016175D02*
X032725Y016175D01*
X032400Y016500D01*
X032400Y016550D01*
X033087Y016175D02*
X033088Y016176D01*
X031400Y017950D02*
X031000Y017950D01*
X029100Y016050D01*
X028600Y016050D01*
X028225Y015675D01*
X028225Y012175D01*
X028100Y012050D01*
X027975Y012050D01*
X027600Y011675D01*
X027600Y009925D01*
X027350Y009675D01*
X026725Y009675D01*
X026725Y009050D01*
X027600Y008175D01*
X027600Y005350D01*
X026725Y009675D02*
X025725Y009675D01*
X025225Y010175D01*
X025225Y010425D01*
X025100Y010550D01*
X031400Y017950D02*
X031400Y018725D01*
X031325Y018800D01*
X029850Y018800D01*
X029475Y019175D01*
X026350Y019175D01*
X026225Y019050D01*
X024350Y019050D01*
X024100Y018800D01*
X024100Y018850D01*
X031400Y018725D02*
X031600Y018925D01*
X033325Y018925D01*
X033700Y018550D01*
D45*
X028600Y014050D03*
X027800Y013350D03*
X026800Y013050D03*
X031600Y013150D03*
X032400Y010550D03*
X030500Y009050D03*
X027100Y009250D03*
X024500Y009650D03*
X023900Y009250D03*
X026600Y006450D03*
X026300Y004450D03*
X027200Y003750D03*
X029400Y003150D03*
X028400Y002350D03*
X031400Y003350D03*
X031800Y003350D03*
X036400Y005950D03*
X037200Y005550D03*
X036400Y006850D03*
X024100Y001550D03*
X017000Y000850D03*
X015400Y006550D03*
X016700Y006950D03*
X016700Y007250D03*
X017700Y008050D03*
X016700Y008550D03*
X017100Y009250D03*
X012700Y011350D03*
X014200Y011650D03*
X017600Y012950D03*
X016400Y013450D03*
X017400Y016850D03*
X019200Y016950D03*
X019200Y017350D03*
X022400Y017250D03*
M02*
