G75*
%MOIN*%
%OFA0B0*%
%FSLAX24Y24*%
%IPPOS*%
%LPD*%
%AMOC8*
5,1,8,0,0,1.08239X$1,22.5*
%
%ADD10C,0.0000*%
%ADD11R,0.0472X0.0217*%
%ADD12R,0.0591X0.0551*%
%ADD13R,0.0591X0.0512*%
%ADD14R,0.0689X0.0276*%
%ADD15R,0.0800X0.0276*%
%ADD16R,0.0591X0.0315*%
%ADD17R,0.0394X0.0551*%
%ADD18R,0.0551X0.0315*%
%ADD19R,0.0610X0.0394*%
D10*
X000100Y000550D02*
X000100Y019546D01*
X038970Y019546D01*
X038970Y000550D01*
X000100Y000550D01*
X003509Y001500D02*
X003511Y001548D01*
X003517Y001596D01*
X003527Y001643D01*
X003540Y001689D01*
X003558Y001734D01*
X003578Y001778D01*
X003603Y001820D01*
X003631Y001859D01*
X003661Y001896D01*
X003695Y001930D01*
X003732Y001962D01*
X003770Y001991D01*
X003811Y002016D01*
X003854Y002038D01*
X003899Y002056D01*
X003945Y002070D01*
X003992Y002081D01*
X004040Y002088D01*
X004088Y002091D01*
X004136Y002090D01*
X004184Y002085D01*
X004232Y002076D01*
X004278Y002064D01*
X004323Y002047D01*
X004367Y002027D01*
X004409Y002004D01*
X004449Y001977D01*
X004487Y001947D01*
X004522Y001914D01*
X004554Y001878D01*
X004584Y001840D01*
X004610Y001799D01*
X004632Y001756D01*
X004652Y001712D01*
X004667Y001667D01*
X004679Y001620D01*
X004687Y001572D01*
X004691Y001524D01*
X004691Y001476D01*
X004687Y001428D01*
X004679Y001380D01*
X004667Y001333D01*
X004652Y001288D01*
X004632Y001244D01*
X004610Y001201D01*
X004584Y001160D01*
X004554Y001122D01*
X004522Y001086D01*
X004487Y001053D01*
X004449Y001023D01*
X004409Y000996D01*
X004367Y000973D01*
X004323Y000953D01*
X004278Y000936D01*
X004232Y000924D01*
X004184Y000915D01*
X004136Y000910D01*
X004088Y000909D01*
X004040Y000912D01*
X003992Y000919D01*
X003945Y000930D01*
X003899Y000944D01*
X003854Y000962D01*
X003811Y000984D01*
X003770Y001009D01*
X003732Y001038D01*
X003695Y001070D01*
X003661Y001104D01*
X003631Y001141D01*
X003603Y001180D01*
X003578Y001222D01*
X003558Y001266D01*
X003540Y001311D01*
X003527Y001357D01*
X003517Y001404D01*
X003511Y001452D01*
X003509Y001500D01*
X003509Y013700D02*
X003511Y013748D01*
X003517Y013796D01*
X003527Y013843D01*
X003540Y013889D01*
X003558Y013934D01*
X003578Y013978D01*
X003603Y014020D01*
X003631Y014059D01*
X003661Y014096D01*
X003695Y014130D01*
X003732Y014162D01*
X003770Y014191D01*
X003811Y014216D01*
X003854Y014238D01*
X003899Y014256D01*
X003945Y014270D01*
X003992Y014281D01*
X004040Y014288D01*
X004088Y014291D01*
X004136Y014290D01*
X004184Y014285D01*
X004232Y014276D01*
X004278Y014264D01*
X004323Y014247D01*
X004367Y014227D01*
X004409Y014204D01*
X004449Y014177D01*
X004487Y014147D01*
X004522Y014114D01*
X004554Y014078D01*
X004584Y014040D01*
X004610Y013999D01*
X004632Y013956D01*
X004652Y013912D01*
X004667Y013867D01*
X004679Y013820D01*
X004687Y013772D01*
X004691Y013724D01*
X004691Y013676D01*
X004687Y013628D01*
X004679Y013580D01*
X004667Y013533D01*
X004652Y013488D01*
X004632Y013444D01*
X004610Y013401D01*
X004584Y013360D01*
X004554Y013322D01*
X004522Y013286D01*
X004487Y013253D01*
X004449Y013223D01*
X004409Y013196D01*
X004367Y013173D01*
X004323Y013153D01*
X004278Y013136D01*
X004232Y013124D01*
X004184Y013115D01*
X004136Y013110D01*
X004088Y013109D01*
X004040Y013112D01*
X003992Y013119D01*
X003945Y013130D01*
X003899Y013144D01*
X003854Y013162D01*
X003811Y013184D01*
X003770Y013209D01*
X003732Y013238D01*
X003695Y013270D01*
X003661Y013304D01*
X003631Y013341D01*
X003603Y013380D01*
X003578Y013422D01*
X003558Y013466D01*
X003540Y013511D01*
X003527Y013557D01*
X003517Y013604D01*
X003511Y013652D01*
X003509Y013700D01*
X033009Y013700D02*
X033011Y013748D01*
X033017Y013796D01*
X033027Y013843D01*
X033040Y013889D01*
X033058Y013934D01*
X033078Y013978D01*
X033103Y014020D01*
X033131Y014059D01*
X033161Y014096D01*
X033195Y014130D01*
X033232Y014162D01*
X033270Y014191D01*
X033311Y014216D01*
X033354Y014238D01*
X033399Y014256D01*
X033445Y014270D01*
X033492Y014281D01*
X033540Y014288D01*
X033588Y014291D01*
X033636Y014290D01*
X033684Y014285D01*
X033732Y014276D01*
X033778Y014264D01*
X033823Y014247D01*
X033867Y014227D01*
X033909Y014204D01*
X033949Y014177D01*
X033987Y014147D01*
X034022Y014114D01*
X034054Y014078D01*
X034084Y014040D01*
X034110Y013999D01*
X034132Y013956D01*
X034152Y013912D01*
X034167Y013867D01*
X034179Y013820D01*
X034187Y013772D01*
X034191Y013724D01*
X034191Y013676D01*
X034187Y013628D01*
X034179Y013580D01*
X034167Y013533D01*
X034152Y013488D01*
X034132Y013444D01*
X034110Y013401D01*
X034084Y013360D01*
X034054Y013322D01*
X034022Y013286D01*
X033987Y013253D01*
X033949Y013223D01*
X033909Y013196D01*
X033867Y013173D01*
X033823Y013153D01*
X033778Y013136D01*
X033732Y013124D01*
X033684Y013115D01*
X033636Y013110D01*
X033588Y013109D01*
X033540Y013112D01*
X033492Y013119D01*
X033445Y013130D01*
X033399Y013144D01*
X033354Y013162D01*
X033311Y013184D01*
X033270Y013209D01*
X033232Y013238D01*
X033195Y013270D01*
X033161Y013304D01*
X033131Y013341D01*
X033103Y013380D01*
X033078Y013422D01*
X033058Y013466D01*
X033040Y013511D01*
X033027Y013557D01*
X033017Y013604D01*
X033011Y013652D01*
X033009Y013700D01*
X033009Y001500D02*
X033011Y001548D01*
X033017Y001596D01*
X033027Y001643D01*
X033040Y001689D01*
X033058Y001734D01*
X033078Y001778D01*
X033103Y001820D01*
X033131Y001859D01*
X033161Y001896D01*
X033195Y001930D01*
X033232Y001962D01*
X033270Y001991D01*
X033311Y002016D01*
X033354Y002038D01*
X033399Y002056D01*
X033445Y002070D01*
X033492Y002081D01*
X033540Y002088D01*
X033588Y002091D01*
X033636Y002090D01*
X033684Y002085D01*
X033732Y002076D01*
X033778Y002064D01*
X033823Y002047D01*
X033867Y002027D01*
X033909Y002004D01*
X033949Y001977D01*
X033987Y001947D01*
X034022Y001914D01*
X034054Y001878D01*
X034084Y001840D01*
X034110Y001799D01*
X034132Y001756D01*
X034152Y001712D01*
X034167Y001667D01*
X034179Y001620D01*
X034187Y001572D01*
X034191Y001524D01*
X034191Y001476D01*
X034187Y001428D01*
X034179Y001380D01*
X034167Y001333D01*
X034152Y001288D01*
X034132Y001244D01*
X034110Y001201D01*
X034084Y001160D01*
X034054Y001122D01*
X034022Y001086D01*
X033987Y001053D01*
X033949Y001023D01*
X033909Y000996D01*
X033867Y000973D01*
X033823Y000953D01*
X033778Y000936D01*
X033732Y000924D01*
X033684Y000915D01*
X033636Y000910D01*
X033588Y000909D01*
X033540Y000912D01*
X033492Y000919D01*
X033445Y000930D01*
X033399Y000944D01*
X033354Y000962D01*
X033311Y000984D01*
X033270Y001009D01*
X033232Y001038D01*
X033195Y001070D01*
X033161Y001104D01*
X033131Y001141D01*
X033103Y001180D01*
X033078Y001222D01*
X033058Y001266D01*
X033040Y001311D01*
X033027Y001357D01*
X033017Y001404D01*
X033011Y001452D01*
X033009Y001500D01*
D11*
X033088Y016176D03*
X034112Y016176D03*
X034112Y016550D03*
X034112Y016924D03*
X033088Y016924D03*
D12*
X038083Y008687D03*
D13*
X038083Y004238D03*
D14*
X038123Y004730D03*
X038123Y005143D03*
X038123Y006009D03*
X038123Y006876D03*
X038123Y007309D03*
X038123Y007742D03*
D15*
X038123Y006443D03*
X038123Y005576D03*
D16*
X035091Y004120D03*
D17*
X034501Y004238D03*
D18*
X034835Y008805D03*
D19*
X033871Y008667D03*
M02*
