%
M48
M72
T01C0.0120
T02C0.0236
T03C0.0240
T04C0.0320
T05C0.0390
T06C0.0394
T07C0.0400
T08C0.0440
T09C0.0551
T10C0.0787
T11C0.1181
%
T01
X15400Y6550
X16700Y6950
X16700Y7250
X17700Y8050
X16700Y8550
X17100Y9250
X12700Y11350
X14200Y11650
X17600Y12950
X16400Y13450
X17400Y16850
X19200Y16950
X19200Y17350
X22400Y17250
X28600Y14050
X27800Y13350
X26800Y13050
X31600Y13150
X32400Y10550
X30500Y9050
X27100Y9250
X24500Y9650
X23900Y9250
X26600Y6450
X26300Y4450
X27200Y3750
X29400Y3150
X28400Y2350
X31400Y3350
X31800Y3350
X36400Y5950
X37200Y5550
X36400Y6850
X24100Y1550
X17000Y850
T02
X11600Y6050
X10600Y6050
T03
X35850Y2300
X37850Y2300
X36850Y1300
T04
X31600Y4300
X28600Y4300
X27600Y5800
X25100Y5300
X24100Y5300
X22100Y6050
X23450Y6350
X24450Y6350
X24100Y7550
X23100Y7550
X22100Y7550
X21100Y7550
X20100Y7550
X19100Y7550
X18100Y7550
X16300Y7800
X14850Y7800
X13600Y7050
X12600Y7050
X11600Y7050
X10600Y7050
X9100Y8050
X9100Y9050
X7100Y9550
X6100Y9550
X10600Y10050
X11600Y10050
X12600Y10050
X13600Y10050
X16300Y10800
X17050Y11550
X18600Y12050
X18100Y10550
X19100Y10550
X20100Y10550
X21100Y10550
X22100Y10550
X23100Y10550
X24100Y10550
X25100Y10550
X26100Y10550
X27100Y10550
X28100Y10550
X29100Y10550
X30100Y10550
X31100Y10550
X31100Y12050
X31100Y13050
X30100Y13050
X28100Y12050
X24100Y14200
X23100Y14200
X22150Y14200
X21150Y14200
X18600Y15050
X17050Y14550
X21650Y12550
X23550Y12550
X25100Y7550
X26100Y7550
X27100Y7550
X28100Y7550
X29100Y7550
X30100Y7550
X31100Y7550
X30600Y5800
X21600Y5050
X21100Y4050
X20600Y3050
X18100Y4050
X17600Y3050
X18600Y5050
X19100Y6050
X14850Y6800
X12100Y5050
X12100Y4050
X10100Y4050
X10100Y5050
X7100Y12550
X6100Y12550
X6100Y16550
X5100Y16550
X2600Y16550
X1600Y16550
X31400Y18250
X32400Y18250
X35600Y18050
X35600Y17050
T05
X32350Y16550
X31350Y16050
X32350Y15550
T06
X35588Y13471
X37950Y13471
X36769Y11542
X37850Y10050
X34350Y10050
X28600Y18550
X27600Y18550
X1600Y13550
X1600Y12550
X1600Y3050
X1600Y2050
T07
X6252Y1498
X7252Y1498
X8252Y1498
X9252Y1498
X10252Y1498
X11252Y1498
X12252Y1498
X13252Y1498
X14252Y1498
X15252Y1498
X16252Y1498
X17252Y1498
X18252Y1498
X19252Y1498
X20252Y1498
X21252Y1498
X23600Y1550
X24600Y1550
X25600Y1550
X25600Y2550
X24600Y2550
X23600Y2550
X28100Y1550
X29100Y1550
X30100Y1550
X31100Y1550
X28990Y14770
X27210Y14770
X25100Y16050
X24100Y16050
X23100Y16050
X22100Y16050
X21100Y16050
X20100Y16050
X20100Y18300
X21100Y18300
X22100Y18300
X23100Y18300
X24100Y18300
X25100Y18300
X27210Y17330
X28990Y17330
X6100Y18550
X5100Y18550
X2600Y18550
X1600Y18550
X1600Y7050
X1600Y6050
X1600Y5050
T08
X37600Y16550
X37600Y18050
T09
X1606Y10550
X1600Y9050
T10
X7600Y15550
X16100Y15550
T11
X4100Y1500
X4100Y13700
X33600Y13700
X33600Y1500
M30
