G75*
%MOIN*%
%OFA0B0*%
%FSLAX24Y24*%
%IPPOS*%
%LPD*%
%AMOC8*
5,1,8,0,0,1.08239X$1,22.5*
%
%ADD10C,0.0000*%
%ADD11C,0.0080*%
%ADD12C,0.0100*%
%ADD13C,0.0060*%
%ADD14C,0.0040*%
%ADD15C,0.0160*%
%ADD16R,0.0160X0.0230*%
%ADD17C,0.0050*%
%ADD18R,0.0800X0.0200*%
%ADD19R,0.0200X0.0250*%
%ADD20R,0.0200X0.0150*%
%ADD21C,0.0120*%
%ADD22R,0.0150X0.0200*%
%ADD23C,0.0059*%
%ADD24C,0.0030*%
%ADD25C,0.0080*%
%ADD26R,0.0748X0.0118*%
%ADD27C,0.0020*%
D10*
X000100Y000550D02*
X000100Y019546D01*
X038970Y019546D01*
X038970Y000550D01*
X000100Y000550D01*
X003509Y001500D02*
X003511Y001548D01*
X003517Y001596D01*
X003527Y001643D01*
X003540Y001689D01*
X003558Y001734D01*
X003578Y001778D01*
X003603Y001820D01*
X003631Y001859D01*
X003661Y001896D01*
X003695Y001930D01*
X003732Y001962D01*
X003770Y001991D01*
X003811Y002016D01*
X003854Y002038D01*
X003899Y002056D01*
X003945Y002070D01*
X003992Y002081D01*
X004040Y002088D01*
X004088Y002091D01*
X004136Y002090D01*
X004184Y002085D01*
X004232Y002076D01*
X004278Y002064D01*
X004323Y002047D01*
X004367Y002027D01*
X004409Y002004D01*
X004449Y001977D01*
X004487Y001947D01*
X004522Y001914D01*
X004554Y001878D01*
X004584Y001840D01*
X004610Y001799D01*
X004632Y001756D01*
X004652Y001712D01*
X004667Y001667D01*
X004679Y001620D01*
X004687Y001572D01*
X004691Y001524D01*
X004691Y001476D01*
X004687Y001428D01*
X004679Y001380D01*
X004667Y001333D01*
X004652Y001288D01*
X004632Y001244D01*
X004610Y001201D01*
X004584Y001160D01*
X004554Y001122D01*
X004522Y001086D01*
X004487Y001053D01*
X004449Y001023D01*
X004409Y000996D01*
X004367Y000973D01*
X004323Y000953D01*
X004278Y000936D01*
X004232Y000924D01*
X004184Y000915D01*
X004136Y000910D01*
X004088Y000909D01*
X004040Y000912D01*
X003992Y000919D01*
X003945Y000930D01*
X003899Y000944D01*
X003854Y000962D01*
X003811Y000984D01*
X003770Y001009D01*
X003732Y001038D01*
X003695Y001070D01*
X003661Y001104D01*
X003631Y001141D01*
X003603Y001180D01*
X003578Y001222D01*
X003558Y001266D01*
X003540Y001311D01*
X003527Y001357D01*
X003517Y001404D01*
X003511Y001452D01*
X003509Y001500D01*
X003509Y013700D02*
X003511Y013748D01*
X003517Y013796D01*
X003527Y013843D01*
X003540Y013889D01*
X003558Y013934D01*
X003578Y013978D01*
X003603Y014020D01*
X003631Y014059D01*
X003661Y014096D01*
X003695Y014130D01*
X003732Y014162D01*
X003770Y014191D01*
X003811Y014216D01*
X003854Y014238D01*
X003899Y014256D01*
X003945Y014270D01*
X003992Y014281D01*
X004040Y014288D01*
X004088Y014291D01*
X004136Y014290D01*
X004184Y014285D01*
X004232Y014276D01*
X004278Y014264D01*
X004323Y014247D01*
X004367Y014227D01*
X004409Y014204D01*
X004449Y014177D01*
X004487Y014147D01*
X004522Y014114D01*
X004554Y014078D01*
X004584Y014040D01*
X004610Y013999D01*
X004632Y013956D01*
X004652Y013912D01*
X004667Y013867D01*
X004679Y013820D01*
X004687Y013772D01*
X004691Y013724D01*
X004691Y013676D01*
X004687Y013628D01*
X004679Y013580D01*
X004667Y013533D01*
X004652Y013488D01*
X004632Y013444D01*
X004610Y013401D01*
X004584Y013360D01*
X004554Y013322D01*
X004522Y013286D01*
X004487Y013253D01*
X004449Y013223D01*
X004409Y013196D01*
X004367Y013173D01*
X004323Y013153D01*
X004278Y013136D01*
X004232Y013124D01*
X004184Y013115D01*
X004136Y013110D01*
X004088Y013109D01*
X004040Y013112D01*
X003992Y013119D01*
X003945Y013130D01*
X003899Y013144D01*
X003854Y013162D01*
X003811Y013184D01*
X003770Y013209D01*
X003732Y013238D01*
X003695Y013270D01*
X003661Y013304D01*
X003631Y013341D01*
X003603Y013380D01*
X003578Y013422D01*
X003558Y013466D01*
X003540Y013511D01*
X003527Y013557D01*
X003517Y013604D01*
X003511Y013652D01*
X003509Y013700D01*
X032850Y010823D02*
X032850Y010820D01*
X032851Y010819D01*
X032853Y010819D01*
X032854Y010820D01*
X032854Y010823D01*
X032855Y010824D01*
X032857Y010824D01*
X032858Y010823D01*
X032858Y010820D01*
X032857Y010819D01*
X032858Y010826D02*
X032853Y010826D01*
X032855Y010826D02*
X032853Y010829D01*
X032853Y010830D01*
X032854Y010832D02*
X032857Y010832D01*
X032858Y010833D01*
X032858Y010837D01*
X032853Y010837D02*
X032853Y010833D01*
X032854Y010832D01*
X032851Y010824D02*
X032850Y010823D01*
X032851Y010810D02*
X032857Y010804D01*
X032858Y010806D01*
X032858Y010808D01*
X032857Y010810D01*
X032851Y010810D01*
X032850Y010808D01*
X032850Y010806D01*
X032851Y010804D01*
X032857Y010804D01*
X032858Y010800D02*
X032850Y010800D01*
X032850Y010802D02*
X032850Y010797D01*
X032850Y010795D02*
X032858Y010795D01*
X032850Y010790D01*
X032858Y010790D01*
X032858Y010788D02*
X032858Y010785D01*
X032858Y010786D02*
X032850Y010786D01*
X032850Y010785D02*
X032850Y010788D01*
X032850Y010783D02*
X032858Y010778D01*
X032858Y010776D02*
X032858Y010771D01*
X032853Y010776D01*
X032851Y010776D01*
X032850Y010774D01*
X032850Y010772D01*
X032851Y010771D01*
X032851Y010769D02*
X032850Y010767D01*
X032850Y010763D01*
X032858Y010763D01*
X032858Y010767D01*
X032857Y010769D01*
X032851Y010769D01*
X032851Y010761D02*
X032854Y010761D01*
X032855Y010760D01*
X032855Y010756D01*
X032858Y010756D02*
X032850Y010756D01*
X032850Y010760D01*
X032851Y010761D01*
X033009Y013700D02*
X033011Y013748D01*
X033017Y013796D01*
X033027Y013843D01*
X033040Y013889D01*
X033058Y013934D01*
X033078Y013978D01*
X033103Y014020D01*
X033131Y014059D01*
X033161Y014096D01*
X033195Y014130D01*
X033232Y014162D01*
X033270Y014191D01*
X033311Y014216D01*
X033354Y014238D01*
X033399Y014256D01*
X033445Y014270D01*
X033492Y014281D01*
X033540Y014288D01*
X033588Y014291D01*
X033636Y014290D01*
X033684Y014285D01*
X033732Y014276D01*
X033778Y014264D01*
X033823Y014247D01*
X033867Y014227D01*
X033909Y014204D01*
X033949Y014177D01*
X033987Y014147D01*
X034022Y014114D01*
X034054Y014078D01*
X034084Y014040D01*
X034110Y013999D01*
X034132Y013956D01*
X034152Y013912D01*
X034167Y013867D01*
X034179Y013820D01*
X034187Y013772D01*
X034191Y013724D01*
X034191Y013676D01*
X034187Y013628D01*
X034179Y013580D01*
X034167Y013533D01*
X034152Y013488D01*
X034132Y013444D01*
X034110Y013401D01*
X034084Y013360D01*
X034054Y013322D01*
X034022Y013286D01*
X033987Y013253D01*
X033949Y013223D01*
X033909Y013196D01*
X033867Y013173D01*
X033823Y013153D01*
X033778Y013136D01*
X033732Y013124D01*
X033684Y013115D01*
X033636Y013110D01*
X033588Y013109D01*
X033540Y013112D01*
X033492Y013119D01*
X033445Y013130D01*
X033399Y013144D01*
X033354Y013162D01*
X033311Y013184D01*
X033270Y013209D01*
X033232Y013238D01*
X033195Y013270D01*
X033161Y013304D01*
X033131Y013341D01*
X033103Y013380D01*
X033078Y013422D01*
X033058Y013466D01*
X033040Y013511D01*
X033027Y013557D01*
X033017Y013604D01*
X033011Y013652D01*
X033009Y013700D01*
X037196Y016550D02*
X037203Y016550D01*
X037206Y016553D01*
X037203Y016557D01*
X037196Y016557D01*
X037196Y016559D02*
X037196Y016563D01*
X037196Y016561D02*
X037206Y016561D01*
X037206Y016559D02*
X037206Y016563D01*
X037206Y016565D02*
X037196Y016565D01*
X037206Y016572D01*
X037196Y016572D01*
X037198Y018050D02*
X037205Y018050D01*
X037206Y018052D01*
X037206Y018055D01*
X037205Y018057D01*
X037201Y018057D01*
X037201Y018053D01*
X037198Y018050D02*
X037196Y018052D01*
X037196Y018055D01*
X037198Y018057D01*
X037196Y018059D02*
X037206Y018066D01*
X037196Y018066D01*
X037196Y018068D02*
X037196Y018073D01*
X037198Y018075D01*
X037205Y018075D01*
X037206Y018073D01*
X037206Y018068D01*
X037196Y018068D01*
X037196Y018059D02*
X037206Y018059D01*
X033009Y001500D02*
X033011Y001548D01*
X033017Y001596D01*
X033027Y001643D01*
X033040Y001689D01*
X033058Y001734D01*
X033078Y001778D01*
X033103Y001820D01*
X033131Y001859D01*
X033161Y001896D01*
X033195Y001930D01*
X033232Y001962D01*
X033270Y001991D01*
X033311Y002016D01*
X033354Y002038D01*
X033399Y002056D01*
X033445Y002070D01*
X033492Y002081D01*
X033540Y002088D01*
X033588Y002091D01*
X033636Y002090D01*
X033684Y002085D01*
X033732Y002076D01*
X033778Y002064D01*
X033823Y002047D01*
X033867Y002027D01*
X033909Y002004D01*
X033949Y001977D01*
X033987Y001947D01*
X034022Y001914D01*
X034054Y001878D01*
X034084Y001840D01*
X034110Y001799D01*
X034132Y001756D01*
X034152Y001712D01*
X034167Y001667D01*
X034179Y001620D01*
X034187Y001572D01*
X034191Y001524D01*
X034191Y001476D01*
X034187Y001428D01*
X034179Y001380D01*
X034167Y001333D01*
X034152Y001288D01*
X034132Y001244D01*
X034110Y001201D01*
X034084Y001160D01*
X034054Y001122D01*
X034022Y001086D01*
X033987Y001053D01*
X033949Y001023D01*
X033909Y000996D01*
X033867Y000973D01*
X033823Y000953D01*
X033778Y000936D01*
X033732Y000924D01*
X033684Y000915D01*
X033636Y000910D01*
X033588Y000909D01*
X033540Y000912D01*
X033492Y000919D01*
X033445Y000930D01*
X033399Y000944D01*
X033354Y000962D01*
X033311Y000984D01*
X033270Y001009D01*
X033232Y001038D01*
X033195Y001070D01*
X033161Y001104D01*
X033131Y001141D01*
X033103Y001180D01*
X033078Y001222D01*
X033058Y001266D01*
X033040Y001311D01*
X033027Y001357D01*
X033017Y001404D01*
X033011Y001452D01*
X033009Y001500D01*
D11*
X032970Y001500D02*
X032972Y001550D01*
X032978Y001600D01*
X032988Y001649D01*
X033002Y001697D01*
X033019Y001744D01*
X033040Y001789D01*
X033065Y001833D01*
X033093Y001874D01*
X033125Y001913D01*
X033159Y001950D01*
X033196Y001984D01*
X033236Y002014D01*
X033278Y002041D01*
X033322Y002065D01*
X033368Y002086D01*
X033415Y002102D01*
X033463Y002115D01*
X033513Y002124D01*
X033562Y002129D01*
X033613Y002130D01*
X033663Y002127D01*
X033712Y002120D01*
X033761Y002109D01*
X033809Y002094D01*
X033855Y002076D01*
X033900Y002054D01*
X033943Y002028D01*
X033984Y001999D01*
X034023Y001967D01*
X034059Y001932D01*
X034091Y001894D01*
X034121Y001854D01*
X034148Y001811D01*
X034171Y001767D01*
X034190Y001721D01*
X034206Y001673D01*
X034218Y001624D01*
X034226Y001575D01*
X034230Y001525D01*
X034230Y001475D01*
X034226Y001425D01*
X034218Y001376D01*
X034206Y001327D01*
X034190Y001279D01*
X034171Y001233D01*
X034148Y001189D01*
X034121Y001146D01*
X034091Y001106D01*
X034059Y001068D01*
X034023Y001033D01*
X033984Y001001D01*
X033943Y000972D01*
X033900Y000946D01*
X033855Y000924D01*
X033809Y000906D01*
X033761Y000891D01*
X033712Y000880D01*
X033663Y000873D01*
X033613Y000870D01*
X033562Y000871D01*
X033513Y000876D01*
X033463Y000885D01*
X033415Y000898D01*
X033368Y000914D01*
X033322Y000935D01*
X033278Y000959D01*
X033236Y000986D01*
X033196Y001016D01*
X033159Y001050D01*
X033125Y001087D01*
X033093Y001126D01*
X033065Y001167D01*
X033040Y001211D01*
X033019Y001256D01*
X033002Y001303D01*
X032988Y001351D01*
X032978Y001400D01*
X032972Y001450D01*
X032970Y001500D01*
X032994Y007735D02*
X032994Y008365D01*
X032993Y008365D02*
X032988Y008381D01*
X032980Y008397D01*
X032970Y008411D01*
X032958Y008423D01*
X032943Y008433D01*
X032927Y008440D01*
X032910Y008444D01*
X032893Y008445D01*
X032875Y008443D01*
X032325Y008443D02*
X032305Y008445D01*
X032286Y008443D01*
X032267Y008437D01*
X032250Y008428D01*
X032234Y008416D01*
X032222Y008401D01*
X032213Y008383D01*
X032207Y008365D01*
X032206Y008365D02*
X032206Y007735D01*
X032207Y007735D02*
X032213Y007717D01*
X032222Y007699D01*
X032234Y007684D01*
X032250Y007672D01*
X032267Y007663D01*
X032286Y007657D01*
X032305Y007655D01*
X032325Y007657D01*
X032875Y007657D02*
X032893Y007655D01*
X032910Y007656D01*
X032927Y007660D01*
X032943Y007667D01*
X032958Y007677D01*
X032970Y007689D01*
X032980Y007703D01*
X032988Y007719D01*
X032993Y007735D01*
X031600Y007850D02*
X031600Y008550D01*
X031556Y008552D01*
X031513Y008558D01*
X031471Y008567D01*
X031429Y008580D01*
X031389Y008597D01*
X031350Y008617D01*
X031313Y008640D01*
X031279Y008667D01*
X031246Y008696D01*
X031217Y008729D01*
X031190Y008763D01*
X031167Y008800D01*
X031147Y008839D01*
X031130Y008879D01*
X031117Y008921D01*
X031108Y008963D01*
X031102Y009006D01*
X031100Y009050D01*
X031102Y009094D01*
X031108Y009137D01*
X031117Y009179D01*
X031130Y009221D01*
X031147Y009261D01*
X031167Y009300D01*
X031190Y009337D01*
X031217Y009371D01*
X031246Y009404D01*
X031279Y009433D01*
X031313Y009460D01*
X031350Y009483D01*
X031389Y009503D01*
X031429Y009520D01*
X031471Y009533D01*
X031513Y009542D01*
X031556Y009548D01*
X031600Y009550D01*
X031600Y010250D01*
X031500Y010250D01*
X031500Y007850D02*
X031600Y007850D01*
X038143Y011483D02*
X038880Y011483D01*
X032970Y013700D02*
X032972Y013750D01*
X032978Y013800D01*
X032988Y013849D01*
X033002Y013897D01*
X033019Y013944D01*
X033040Y013989D01*
X033065Y014033D01*
X033093Y014074D01*
X033125Y014113D01*
X033159Y014150D01*
X033196Y014184D01*
X033236Y014214D01*
X033278Y014241D01*
X033322Y014265D01*
X033368Y014286D01*
X033415Y014302D01*
X033463Y014315D01*
X033513Y014324D01*
X033562Y014329D01*
X033613Y014330D01*
X033663Y014327D01*
X033712Y014320D01*
X033761Y014309D01*
X033809Y014294D01*
X033855Y014276D01*
X033900Y014254D01*
X033943Y014228D01*
X033984Y014199D01*
X034023Y014167D01*
X034059Y014132D01*
X034091Y014094D01*
X034121Y014054D01*
X034148Y014011D01*
X034171Y013967D01*
X034190Y013921D01*
X034206Y013873D01*
X034218Y013824D01*
X034226Y013775D01*
X034230Y013725D01*
X034230Y013675D01*
X034226Y013625D01*
X034218Y013576D01*
X034206Y013527D01*
X034190Y013479D01*
X034171Y013433D01*
X034148Y013389D01*
X034121Y013346D01*
X034091Y013306D01*
X034059Y013268D01*
X034023Y013233D01*
X033984Y013201D01*
X033943Y013172D01*
X033900Y013146D01*
X033855Y013124D01*
X033809Y013106D01*
X033761Y013091D01*
X033712Y013080D01*
X033663Y013073D01*
X033613Y013070D01*
X033562Y013071D01*
X033513Y013076D01*
X033463Y013085D01*
X033415Y013098D01*
X033368Y013114D01*
X033322Y013135D01*
X033278Y013159D01*
X033236Y013186D01*
X033196Y013216D01*
X033159Y013250D01*
X033125Y013287D01*
X033093Y013326D01*
X033065Y013367D01*
X033040Y013411D01*
X033019Y013456D01*
X033002Y013503D01*
X032988Y013551D01*
X032978Y013600D01*
X032972Y013650D01*
X032970Y013700D01*
X035706Y015459D02*
X038880Y015459D01*
X033769Y015990D02*
X033431Y015990D01*
X033281Y016444D02*
X033281Y016656D01*
X033431Y017110D02*
X033769Y017110D01*
X033535Y017906D02*
X034165Y017906D01*
X034165Y017907D02*
X034181Y017912D01*
X034197Y017920D01*
X034211Y017930D01*
X034223Y017942D01*
X034233Y017957D01*
X034240Y017973D01*
X034244Y017990D01*
X034245Y018007D01*
X034243Y018025D01*
X033535Y017907D02*
X033519Y017912D01*
X033503Y017920D01*
X033489Y017930D01*
X033477Y017942D01*
X033467Y017957D01*
X033460Y017973D01*
X033456Y017990D01*
X033455Y018007D01*
X033457Y018025D01*
X033457Y018575D02*
X033455Y018593D01*
X033456Y018610D01*
X033460Y018627D01*
X033467Y018643D01*
X033477Y018658D01*
X033489Y018670D01*
X033503Y018680D01*
X033519Y018688D01*
X033535Y018693D01*
X033535Y018694D02*
X034165Y018694D01*
X034165Y018693D02*
X034181Y018688D01*
X034197Y018680D01*
X034211Y018670D01*
X034223Y018658D01*
X034233Y018643D01*
X034240Y018627D01*
X034244Y018610D01*
X034245Y018593D01*
X034243Y018575D01*
X025600Y018550D02*
X025600Y018050D01*
X025350Y017800D01*
X024850Y017800D01*
X024600Y018050D01*
X024350Y017800D01*
X023850Y017800D01*
X023600Y018050D01*
X023350Y017800D01*
X022850Y017800D01*
X022600Y018050D01*
X022350Y017800D01*
X021850Y017800D01*
X021600Y018050D01*
X021350Y017800D01*
X020850Y017800D01*
X020600Y018050D01*
X020350Y017800D01*
X019850Y017800D01*
X019600Y018050D01*
X019600Y018550D01*
X019850Y018800D01*
X020350Y018800D01*
X020600Y018550D01*
X020850Y018800D01*
X021350Y018800D01*
X021600Y018550D01*
X021850Y018800D01*
X022350Y018800D01*
X022600Y018550D01*
X022850Y018800D01*
X023350Y018800D01*
X023600Y018550D01*
X023850Y018800D01*
X024350Y018800D01*
X024600Y018550D01*
X024850Y018800D01*
X025350Y018800D01*
X025600Y018550D01*
X025350Y016550D02*
X024850Y016550D01*
X024600Y016300D01*
X024350Y016550D01*
X023850Y016550D01*
X023600Y016300D01*
X023350Y016550D01*
X022850Y016550D01*
X022600Y016300D01*
X022350Y016550D01*
X021850Y016550D01*
X021600Y016300D01*
X021350Y016550D01*
X020850Y016550D01*
X020600Y016300D01*
X020350Y016550D01*
X019850Y016550D01*
X019600Y016300D01*
X019600Y015800D01*
X019850Y015550D01*
X020350Y015550D01*
X020600Y015800D01*
X020850Y015550D01*
X021350Y015550D01*
X021600Y015800D01*
X021850Y015550D01*
X022350Y015550D01*
X022600Y015800D01*
X022850Y015550D01*
X023350Y015550D01*
X023600Y015800D01*
X023850Y015550D01*
X024350Y015550D01*
X024600Y015800D01*
X024850Y015550D01*
X025350Y015550D01*
X025600Y015800D01*
X025600Y016300D01*
X025350Y016550D01*
X017104Y017890D02*
X016824Y017890D01*
X016964Y017890D02*
X016964Y018310D01*
X016824Y018170D01*
X016643Y018170D02*
X016503Y017890D01*
X016363Y018170D01*
X015729Y018170D02*
X015659Y018170D01*
X015519Y018030D01*
X015519Y017890D02*
X015519Y018170D01*
X015339Y018100D02*
X015339Y018030D01*
X015059Y018030D01*
X015059Y017960D02*
X015059Y018100D01*
X015129Y018170D01*
X015269Y018170D01*
X015339Y018100D01*
X015269Y017890D02*
X015129Y017890D01*
X015059Y017960D01*
X014892Y017890D02*
X014752Y017890D01*
X014822Y017890D02*
X014822Y018310D01*
X014752Y018310D01*
X014572Y018100D02*
X014502Y018170D01*
X014361Y018170D01*
X014291Y018100D01*
X014291Y017960D01*
X014361Y017890D01*
X014502Y017890D01*
X014572Y017960D01*
X014572Y018100D01*
X014118Y018170D02*
X014048Y018170D01*
X013908Y018030D01*
X013908Y017890D02*
X013908Y018170D01*
X013741Y018170D02*
X013601Y018170D01*
X013671Y018240D02*
X013671Y017960D01*
X013741Y017890D01*
X013421Y017890D02*
X013421Y018100D01*
X013351Y018170D01*
X013140Y018170D01*
X013140Y017890D01*
X012960Y017960D02*
X012960Y018100D01*
X012890Y018170D01*
X012750Y018170D01*
X012680Y018100D01*
X012680Y017960D01*
X012750Y017890D01*
X012890Y017890D01*
X012960Y017960D01*
X012500Y017960D02*
X012430Y017890D01*
X012290Y017890D01*
X012220Y017960D01*
X012220Y018240D01*
X012290Y018310D01*
X012430Y018310D01*
X012500Y018240D01*
X011579Y018170D02*
X011579Y017820D01*
X011509Y017750D01*
X011439Y017750D01*
X011369Y017890D02*
X011579Y017890D01*
X011369Y017890D02*
X011299Y017960D01*
X011299Y018100D01*
X011369Y018170D01*
X011579Y018170D01*
X011119Y018100D02*
X011119Y017890D01*
X011119Y018100D02*
X011049Y018170D01*
X010838Y018170D01*
X010838Y017890D01*
X010672Y017890D02*
X010532Y017890D01*
X010602Y017890D02*
X010602Y018170D01*
X010532Y018170D01*
X010602Y018310D02*
X010602Y018380D01*
X010351Y018170D02*
X010141Y018170D01*
X010071Y018100D01*
X010071Y017960D01*
X010141Y017890D01*
X010351Y017890D01*
X010351Y017820D02*
X010351Y018170D01*
X009891Y018170D02*
X009681Y018170D01*
X009611Y018100D01*
X009611Y017960D01*
X009681Y017890D01*
X009891Y017890D01*
X009891Y017820D02*
X009891Y018170D01*
X009431Y018100D02*
X009361Y018170D01*
X009220Y018170D01*
X009150Y018100D01*
X009150Y017960D01*
X009220Y017890D01*
X009361Y017890D01*
X009431Y017960D01*
X009431Y018100D01*
X009751Y017750D02*
X009821Y017750D01*
X009891Y017820D01*
X010211Y017750D02*
X010281Y017750D01*
X010351Y017820D01*
X010281Y017420D02*
X010351Y017350D01*
X010351Y017140D01*
X010211Y017140D02*
X010211Y017350D01*
X010281Y017420D01*
X010211Y017350D02*
X010141Y017420D01*
X010071Y017420D01*
X010071Y017140D01*
X009891Y017140D02*
X009891Y017350D01*
X009821Y017420D01*
X009681Y017420D01*
X009681Y017280D02*
X009891Y017280D01*
X009891Y017140D02*
X009681Y017140D01*
X009611Y017210D01*
X009681Y017280D01*
X009431Y017140D02*
X009220Y017140D01*
X009150Y017210D01*
X009150Y017350D01*
X009220Y017420D01*
X009431Y017420D01*
X009431Y017560D02*
X009431Y017140D01*
X008970Y017140D02*
X008970Y017420D01*
X008830Y017560D01*
X008690Y017420D01*
X008690Y017140D01*
X008690Y017350D02*
X008970Y017350D01*
X008970Y017890D02*
X008690Y017890D01*
X008690Y018310D01*
X006600Y018300D02*
X006350Y018050D01*
X005850Y018050D01*
X005600Y018300D01*
X005350Y018050D01*
X004850Y018050D01*
X004600Y018300D01*
X004600Y018800D01*
X004850Y019050D01*
X005350Y019050D01*
X005600Y018800D01*
X005850Y019050D01*
X006350Y019050D01*
X006600Y018800D01*
X006600Y018300D01*
X008690Y016810D02*
X008830Y016670D01*
X008970Y016810D01*
X008970Y016390D01*
X009150Y016460D02*
X009220Y016530D01*
X009431Y016530D01*
X009431Y016600D02*
X009431Y016390D01*
X009220Y016390D01*
X009150Y016460D01*
X009220Y016670D02*
X009361Y016670D01*
X009431Y016600D01*
X009611Y016530D02*
X009751Y016670D01*
X009821Y016670D01*
X009994Y016600D02*
X009994Y016460D01*
X010065Y016390D01*
X010275Y016390D01*
X010455Y016390D02*
X010455Y016810D01*
X010525Y016670D02*
X010665Y016670D01*
X010735Y016600D01*
X010735Y016390D01*
X010455Y016600D02*
X010525Y016670D01*
X010275Y016670D02*
X010065Y016670D01*
X009994Y016600D01*
X009611Y016670D02*
X009611Y016390D01*
X008690Y016390D02*
X008690Y016810D01*
X010992Y017210D02*
X011062Y017140D01*
X011202Y017140D01*
X011272Y017210D01*
X011452Y017210D02*
X011522Y017140D01*
X011663Y017140D01*
X011733Y017210D01*
X011733Y017350D01*
X011663Y017420D01*
X011522Y017420D01*
X011452Y017350D01*
X011452Y017210D01*
X011272Y017490D02*
X011202Y017560D01*
X011062Y017560D01*
X010992Y017490D01*
X010992Y017210D01*
X011446Y016810D02*
X011376Y016740D01*
X011446Y016810D02*
X011586Y016810D01*
X011656Y016740D01*
X011656Y016670D01*
X011376Y016390D01*
X011656Y016390D01*
X011836Y016460D02*
X012116Y016740D01*
X012116Y016460D01*
X012046Y016390D01*
X011906Y016390D01*
X011836Y016460D01*
X011836Y016740D01*
X011906Y016810D01*
X012046Y016810D01*
X012116Y016740D01*
X012296Y016670D02*
X012437Y016810D01*
X012437Y016390D01*
X012577Y016390D02*
X012296Y016390D01*
X012757Y016600D02*
X013037Y016600D01*
X012967Y016390D02*
X012967Y016810D01*
X012757Y016600D01*
X012373Y017000D02*
X012373Y017420D01*
X012583Y017420D01*
X012653Y017350D01*
X012653Y017210D01*
X012583Y017140D01*
X012373Y017140D01*
X012193Y017210D02*
X012193Y017350D01*
X012123Y017420D01*
X011983Y017420D01*
X011913Y017350D01*
X011913Y017210D01*
X011983Y017140D01*
X012123Y017140D01*
X012193Y017210D01*
X012834Y017210D02*
X012834Y017350D01*
X012904Y017420D01*
X013044Y017420D01*
X013114Y017350D01*
X013114Y017280D01*
X012834Y017280D01*
X012834Y017210D02*
X012904Y017140D01*
X013044Y017140D01*
X013294Y017140D02*
X013294Y017420D01*
X013294Y017280D02*
X013434Y017420D01*
X013504Y017420D01*
X013748Y017210D02*
X013748Y017140D01*
X013818Y017140D01*
X013818Y017210D01*
X013748Y017210D01*
X013818Y017140D02*
X013678Y017000D01*
X003470Y013700D02*
X003472Y013750D01*
X003478Y013800D01*
X003488Y013849D01*
X003502Y013897D01*
X003519Y013944D01*
X003540Y013989D01*
X003565Y014033D01*
X003593Y014074D01*
X003625Y014113D01*
X003659Y014150D01*
X003696Y014184D01*
X003736Y014214D01*
X003778Y014241D01*
X003822Y014265D01*
X003868Y014286D01*
X003915Y014302D01*
X003963Y014315D01*
X004013Y014324D01*
X004062Y014329D01*
X004113Y014330D01*
X004163Y014327D01*
X004212Y014320D01*
X004261Y014309D01*
X004309Y014294D01*
X004355Y014276D01*
X004400Y014254D01*
X004443Y014228D01*
X004484Y014199D01*
X004523Y014167D01*
X004559Y014132D01*
X004591Y014094D01*
X004621Y014054D01*
X004648Y014011D01*
X004671Y013967D01*
X004690Y013921D01*
X004706Y013873D01*
X004718Y013824D01*
X004726Y013775D01*
X004730Y013725D01*
X004730Y013675D01*
X004726Y013625D01*
X004718Y013576D01*
X004706Y013527D01*
X004690Y013479D01*
X004671Y013433D01*
X004648Y013389D01*
X004621Y013346D01*
X004591Y013306D01*
X004559Y013268D01*
X004523Y013233D01*
X004484Y013201D01*
X004443Y013172D01*
X004400Y013146D01*
X004355Y013124D01*
X004309Y013106D01*
X004261Y013091D01*
X004212Y013080D01*
X004163Y013073D01*
X004113Y013070D01*
X004062Y013071D01*
X004013Y013076D01*
X003963Y013085D01*
X003915Y013098D01*
X003868Y013114D01*
X003822Y013135D01*
X003778Y013159D01*
X003736Y013186D01*
X003696Y013216D01*
X003659Y013250D01*
X003625Y013287D01*
X003593Y013326D01*
X003565Y013367D01*
X003540Y013411D01*
X003519Y013456D01*
X003502Y013503D01*
X003488Y013551D01*
X003478Y013600D01*
X003472Y013650D01*
X003470Y013700D01*
X010100Y009550D02*
X010100Y008950D01*
X017600Y007850D02*
X017700Y007850D01*
X017600Y007850D02*
X017600Y010250D01*
X017700Y010250D01*
X003100Y018300D02*
X002850Y018050D01*
X002350Y018050D01*
X002100Y018300D01*
X001850Y018050D01*
X001350Y018050D01*
X001100Y018300D01*
X001100Y018800D01*
X001350Y019050D01*
X001850Y019050D01*
X002100Y018800D01*
X002350Y019050D01*
X002850Y019050D01*
X003100Y018800D01*
X003100Y018300D01*
X003470Y001500D02*
X003472Y001550D01*
X003478Y001600D01*
X003488Y001649D01*
X003502Y001697D01*
X003519Y001744D01*
X003540Y001789D01*
X003565Y001833D01*
X003593Y001874D01*
X003625Y001913D01*
X003659Y001950D01*
X003696Y001984D01*
X003736Y002014D01*
X003778Y002041D01*
X003822Y002065D01*
X003868Y002086D01*
X003915Y002102D01*
X003963Y002115D01*
X004013Y002124D01*
X004062Y002129D01*
X004113Y002130D01*
X004163Y002127D01*
X004212Y002120D01*
X004261Y002109D01*
X004309Y002094D01*
X004355Y002076D01*
X004400Y002054D01*
X004443Y002028D01*
X004484Y001999D01*
X004523Y001967D01*
X004559Y001932D01*
X004591Y001894D01*
X004621Y001854D01*
X004648Y001811D01*
X004671Y001767D01*
X004690Y001721D01*
X004706Y001673D01*
X004718Y001624D01*
X004726Y001575D01*
X004730Y001525D01*
X004730Y001475D01*
X004726Y001425D01*
X004718Y001376D01*
X004706Y001327D01*
X004690Y001279D01*
X004671Y001233D01*
X004648Y001189D01*
X004621Y001146D01*
X004591Y001106D01*
X004559Y001068D01*
X004523Y001033D01*
X004484Y001001D01*
X004443Y000972D01*
X004400Y000946D01*
X004355Y000924D01*
X004309Y000906D01*
X004261Y000891D01*
X004212Y000880D01*
X004163Y000873D01*
X004113Y000870D01*
X004062Y000871D01*
X004013Y000876D01*
X003963Y000885D01*
X003915Y000898D01*
X003868Y000914D01*
X003822Y000935D01*
X003778Y000959D01*
X003736Y000986D01*
X003696Y001016D01*
X003659Y001050D01*
X003625Y001087D01*
X003593Y001126D01*
X003565Y001167D01*
X003540Y001211D01*
X003519Y001256D01*
X003502Y001303D01*
X003488Y001351D01*
X003478Y001400D01*
X003472Y001450D01*
X003470Y001500D01*
D12*
X023100Y001050D02*
X023100Y003050D01*
X026100Y003050D01*
X026100Y001050D01*
X023100Y001050D01*
X034980Y000875D02*
X038720Y000875D01*
X038720Y002725D01*
X034980Y002725D01*
X034980Y000875D01*
X035100Y009550D02*
X035100Y010050D01*
X034850Y010050D01*
X035100Y010050D02*
X035100Y010550D01*
X035350Y010550D01*
X035350Y009550D01*
X037100Y009550D01*
X037100Y010050D01*
X037350Y010050D01*
X037100Y010050D02*
X037100Y010550D01*
X035350Y010550D01*
X035350Y009550D02*
X035100Y009550D01*
X025850Y015050D02*
X023600Y015050D01*
X025850Y015050D02*
X025850Y017050D01*
X025850Y017300D02*
X025850Y019300D01*
X025850Y017300D02*
X023850Y017300D01*
X019350Y017300D02*
X019350Y019300D01*
X019350Y017050D02*
X019350Y015050D01*
D13*
X018900Y014550D02*
X018300Y014550D01*
X018283Y014548D01*
X018266Y014544D01*
X018250Y014537D01*
X018236Y014527D01*
X018223Y014514D01*
X018213Y014500D01*
X018206Y014484D01*
X018202Y014467D01*
X018200Y014450D01*
X018200Y014300D01*
X018250Y014250D01*
X018250Y012850D01*
X018200Y012800D01*
X018200Y012650D01*
X018202Y012633D01*
X018206Y012616D01*
X018213Y012600D01*
X018223Y012586D01*
X018236Y012573D01*
X018250Y012563D01*
X018266Y012556D01*
X018283Y012552D01*
X018300Y012550D01*
X018900Y012550D01*
X018917Y012552D01*
X018934Y012556D01*
X018950Y012563D01*
X018964Y012573D01*
X018977Y012586D01*
X018987Y012600D01*
X018994Y012616D01*
X018998Y012633D01*
X019000Y012650D01*
X019000Y012800D01*
X018950Y012850D01*
X018950Y014250D01*
X019000Y014300D01*
X019000Y014450D01*
X018998Y014467D01*
X018994Y014484D01*
X018987Y014500D01*
X018977Y014514D01*
X018964Y014527D01*
X018950Y014537D01*
X018934Y014544D01*
X018917Y014548D01*
X018900Y014550D01*
X017450Y013850D02*
X017450Y012250D01*
X017448Y012233D01*
X017444Y012216D01*
X017437Y012200D01*
X017427Y012186D01*
X017414Y012173D01*
X017400Y012163D01*
X017384Y012156D01*
X017367Y012152D01*
X017350Y012150D01*
X016750Y012150D01*
X016733Y012152D01*
X016716Y012156D01*
X016700Y012163D01*
X016686Y012173D01*
X016673Y012186D01*
X016663Y012200D01*
X016656Y012216D01*
X016652Y012233D01*
X016650Y012250D01*
X016650Y013850D01*
X016652Y013867D01*
X016656Y013884D01*
X016663Y013900D01*
X016673Y013914D01*
X016686Y013927D01*
X016700Y013937D01*
X016716Y013944D01*
X016733Y013948D01*
X016750Y013950D01*
X017350Y013950D01*
X017367Y013948D01*
X017384Y013944D01*
X017400Y013937D01*
X017414Y013927D01*
X017427Y013914D01*
X017437Y013900D01*
X017444Y013884D01*
X017448Y013867D01*
X017450Y013850D01*
X017050Y013650D02*
X017050Y013050D01*
X017300Y013050D01*
X017050Y013050D02*
X017050Y012800D01*
X017050Y013050D02*
X016800Y013050D01*
X017050Y013050D02*
X016800Y013450D01*
X017300Y013450D01*
X017050Y013050D01*
X020800Y013950D02*
X020800Y014450D01*
X020802Y014476D01*
X020807Y014502D01*
X020815Y014527D01*
X020827Y014550D01*
X020841Y014572D01*
X020859Y014591D01*
X020878Y014609D01*
X020900Y014623D01*
X020923Y014635D01*
X020948Y014643D01*
X020974Y014648D01*
X021000Y014650D01*
X022300Y014650D01*
X022326Y014648D01*
X022352Y014643D01*
X022377Y014635D01*
X022400Y014623D01*
X022422Y014609D01*
X022441Y014591D01*
X022459Y014572D01*
X022473Y014550D01*
X022485Y014527D01*
X022493Y014502D01*
X022498Y014476D01*
X022500Y014450D01*
X022500Y013950D01*
X022498Y013924D01*
X022493Y013898D01*
X022485Y013873D01*
X022473Y013850D01*
X022459Y013828D01*
X022441Y013809D01*
X022422Y013791D01*
X022400Y013777D01*
X022377Y013765D01*
X022352Y013757D01*
X022326Y013752D01*
X022300Y013750D01*
X021000Y013750D01*
X020974Y013752D01*
X020948Y013757D01*
X020923Y013765D01*
X020900Y013777D01*
X020878Y013791D01*
X020859Y013809D01*
X020841Y013828D01*
X020827Y013850D01*
X020815Y013873D01*
X020807Y013898D01*
X020802Y013924D01*
X020800Y013950D01*
X021450Y013250D02*
X023750Y013250D01*
X024250Y013750D02*
X022950Y013750D01*
X022924Y013752D01*
X022898Y013757D01*
X022873Y013765D01*
X022850Y013777D01*
X022828Y013791D01*
X022809Y013809D01*
X022791Y013828D01*
X022777Y013850D01*
X022765Y013873D01*
X022757Y013898D01*
X022752Y013924D01*
X022750Y013950D01*
X022750Y014450D01*
X022752Y014476D01*
X022757Y014502D01*
X022765Y014527D01*
X022777Y014550D01*
X022791Y014572D01*
X022809Y014591D01*
X022828Y014609D01*
X022850Y014623D01*
X022873Y014635D01*
X022898Y014643D01*
X022924Y014648D01*
X022950Y014650D01*
X024250Y014650D01*
X024276Y014648D01*
X024302Y014643D01*
X024327Y014635D01*
X024350Y014623D01*
X024372Y014609D01*
X024391Y014591D01*
X024409Y014572D01*
X024423Y014550D01*
X024435Y014527D01*
X024443Y014502D01*
X024448Y014476D01*
X024450Y014450D01*
X024450Y013950D01*
X024448Y013924D01*
X024443Y013898D01*
X024435Y013873D01*
X024423Y013850D01*
X024409Y013828D01*
X024391Y013809D01*
X024372Y013791D01*
X024350Y013777D01*
X024327Y013765D01*
X024302Y013757D01*
X024276Y013752D01*
X024250Y013750D01*
X022850Y012900D02*
X022850Y012550D01*
X023100Y012550D01*
X022850Y012550D02*
X022850Y012200D01*
X022700Y012200D02*
X022500Y012200D01*
X022500Y012900D01*
X022700Y012900D01*
X022700Y012200D01*
X022350Y012200D02*
X022350Y012550D01*
X022100Y012550D01*
X022350Y012550D02*
X022350Y012900D01*
X021450Y013250D02*
X021399Y013248D01*
X021348Y013243D01*
X021298Y013233D01*
X021248Y013220D01*
X021200Y013204D01*
X021153Y013184D01*
X021107Y013160D01*
X021064Y013134D01*
X021022Y013104D01*
X020983Y013071D01*
X020946Y013036D01*
X020912Y012998D01*
X020881Y012957D01*
X020852Y012915D01*
X020827Y012870D01*
X020806Y012824D01*
X020787Y012776D01*
X020773Y012727D01*
X020762Y012677D01*
X020754Y012627D01*
X020750Y012576D01*
X020750Y012524D01*
X020754Y012473D01*
X020762Y012423D01*
X020773Y012373D01*
X020787Y012324D01*
X020806Y012276D01*
X020827Y012230D01*
X020852Y012185D01*
X020881Y012143D01*
X020912Y012102D01*
X020946Y012064D01*
X020983Y012029D01*
X021022Y011996D01*
X021064Y011966D01*
X021107Y011940D01*
X021153Y011916D01*
X021200Y011896D01*
X021248Y011880D01*
X021298Y011867D01*
X021348Y011857D01*
X021399Y011852D01*
X021450Y011850D01*
X023750Y011850D01*
X023801Y011852D01*
X023852Y011857D01*
X023902Y011867D01*
X023952Y011880D01*
X024000Y011896D01*
X024047Y011916D01*
X024093Y011940D01*
X024136Y011966D01*
X024178Y011996D01*
X024217Y012029D01*
X024254Y012064D01*
X024288Y012102D01*
X024319Y012143D01*
X024348Y012185D01*
X024373Y012230D01*
X024394Y012276D01*
X024413Y012324D01*
X024427Y012373D01*
X024438Y012423D01*
X024446Y012473D01*
X024450Y012524D01*
X024450Y012576D01*
X024446Y012627D01*
X024438Y012677D01*
X024427Y012727D01*
X024413Y012776D01*
X024394Y012824D01*
X024373Y012870D01*
X024348Y012915D01*
X024319Y012957D01*
X024288Y012998D01*
X024254Y013036D01*
X024217Y013071D01*
X024178Y013104D01*
X024136Y013134D01*
X024093Y013160D01*
X024047Y013184D01*
X024000Y013204D01*
X023952Y013220D01*
X023902Y013233D01*
X023852Y013243D01*
X023801Y013248D01*
X023750Y013250D01*
X028600Y012350D02*
X028600Y011750D01*
X028602Y011733D01*
X028606Y011716D01*
X028613Y011700D01*
X028623Y011686D01*
X028636Y011673D01*
X028650Y011663D01*
X028666Y011656D01*
X028683Y011652D01*
X028700Y011650D01*
X028850Y011650D01*
X028900Y011700D01*
X030300Y011700D01*
X030350Y011650D01*
X030500Y011650D01*
X030517Y011652D01*
X030534Y011656D01*
X030550Y011663D01*
X030564Y011673D01*
X030577Y011686D01*
X030587Y011700D01*
X030594Y011716D01*
X030598Y011733D01*
X030600Y011750D01*
X030600Y012350D01*
X030598Y012367D01*
X030594Y012384D01*
X030587Y012400D01*
X030577Y012414D01*
X030564Y012427D01*
X030550Y012437D01*
X030534Y012444D01*
X030517Y012448D01*
X030500Y012450D01*
X030350Y012450D01*
X030300Y012400D01*
X028900Y012400D01*
X028850Y012450D01*
X028700Y012450D01*
X028683Y012448D01*
X028666Y012444D01*
X028650Y012437D01*
X028636Y012427D01*
X028623Y012414D01*
X028613Y012400D01*
X028606Y012384D01*
X028602Y012367D01*
X028600Y012350D01*
X029750Y012800D02*
X029750Y013300D01*
X029752Y013326D01*
X029757Y013352D01*
X029765Y013377D01*
X029777Y013400D01*
X029791Y013422D01*
X029809Y013441D01*
X029828Y013459D01*
X029850Y013473D01*
X029873Y013485D01*
X029898Y013493D01*
X029924Y013498D01*
X029950Y013500D01*
X031250Y013500D01*
X031276Y013498D01*
X031302Y013493D01*
X031327Y013485D01*
X031350Y013473D01*
X031372Y013459D01*
X031391Y013441D01*
X031409Y013422D01*
X031423Y013400D01*
X031435Y013377D01*
X031443Y013352D01*
X031448Y013326D01*
X031450Y013300D01*
X031450Y012800D01*
X031448Y012774D01*
X031443Y012748D01*
X031435Y012723D01*
X031423Y012700D01*
X031409Y012678D01*
X031391Y012659D01*
X031372Y012641D01*
X031350Y012627D01*
X031327Y012615D01*
X031302Y012607D01*
X031276Y012602D01*
X031250Y012600D01*
X029950Y012600D01*
X029924Y012602D01*
X029898Y012607D01*
X029873Y012615D01*
X029850Y012627D01*
X029828Y012641D01*
X029809Y012659D01*
X029791Y012678D01*
X029777Y012700D01*
X029765Y012723D01*
X029757Y012748D01*
X029752Y012774D01*
X029750Y012800D01*
X032450Y011300D02*
X032450Y010300D01*
X032452Y010283D01*
X032456Y010266D01*
X032463Y010250D01*
X032473Y010236D01*
X032486Y010223D01*
X032500Y010213D01*
X032516Y010206D01*
X032533Y010202D01*
X032550Y010200D01*
X033150Y010200D01*
X033167Y010202D01*
X033184Y010206D01*
X033200Y010213D01*
X033214Y010223D01*
X033227Y010236D01*
X033237Y010250D01*
X033244Y010266D01*
X033248Y010283D01*
X033250Y010300D01*
X033250Y011300D01*
X033248Y011317D01*
X033244Y011334D01*
X033237Y011350D01*
X033227Y011364D01*
X033214Y011377D01*
X033200Y011387D01*
X033184Y011394D01*
X033167Y011398D01*
X033150Y011400D01*
X032550Y011400D01*
X032533Y011398D01*
X032516Y011394D01*
X032500Y011387D01*
X032486Y011377D01*
X032473Y011364D01*
X032463Y011350D01*
X032456Y011334D01*
X032452Y011317D01*
X032450Y011300D01*
X035762Y010632D02*
X036229Y010632D01*
X035995Y010399D02*
X035995Y010866D01*
X029041Y009530D02*
X029041Y009350D01*
X028951Y009260D01*
X028680Y009260D01*
X028680Y009080D02*
X028680Y009620D01*
X028951Y009620D01*
X029041Y009530D01*
X028492Y009620D02*
X028312Y009620D01*
X028402Y009620D02*
X028402Y009080D01*
X028312Y009080D02*
X028492Y009080D01*
X028120Y009170D02*
X028120Y009530D01*
X028030Y009620D01*
X027760Y009620D01*
X027760Y009080D01*
X028030Y009080D01*
X028120Y009170D01*
X027567Y009350D02*
X027477Y009260D01*
X027207Y009260D01*
X027207Y009080D02*
X027207Y009620D01*
X027477Y009620D01*
X027567Y009530D01*
X027567Y009350D01*
X027015Y008990D02*
X026655Y008990D01*
X026372Y009260D02*
X026102Y009260D01*
X026102Y009080D02*
X026102Y009620D01*
X026372Y009620D01*
X026463Y009530D01*
X026463Y009350D01*
X026372Y009260D01*
X025910Y009260D02*
X025910Y009170D01*
X025820Y009080D01*
X025640Y009080D01*
X025550Y009170D01*
X025550Y009260D01*
X025640Y009350D01*
X025820Y009350D01*
X025910Y009260D01*
X025820Y009350D02*
X025910Y009440D01*
X025910Y009530D01*
X025820Y009620D01*
X025640Y009620D01*
X025550Y009530D01*
X025550Y009440D01*
X025640Y009350D01*
X025358Y009440D02*
X024997Y009080D01*
X025358Y009080D01*
X025358Y009440D02*
X025358Y009530D01*
X025268Y009620D01*
X025087Y009620D01*
X024997Y009530D01*
X024805Y009530D02*
X024805Y009440D01*
X024715Y009350D01*
X024805Y009260D01*
X024805Y009170D01*
X024715Y009080D01*
X024535Y009080D01*
X024445Y009170D01*
X024253Y009080D02*
X024253Y009440D01*
X024073Y009620D01*
X023892Y009440D01*
X023892Y009080D01*
X023700Y009170D02*
X023700Y009350D01*
X023520Y009350D01*
X023340Y009170D02*
X023430Y009080D01*
X023610Y009080D01*
X023700Y009170D01*
X023892Y009350D02*
X024253Y009350D01*
X024445Y009530D02*
X024535Y009620D01*
X024715Y009620D01*
X024805Y009530D01*
X024715Y009350D02*
X024625Y009350D01*
X023700Y009530D02*
X023610Y009620D01*
X023430Y009620D01*
X023340Y009530D01*
X023340Y009170D01*
X023148Y009080D02*
X022787Y009080D01*
X022787Y009620D01*
X023148Y009620D01*
X022968Y009350D02*
X022787Y009350D01*
X022595Y009620D02*
X022595Y009080D01*
X022235Y009080D02*
X022235Y009620D01*
X022415Y009440D01*
X022595Y009620D01*
X022043Y009620D02*
X021682Y009620D01*
X021863Y009620D02*
X021863Y009080D01*
X021490Y009080D02*
X021490Y009440D01*
X021310Y009620D01*
X021130Y009440D01*
X021130Y009080D01*
X021130Y009350D02*
X021490Y009350D01*
X016700Y010050D02*
X016650Y010000D01*
X016650Y008600D01*
X016700Y008550D01*
X016700Y008400D01*
X016698Y008383D01*
X016694Y008366D01*
X016687Y008350D01*
X016677Y008336D01*
X016664Y008323D01*
X016650Y008313D01*
X016634Y008306D01*
X016617Y008302D01*
X016600Y008300D01*
X016000Y008300D01*
X015983Y008302D01*
X015966Y008306D01*
X015950Y008313D01*
X015936Y008323D01*
X015923Y008336D01*
X015913Y008350D01*
X015906Y008366D01*
X015902Y008383D01*
X015900Y008400D01*
X015900Y008550D01*
X015950Y008600D01*
X015950Y010000D01*
X015900Y010050D01*
X015900Y010200D01*
X015902Y010217D01*
X015906Y010234D01*
X015913Y010250D01*
X015923Y010264D01*
X015936Y010277D01*
X015950Y010287D01*
X015966Y010294D01*
X015983Y010298D01*
X016000Y010300D01*
X016600Y010300D01*
X016617Y010298D01*
X016634Y010294D01*
X016650Y010287D01*
X016664Y010277D01*
X016677Y010264D01*
X016687Y010250D01*
X016694Y010234D01*
X016698Y010217D01*
X016700Y010200D01*
X016700Y010050D01*
X014100Y009550D02*
X014100Y007550D01*
X014100Y006550D01*
X010100Y006550D01*
X010100Y007550D01*
X010100Y008150D01*
X010139Y008152D01*
X010178Y008158D01*
X010216Y008167D01*
X010253Y008180D01*
X010289Y008197D01*
X010322Y008217D01*
X010354Y008241D01*
X010383Y008267D01*
X010409Y008296D01*
X010433Y008328D01*
X010453Y008361D01*
X010470Y008397D01*
X010483Y008434D01*
X010492Y008472D01*
X010498Y008511D01*
X010500Y008550D01*
X010498Y008589D01*
X010492Y008628D01*
X010483Y008666D01*
X010470Y008703D01*
X010453Y008739D01*
X010433Y008772D01*
X010409Y008804D01*
X010383Y008833D01*
X010354Y008859D01*
X010322Y008883D01*
X010289Y008903D01*
X010253Y008920D01*
X010216Y008933D01*
X010178Y008942D01*
X010139Y008948D01*
X010100Y008950D01*
X009550Y009200D02*
X009550Y007900D01*
X009548Y007874D01*
X009543Y007848D01*
X009535Y007823D01*
X009523Y007800D01*
X009509Y007778D01*
X009491Y007759D01*
X009472Y007741D01*
X009450Y007727D01*
X009427Y007715D01*
X009402Y007707D01*
X009376Y007702D01*
X009350Y007700D01*
X008850Y007700D01*
X008824Y007702D01*
X008798Y007707D01*
X008773Y007715D01*
X008750Y007727D01*
X008728Y007741D01*
X008709Y007759D01*
X008691Y007778D01*
X008677Y007800D01*
X008665Y007823D01*
X008657Y007848D01*
X008652Y007874D01*
X008650Y007900D01*
X008650Y009200D01*
X008652Y009226D01*
X008657Y009252D01*
X008665Y009277D01*
X008677Y009300D01*
X008691Y009322D01*
X008709Y009341D01*
X008728Y009359D01*
X008750Y009373D01*
X008773Y009385D01*
X008798Y009393D01*
X008824Y009398D01*
X008850Y009400D01*
X009350Y009400D01*
X009376Y009398D01*
X009402Y009393D01*
X009427Y009385D01*
X009450Y009373D01*
X009472Y009359D01*
X009491Y009341D01*
X009509Y009322D01*
X009523Y009300D01*
X009535Y009277D01*
X009543Y009252D01*
X009548Y009226D01*
X009550Y009200D01*
X010100Y009550D02*
X014100Y009550D01*
X014100Y010550D01*
X010100Y010550D01*
X010100Y009550D01*
X007500Y010150D02*
X007500Y010300D01*
X007450Y010350D01*
X007450Y011750D01*
X007500Y011800D01*
X007500Y011950D01*
X007498Y011967D01*
X007494Y011984D01*
X007487Y012000D01*
X007477Y012014D01*
X007464Y012027D01*
X007450Y012037D01*
X007434Y012044D01*
X007417Y012048D01*
X007400Y012050D01*
X006800Y012050D01*
X006783Y012048D01*
X006766Y012044D01*
X006750Y012037D01*
X006736Y012027D01*
X006723Y012014D01*
X006713Y012000D01*
X006706Y011984D01*
X006702Y011967D01*
X006700Y011950D01*
X006700Y011800D01*
X006750Y011750D01*
X006750Y010350D01*
X006700Y010300D01*
X006700Y010150D01*
X006702Y010133D01*
X006706Y010116D01*
X006713Y010100D01*
X006723Y010086D01*
X006736Y010073D01*
X006750Y010063D01*
X006766Y010056D01*
X006783Y010052D01*
X006800Y010050D01*
X007400Y010050D01*
X007417Y010052D01*
X007434Y010056D01*
X007450Y010063D01*
X007464Y010073D01*
X007477Y010086D01*
X007487Y010100D01*
X007494Y010116D01*
X007498Y010133D01*
X007500Y010150D01*
X006500Y010150D02*
X006500Y010300D01*
X006450Y010350D01*
X006450Y011750D01*
X006500Y011800D01*
X006500Y011950D01*
X006498Y011967D01*
X006494Y011984D01*
X006487Y012000D01*
X006477Y012014D01*
X006464Y012027D01*
X006450Y012037D01*
X006434Y012044D01*
X006417Y012048D01*
X006400Y012050D01*
X005800Y012050D01*
X005783Y012048D01*
X005766Y012044D01*
X005750Y012037D01*
X005736Y012027D01*
X005723Y012014D01*
X005713Y012000D01*
X005706Y011984D01*
X005702Y011967D01*
X005700Y011950D01*
X005700Y011800D01*
X005750Y011750D01*
X005750Y010350D01*
X005700Y010300D01*
X005700Y010150D01*
X005702Y010133D01*
X005706Y010116D01*
X005713Y010100D01*
X005723Y010086D01*
X005736Y010073D01*
X005750Y010063D01*
X005766Y010056D01*
X005783Y010052D01*
X005800Y010050D01*
X006400Y010050D01*
X006417Y010052D01*
X006434Y010056D01*
X006450Y010063D01*
X006464Y010073D01*
X006477Y010086D01*
X006487Y010100D01*
X006494Y010116D01*
X006498Y010133D01*
X006500Y010150D01*
X010100Y007550D02*
X014100Y007550D01*
X014400Y007950D02*
X014400Y006650D01*
X014402Y006624D01*
X014407Y006598D01*
X014415Y006573D01*
X014427Y006550D01*
X014441Y006528D01*
X014459Y006509D01*
X014478Y006491D01*
X014500Y006477D01*
X014523Y006465D01*
X014548Y006457D01*
X014574Y006452D01*
X014600Y006450D01*
X015100Y006450D01*
X015126Y006452D01*
X015152Y006457D01*
X015177Y006465D01*
X015200Y006477D01*
X015222Y006491D01*
X015241Y006509D01*
X015259Y006528D01*
X015273Y006550D01*
X015285Y006573D01*
X015293Y006598D01*
X015298Y006624D01*
X015300Y006650D01*
X015300Y007950D01*
X015298Y007976D01*
X015293Y008002D01*
X015285Y008027D01*
X015273Y008050D01*
X015259Y008072D01*
X015241Y008091D01*
X015222Y008109D01*
X015200Y008123D01*
X015177Y008135D01*
X015152Y008143D01*
X015126Y008148D01*
X015100Y008150D01*
X014600Y008150D01*
X014574Y008148D01*
X014548Y008143D01*
X014523Y008135D01*
X014500Y008123D01*
X014478Y008109D01*
X014459Y008091D01*
X014441Y008072D01*
X014427Y008050D01*
X014415Y008027D01*
X014407Y008002D01*
X014402Y007976D01*
X014400Y007950D01*
X012350Y005400D02*
X011850Y005400D01*
X011824Y005398D01*
X011798Y005393D01*
X011773Y005385D01*
X011750Y005373D01*
X011728Y005359D01*
X011709Y005341D01*
X011691Y005322D01*
X011677Y005300D01*
X011665Y005277D01*
X011657Y005252D01*
X011652Y005226D01*
X011650Y005200D01*
X011650Y003900D01*
X011652Y003874D01*
X011657Y003848D01*
X011665Y003823D01*
X011677Y003800D01*
X011691Y003778D01*
X011709Y003759D01*
X011728Y003741D01*
X011750Y003727D01*
X011773Y003715D01*
X011798Y003707D01*
X011824Y003702D01*
X011850Y003700D01*
X012350Y003700D01*
X012376Y003702D01*
X012402Y003707D01*
X012427Y003715D01*
X012450Y003727D01*
X012472Y003741D01*
X012491Y003759D01*
X012509Y003778D01*
X012523Y003800D01*
X012535Y003823D01*
X012543Y003848D01*
X012548Y003874D01*
X012550Y003900D01*
X012550Y005200D01*
X012548Y005226D01*
X012543Y005252D01*
X012535Y005277D01*
X012523Y005300D01*
X012509Y005322D01*
X012491Y005341D01*
X012472Y005359D01*
X012450Y005373D01*
X012427Y005385D01*
X012402Y005393D01*
X012376Y005398D01*
X012350Y005400D01*
X011500Y005250D02*
X011500Y003100D01*
X011498Y003083D01*
X011494Y003066D01*
X011487Y003050D01*
X011477Y003036D01*
X011464Y003023D01*
X011450Y003013D01*
X011434Y003006D01*
X011417Y003002D01*
X011400Y003000D01*
X010800Y003000D01*
X010783Y003002D01*
X010766Y003006D01*
X010750Y003013D01*
X010736Y003023D01*
X010723Y003036D01*
X010713Y003050D01*
X010706Y003066D01*
X010702Y003083D01*
X010700Y003100D01*
X010700Y005250D01*
X010750Y005250D01*
X011450Y005250D01*
X011500Y005250D01*
X011450Y005250D02*
X011450Y005400D01*
X010750Y005400D01*
X010750Y005250D01*
X010550Y005200D02*
X010550Y003900D01*
X010548Y003874D01*
X010543Y003848D01*
X010535Y003823D01*
X010523Y003800D01*
X010509Y003778D01*
X010491Y003759D01*
X010472Y003741D01*
X010450Y003727D01*
X010427Y003715D01*
X010402Y003707D01*
X010376Y003702D01*
X010350Y003700D01*
X009850Y003700D01*
X009824Y003702D01*
X009798Y003707D01*
X009773Y003715D01*
X009750Y003727D01*
X009728Y003741D01*
X009709Y003759D01*
X009691Y003778D01*
X009677Y003800D01*
X009665Y003823D01*
X009657Y003848D01*
X009652Y003874D01*
X009650Y003900D01*
X009650Y005200D01*
X009652Y005226D01*
X009657Y005252D01*
X009665Y005277D01*
X009677Y005300D01*
X009691Y005322D01*
X009709Y005341D01*
X009728Y005359D01*
X009750Y005373D01*
X009773Y005385D01*
X009798Y005393D01*
X009824Y005398D01*
X009850Y005400D01*
X010350Y005400D01*
X010376Y005398D01*
X010402Y005393D01*
X010427Y005385D01*
X010450Y005373D01*
X010472Y005359D01*
X010491Y005341D01*
X010509Y005322D01*
X010523Y005300D01*
X010535Y005277D01*
X010543Y005252D01*
X010548Y005226D01*
X010550Y005200D01*
X011100Y004600D02*
X011100Y004400D01*
X010900Y004400D01*
X010900Y004250D02*
X010900Y004100D01*
X011300Y004100D01*
X011300Y004250D01*
X010900Y004250D01*
X011100Y004400D02*
X011300Y004400D01*
X011300Y003950D02*
X011100Y003950D01*
X010900Y003950D01*
X011100Y003950D02*
X011100Y003750D01*
X018100Y003350D02*
X018100Y002750D01*
X018102Y002733D01*
X018106Y002716D01*
X018113Y002700D01*
X018123Y002686D01*
X018136Y002673D01*
X018150Y002663D01*
X018166Y002656D01*
X018183Y002652D01*
X018200Y002650D01*
X018350Y002650D01*
X018400Y002700D01*
X019800Y002700D01*
X019850Y002650D01*
X020000Y002650D01*
X020017Y002652D01*
X020034Y002656D01*
X020050Y002663D01*
X020064Y002673D01*
X020077Y002686D01*
X020087Y002700D01*
X020094Y002716D01*
X020098Y002733D01*
X020100Y002750D01*
X020100Y003350D01*
X020098Y003367D01*
X020094Y003384D01*
X020087Y003400D01*
X020077Y003414D01*
X020064Y003427D01*
X020050Y003437D01*
X020034Y003444D01*
X020017Y003448D01*
X020000Y003450D01*
X019850Y003450D01*
X019800Y003400D01*
X018400Y003400D01*
X018350Y003450D01*
X018200Y003450D01*
X018183Y003448D01*
X018166Y003444D01*
X018150Y003437D01*
X018136Y003427D01*
X018123Y003414D01*
X018113Y003400D01*
X018106Y003384D01*
X018102Y003367D01*
X018100Y003350D01*
X018700Y003650D02*
X018850Y003650D01*
X018900Y003700D01*
X020300Y003700D01*
X020350Y003650D01*
X020500Y003650D01*
X020517Y003652D01*
X020534Y003656D01*
X020550Y003663D01*
X020564Y003673D01*
X020577Y003686D01*
X020587Y003700D01*
X020594Y003716D01*
X020598Y003733D01*
X020600Y003750D01*
X020600Y004350D01*
X020598Y004367D01*
X020594Y004384D01*
X020587Y004400D01*
X020577Y004414D01*
X020564Y004427D01*
X020550Y004437D01*
X020534Y004444D01*
X020517Y004448D01*
X020500Y004450D01*
X020350Y004450D01*
X020300Y004400D01*
X018900Y004400D01*
X018850Y004450D01*
X018700Y004450D01*
X018683Y004448D01*
X018666Y004444D01*
X018650Y004437D01*
X018636Y004427D01*
X018623Y004414D01*
X018613Y004400D01*
X018606Y004384D01*
X018602Y004367D01*
X018600Y004350D01*
X018600Y003750D01*
X018602Y003733D01*
X018606Y003716D01*
X018613Y003700D01*
X018623Y003686D01*
X018636Y003673D01*
X018650Y003663D01*
X018666Y003656D01*
X018683Y003652D01*
X018700Y003650D01*
X019200Y004650D02*
X019350Y004650D01*
X019400Y004700D01*
X020800Y004700D01*
X020850Y004650D01*
X021000Y004650D01*
X021017Y004652D01*
X021034Y004656D01*
X021050Y004663D01*
X021064Y004673D01*
X021077Y004686D01*
X021087Y004700D01*
X021094Y004716D01*
X021098Y004733D01*
X021100Y004750D01*
X021100Y005350D01*
X021098Y005367D01*
X021094Y005384D01*
X021087Y005400D01*
X021077Y005414D01*
X021064Y005427D01*
X021050Y005437D01*
X021034Y005444D01*
X021017Y005448D01*
X021000Y005450D01*
X020850Y005450D01*
X020800Y005400D01*
X019400Y005400D01*
X019350Y005450D01*
X019200Y005450D01*
X019183Y005448D01*
X019166Y005444D01*
X019150Y005437D01*
X019136Y005427D01*
X019123Y005414D01*
X019113Y005400D01*
X019106Y005384D01*
X019102Y005367D01*
X019100Y005350D01*
X019100Y004750D01*
X019102Y004733D01*
X019106Y004716D01*
X019113Y004700D01*
X019123Y004686D01*
X019136Y004673D01*
X019150Y004663D01*
X019166Y004656D01*
X019183Y004652D01*
X019200Y004650D01*
X019700Y005650D02*
X019850Y005650D01*
X019900Y005700D01*
X021300Y005700D01*
X021350Y005650D01*
X021500Y005650D01*
X021517Y005652D01*
X021534Y005656D01*
X021550Y005663D01*
X021564Y005673D01*
X021577Y005686D01*
X021587Y005700D01*
X021594Y005716D01*
X021598Y005733D01*
X021600Y005750D01*
X021600Y006350D01*
X021598Y006367D01*
X021594Y006384D01*
X021587Y006400D01*
X021577Y006414D01*
X021564Y006427D01*
X021550Y006437D01*
X021534Y006444D01*
X021517Y006448D01*
X021500Y006450D01*
X021350Y006450D01*
X021300Y006400D01*
X019900Y006400D01*
X019850Y006450D01*
X019700Y006450D01*
X019683Y006448D01*
X019666Y006444D01*
X019650Y006437D01*
X019636Y006427D01*
X019623Y006414D01*
X019613Y006400D01*
X019606Y006384D01*
X019602Y006367D01*
X019600Y006350D01*
X019600Y005750D01*
X019602Y005733D01*
X019606Y005716D01*
X019613Y005700D01*
X019623Y005686D01*
X019636Y005673D01*
X019650Y005663D01*
X019666Y005656D01*
X019683Y005652D01*
X019700Y005650D01*
X023100Y006100D02*
X023100Y006600D01*
X023102Y006626D01*
X023107Y006652D01*
X023115Y006677D01*
X023127Y006700D01*
X023141Y006722D01*
X023159Y006741D01*
X023178Y006759D01*
X023200Y006773D01*
X023223Y006785D01*
X023248Y006793D01*
X023274Y006798D01*
X023300Y006800D01*
X024600Y006800D01*
X024626Y006798D01*
X024652Y006793D01*
X024677Y006785D01*
X024700Y006773D01*
X024722Y006759D01*
X024741Y006741D01*
X024759Y006722D01*
X024773Y006700D01*
X024785Y006677D01*
X024793Y006652D01*
X024798Y006626D01*
X024800Y006600D01*
X024800Y006100D01*
X024798Y006074D01*
X024793Y006048D01*
X024785Y006023D01*
X024773Y006000D01*
X024759Y005978D01*
X024741Y005959D01*
X024722Y005941D01*
X024700Y005927D01*
X024677Y005915D01*
X024652Y005907D01*
X024626Y005902D01*
X024600Y005900D01*
X023300Y005900D01*
X023750Y005550D02*
X023750Y005050D01*
X023752Y005024D01*
X023757Y004998D01*
X023765Y004973D01*
X023777Y004950D01*
X023791Y004928D01*
X023809Y004909D01*
X023828Y004891D01*
X023850Y004877D01*
X023873Y004865D01*
X023898Y004857D01*
X023924Y004852D01*
X023950Y004850D01*
X025250Y004850D01*
X025276Y004852D01*
X025302Y004857D01*
X025327Y004865D01*
X025350Y004877D01*
X025372Y004891D01*
X025391Y004909D01*
X025409Y004928D01*
X025423Y004950D01*
X025435Y004973D01*
X025443Y004998D01*
X025448Y005024D01*
X025450Y005050D01*
X025450Y005550D01*
X025448Y005576D01*
X025443Y005602D01*
X025435Y005627D01*
X025423Y005650D01*
X025409Y005672D01*
X025391Y005691D01*
X025372Y005709D01*
X025350Y005723D01*
X025327Y005735D01*
X025302Y005743D01*
X025276Y005748D01*
X025250Y005750D01*
X023950Y005750D01*
X023924Y005748D01*
X023898Y005743D01*
X023873Y005735D01*
X023850Y005723D01*
X023828Y005709D01*
X023809Y005691D01*
X023791Y005672D01*
X023777Y005650D01*
X023765Y005627D01*
X023757Y005602D01*
X023752Y005576D01*
X023750Y005550D01*
X023300Y005900D02*
X023274Y005902D01*
X023248Y005907D01*
X023223Y005915D01*
X023200Y005927D01*
X023178Y005941D01*
X023159Y005959D01*
X023141Y005978D01*
X023127Y006000D01*
X023115Y006023D01*
X023107Y006048D01*
X023102Y006074D01*
X023100Y006100D01*
X023277Y003770D02*
X023424Y003624D01*
X023424Y003330D01*
X023590Y003477D02*
X023737Y003330D01*
X023884Y003477D01*
X023884Y003770D01*
X024051Y003770D02*
X024271Y003770D01*
X024344Y003697D01*
X024344Y003550D01*
X024271Y003477D01*
X024051Y003477D01*
X024198Y003477D02*
X024344Y003330D01*
X024051Y003330D02*
X024051Y003770D01*
X023590Y003770D02*
X023590Y003477D01*
X023424Y003550D02*
X023130Y003550D01*
X023130Y003624D02*
X023277Y003770D01*
X023130Y003624D02*
X023130Y003330D01*
X024511Y003550D02*
X024805Y003550D01*
X024972Y003770D02*
X025118Y003770D01*
X025045Y003770D02*
X025045Y003330D01*
X024972Y003330D02*
X025118Y003330D01*
X025278Y003403D02*
X025352Y003330D01*
X025499Y003330D01*
X025572Y003403D01*
X025572Y003477D01*
X025499Y003550D01*
X025352Y003550D01*
X025278Y003624D01*
X025278Y003697D01*
X025352Y003770D01*
X025499Y003770D01*
X025572Y003697D01*
X025739Y003770D02*
X025959Y003770D01*
X026032Y003697D01*
X026032Y003550D01*
X025959Y003477D01*
X025739Y003477D01*
X025739Y003330D02*
X025739Y003770D01*
X028100Y005500D02*
X028100Y006100D01*
X028102Y006117D01*
X028106Y006134D01*
X028113Y006150D01*
X028123Y006164D01*
X028136Y006177D01*
X028150Y006187D01*
X028166Y006194D01*
X028183Y006198D01*
X028200Y006200D01*
X028350Y006200D01*
X028400Y006150D01*
X029800Y006150D01*
X029850Y006200D01*
X030000Y006200D01*
X030017Y006198D01*
X030034Y006194D01*
X030050Y006187D01*
X030064Y006177D01*
X030077Y006164D01*
X030087Y006150D01*
X030094Y006134D01*
X030098Y006117D01*
X030100Y006100D01*
X030100Y005500D01*
X030098Y005483D01*
X030094Y005466D01*
X030087Y005450D01*
X030077Y005436D01*
X030064Y005423D01*
X030050Y005413D01*
X030034Y005406D01*
X030017Y005402D01*
X030000Y005400D01*
X029850Y005400D01*
X029800Y005450D01*
X028400Y005450D01*
X028350Y005400D01*
X028200Y005400D01*
X028183Y005402D01*
X028166Y005406D01*
X028150Y005413D01*
X028136Y005423D01*
X028123Y005436D01*
X028113Y005450D01*
X028106Y005466D01*
X028102Y005483D01*
X028100Y005500D01*
X029100Y004600D02*
X029100Y004000D01*
X029102Y003983D01*
X029106Y003966D01*
X029113Y003950D01*
X029123Y003936D01*
X029136Y003923D01*
X029150Y003913D01*
X029166Y003906D01*
X029183Y003902D01*
X029200Y003900D01*
X029350Y003900D01*
X029400Y003950D01*
X030800Y003950D01*
X030850Y003900D01*
X031000Y003900D01*
X031017Y003902D01*
X031034Y003906D01*
X031050Y003913D01*
X031064Y003923D01*
X031077Y003936D01*
X031087Y003950D01*
X031094Y003966D01*
X031098Y003983D01*
X031100Y004000D01*
X031100Y004600D01*
X031098Y004617D01*
X031094Y004634D01*
X031087Y004650D01*
X031077Y004664D01*
X031064Y004677D01*
X031050Y004687D01*
X031034Y004694D01*
X031017Y004698D01*
X031000Y004700D01*
X030850Y004700D01*
X030800Y004650D01*
X029400Y004650D01*
X029350Y004700D01*
X029200Y004700D01*
X029183Y004698D01*
X029166Y004694D01*
X029150Y004687D01*
X029136Y004677D01*
X029123Y004664D01*
X029113Y004650D01*
X029106Y004634D01*
X029102Y004617D01*
X029100Y004600D01*
X028850Y002050D02*
X029350Y002050D01*
X029600Y001800D01*
X029850Y002050D01*
X030350Y002050D01*
X030600Y001800D01*
X030850Y002050D01*
X031350Y002050D01*
X031600Y001800D01*
X031600Y001300D01*
X031350Y001050D01*
X030850Y001050D01*
X030600Y001300D01*
X030350Y001050D01*
X029850Y001050D01*
X029600Y001300D01*
X029350Y001050D01*
X028850Y001050D01*
X028600Y001300D01*
X028350Y001050D01*
X027850Y001050D01*
X027600Y001300D01*
X027600Y001800D01*
X027850Y002050D01*
X028350Y002050D01*
X028600Y001800D01*
X028850Y002050D01*
X035096Y001387D02*
X035098Y001426D01*
X035104Y001465D01*
X035114Y001504D01*
X035127Y001541D01*
X035144Y001576D01*
X035165Y001610D01*
X035189Y001642D01*
X035215Y001670D01*
X035245Y001697D01*
X035277Y001720D01*
X035311Y001739D01*
X035347Y001756D01*
X035385Y001768D01*
X035423Y001777D01*
X035462Y001782D01*
X035502Y001783D01*
X035541Y001780D01*
X035580Y001773D01*
X035618Y001762D01*
X035655Y001748D01*
X035690Y001730D01*
X035723Y001709D01*
X035754Y001684D01*
X035782Y001656D01*
X035808Y001626D01*
X035830Y001593D01*
X035849Y001559D01*
X035864Y001522D01*
X035876Y001485D01*
X035884Y001446D01*
X035888Y001407D01*
X035888Y001367D01*
X035884Y001328D01*
X035876Y001289D01*
X035864Y001252D01*
X035849Y001215D01*
X035830Y001181D01*
X035808Y001148D01*
X035782Y001118D01*
X035754Y001090D01*
X035723Y001065D01*
X035690Y001044D01*
X035655Y001026D01*
X035618Y001012D01*
X035580Y001001D01*
X035541Y000994D01*
X035502Y000991D01*
X035462Y000992D01*
X035423Y000997D01*
X035385Y001006D01*
X035347Y001018D01*
X035311Y001035D01*
X035277Y001054D01*
X035245Y001077D01*
X035215Y001104D01*
X035189Y001132D01*
X035165Y001164D01*
X035144Y001198D01*
X035127Y001233D01*
X035114Y001270D01*
X035104Y001309D01*
X035098Y001348D01*
X035096Y001387D01*
X037100Y016050D02*
X037100Y016250D01*
X037100Y016050D02*
X037300Y016050D01*
X037900Y016050D02*
X038100Y016050D01*
X038100Y016250D01*
X038100Y016850D02*
X038100Y017050D01*
X037900Y017050D01*
X037300Y017050D02*
X037100Y017050D01*
X037100Y016850D01*
X037100Y017550D02*
X037100Y017750D01*
X037100Y017550D02*
X037300Y017550D01*
X037900Y017550D02*
X038100Y017550D01*
X038100Y017750D01*
X038100Y018350D02*
X038100Y018550D01*
X037900Y018550D01*
X037300Y018550D02*
X037100Y018550D01*
X037100Y018350D01*
X034600Y017550D02*
X034602Y017613D01*
X034608Y017675D01*
X034618Y017737D01*
X034631Y017799D01*
X034649Y017859D01*
X034670Y017918D01*
X034695Y017976D01*
X034724Y018032D01*
X034756Y018086D01*
X034791Y018138D01*
X034829Y018187D01*
X034871Y018235D01*
X034915Y018279D01*
X034963Y018321D01*
X035012Y018359D01*
X035064Y018394D01*
X035118Y018426D01*
X035174Y018455D01*
X035232Y018480D01*
X035291Y018501D01*
X035351Y018519D01*
X035413Y018532D01*
X035475Y018542D01*
X035537Y018548D01*
X035600Y018550D01*
X035663Y018548D01*
X035725Y018542D01*
X035787Y018532D01*
X035849Y018519D01*
X035909Y018501D01*
X035968Y018480D01*
X036026Y018455D01*
X036082Y018426D01*
X036136Y018394D01*
X036188Y018359D01*
X036237Y018321D01*
X036285Y018279D01*
X036329Y018235D01*
X036371Y018187D01*
X036409Y018138D01*
X036444Y018086D01*
X036476Y018032D01*
X036505Y017976D01*
X036530Y017918D01*
X036551Y017859D01*
X036569Y017799D01*
X036582Y017737D01*
X036592Y017675D01*
X036598Y017613D01*
X036600Y017550D01*
X036598Y017487D01*
X036592Y017425D01*
X036582Y017363D01*
X036569Y017301D01*
X036551Y017241D01*
X036530Y017182D01*
X036505Y017124D01*
X036476Y017068D01*
X036444Y017014D01*
X036409Y016962D01*
X036371Y016913D01*
X036329Y016865D01*
X036285Y016821D01*
X036237Y016779D01*
X036188Y016741D01*
X036136Y016706D01*
X036082Y016674D01*
X036026Y016645D01*
X035968Y016620D01*
X035909Y016599D01*
X035849Y016581D01*
X035787Y016568D01*
X035725Y016558D01*
X035663Y016552D01*
X035600Y016550D01*
X035537Y016552D01*
X035475Y016558D01*
X035413Y016568D01*
X035351Y016581D01*
X035291Y016599D01*
X035232Y016620D01*
X035174Y016645D01*
X035118Y016674D01*
X035064Y016706D01*
X035012Y016741D01*
X034963Y016779D01*
X034915Y016821D01*
X034871Y016865D01*
X034829Y016913D01*
X034791Y016962D01*
X034756Y017014D01*
X034724Y017068D01*
X034695Y017124D01*
X034670Y017182D01*
X034649Y017241D01*
X034631Y017301D01*
X034618Y017363D01*
X034608Y017425D01*
X034602Y017487D01*
X034600Y017550D01*
X035100Y017100D02*
X035100Y017000D01*
X035000Y017000D01*
X035100Y017000D02*
X035200Y017000D01*
X035100Y017000D02*
X035100Y016900D01*
X032470Y016140D02*
X032470Y015980D01*
X032290Y015120D02*
X032232Y015094D01*
X032173Y015073D01*
X032112Y015055D01*
X032051Y015041D01*
X031988Y015031D01*
X031926Y015025D01*
X031862Y015022D01*
X031799Y015023D01*
X031736Y015029D01*
X031674Y015038D01*
X031612Y015051D01*
X031551Y015068D01*
X031491Y015088D01*
X031433Y015112D01*
X031376Y015140D01*
X031321Y015171D01*
X031269Y015206D01*
X031218Y015244D01*
X031170Y015284D01*
X031124Y015328D01*
X031081Y015374D01*
X031041Y015423D01*
X031004Y015475D01*
X030971Y015528D01*
X030940Y015583D01*
X030914Y015641D01*
X030890Y015699D01*
X030871Y015759D01*
X030855Y015821D01*
X030843Y015883D01*
X030835Y015945D01*
X030831Y016008D01*
X030830Y016071D01*
X030834Y016134D01*
X030841Y016197D01*
X030852Y016259D01*
X030868Y016321D01*
X030886Y016381D01*
X030909Y016440D01*
X030935Y016498D01*
X030965Y016553D01*
X030997Y016607D01*
X031034Y016659D01*
X031073Y016708D01*
X031115Y016755D01*
X031160Y016799D01*
X031208Y016841D01*
X031258Y016879D01*
X031311Y016914D01*
X031366Y016946D01*
X031422Y016974D01*
X031480Y016999D01*
X031539Y017020D01*
X031600Y017038D01*
X031662Y017052D01*
X031724Y017062D01*
X031787Y017068D01*
X031850Y017070D01*
X031908Y017068D01*
X031965Y017064D01*
X032023Y017056D01*
X032080Y017045D01*
X032136Y017030D01*
X032192Y017013D01*
X032246Y016993D01*
X032300Y016970D01*
X030900Y018250D02*
X030902Y018313D01*
X030908Y018375D01*
X030918Y018437D01*
X030931Y018499D01*
X030949Y018559D01*
X030970Y018618D01*
X030995Y018676D01*
X031024Y018732D01*
X031056Y018786D01*
X031091Y018838D01*
X031129Y018887D01*
X031171Y018935D01*
X031215Y018979D01*
X031263Y019021D01*
X031312Y019059D01*
X031364Y019094D01*
X031418Y019126D01*
X031474Y019155D01*
X031532Y019180D01*
X031591Y019201D01*
X031651Y019219D01*
X031713Y019232D01*
X031775Y019242D01*
X031837Y019248D01*
X031900Y019250D01*
X031963Y019248D01*
X032025Y019242D01*
X032087Y019232D01*
X032149Y019219D01*
X032209Y019201D01*
X032268Y019180D01*
X032326Y019155D01*
X032382Y019126D01*
X032436Y019094D01*
X032488Y019059D01*
X032537Y019021D01*
X032585Y018979D01*
X032629Y018935D01*
X032671Y018887D01*
X032709Y018838D01*
X032744Y018786D01*
X032776Y018732D01*
X032805Y018676D01*
X032830Y018618D01*
X032851Y018559D01*
X032869Y018499D01*
X032882Y018437D01*
X032892Y018375D01*
X032898Y018313D01*
X032900Y018250D01*
X032898Y018187D01*
X032892Y018125D01*
X032882Y018063D01*
X032869Y018001D01*
X032851Y017941D01*
X032830Y017882D01*
X032805Y017824D01*
X032776Y017768D01*
X032744Y017714D01*
X032709Y017662D01*
X032671Y017613D01*
X032629Y017565D01*
X032585Y017521D01*
X032537Y017479D01*
X032488Y017441D01*
X032436Y017406D01*
X032382Y017374D01*
X032326Y017345D01*
X032268Y017320D01*
X032209Y017299D01*
X032149Y017281D01*
X032087Y017268D01*
X032025Y017258D01*
X031963Y017252D01*
X031900Y017250D01*
X031837Y017252D01*
X031775Y017258D01*
X031713Y017268D01*
X031651Y017281D01*
X031591Y017299D01*
X031532Y017320D01*
X031474Y017345D01*
X031418Y017374D01*
X031364Y017406D01*
X031312Y017441D01*
X031263Y017479D01*
X031215Y017521D01*
X031171Y017565D01*
X031129Y017613D01*
X031091Y017662D01*
X031056Y017714D01*
X031024Y017768D01*
X030995Y017824D01*
X030970Y017882D01*
X030949Y017941D01*
X030931Y018001D01*
X030918Y018063D01*
X030908Y018125D01*
X030902Y018187D01*
X030900Y018250D01*
X031350Y018650D02*
X031350Y018750D01*
X031350Y018850D01*
X031350Y018750D02*
X031450Y018750D01*
X031350Y018750D02*
X031250Y018750D01*
X002100Y007300D02*
X002100Y006800D01*
X001850Y006550D01*
X002100Y006300D01*
X002100Y005800D01*
X001850Y005550D01*
X002100Y005300D01*
X002100Y004800D01*
X001850Y004550D01*
X001350Y004550D01*
X001100Y004800D01*
X001100Y005300D01*
X001350Y005550D01*
X001100Y005800D01*
X001100Y006300D01*
X001350Y006550D01*
X001100Y006800D01*
X001100Y007300D01*
X001350Y007550D01*
X001850Y007550D01*
X002100Y007300D01*
D14*
X000830Y008097D02*
X000370Y008097D01*
X000370Y008327D01*
X000446Y008404D01*
X000600Y008404D01*
X000677Y008327D01*
X000677Y008097D01*
X000677Y008251D02*
X000830Y008404D01*
X000753Y008558D02*
X000370Y008558D01*
X000753Y008558D02*
X000830Y008634D01*
X000830Y008788D01*
X000753Y008865D01*
X000370Y008865D01*
X000370Y009018D02*
X000830Y009325D01*
X000370Y009325D01*
X000370Y009785D02*
X000830Y009478D01*
X000753Y009939D02*
X000830Y010016D01*
X000830Y010169D01*
X000753Y010246D01*
X000677Y010246D01*
X000600Y010169D01*
X000600Y010016D01*
X000523Y009939D01*
X000446Y009939D01*
X000370Y010016D01*
X000370Y010169D01*
X000446Y010246D01*
X000370Y010399D02*
X000830Y010399D01*
X000830Y010706D01*
X000600Y010553D02*
X000600Y010399D01*
X000370Y010399D02*
X000370Y010706D01*
X000370Y010860D02*
X000370Y011167D01*
X000370Y011013D02*
X000830Y011013D01*
X002370Y010167D02*
X002370Y009860D01*
X002600Y009860D01*
X002523Y010013D01*
X002523Y010090D01*
X002600Y010167D01*
X002753Y010167D01*
X002830Y010090D01*
X002830Y009936D01*
X002753Y009860D01*
X002753Y009706D02*
X002830Y009629D01*
X002830Y009476D01*
X002753Y009399D01*
X002600Y009476D02*
X002523Y009399D01*
X002446Y009399D01*
X002370Y009476D01*
X002370Y009629D01*
X002446Y009706D01*
X002600Y009629D02*
X002677Y009706D01*
X002753Y009706D01*
X002600Y009629D02*
X002600Y009476D01*
X000830Y009018D02*
X000370Y009018D01*
X005930Y010332D02*
X005930Y010449D01*
X005988Y010507D01*
X006046Y010507D01*
X006105Y010449D01*
X006163Y010507D01*
X006222Y010507D01*
X006280Y010449D01*
X006280Y010332D01*
X006222Y010274D01*
X006105Y010390D02*
X006105Y010449D01*
X005988Y010274D02*
X005930Y010332D01*
X005988Y010633D02*
X005930Y010691D01*
X005930Y010808D01*
X005988Y010866D01*
X006046Y010866D01*
X006105Y010808D01*
X006163Y010866D01*
X006222Y010866D01*
X006280Y010808D01*
X006280Y010691D01*
X006222Y010633D01*
X006105Y010749D02*
X006105Y010808D01*
X006222Y010992D02*
X005988Y011225D01*
X006222Y011225D01*
X006280Y011167D01*
X006280Y011050D01*
X006222Y010992D01*
X005988Y010992D01*
X005930Y011050D01*
X005930Y011167D01*
X005988Y011225D01*
X005930Y011351D02*
X005930Y011526D01*
X005988Y011584D01*
X006105Y011584D01*
X006163Y011526D01*
X006163Y011351D01*
X006163Y011468D02*
X006280Y011584D01*
X006280Y011351D02*
X005930Y011351D01*
X006930Y011351D02*
X006930Y011526D01*
X006988Y011584D01*
X007105Y011584D01*
X007163Y011526D01*
X007163Y011351D01*
X007163Y011468D02*
X007280Y011584D01*
X007280Y011351D02*
X006930Y011351D01*
X006988Y011225D02*
X007222Y010992D01*
X007280Y011050D01*
X007280Y011167D01*
X007222Y011225D01*
X006988Y011225D01*
X006930Y011167D01*
X006930Y011050D01*
X006988Y010992D01*
X007222Y010992D01*
X007222Y010866D02*
X007280Y010808D01*
X007280Y010691D01*
X007222Y010633D01*
X007222Y010507D02*
X007280Y010449D01*
X007280Y010332D01*
X007222Y010274D01*
X007105Y010390D02*
X007105Y010449D01*
X007163Y010507D01*
X007222Y010507D01*
X007105Y010449D02*
X007046Y010507D01*
X006988Y010507D01*
X006930Y010449D01*
X006930Y010332D01*
X006988Y010274D01*
X006988Y010633D02*
X006930Y010691D01*
X006930Y010808D01*
X006988Y010866D01*
X007046Y010866D01*
X007105Y010808D01*
X007163Y010866D01*
X007222Y010866D01*
X007105Y010808D02*
X007105Y010749D01*
X010870Y008680D02*
X010990Y008560D01*
X011110Y008680D01*
X011110Y008320D01*
X011238Y008380D02*
X011238Y008620D01*
X011298Y008680D01*
X011418Y008680D01*
X011479Y008620D01*
X011607Y008680D02*
X011607Y008320D01*
X011607Y008440D02*
X011787Y008440D01*
X011847Y008500D01*
X011847Y008620D01*
X011787Y008680D01*
X011607Y008680D01*
X011975Y008680D02*
X012215Y008680D01*
X012215Y008620D01*
X011975Y008380D01*
X011975Y008320D01*
X012343Y008380D02*
X012403Y008320D01*
X012523Y008320D01*
X012583Y008380D01*
X012583Y008620D01*
X012523Y008680D01*
X012403Y008680D01*
X012343Y008620D01*
X012343Y008560D01*
X012403Y008500D01*
X012583Y008500D01*
X012712Y008500D02*
X012952Y008500D01*
X013080Y008380D02*
X013080Y008620D01*
X013140Y008680D01*
X013260Y008680D01*
X013320Y008620D01*
X013080Y008380D01*
X013140Y008320D01*
X013260Y008320D01*
X013320Y008380D01*
X013320Y008620D01*
X013448Y008680D02*
X013688Y008320D01*
X013688Y008680D01*
X013448Y008680D02*
X013448Y008320D01*
X012892Y008320D02*
X012892Y008680D01*
X012712Y008500D01*
X011479Y008380D02*
X011418Y008320D01*
X011298Y008320D01*
X011238Y008380D01*
X010870Y008320D02*
X010870Y008680D01*
X016130Y009418D02*
X016480Y009418D01*
X016480Y009302D02*
X016480Y009535D01*
X016480Y009661D02*
X016130Y009661D01*
X016246Y009836D02*
X016363Y009661D01*
X016480Y009836D01*
X016130Y009418D02*
X016246Y009302D01*
X019980Y006172D02*
X020038Y006230D01*
X020155Y006230D01*
X020214Y006172D01*
X020214Y006114D01*
X019980Y005880D01*
X020214Y005880D01*
X020339Y005880D02*
X020573Y006114D01*
X020573Y006172D01*
X020514Y006230D01*
X020397Y006230D01*
X020339Y006172D01*
X020698Y006230D02*
X020698Y005880D01*
X020698Y005997D02*
X020873Y006114D01*
X020698Y005997D02*
X020873Y005880D01*
X020573Y005880D02*
X020339Y005880D01*
X020198Y005230D02*
X020198Y004880D01*
X020198Y004997D02*
X020373Y004880D01*
X020198Y004997D02*
X020373Y005114D01*
X020073Y005114D02*
X020073Y005172D01*
X020014Y005230D01*
X019897Y005230D01*
X019839Y005172D01*
X019714Y005172D02*
X019655Y005230D01*
X019538Y005230D01*
X019480Y005172D01*
X019714Y005172D02*
X019714Y005114D01*
X019480Y004880D01*
X019714Y004880D01*
X019839Y004880D02*
X020073Y005114D01*
X020073Y004880D02*
X019839Y004880D01*
X019698Y004230D02*
X019698Y003880D01*
X019698Y003997D02*
X019873Y003880D01*
X019698Y003997D02*
X019873Y004114D01*
X019573Y004114D02*
X019573Y004172D01*
X019514Y004230D01*
X019397Y004230D01*
X019339Y004172D01*
X019214Y004172D02*
X019155Y004230D01*
X019038Y004230D01*
X018980Y004172D01*
X019214Y004172D02*
X019214Y004114D01*
X018980Y003880D01*
X019214Y003880D01*
X019339Y003880D02*
X019573Y004114D01*
X019573Y003880D02*
X019339Y003880D01*
X019277Y003220D02*
X019160Y003220D01*
X019102Y003162D01*
X018976Y003162D02*
X018918Y003220D01*
X018801Y003220D01*
X018743Y003162D01*
X018976Y003162D02*
X018976Y003104D01*
X018743Y002870D01*
X018976Y002870D01*
X019102Y002870D02*
X019335Y003104D01*
X019335Y003162D01*
X019277Y003220D01*
X019461Y003220D02*
X019461Y002870D01*
X019461Y002987D02*
X019636Y003104D01*
X019461Y002987D02*
X019636Y002870D01*
X019335Y002870D02*
X019102Y002870D01*
X026160Y002627D02*
X026313Y002780D01*
X026313Y002320D01*
X026160Y002320D02*
X026467Y002320D01*
X029902Y003420D02*
X029902Y003770D01*
X030077Y003770D01*
X030135Y003712D01*
X030135Y003595D01*
X030077Y003537D01*
X029902Y003537D01*
X030019Y003537D02*
X030135Y003420D01*
X030261Y003420D02*
X030494Y003654D01*
X030494Y003712D01*
X030436Y003770D01*
X030319Y003770D01*
X030261Y003712D01*
X030261Y003420D02*
X030494Y003420D01*
X030401Y004120D02*
X030634Y004354D01*
X030634Y004412D01*
X030576Y004470D01*
X030459Y004470D01*
X030401Y004412D01*
X030277Y004354D02*
X030102Y004237D01*
X030277Y004120D01*
X030401Y004120D02*
X030634Y004120D01*
X030102Y004120D02*
X030102Y004470D01*
X029976Y004412D02*
X029918Y004470D01*
X029801Y004470D01*
X029743Y004412D01*
X029976Y004412D02*
X029976Y004354D01*
X029743Y004120D01*
X029976Y004120D01*
X029436Y004920D02*
X029319Y004920D01*
X029261Y004978D01*
X029135Y004920D02*
X029019Y005037D01*
X029077Y005037D02*
X028902Y005037D01*
X028902Y004920D02*
X028902Y005270D01*
X029077Y005270D01*
X029135Y005212D01*
X029135Y005095D01*
X029077Y005037D01*
X029261Y005212D02*
X029319Y005270D01*
X029436Y005270D01*
X029494Y005212D01*
X029494Y005154D01*
X029436Y005095D01*
X029494Y005037D01*
X029494Y004978D01*
X029436Y004920D01*
X029436Y005095D02*
X029378Y005095D01*
X029401Y005620D02*
X029634Y005854D01*
X029634Y005912D01*
X029576Y005970D01*
X029459Y005970D01*
X029401Y005912D01*
X029277Y005854D02*
X029102Y005737D01*
X029277Y005620D01*
X029401Y005620D02*
X029634Y005620D01*
X029102Y005620D02*
X029102Y005970D01*
X028976Y005912D02*
X028918Y005970D01*
X028801Y005970D01*
X028743Y005912D01*
X028976Y005912D02*
X028976Y005854D01*
X028743Y005620D01*
X028976Y005620D01*
X037326Y006451D02*
X037459Y006451D01*
X037393Y006517D02*
X037393Y006384D01*
X037393Y005631D02*
X037393Y005498D01*
X037567Y003359D02*
X037491Y003282D01*
X037567Y003359D02*
X037721Y003359D01*
X037798Y003282D01*
X037798Y003206D01*
X037491Y002899D01*
X037798Y002899D01*
X037951Y002975D02*
X038258Y003282D01*
X038258Y002975D01*
X038181Y002899D01*
X038028Y002899D01*
X037951Y002975D01*
X037951Y003282D01*
X038028Y003359D01*
X038181Y003359D01*
X038258Y003282D01*
X038412Y003359D02*
X038412Y002899D01*
X038412Y003052D02*
X038642Y002899D01*
X038412Y003052D02*
X038642Y003206D01*
X037493Y007762D02*
X037493Y007795D01*
X037459Y007795D01*
X037459Y007762D01*
X037493Y007762D01*
X036615Y009950D02*
X036522Y009950D01*
X036475Y009997D01*
X036662Y010184D01*
X036662Y009997D01*
X036615Y009950D01*
X036475Y009997D02*
X036475Y010184D01*
X036522Y010230D01*
X036615Y010230D01*
X036662Y010184D01*
X036368Y010230D02*
X036181Y010230D01*
X036181Y010090D01*
X036274Y010137D01*
X036321Y010137D01*
X036368Y010090D01*
X036368Y009997D01*
X036321Y009950D01*
X036227Y009950D01*
X036181Y009997D01*
X036073Y009950D02*
X035886Y009950D01*
X035979Y009950D02*
X035979Y010230D01*
X035886Y010137D01*
X035778Y010184D02*
X035778Y010090D01*
X035732Y010043D01*
X035591Y010043D01*
X035591Y009950D02*
X035591Y010230D01*
X035732Y010230D01*
X035778Y010184D01*
X035685Y010043D02*
X035778Y009950D01*
X035484Y009997D02*
X035484Y010043D01*
X035437Y010090D01*
X035343Y010090D01*
X035297Y010137D01*
X035297Y010184D01*
X035343Y010230D01*
X035437Y010230D01*
X035484Y010184D01*
X035484Y009997D02*
X035437Y009950D01*
X035343Y009950D01*
X035297Y009997D01*
X029873Y011880D02*
X029698Y011997D01*
X029873Y012114D01*
X029698Y012230D02*
X029698Y011880D01*
X029573Y011938D02*
X029514Y011880D01*
X029397Y011880D01*
X029339Y011938D01*
X029573Y012172D01*
X029573Y011938D01*
X029339Y011938D02*
X029339Y012172D01*
X029397Y012230D01*
X029514Y012230D01*
X029573Y012172D01*
X029214Y011880D02*
X028980Y011880D01*
X029097Y011880D02*
X029097Y012230D01*
X028980Y012114D01*
X025230Y012118D02*
X025230Y011998D01*
X025170Y011938D01*
X025050Y011938D01*
X025050Y012118D01*
X025110Y012179D01*
X025170Y012179D01*
X025230Y012118D01*
X025230Y012307D02*
X024870Y012307D01*
X024990Y012427D01*
X024870Y012547D01*
X025230Y012547D01*
X025230Y012675D02*
X024870Y012675D01*
X025050Y012675D02*
X025050Y012915D01*
X024990Y013043D02*
X024990Y013283D01*
X025230Y013043D01*
X025230Y013283D01*
X025230Y012915D02*
X024870Y012915D01*
X024980Y013620D02*
X024740Y013860D01*
X024680Y013860D01*
X024620Y013800D01*
X024620Y013680D01*
X024680Y013620D01*
X024980Y013620D02*
X024980Y013860D01*
X024980Y013988D02*
X024740Y014229D01*
X024680Y014229D01*
X024620Y014168D01*
X024620Y014048D01*
X024680Y013988D01*
X024980Y013988D02*
X024980Y014229D01*
X024980Y014357D02*
X024980Y014537D01*
X024920Y014597D01*
X024800Y014597D01*
X024740Y014537D01*
X024740Y014357D01*
X025100Y014357D01*
X024870Y012179D02*
X024930Y012058D01*
X025050Y011938D01*
X025230Y011810D02*
X025230Y011570D01*
X025230Y011690D02*
X024870Y011690D01*
X024990Y011570D01*
X020530Y013570D02*
X020290Y013810D01*
X020230Y013810D01*
X020170Y013750D01*
X020170Y013630D01*
X020230Y013570D01*
X020530Y013570D02*
X020530Y013810D01*
X020530Y013938D02*
X020290Y014179D01*
X020230Y014179D01*
X020170Y014118D01*
X020170Y013998D01*
X020230Y013938D01*
X020530Y013938D02*
X020530Y014179D01*
X020530Y014307D02*
X020530Y014487D01*
X020470Y014547D01*
X020350Y014547D01*
X020290Y014487D01*
X020290Y014307D01*
X020650Y014307D01*
X018770Y013588D02*
X018712Y013588D01*
X018478Y013822D01*
X018420Y013822D01*
X018420Y013588D01*
X018536Y013464D02*
X018653Y013289D01*
X018770Y013464D01*
X018770Y013289D02*
X018420Y013289D01*
X018420Y013105D02*
X018595Y012930D01*
X018595Y013164D01*
X018770Y013105D02*
X018420Y013105D01*
X026370Y017939D02*
X026830Y017939D01*
X026677Y017939D02*
X026370Y018246D01*
X026370Y018399D02*
X026830Y018399D01*
X026830Y018706D01*
X026600Y018553D02*
X026600Y018399D01*
X026370Y018399D02*
X026370Y018706D01*
X026370Y018860D02*
X026446Y018860D01*
X026600Y019013D01*
X026830Y019013D01*
X026600Y019013D02*
X026446Y019167D01*
X026370Y019167D01*
X026830Y018246D02*
X026600Y018016D01*
X029370Y018226D02*
X029446Y018149D01*
X029523Y018149D01*
X029600Y018226D01*
X029600Y018379D01*
X029677Y018456D01*
X029753Y018456D01*
X029830Y018379D01*
X029830Y018226D01*
X029753Y018149D01*
X029370Y018226D02*
X029370Y018379D01*
X029446Y018456D01*
X029600Y018610D02*
X029600Y018917D01*
X029830Y018840D02*
X029370Y018840D01*
X029600Y018610D01*
X036238Y014017D02*
X036238Y013787D01*
X036698Y013787D01*
X036698Y014017D01*
X036621Y014094D01*
X036314Y014094D01*
X036238Y014017D01*
X036238Y013633D02*
X036698Y013633D01*
X036238Y013326D01*
X036698Y013326D01*
X036621Y013173D02*
X036468Y013173D01*
X036468Y013019D01*
X036621Y012866D02*
X036314Y012866D01*
X036238Y012943D01*
X036238Y013096D01*
X036314Y013173D01*
X036621Y013173D02*
X036698Y013096D01*
X036698Y012943D01*
X036621Y012866D01*
X004330Y016845D02*
X004253Y016768D01*
X004330Y016845D02*
X004330Y016998D01*
X004253Y017075D01*
X004177Y017075D01*
X004100Y016998D01*
X004100Y016845D01*
X004023Y016768D01*
X003946Y016768D01*
X003870Y016845D01*
X003870Y016998D01*
X003946Y017075D01*
X003946Y017228D02*
X004023Y017228D01*
X004100Y017305D01*
X004100Y017459D01*
X004177Y017535D01*
X004253Y017535D01*
X004330Y017459D01*
X004330Y017305D01*
X004253Y017228D01*
X003946Y017228D02*
X003870Y017305D01*
X003870Y017459D01*
X003946Y017535D01*
X003870Y017689D02*
X003870Y017919D01*
X003946Y017996D01*
X004100Y017996D01*
X004177Y017919D01*
X004177Y017689D01*
X004330Y017689D02*
X003870Y017689D01*
X004177Y017842D02*
X004330Y017996D01*
X004100Y018149D02*
X004100Y018456D01*
X004100Y018610D02*
X004100Y018917D01*
X004023Y018917D02*
X004330Y018917D01*
X004023Y018917D02*
X003870Y018763D01*
X004023Y018610D01*
X004330Y018610D01*
X000830Y018610D02*
X000830Y018840D01*
X000753Y018917D01*
X000677Y018917D01*
X000600Y018840D01*
X000600Y018610D01*
X000600Y018456D02*
X000600Y018149D01*
X000600Y017996D02*
X000677Y017919D01*
X000677Y017689D01*
X000830Y017689D02*
X000370Y017689D01*
X000370Y017919D01*
X000446Y017996D01*
X000600Y017996D01*
X000677Y017842D02*
X000830Y017996D01*
X000753Y017535D02*
X000830Y017459D01*
X000830Y017305D01*
X000753Y017228D01*
X000753Y017075D02*
X000830Y016998D01*
X000830Y016845D01*
X000753Y016768D01*
X000600Y016845D02*
X000600Y016998D01*
X000677Y017075D01*
X000753Y017075D01*
X000523Y017228D02*
X000600Y017305D01*
X000600Y017459D01*
X000677Y017535D01*
X000753Y017535D01*
X000446Y017535D02*
X000370Y017459D01*
X000370Y017305D01*
X000446Y017228D01*
X000523Y017228D01*
X000446Y017075D02*
X000370Y016998D01*
X000370Y016845D01*
X000446Y016768D01*
X000523Y016768D01*
X000600Y016845D01*
X000830Y018610D02*
X000370Y018610D01*
X000370Y018840D01*
X000446Y018917D01*
X000523Y018917D01*
X000600Y018840D01*
X001276Y014780D02*
X001199Y014704D01*
X001199Y014627D01*
X001276Y014550D01*
X001429Y014550D01*
X001506Y014473D01*
X001506Y014397D01*
X001429Y014320D01*
X001276Y014320D01*
X001199Y014397D01*
X001506Y014704D02*
X001429Y014780D01*
X001276Y014780D01*
X001660Y014704D02*
X001736Y014780D01*
X001890Y014780D01*
X001967Y014704D01*
X001967Y014627D01*
X001660Y014320D01*
X001967Y014320D01*
X000830Y013912D02*
X000370Y013912D01*
X000370Y014065D02*
X000370Y013758D01*
X000370Y013605D02*
X000753Y013605D01*
X000830Y013528D01*
X000830Y013374D01*
X000753Y013298D01*
X000370Y013298D01*
X000446Y013144D02*
X000370Y013068D01*
X000370Y012837D01*
X000830Y012837D01*
X000830Y012684D02*
X000370Y012684D01*
X000370Y012377D02*
X000830Y012684D01*
X000677Y012837D02*
X000677Y013068D01*
X000600Y013144D01*
X000446Y013144D01*
X000370Y012377D02*
X000830Y012377D01*
X000830Y012223D02*
X000830Y012070D01*
X000830Y012147D02*
X000370Y012147D01*
X000370Y012223D02*
X000370Y012070D01*
X002446Y002917D02*
X002523Y002917D01*
X002600Y002840D01*
X002677Y002917D01*
X002753Y002917D01*
X002830Y002840D01*
X002830Y002686D01*
X002753Y002610D01*
X002753Y002456D02*
X002830Y002379D01*
X002830Y002226D01*
X002753Y002149D01*
X002600Y002226D02*
X002523Y002149D01*
X002446Y002149D01*
X002370Y002226D01*
X002370Y002379D01*
X002446Y002456D01*
X002446Y002610D02*
X002370Y002686D01*
X002370Y002840D01*
X002446Y002917D01*
X002600Y002840D02*
X002600Y002763D01*
X002677Y002456D02*
X002753Y002456D01*
X002677Y002456D02*
X002600Y002379D01*
X002600Y002226D01*
D15*
X010900Y005600D02*
X010900Y005750D01*
X011300Y005750D02*
X011300Y005550D01*
X021450Y011650D02*
X023750Y011650D01*
X023809Y011652D01*
X023867Y011658D01*
X023926Y011667D01*
X023983Y011681D01*
X024039Y011698D01*
X024094Y011719D01*
X024148Y011743D01*
X024200Y011771D01*
X024250Y011802D01*
X024298Y011836D01*
X024343Y011873D01*
X024386Y011914D01*
X024427Y011957D01*
X024464Y012002D01*
X024498Y012050D01*
X024529Y012100D01*
X024557Y012152D01*
X024581Y012206D01*
X024602Y012261D01*
X024619Y012317D01*
X024633Y012374D01*
X024642Y012433D01*
X024648Y012491D01*
X024650Y012550D01*
X024648Y012609D01*
X024642Y012667D01*
X024633Y012726D01*
X024619Y012783D01*
X024602Y012839D01*
X024581Y012894D01*
X024557Y012948D01*
X024529Y013000D01*
X024498Y013050D01*
X024464Y013098D01*
X024427Y013143D01*
X024386Y013186D01*
X024343Y013227D01*
X024298Y013264D01*
X024250Y013298D01*
X024200Y013329D01*
X024148Y013357D01*
X024094Y013381D01*
X024039Y013402D01*
X023983Y013419D01*
X023926Y013433D01*
X023867Y013442D01*
X023809Y013448D01*
X023750Y013450D01*
X021450Y013450D01*
X021391Y013448D01*
X021333Y013442D01*
X021274Y013433D01*
X021217Y013419D01*
X021161Y013402D01*
X021106Y013381D01*
X021052Y013357D01*
X021000Y013329D01*
X020950Y013298D01*
X020902Y013264D01*
X020857Y013227D01*
X020814Y013186D01*
X020773Y013143D01*
X020736Y013098D01*
X020702Y013050D01*
X020671Y013000D01*
X020643Y012948D01*
X020619Y012894D01*
X020598Y012839D01*
X020581Y012783D01*
X020567Y012726D01*
X020558Y012667D01*
X020552Y012609D01*
X020550Y012550D01*
X020552Y012491D01*
X020558Y012433D01*
X020567Y012374D01*
X020581Y012317D01*
X020598Y012261D01*
X020619Y012206D01*
X020643Y012152D01*
X020671Y012100D01*
X020702Y012050D01*
X020736Y012002D01*
X020773Y011957D01*
X020814Y011914D01*
X020857Y011873D01*
X020902Y011836D01*
X020950Y011802D01*
X021000Y011771D01*
X021052Y011743D01*
X021106Y011719D01*
X021161Y011698D01*
X021217Y011681D01*
X021274Y011667D01*
X021333Y011658D01*
X021391Y011652D01*
X021450Y011650D01*
D16*
X011300Y005535D03*
X010900Y005535D03*
D17*
X009275Y005065D02*
X008825Y005065D01*
X008825Y005365D01*
X009050Y005215D02*
X009050Y005065D01*
X009050Y004904D02*
X009200Y004904D01*
X009275Y004829D01*
X009275Y004604D01*
X009425Y004604D02*
X008975Y004604D01*
X008975Y004829D01*
X009050Y004904D01*
X008900Y004444D02*
X009200Y004444D01*
X009275Y004369D01*
X009275Y004219D01*
X009200Y004144D01*
X008900Y004444D01*
X008825Y004369D01*
X008825Y004219D01*
X008900Y004144D01*
X009200Y004144D01*
X009275Y003984D02*
X009275Y003683D01*
X009275Y003834D02*
X008825Y003834D01*
X008975Y003683D01*
X008900Y002725D02*
X008975Y002650D01*
X008975Y002575D01*
X008900Y002500D01*
X008975Y002425D01*
X008975Y002350D01*
X008900Y002275D01*
X008750Y002275D01*
X008675Y002350D01*
X008825Y002500D02*
X008900Y002500D01*
X008900Y002725D02*
X008750Y002725D01*
X008675Y002650D01*
X009135Y002650D02*
X009210Y002725D01*
X009361Y002725D01*
X009436Y002650D01*
X009436Y002575D01*
X009135Y002275D01*
X009436Y002275D01*
X009596Y002275D02*
X009671Y002275D01*
X009671Y002350D01*
X009596Y002350D01*
X009596Y002275D01*
X009826Y002275D02*
X009826Y002350D01*
X010126Y002650D01*
X010126Y002725D01*
X009826Y002725D01*
X010286Y002500D02*
X010512Y002500D01*
X010587Y002425D01*
X010587Y002350D01*
X010512Y002275D01*
X010361Y002275D01*
X010286Y002350D01*
X010286Y002500D01*
X010437Y002650D01*
X010587Y002725D01*
X010747Y002650D02*
X010747Y002575D01*
X010822Y002500D01*
X010972Y002500D01*
X011047Y002425D01*
X011047Y002350D01*
X010972Y002275D01*
X010822Y002275D01*
X010747Y002350D01*
X010747Y002425D01*
X010822Y002500D01*
X010972Y002500D02*
X011047Y002575D01*
X011047Y002650D01*
X010972Y002725D01*
X010822Y002725D01*
X010747Y002650D01*
X011207Y002725D02*
X011207Y002275D01*
X011207Y002425D02*
X011432Y002575D01*
X011591Y002500D02*
X011891Y002500D01*
X012051Y002575D02*
X012351Y002575D01*
X012051Y002275D01*
X012351Y002275D01*
X012512Y002125D02*
X012662Y002275D01*
X012587Y002275D01*
X012587Y002350D01*
X012662Y002350D01*
X012662Y002275D01*
X013279Y002350D02*
X013279Y002500D01*
X013504Y002500D01*
X013579Y002425D01*
X013579Y002350D01*
X013504Y002275D01*
X013354Y002275D01*
X013279Y002350D01*
X013279Y002500D02*
X013429Y002650D01*
X013579Y002725D01*
X013739Y002575D02*
X013965Y002575D01*
X014040Y002500D01*
X014040Y002350D01*
X013965Y002275D01*
X013739Y002275D01*
X013739Y002125D02*
X013739Y002575D01*
X014200Y002500D02*
X014350Y002500D01*
X014200Y002275D02*
X014200Y002725D01*
X014500Y002725D01*
X013154Y003225D02*
X013154Y003675D01*
X013379Y003675D01*
X013454Y003600D01*
X013454Y003450D01*
X013379Y003375D01*
X013154Y003375D01*
X012994Y003450D02*
X012919Y003375D01*
X012769Y003375D01*
X012694Y003450D01*
X012694Y003525D01*
X012769Y003600D01*
X012919Y003600D01*
X012994Y003525D01*
X012994Y003450D01*
X012919Y003600D02*
X012994Y003675D01*
X012994Y003750D01*
X012919Y003825D01*
X012769Y003825D01*
X012694Y003750D01*
X012694Y003675D01*
X012769Y003600D01*
X013615Y003600D02*
X013765Y003600D01*
X013615Y003375D02*
X013615Y003825D01*
X013915Y003825D01*
X011891Y002725D02*
X011891Y002275D01*
X011591Y002275D02*
X011591Y002725D01*
X011432Y002275D02*
X011207Y002425D01*
X013523Y005875D02*
X013823Y005875D01*
X013673Y005875D02*
X013673Y006325D01*
X013523Y006175D01*
X013983Y006250D02*
X013983Y005950D01*
X014284Y006250D01*
X014284Y005950D01*
X014209Y005875D01*
X014058Y005875D01*
X013983Y005950D01*
X013983Y006250D02*
X014058Y006325D01*
X014209Y006325D01*
X014284Y006250D01*
X014444Y006250D02*
X014519Y006325D01*
X014669Y006325D01*
X014744Y006250D01*
X014444Y005950D01*
X014519Y005875D01*
X014669Y005875D01*
X014744Y005950D01*
X014744Y006250D01*
X014904Y006175D02*
X015129Y006175D01*
X015204Y006100D01*
X015204Y005950D01*
X015129Y005875D01*
X014904Y005875D01*
X014904Y005725D02*
X014904Y006175D01*
X014444Y006250D02*
X014444Y005950D01*
X015365Y005875D02*
X015365Y006325D01*
X015665Y006325D01*
X015515Y006100D02*
X015365Y006100D01*
X009856Y007025D02*
X009856Y007250D01*
X009781Y007325D01*
X009556Y007325D01*
X009556Y007025D01*
X009396Y007100D02*
X009321Y007025D01*
X009171Y007025D01*
X009096Y007100D01*
X009396Y007400D01*
X009396Y007100D01*
X009096Y007100D02*
X009096Y007400D01*
X009171Y007475D01*
X009321Y007475D01*
X009396Y007400D01*
X008936Y007400D02*
X008936Y007100D01*
X008861Y007025D01*
X008710Y007025D01*
X008635Y007100D01*
X008936Y007400D01*
X008861Y007475D01*
X008710Y007475D01*
X008635Y007400D01*
X008635Y007100D01*
X008475Y007025D02*
X008175Y007025D01*
X008325Y007025D02*
X008325Y007475D01*
X008175Y007325D01*
X002975Y006665D02*
X002975Y006365D01*
X002675Y006665D01*
X002600Y006665D01*
X002525Y006590D01*
X002525Y006440D01*
X002600Y006365D01*
X002525Y006204D02*
X002825Y006204D01*
X002975Y006054D01*
X002825Y005904D01*
X002525Y005904D01*
X002600Y005744D02*
X002525Y005669D01*
X002525Y005519D01*
X002600Y005444D01*
X002675Y005444D01*
X002750Y005519D01*
X002750Y005669D01*
X002825Y005744D01*
X002900Y005744D01*
X002975Y005669D01*
X002975Y005519D01*
X002900Y005444D01*
X000925Y005423D02*
X000475Y005423D01*
X000625Y005273D01*
X000550Y005113D02*
X000475Y005038D01*
X000475Y004888D01*
X000550Y004813D01*
X000625Y004813D01*
X000700Y004888D01*
X000700Y005038D01*
X000775Y005113D01*
X000850Y005113D01*
X000925Y005038D01*
X000925Y004888D01*
X000850Y004813D01*
X000850Y004653D02*
X000550Y004653D01*
X000475Y004577D01*
X000475Y004352D01*
X000925Y004352D01*
X000925Y004577D01*
X000850Y004653D01*
X000925Y005273D02*
X000925Y005573D01*
X000850Y005733D02*
X000775Y005733D01*
X000700Y005808D01*
X000700Y005959D01*
X000775Y006034D01*
X000850Y006034D01*
X000925Y005959D01*
X000925Y005808D01*
X000850Y005733D01*
X000700Y005808D02*
X000625Y005733D01*
X000550Y005733D01*
X000475Y005808D01*
X000475Y005959D01*
X000550Y006034D01*
X000625Y006034D01*
X000700Y005959D01*
X000700Y006194D02*
X000700Y006419D01*
X000775Y006494D01*
X000850Y006494D01*
X000925Y006419D01*
X000925Y006194D01*
X000475Y006194D01*
X000475Y006419D01*
X000550Y006494D01*
X000625Y006494D01*
X000700Y006419D01*
X000550Y006654D02*
X000475Y006729D01*
X000475Y006879D01*
X000550Y006954D01*
X000625Y006954D01*
X000925Y006654D01*
X000925Y006954D01*
X000850Y007115D02*
X000550Y007115D01*
X000475Y007190D01*
X000475Y007340D01*
X000550Y007415D01*
X000850Y007115D01*
X000925Y007190D01*
X000925Y007340D01*
X000850Y007415D01*
X000550Y007415D01*
X001375Y007765D02*
X001825Y007765D01*
X001825Y007615D02*
X001825Y007915D01*
X001525Y007615D02*
X001375Y007765D01*
X001100Y008300D02*
X001100Y008550D01*
X001100Y008300D02*
X002100Y008300D01*
X002100Y008550D01*
X002100Y011050D02*
X002100Y011300D01*
X001100Y011300D01*
X001100Y011050D01*
X001100Y012050D02*
X001100Y014050D01*
X002100Y014050D01*
X002100Y012050D01*
X001100Y012050D01*
X015875Y011982D02*
X016325Y012282D01*
X015875Y012282D01*
X015875Y012442D02*
X016100Y012442D01*
X016025Y012592D01*
X016025Y012668D01*
X016100Y012743D01*
X016250Y012743D01*
X016325Y012668D01*
X016325Y012517D01*
X016250Y012442D01*
X015875Y012442D02*
X015875Y012743D01*
X015875Y012903D02*
X015875Y013203D01*
X015950Y013203D01*
X016250Y012903D01*
X016325Y012903D01*
X016325Y013363D02*
X016325Y013663D01*
X016325Y013513D02*
X015875Y013513D01*
X016025Y013363D01*
X016025Y013823D02*
X015875Y013974D01*
X016325Y013974D01*
X016325Y014124D02*
X016325Y013823D01*
X016325Y011982D02*
X015875Y011982D01*
X015875Y011825D02*
X015875Y011675D01*
X015875Y011750D02*
X016325Y011750D01*
X016325Y011675D02*
X016325Y011825D01*
X024833Y006475D02*
X024984Y006625D01*
X024984Y006175D01*
X025134Y006175D02*
X024833Y006175D01*
X025294Y006250D02*
X025594Y006550D01*
X025594Y006250D01*
X025519Y006175D01*
X025369Y006175D01*
X025294Y006250D01*
X025294Y006550D01*
X025369Y006625D01*
X025519Y006625D01*
X025594Y006550D01*
X025754Y006550D02*
X025829Y006625D01*
X025979Y006625D01*
X026054Y006550D01*
X025754Y006250D01*
X025829Y006175D01*
X025979Y006175D01*
X026054Y006250D01*
X026054Y006550D01*
X026215Y006475D02*
X026440Y006475D01*
X026515Y006400D01*
X026515Y006175D01*
X026215Y006175D02*
X026215Y006475D01*
X025754Y006550D02*
X025754Y006250D01*
X025634Y005575D02*
X025634Y005125D01*
X025784Y005125D02*
X025483Y005125D01*
X025483Y005425D02*
X025634Y005575D01*
X025944Y005500D02*
X026019Y005575D01*
X026169Y005575D01*
X026244Y005500D01*
X025944Y005200D01*
X026019Y005125D01*
X026169Y005125D01*
X026244Y005200D01*
X026244Y005500D01*
X026404Y005500D02*
X026479Y005575D01*
X026629Y005575D01*
X026704Y005500D01*
X026404Y005200D01*
X026479Y005125D01*
X026629Y005125D01*
X026704Y005200D01*
X026704Y005500D01*
X026865Y005425D02*
X027090Y005425D01*
X027165Y005350D01*
X027165Y005125D01*
X026865Y005125D02*
X026865Y005425D01*
X026404Y005500D02*
X026404Y005200D01*
X025944Y005200D02*
X025944Y005500D01*
X023625Y005315D02*
X023550Y005315D01*
X023250Y005615D01*
X023175Y005615D01*
X023175Y005315D01*
X023250Y005154D02*
X023175Y005079D01*
X023175Y004929D01*
X023250Y004854D01*
X023550Y004854D01*
X023625Y004929D01*
X023625Y005079D01*
X023550Y005154D01*
X022825Y002415D02*
X022825Y002115D01*
X022525Y002415D01*
X022450Y002415D01*
X022375Y002340D01*
X022375Y002190D01*
X022450Y002115D01*
X022450Y001954D02*
X022600Y001954D01*
X022675Y001879D01*
X022675Y001654D01*
X022825Y001654D02*
X022375Y001654D01*
X022375Y001879D01*
X022450Y001954D01*
X022375Y001494D02*
X022375Y001344D01*
X022375Y001419D02*
X022750Y001419D01*
X022825Y001344D01*
X022825Y001269D01*
X022750Y001194D01*
X033772Y004297D02*
X033772Y008431D01*
X034186Y008824D02*
X034540Y008824D01*
X035131Y008824D02*
X037769Y008824D01*
X037788Y008431D02*
X037762Y008429D01*
X037737Y008424D01*
X037713Y008416D01*
X037690Y008405D01*
X037668Y008390D01*
X037649Y008373D01*
X037632Y008354D01*
X037617Y008333D01*
X037606Y008309D01*
X037598Y008285D01*
X037593Y008260D01*
X037591Y008234D01*
X037591Y004691D01*
X037593Y004665D01*
X037598Y004640D01*
X037606Y004616D01*
X037617Y004593D01*
X037632Y004571D01*
X037649Y004552D01*
X037668Y004535D01*
X037690Y004520D01*
X037713Y004509D01*
X037737Y004501D01*
X037762Y004496D01*
X037788Y004494D01*
X037769Y004100D02*
X035406Y004100D01*
X035725Y004200D02*
X035815Y004290D01*
X035725Y004380D01*
X035995Y004380D01*
X035995Y004494D02*
X035995Y004585D01*
X035995Y004539D02*
X035725Y004539D01*
X035725Y004494D02*
X035725Y004585D01*
X035770Y004691D02*
X035950Y004691D01*
X035995Y004736D01*
X035995Y004826D01*
X035950Y004871D01*
X035905Y004986D02*
X035905Y005121D01*
X035860Y005166D01*
X035770Y005166D01*
X035725Y005121D01*
X035725Y004986D01*
X035995Y004986D01*
X035905Y005076D02*
X035995Y005166D01*
X035950Y005280D02*
X035995Y005325D01*
X035995Y005415D01*
X035950Y005460D01*
X035770Y005460D01*
X035725Y005415D01*
X035725Y005325D01*
X035770Y005280D01*
X035950Y005280D01*
X035950Y005575D02*
X035995Y005620D01*
X035995Y005710D01*
X035950Y005755D01*
X035905Y005755D01*
X035860Y005710D01*
X035860Y005620D01*
X035815Y005575D01*
X035770Y005575D01*
X035725Y005620D01*
X035725Y005710D01*
X035770Y005755D01*
X035725Y005869D02*
X035725Y006005D01*
X035770Y006050D01*
X035950Y006050D01*
X035995Y006005D01*
X035995Y005869D01*
X035725Y005869D01*
X035860Y006164D02*
X035860Y006344D01*
X035860Y006459D02*
X035860Y006639D01*
X035905Y006753D02*
X035905Y006889D01*
X035860Y006934D01*
X035770Y006934D01*
X035725Y006889D01*
X035725Y006753D01*
X035995Y006753D01*
X035995Y006639D02*
X035725Y006639D01*
X035725Y006459D02*
X035995Y006459D01*
X035905Y006844D02*
X035995Y006934D01*
X035950Y007048D02*
X035995Y007093D01*
X035995Y007183D01*
X035950Y007228D01*
X035905Y007228D01*
X035860Y007183D01*
X035860Y007093D01*
X035815Y007048D01*
X035770Y007048D01*
X035725Y007093D01*
X035725Y007183D01*
X035770Y007228D01*
X036041Y007343D02*
X036041Y007523D01*
X035995Y007637D02*
X035995Y007773D01*
X035950Y007818D01*
X035770Y007818D01*
X035725Y007773D01*
X035725Y007637D01*
X035995Y007637D01*
X035995Y007932D02*
X035725Y007932D01*
X035815Y008022D01*
X035725Y008112D01*
X035995Y008112D01*
X035950Y008227D02*
X035995Y008272D01*
X035995Y008362D01*
X035950Y008407D01*
X035905Y008407D01*
X035860Y008362D01*
X035860Y008317D01*
X035860Y008362D02*
X035815Y008407D01*
X035770Y008407D01*
X035725Y008362D01*
X035725Y008272D01*
X035770Y008227D01*
X035725Y008521D02*
X035725Y008656D01*
X035770Y008702D01*
X035950Y008702D01*
X035995Y008656D01*
X035995Y008521D01*
X035725Y008521D01*
X035770Y004871D02*
X035725Y004826D01*
X035725Y004736D01*
X035770Y004691D01*
X035725Y004200D02*
X035995Y004200D01*
X034776Y004100D02*
X034717Y004100D01*
X034284Y004100D02*
X033969Y004100D01*
X033943Y004102D01*
X033918Y004107D01*
X033894Y004115D01*
X033871Y004126D01*
X033849Y004141D01*
X033830Y004158D01*
X033813Y004177D01*
X033798Y004199D01*
X033787Y004222D01*
X033779Y004246D01*
X033774Y004271D01*
X033772Y004297D01*
X031165Y013625D02*
X031165Y013850D01*
X031090Y013925D01*
X030865Y013925D01*
X030865Y013625D01*
X030704Y013700D02*
X030629Y013625D01*
X030479Y013625D01*
X030404Y013700D01*
X030704Y014000D01*
X030704Y013700D01*
X030404Y013700D02*
X030404Y014000D01*
X030479Y014075D01*
X030629Y014075D01*
X030704Y014000D01*
X030244Y014000D02*
X029944Y013700D01*
X030019Y013625D01*
X030169Y013625D01*
X030244Y013700D01*
X030244Y014000D01*
X030169Y014075D01*
X030019Y014075D01*
X029944Y014000D01*
X029944Y013700D01*
X029784Y013625D02*
X029483Y013625D01*
X029634Y013625D02*
X029634Y014075D01*
X029483Y013925D01*
X035294Y016025D02*
X035594Y016025D01*
X035444Y016025D02*
X035444Y016475D01*
X035294Y016325D01*
X035754Y016400D02*
X035754Y016100D01*
X036054Y016400D01*
X036054Y016100D01*
X035979Y016025D01*
X035829Y016025D01*
X035754Y016100D01*
X035754Y016400D02*
X035829Y016475D01*
X035979Y016475D01*
X036054Y016400D01*
X036215Y016325D02*
X036215Y016100D01*
X036290Y016025D01*
X036515Y016025D01*
X036515Y016325D01*
X038375Y016360D02*
X038825Y016360D01*
X038825Y016285D02*
X038825Y016436D01*
X038825Y016592D02*
X038375Y016592D01*
X038825Y016893D01*
X038375Y016893D01*
X038375Y016436D02*
X038375Y016285D01*
X038375Y016125D02*
X038675Y016125D01*
X038825Y015975D01*
X038675Y015825D01*
X038375Y015825D01*
X038450Y017325D02*
X038750Y017325D01*
X038825Y017400D01*
X038825Y017550D01*
X038750Y017625D01*
X038600Y017625D01*
X038600Y017475D01*
X038450Y017325D02*
X038375Y017400D01*
X038375Y017550D01*
X038450Y017625D01*
X038375Y017785D02*
X038825Y018086D01*
X038375Y018086D01*
X038375Y018246D02*
X038375Y018471D01*
X038450Y018546D01*
X038750Y018546D01*
X038825Y018471D01*
X038825Y018246D01*
X038375Y018246D01*
X038375Y017785D02*
X038825Y017785D01*
X030825Y017860D02*
X030750Y017785D01*
X030450Y018086D01*
X030750Y018086D01*
X030825Y018011D01*
X030825Y017860D01*
X030750Y017785D02*
X030450Y017785D01*
X030375Y017860D01*
X030375Y018011D01*
X030450Y018086D01*
X030525Y018246D02*
X030750Y018246D01*
X030825Y018321D01*
X030825Y018546D01*
X030525Y018546D01*
X029100Y018050D02*
X027100Y018050D01*
X027100Y019050D01*
X029100Y019050D01*
X029100Y018050D01*
X030375Y017475D02*
X030825Y017475D01*
X030825Y017325D02*
X030825Y017625D01*
X030525Y017325D02*
X030375Y017475D01*
X002100Y003550D02*
X002100Y001550D01*
X001100Y001550D01*
X001100Y003550D01*
X002100Y003550D01*
D18*
X017050Y012400D03*
D19*
X017050Y012025D03*
X017050Y014075D03*
D20*
X018600Y014625D03*
X018600Y012475D03*
X016300Y010375D03*
X016300Y008225D03*
X007100Y009975D03*
X006100Y009975D03*
X006100Y012125D03*
X007100Y012125D03*
D21*
X008800Y008670D02*
X009400Y008670D01*
X009400Y008420D02*
X008800Y008420D01*
X014550Y007430D02*
X015150Y007430D01*
X015150Y007180D02*
X014550Y007180D01*
X012400Y004680D02*
X011800Y004680D01*
X011800Y004430D02*
X012400Y004430D01*
X010400Y004430D02*
X009800Y004430D01*
X009800Y004680D02*
X010400Y004680D01*
X023820Y006050D02*
X023820Y006650D01*
X024070Y006650D02*
X024070Y006050D01*
X024470Y005600D02*
X024470Y005000D01*
X024720Y005000D02*
X024720Y005600D01*
X030470Y012750D02*
X030470Y013350D01*
X030720Y013350D02*
X030720Y012750D01*
X023730Y013900D02*
X023730Y014500D01*
X023480Y014500D02*
X023480Y013900D01*
X021770Y013900D02*
X021770Y014500D01*
X021520Y014500D02*
X021520Y013900D01*
D22*
X028525Y012050D03*
X030675Y012050D03*
X021675Y006050D03*
X021175Y005050D03*
X020675Y004050D03*
X020175Y003050D03*
X018525Y004050D03*
X018025Y003050D03*
X019025Y005050D03*
X019525Y006050D03*
X028025Y005800D03*
X030175Y005800D03*
X031175Y004300D03*
X029025Y004300D03*
D23*
X015165Y016386D02*
X015064Y016285D01*
X014915Y016406D01*
X014855Y016375D01*
X014771Y016579D01*
X014809Y016601D01*
X014841Y016631D01*
X014865Y016668D01*
X014880Y016710D01*
X014884Y016754D01*
X014878Y016798D01*
X014862Y016839D01*
X014836Y016875D01*
X014802Y016903D01*
X014763Y016923D01*
X014720Y016933D01*
X014676Y016933D01*
X014633Y016922D01*
X014594Y016901D01*
X014561Y016872D01*
X014536Y016835D01*
X014521Y016794D01*
X014515Y016750D01*
X014521Y016707D01*
X014536Y016666D01*
X014237Y016666D01*
X014304Y016659D02*
X014325Y016595D01*
X014356Y016535D01*
X014235Y016386D01*
X014336Y016285D01*
X014485Y016406D01*
X014545Y016375D01*
X014629Y016579D01*
X014592Y016601D01*
X014560Y016630D01*
X014536Y016666D01*
X014519Y016723D02*
X014114Y016723D01*
X014114Y016678D02*
X014304Y016659D01*
X014321Y016608D02*
X014584Y016608D01*
X014617Y016550D02*
X014348Y016550D01*
X014321Y016493D02*
X014593Y016493D01*
X014570Y016435D02*
X014274Y016435D01*
X014243Y016378D02*
X014451Y016378D01*
X014539Y016378D02*
X014546Y016378D01*
X014380Y016320D02*
X014301Y016320D01*
X014807Y016493D02*
X015079Y016493D01*
X015044Y016535D02*
X015165Y016386D01*
X015157Y016378D02*
X014949Y016378D01*
X014861Y016378D02*
X014854Y016378D01*
X014830Y016435D02*
X015126Y016435D01*
X015099Y016320D02*
X015020Y016320D01*
X015044Y016535D02*
X015075Y016595D01*
X015096Y016659D01*
X015286Y016678D01*
X015286Y016822D01*
X015096Y016841D01*
X015075Y016905D01*
X015044Y016965D01*
X015165Y017114D01*
X015064Y017215D01*
X014915Y017094D01*
X014855Y017125D01*
X014791Y017146D01*
X014772Y017336D01*
X014628Y017336D01*
X014609Y017146D01*
X014545Y017125D01*
X014485Y017094D01*
X014336Y017215D01*
X014235Y017114D01*
X014356Y016965D01*
X014325Y016905D01*
X014304Y016841D01*
X014114Y016822D01*
X014114Y016678D01*
X014114Y016781D02*
X014519Y016781D01*
X014538Y016838D02*
X014273Y016838D01*
X014322Y016896D02*
X014588Y016896D01*
X014811Y016896D02*
X015078Y016896D01*
X015050Y016953D02*
X014350Y016953D01*
X014318Y017011D02*
X015082Y017011D01*
X015129Y017068D02*
X014271Y017068D01*
X014247Y017126D02*
X014446Y017126D01*
X014375Y017184D02*
X014305Y017184D01*
X014547Y017126D02*
X014853Y017126D01*
X014787Y017184D02*
X014613Y017184D01*
X014618Y017241D02*
X014782Y017241D01*
X014776Y017299D02*
X014624Y017299D01*
X014954Y017126D02*
X015153Y017126D01*
X015095Y017184D02*
X015025Y017184D01*
X015127Y016838D02*
X014862Y016838D01*
X014881Y016781D02*
X015286Y016781D01*
X015286Y016723D02*
X014881Y016723D01*
X014864Y016666D02*
X015163Y016666D01*
X015079Y016608D02*
X014816Y016608D01*
X014783Y016550D02*
X015052Y016550D01*
D24*
X019615Y017315D02*
X019760Y017315D01*
X019808Y017363D01*
X019808Y017412D01*
X019760Y017460D01*
X019615Y017460D01*
X019615Y017315D02*
X019615Y017605D01*
X019760Y017605D01*
X019808Y017557D01*
X019808Y017508D01*
X019760Y017460D01*
X019910Y017315D02*
X020006Y017315D01*
X019958Y017315D02*
X019958Y017605D01*
X019910Y017605D01*
X020106Y017508D02*
X020106Y017363D01*
X020154Y017315D01*
X020300Y017315D01*
X020300Y017508D01*
X020401Y017460D02*
X020449Y017508D01*
X020546Y017508D01*
X020594Y017460D01*
X020594Y017412D01*
X020401Y017412D01*
X020401Y017460D02*
X020401Y017363D01*
X020449Y017315D01*
X020546Y017315D01*
X020744Y017363D02*
X020792Y017315D01*
X020744Y017363D02*
X020744Y017557D01*
X020792Y017508D02*
X020695Y017508D01*
X020892Y017460D02*
X020892Y017363D01*
X020940Y017315D01*
X021037Y017315D01*
X021085Y017363D01*
X021085Y017460D01*
X021037Y017508D01*
X020940Y017508D01*
X020892Y017460D01*
X021186Y017460D02*
X021186Y017363D01*
X021235Y017315D01*
X021332Y017315D01*
X021380Y017363D01*
X021380Y017460D01*
X021332Y017508D01*
X021235Y017508D01*
X021186Y017460D01*
X021481Y017508D02*
X021578Y017508D01*
X021530Y017557D02*
X021530Y017363D01*
X021578Y017315D01*
X021678Y017315D02*
X021678Y017605D01*
X021726Y017508D02*
X021823Y017508D01*
X021871Y017460D01*
X021871Y017315D01*
X021678Y017460D02*
X021726Y017508D01*
X022267Y017508D02*
X022267Y017557D01*
X022315Y017605D01*
X022412Y017605D01*
X022460Y017557D01*
X022412Y017460D02*
X022460Y017412D01*
X022460Y017363D01*
X022412Y017315D01*
X022315Y017315D01*
X022267Y017363D01*
X022315Y017460D02*
X022412Y017460D01*
X022315Y017460D02*
X022267Y017508D01*
X022562Y017460D02*
X022610Y017508D01*
X022707Y017508D01*
X022755Y017460D01*
X022755Y017412D01*
X022562Y017412D01*
X022562Y017460D02*
X022562Y017363D01*
X022610Y017315D01*
X022707Y017315D01*
X022856Y017315D02*
X022856Y017508D01*
X022856Y017412D02*
X022953Y017508D01*
X023001Y017508D01*
X023102Y017508D02*
X023150Y017508D01*
X023150Y017315D01*
X023102Y017315D02*
X023198Y017315D01*
X023298Y017363D02*
X023347Y017412D01*
X023492Y017412D01*
X023492Y017460D02*
X023492Y017315D01*
X023347Y017315D01*
X023298Y017363D01*
X023347Y017508D02*
X023443Y017508D01*
X023492Y017460D01*
X023593Y017315D02*
X023690Y017315D01*
X023641Y017315D02*
X023641Y017605D01*
X023593Y017605D01*
X023150Y017605D02*
X023150Y017654D01*
X021577Y015355D02*
X021626Y015307D01*
X021626Y015210D01*
X021577Y015162D01*
X021432Y015162D01*
X021432Y015065D02*
X021432Y015355D01*
X021577Y015355D01*
X021727Y015258D02*
X021727Y015065D01*
X021727Y015162D02*
X021823Y015258D01*
X021872Y015258D01*
X021972Y015210D02*
X021972Y015113D01*
X022021Y015065D01*
X022117Y015065D01*
X022166Y015113D01*
X022166Y015210D01*
X022117Y015258D01*
X022021Y015258D01*
X021972Y015210D01*
X022267Y015210D02*
X022267Y015113D01*
X022315Y015065D01*
X022460Y015065D01*
X022460Y015017D02*
X022460Y015258D01*
X022315Y015258D01*
X022267Y015210D01*
X022364Y014968D02*
X022412Y014968D01*
X022460Y015017D01*
X022562Y015065D02*
X022562Y015258D01*
X022562Y015162D02*
X022658Y015258D01*
X022707Y015258D01*
X022855Y015258D02*
X022952Y015258D01*
X023001Y015210D01*
X023001Y015065D01*
X022855Y015065D01*
X022807Y015113D01*
X022855Y015162D01*
X023001Y015162D01*
X023102Y015258D02*
X023150Y015258D01*
X023198Y015210D01*
X023247Y015258D01*
X023295Y015210D01*
X023295Y015065D01*
X023198Y015065D02*
X023198Y015210D01*
X023102Y015258D02*
X023102Y015065D01*
X021038Y015065D02*
X020941Y015065D01*
X020989Y015065D02*
X020989Y015355D01*
X020941Y015355D01*
X020840Y015210D02*
X020791Y015258D01*
X020695Y015258D01*
X020695Y015162D02*
X020840Y015162D01*
X020840Y015210D02*
X020840Y015065D01*
X020695Y015065D01*
X020646Y015113D01*
X020695Y015162D01*
X020547Y015065D02*
X020450Y015065D01*
X020498Y015065D02*
X020498Y015258D01*
X020450Y015258D01*
X020349Y015258D02*
X020301Y015258D01*
X020204Y015162D01*
X020204Y015258D02*
X020204Y015065D01*
X020103Y015162D02*
X019910Y015162D01*
X019910Y015210D02*
X019958Y015258D01*
X020055Y015258D01*
X020103Y015210D01*
X020103Y015162D01*
X020055Y015065D02*
X019958Y015065D01*
X019910Y015113D01*
X019910Y015210D01*
X019808Y015162D02*
X019808Y015113D01*
X019760Y015065D01*
X019663Y015065D01*
X019615Y015113D01*
X019663Y015210D02*
X019760Y015210D01*
X019808Y015162D01*
X019808Y015307D02*
X019760Y015355D01*
X019663Y015355D01*
X019615Y015307D01*
X019615Y015258D01*
X019663Y015210D01*
X020498Y015355D02*
X020498Y015404D01*
X030995Y014885D02*
X030995Y014595D01*
X031188Y014595D01*
X031290Y014595D02*
X031290Y014885D01*
X031435Y014885D01*
X031483Y014837D01*
X031483Y014643D01*
X031435Y014595D01*
X031290Y014595D01*
X031584Y014643D02*
X031633Y014595D01*
X031729Y014595D01*
X031778Y014643D01*
X031778Y014837D01*
X031729Y014885D01*
X031633Y014885D01*
X031584Y014837D01*
X031584Y014643D01*
X031879Y014595D02*
X032072Y014788D01*
X032072Y014837D01*
X032024Y014885D01*
X031927Y014885D01*
X031879Y014837D01*
X031879Y014595D02*
X032072Y014595D01*
X033036Y015395D02*
X033230Y015395D01*
X033331Y015395D02*
X033331Y015685D01*
X033476Y015685D01*
X033525Y015637D01*
X033525Y015443D01*
X033476Y015395D01*
X033331Y015395D01*
X033036Y015395D02*
X033036Y015685D01*
X033626Y015637D02*
X033626Y015443D01*
X033674Y015395D01*
X033771Y015395D01*
X033819Y015443D01*
X033819Y015637D01*
X033771Y015685D01*
X033674Y015685D01*
X033626Y015637D01*
X033920Y015588D02*
X034017Y015685D01*
X034017Y015395D01*
X033920Y015395D02*
X034114Y015395D01*
X035953Y015248D02*
X035953Y014878D01*
X035953Y015001D02*
X036138Y015001D01*
X036200Y015063D01*
X036200Y015186D01*
X036138Y015248D01*
X035953Y015248D01*
X036321Y015248D02*
X036321Y014878D01*
X036445Y015001D01*
X036568Y014878D01*
X036568Y015248D01*
X036690Y015248D02*
X036875Y015248D01*
X036937Y015186D01*
X036937Y015063D01*
X036875Y015001D01*
X036690Y015001D01*
X036813Y015001D02*
X036937Y014878D01*
X036690Y014878D02*
X036690Y015248D01*
X037426Y015248D02*
X037550Y015248D01*
X037488Y015248D02*
X037488Y014878D01*
X037426Y014878D02*
X037550Y014878D01*
X037672Y014878D02*
X037672Y015248D01*
X037919Y014878D01*
X037919Y015248D01*
X032155Y012714D02*
X032155Y012569D01*
X032107Y012520D01*
X032010Y012520D01*
X031962Y012569D01*
X031962Y012714D01*
X031962Y012420D02*
X031962Y012372D01*
X032058Y012275D01*
X031962Y012275D02*
X032155Y012275D01*
X032107Y012174D02*
X032155Y012125D01*
X032155Y012029D01*
X032107Y011980D01*
X032010Y012029D02*
X032010Y012125D01*
X032058Y012174D01*
X032107Y012174D01*
X032010Y012029D02*
X031962Y011980D01*
X031913Y011980D01*
X031865Y012029D01*
X031865Y012125D01*
X031913Y012174D01*
X031913Y011584D02*
X032107Y011391D01*
X032155Y011439D01*
X032155Y011536D01*
X032107Y011584D01*
X031913Y011584D01*
X031865Y011536D01*
X031865Y011439D01*
X031913Y011391D01*
X032107Y011391D01*
X032155Y011193D02*
X031865Y011193D01*
X031865Y011096D02*
X031865Y011290D01*
X031865Y010995D02*
X032155Y010995D01*
X031865Y010802D01*
X032155Y010802D01*
X032155Y010702D02*
X032155Y010605D01*
X032155Y010653D02*
X031865Y010653D01*
X031865Y010605D02*
X031865Y010702D01*
X031865Y010504D02*
X032155Y010310D01*
X032155Y010209D02*
X032155Y010016D01*
X031962Y010209D01*
X031913Y010209D01*
X031865Y010161D01*
X031865Y010064D01*
X031913Y010016D01*
X031913Y009915D02*
X031865Y009866D01*
X031865Y009721D01*
X032155Y009721D01*
X032155Y009866D01*
X032107Y009915D01*
X031913Y009915D01*
X031913Y009620D02*
X032010Y009620D01*
X032058Y009572D01*
X032058Y009427D01*
X032155Y009427D02*
X031865Y009427D01*
X031865Y009572D01*
X031913Y009620D01*
X032615Y009863D02*
X032663Y009815D01*
X032760Y009815D01*
X032808Y009863D01*
X032808Y009912D01*
X032760Y009960D01*
X032663Y009960D01*
X032615Y010008D01*
X032615Y010057D01*
X032663Y010105D01*
X032760Y010105D01*
X032808Y010057D01*
X033006Y010105D02*
X033103Y010105D01*
X033055Y010105D02*
X033055Y009863D01*
X033006Y009815D01*
X032958Y009815D01*
X032910Y009863D01*
X033204Y009815D02*
X033398Y010008D01*
X033398Y010057D01*
X033349Y010105D01*
X033253Y010105D01*
X033204Y010057D01*
X033204Y009815D02*
X033398Y009815D01*
X032992Y008855D02*
X033040Y008807D01*
X033040Y008758D01*
X032992Y008710D01*
X033040Y008662D01*
X033040Y008613D01*
X032992Y008565D01*
X032895Y008565D01*
X032847Y008613D01*
X032944Y008710D02*
X032992Y008710D01*
X032992Y008855D02*
X032895Y008855D01*
X032847Y008807D01*
X032746Y008855D02*
X032649Y008855D01*
X032697Y008855D02*
X032697Y008613D01*
X032649Y008565D01*
X032601Y008565D01*
X032552Y008613D01*
X032451Y008613D02*
X032403Y008565D01*
X032306Y008565D01*
X032258Y008613D01*
X032306Y008710D02*
X032403Y008710D01*
X032451Y008662D01*
X032451Y008613D01*
X032306Y008710D02*
X032258Y008758D01*
X032258Y008807D01*
X032306Y008855D01*
X032403Y008855D01*
X032451Y008807D01*
X032610Y007321D02*
X032755Y007321D01*
X032610Y007321D02*
X032562Y007273D01*
X032562Y007176D01*
X032610Y007128D01*
X032562Y007027D02*
X032562Y006882D01*
X032610Y006833D01*
X032707Y006833D01*
X032755Y006882D01*
X032755Y007027D01*
X032755Y007128D02*
X032465Y007128D01*
X032562Y006733D02*
X032562Y006637D01*
X032513Y006685D02*
X032707Y006685D01*
X032755Y006733D01*
X032755Y006537D02*
X032755Y006440D01*
X032755Y006489D02*
X032562Y006489D01*
X032562Y006440D01*
X032562Y006339D02*
X032707Y006339D01*
X032755Y006291D01*
X032707Y006242D01*
X032755Y006194D01*
X032707Y006146D01*
X032562Y006146D01*
X032513Y006045D02*
X032465Y005996D01*
X032465Y005899D01*
X032513Y005851D01*
X032562Y005851D01*
X032610Y005899D01*
X032610Y005996D01*
X032658Y006045D01*
X032707Y006045D01*
X032755Y005996D01*
X032755Y005899D01*
X032707Y005851D01*
X032755Y005455D02*
X032755Y005310D01*
X032707Y005262D01*
X032610Y005262D01*
X032562Y005310D01*
X032562Y005455D01*
X032465Y005455D02*
X032755Y005455D01*
X032562Y005161D02*
X032562Y005113D01*
X032658Y005016D01*
X032562Y005016D02*
X032755Y005016D01*
X032755Y004915D02*
X032755Y004770D01*
X032707Y004722D01*
X032658Y004770D01*
X032658Y004915D01*
X032610Y004915D02*
X032755Y004915D01*
X032610Y004915D02*
X032562Y004867D01*
X032562Y004770D01*
X032513Y004620D02*
X032465Y004572D01*
X032465Y004475D01*
X032513Y004427D01*
X032707Y004427D01*
X032755Y004475D01*
X032755Y004572D01*
X032707Y004620D01*
X032707Y004031D02*
X032513Y004031D01*
X032465Y003983D01*
X032465Y003838D01*
X032755Y003838D01*
X032755Y003983D01*
X032707Y004031D01*
X032707Y003736D02*
X032755Y003688D01*
X032755Y003591D01*
X032707Y003543D01*
X032610Y003591D02*
X032610Y003688D01*
X032658Y003736D01*
X032707Y003736D01*
X032610Y003591D02*
X032562Y003543D01*
X032513Y003543D01*
X032465Y003591D01*
X032465Y003688D01*
X032513Y003736D01*
X032465Y006489D02*
X032416Y006489D01*
X034873Y018798D02*
X034921Y018798D01*
X034969Y018847D01*
X034969Y019088D01*
X035071Y019088D02*
X035216Y019088D01*
X035264Y019040D01*
X035264Y018943D01*
X035216Y018895D01*
X035071Y018895D01*
X035071Y018798D02*
X035071Y019088D01*
X034969Y018895D02*
X034824Y018895D01*
X034776Y018943D01*
X034776Y019088D01*
X034675Y019088D02*
X034626Y019040D01*
X034481Y019040D01*
X034481Y018895D02*
X034626Y018895D01*
X034675Y018943D01*
X034675Y018992D01*
X034626Y019040D01*
X034675Y019088D02*
X034675Y019137D01*
X034626Y019185D01*
X034481Y019185D01*
X034481Y018895D01*
X034121Y018995D02*
X033928Y018995D01*
X034025Y018995D02*
X034025Y019285D01*
X033928Y019188D01*
X033827Y019285D02*
X033730Y019285D01*
X033778Y019285D02*
X033778Y019043D01*
X033730Y018995D01*
X033682Y018995D01*
X033633Y019043D01*
X033532Y019043D02*
X033484Y018995D01*
X033387Y018995D01*
X033339Y019043D01*
X033387Y019140D02*
X033484Y019140D01*
X033532Y019092D01*
X033532Y019043D01*
X033387Y019140D02*
X033339Y019188D01*
X033339Y019237D01*
X033387Y019285D01*
X033484Y019285D01*
X033532Y019237D01*
X035365Y018943D02*
X035414Y018992D01*
X035559Y018992D01*
X035559Y019040D02*
X035559Y018895D01*
X035414Y018895D01*
X035365Y018943D01*
X035414Y019088D02*
X035510Y019088D01*
X035559Y019040D01*
X035660Y019040D02*
X035708Y019088D01*
X035853Y019088D01*
X035805Y018992D02*
X035708Y018992D01*
X035660Y019040D01*
X035660Y018895D02*
X035805Y018895D01*
X035853Y018943D01*
X035805Y018992D01*
X035955Y019040D02*
X036003Y019088D01*
X036148Y019088D01*
X036100Y018992D02*
X036003Y018992D01*
X035955Y019040D01*
X035955Y018895D02*
X036100Y018895D01*
X036148Y018943D01*
X036100Y018992D01*
X036544Y018895D02*
X036544Y019185D01*
X036544Y018895D02*
X036737Y018895D01*
X036839Y018895D02*
X036984Y018895D01*
X037032Y018943D01*
X037032Y019137D01*
X036984Y019185D01*
X036839Y019185D01*
X036839Y018895D01*
X037133Y018943D02*
X037133Y019137D01*
X037182Y019185D01*
X037278Y019185D01*
X037327Y019137D01*
X037327Y018943D01*
X037278Y018895D01*
X037182Y018895D01*
X037133Y018943D01*
X037428Y018895D02*
X037573Y018895D01*
X037621Y018943D01*
X037573Y018992D01*
X037476Y018992D01*
X037428Y019040D01*
X037476Y019088D01*
X037621Y019088D01*
X000835Y003762D02*
X000465Y003762D01*
X000465Y003639D02*
X000465Y003886D01*
X000465Y003517D02*
X000835Y003517D01*
X000650Y003517D02*
X000650Y003270D01*
X000650Y003149D02*
X000650Y003026D01*
X000650Y003149D02*
X000773Y003149D01*
X000835Y003087D01*
X000835Y002964D01*
X000773Y002902D01*
X000526Y002902D01*
X000465Y002964D01*
X000465Y003087D01*
X000526Y003149D01*
X000465Y003270D02*
X000835Y003270D01*
X000835Y002780D02*
X000835Y002657D01*
X000835Y002718D02*
X000465Y002718D01*
X000465Y002657D02*
X000465Y002780D01*
X000835Y002535D02*
X000835Y002288D01*
X000465Y002288D01*
X000465Y002167D02*
X000712Y001920D01*
X000650Y001982D02*
X000835Y002167D01*
X000835Y001920D02*
X000465Y001920D01*
X000526Y001799D02*
X000465Y001737D01*
X000465Y001613D01*
X000526Y001552D01*
X000773Y001552D01*
X000835Y001613D01*
X000835Y001737D01*
X000773Y001799D01*
X000835Y001430D02*
X000588Y001430D01*
X000465Y001307D01*
X000588Y001183D01*
X000835Y001183D01*
X000773Y001062D02*
X000835Y001000D01*
X000835Y000815D01*
X000465Y000815D01*
X000465Y001000D01*
X000526Y001062D01*
X000588Y001062D01*
X000650Y001000D01*
X000650Y000815D01*
X000650Y001000D02*
X000712Y001062D01*
X000773Y001062D01*
X000650Y001183D02*
X000650Y001430D01*
D25*
X035194Y011707D02*
X035588Y011707D01*
X035194Y011707D02*
X035194Y012731D01*
X035194Y014306D02*
X035194Y015290D01*
X035588Y015290D01*
D26*
X035492Y001387D03*
D27*
X025412Y016810D02*
X025302Y016810D01*
X025302Y017030D01*
X025412Y017030D01*
X025449Y016993D01*
X025449Y016847D01*
X025412Y016810D01*
X025228Y016810D02*
X025228Y017030D01*
X025081Y017030D02*
X025228Y016810D01*
X025081Y016810D02*
X025081Y017030D01*
X025007Y016993D02*
X024970Y017030D01*
X024897Y017030D01*
X024860Y016993D01*
X024860Y016847D01*
X024897Y016810D01*
X024970Y016810D01*
X025007Y016847D01*
X025007Y016920D01*
X024933Y016920D01*
X024449Y016883D02*
X024449Y016847D01*
X024412Y016810D01*
X024339Y016810D01*
X024302Y016847D01*
X024339Y016920D02*
X024412Y016920D01*
X024449Y016883D01*
X024449Y016993D02*
X024412Y017030D01*
X024339Y017030D01*
X024302Y016993D01*
X024302Y016957D01*
X024339Y016920D01*
X024228Y017030D02*
X024081Y017030D01*
X024154Y017030D02*
X024154Y016810D01*
X024007Y016847D02*
X023970Y016810D01*
X023897Y016810D01*
X023860Y016847D01*
X023860Y016993D01*
X023897Y017030D01*
X023970Y017030D01*
X024007Y016993D01*
X023449Y016993D02*
X023412Y017030D01*
X023339Y017030D01*
X023302Y016993D01*
X023302Y016847D01*
X023339Y016810D01*
X023412Y016810D01*
X023449Y016847D01*
X023228Y016847D02*
X023191Y016810D01*
X023118Y016810D01*
X023081Y016847D01*
X023081Y016993D01*
X023118Y017030D01*
X023191Y017030D01*
X023228Y016993D01*
X023007Y017030D02*
X023007Y016883D01*
X022933Y016810D01*
X022860Y016883D01*
X022860Y017030D01*
X022449Y016993D02*
X022449Y016847D01*
X022412Y016810D01*
X022339Y016810D01*
X022302Y016847D01*
X022302Y016993D01*
X022339Y017030D01*
X022412Y017030D01*
X022449Y016993D01*
X022228Y017030D02*
X022081Y016810D01*
X022228Y016810D02*
X022081Y017030D01*
X022007Y017030D02*
X021860Y017030D01*
X021933Y017030D02*
X021933Y016810D01*
X021375Y016810D02*
X021302Y016810D01*
X021339Y016810D02*
X021339Y017030D01*
X021375Y017030D02*
X021302Y017030D01*
X021228Y017030D02*
X021081Y016810D01*
X021007Y016810D02*
X020933Y016883D01*
X020970Y016883D02*
X020860Y016883D01*
X020860Y016810D02*
X020860Y017030D01*
X020970Y017030D01*
X021007Y016993D01*
X021007Y016920D01*
X020970Y016883D01*
X021081Y017030D02*
X021228Y016810D01*
X020449Y016810D02*
X020375Y016883D01*
X020412Y016883D02*
X020302Y016883D01*
X020302Y016810D02*
X020302Y017030D01*
X020412Y017030D01*
X020449Y016993D01*
X020449Y016920D01*
X020412Y016883D01*
X020228Y017030D02*
X020081Y017030D01*
X020154Y017030D02*
X020154Y016810D01*
X020007Y016847D02*
X020007Y016993D01*
X019970Y017030D01*
X019860Y017030D01*
X019860Y016810D01*
X019970Y016810D01*
X020007Y016847D01*
X020697Y019070D02*
X020697Y019290D01*
X020807Y019290D01*
X020844Y019253D01*
X020844Y019180D01*
X020807Y019143D01*
X020697Y019143D01*
X020770Y019143D02*
X020844Y019070D01*
X020918Y019070D02*
X021065Y019290D01*
X021139Y019290D02*
X021249Y019290D01*
X021286Y019253D01*
X021286Y019107D01*
X021249Y019070D01*
X021139Y019070D01*
X021139Y019290D01*
X020918Y019290D02*
X021065Y019070D01*
X021697Y019290D02*
X021844Y019290D01*
X021770Y019290D02*
X021770Y019070D01*
X021918Y019070D02*
X022065Y019290D01*
X022139Y019290D02*
X022249Y019290D01*
X022286Y019253D01*
X022286Y019107D01*
X022249Y019070D01*
X022139Y019070D01*
X022139Y019290D01*
X021918Y019290D02*
X022065Y019070D01*
X022697Y019107D02*
X022734Y019070D01*
X022807Y019070D01*
X022844Y019107D01*
X022844Y019180D01*
X022770Y019180D01*
X022697Y019253D02*
X022697Y019107D01*
X022697Y019253D02*
X022734Y019290D01*
X022807Y019290D01*
X022844Y019253D01*
X022918Y019290D02*
X023065Y019070D01*
X023065Y019290D01*
X023139Y019290D02*
X023249Y019290D01*
X023286Y019253D01*
X023286Y019107D01*
X023249Y019070D01*
X023139Y019070D01*
X023139Y019290D01*
X022918Y019290D02*
X022918Y019070D01*
X023697Y019143D02*
X023770Y019070D01*
X023844Y019143D01*
X023844Y019290D01*
X023918Y019253D02*
X023955Y019290D01*
X024028Y019290D01*
X024065Y019253D01*
X024139Y019253D02*
X024176Y019290D01*
X024249Y019290D01*
X024286Y019253D01*
X024286Y019107D02*
X024249Y019070D01*
X024176Y019070D01*
X024139Y019107D01*
X024139Y019253D01*
X024065Y019107D02*
X024028Y019070D01*
X023955Y019070D01*
X023918Y019107D01*
X023918Y019253D01*
X023697Y019290D02*
X023697Y019143D01*
X024918Y019180D02*
X024991Y019180D01*
X024918Y019070D02*
X025065Y019070D01*
X025139Y019070D02*
X025139Y019290D01*
X025286Y019070D01*
X025286Y019290D01*
X025065Y019290D02*
X024918Y019290D01*
X024918Y019070D01*
M02*
